<svg width="369" height="227" viewBox="0 0 369 227" fill="none" xmlns="http://www.w3.org/2000/svg">
<g clip-path="url(#clip0)">
<path d="M346.832 202.321H250.213C246.789 202.321 243.987 199.525 243.987 196.108V12.9531C243.987 9.5362 246.789 6.74057 250.213 6.74057H346.832C350.256 6.74057 353.058 9.5362 353.058 12.9531V196.108C353.058 199.525 350.256 202.321 346.832 202.321Z" fill="#EE7D9F"/>
<path d="M-6.4812 196.201H367.585" stroke="black" stroke-width="2" stroke-miterlimit="10" stroke-linecap="round"/>
<path d="M240.335 32.9522C240.314 31.047 239.993 29.1729 239.277 27.6457C238.965 26.983 238.509 26.5947 238 26.4187C237.871 25.989 237.668 25.5748 237.383 25.2021C236.387 23.913 234.841 23.447 233.269 23.7887C232.589 23.9337 231.904 24.5135 231.562 25.0985C231.204 25.7094 231.053 26.6102 231.276 27.2936C231.499 27.9718 231.909 28.4999 232.433 28.8519C232.433 28.8571 232.433 28.8623 232.439 28.8623C232.62 29.5249 233.134 30.2394 233.751 30.5655C234.145 30.7726 234.571 30.8813 235.001 30.9072C235.204 31.9219 235.053 33.2266 235.027 34.1377C234.991 35.4838 234.732 36.69 234.244 37.9429C233.995 38.5797 234.016 39.144 234.203 39.6099C233.071 42.4366 237.31 44.7974 238.815 41.9396C240.081 39.5323 240.74 36.923 240.677 34.205C240.662 33.7132 240.537 33.2939 240.335 32.9522Z" fill="white"/>
<path d="M336.056 196.098H226.986V6.73021C226.986 3.31333 229.787 0.5177 233.212 0.5177H329.831C333.255 0.5177 336.056 3.31333 336.056 6.73021V196.098Z" stroke="black" stroke-width="2" stroke-miterlimit="10" stroke-linecap="round"/>
<path d="M239.785 65.5575C240.153 64.636 240.024 63.5281 239.235 62.6325C239.92 61.8248 240.19 60.6807 239.557 59.4796C237.502 55.6175 234.441 52.6303 231.069 49.9797C230.343 48.5663 229.523 47.2047 228.579 45.8949C228.522 45.8121 228.459 45.7344 228.392 45.662C228.371 43.3064 228.216 40.9405 228.205 38.5901C229.367 38.6263 230.524 38.0258 230.913 36.5762C231.681 33.7236 231.754 30.9124 231.328 28.0029C231.105 26.4808 229.17 25.6421 227.816 26.0149C227.168 26.1909 226.69 26.543 226.358 26.9985C225.258 27.0348 224.174 27.6353 223.738 28.9658C221.777 34.9506 223.204 41.044 222.815 47.1219C222.151 48.0486 221.938 49.3739 222.555 50.456C222.592 50.7148 222.669 50.9581 222.768 51.1859C222.384 51.89 222.296 52.7701 222.685 53.6658C220.812 54.0074 219.157 55.835 220.589 57.7505C221.03 58.3458 221.481 58.9257 221.943 59.5003C221.585 60.4011 221.689 61.4728 222.581 62.4099L224.298 64.2115C224.304 64.7706 224.304 65.3297 224.293 65.8889C223.432 66.5049 222.835 67.53 223.007 68.8191C223.022 68.933 223.033 69.0521 223.048 69.166C221.108 71.9927 219.167 74.8142 217.227 77.6409C216.091 79.2924 218.789 80.8507 219.914 79.2095C221.087 77.5063 222.254 75.803 223.427 74.0997C223.437 74.4155 223.442 74.7313 223.448 75.0523C223.437 75.1248 223.427 75.1973 223.411 75.2698C223.328 75.7357 223.354 76.1654 223.453 76.5537C223.427 80.2191 223.136 83.8896 222.846 87.5291C222.353 93.7054 221.85 99.8868 221.352 106.063C221.134 108.786 225.538 110.075 226.669 107.502C228.449 103.449 229.492 99.3743 229.808 94.9582C229.902 93.664 229.243 92.8305 228.345 92.4525C228.869 86.794 229.264 81.1095 229.129 75.4717C229.492 73.1679 229.746 70.8589 229.876 68.5447C229.969 68.5344 230.063 68.5188 230.151 68.5033C234.566 71.4853 239.349 73.4681 240.294 68.9071C240.511 67.8355 240.268 66.6861 239.785 65.5575Z" fill="white"/>
<path d="M303.662 100.638C303.418 100.487 303.169 100.337 302.92 100.192C302.883 100.001 302.795 99.8144 302.64 99.6591C302.11 99.131 301.566 98.6081 300.995 98.1266C300.969 97.8988 300.886 97.6555 300.704 97.5054C300.367 97.2258 300.025 96.9463 299.687 96.6719C300.232 96.6874 300.777 96.734 301.311 96.8324C301.457 96.8582 301.607 96.8582 301.752 96.8324C302.816 97.231 303.682 95.6054 302.608 94.9531C301 93.9746 299.008 93.8918 297.145 94.0367C295.309 93.8504 293.472 93.9436 291.677 94.3059C291.563 94.2645 291.443 94.2335 291.314 94.2231C290.551 94.1662 289.794 94.0937 289.031 94.0005C288.943 93.9901 288.855 93.9798 288.761 93.9694C288.709 93.9643 288.388 93.9228 288.637 93.9539C288.46 93.9332 288.279 93.9021 288.102 93.8762C287.718 93.8193 287.334 93.7572 286.951 93.6899C286.613 93.6329 286.24 93.7054 285.986 93.9177C285.674 93.8555 285.368 93.8038 285.057 93.7468C284.943 93.4621 284.714 93.2239 284.388 93.1411C283.08 92.8046 281.742 92.5871 280.398 92.4733C280.102 92.0384 279.651 91.6812 278.997 91.4948C275.246 90.449 271.474 89.5068 267.677 88.6526C264.014 87.3738 260.382 86.2556 256.875 84.3866C256.87 84.3815 256.864 84.3815 256.859 84.3815C256.351 82.8853 255.204 81.4875 254.343 80.2294C254.597 79.7376 254.691 79.1474 254.519 78.464C253.726 75.2853 252.429 72.4483 250.945 69.5439C249.575 66.857 248.906 63.8905 247.147 61.4003C246.976 61.1518 246.779 60.9551 246.566 60.7894C245.637 59.0448 244.574 57.3829 243.318 55.8505C242.981 55.4363 242.597 55.1826 242.208 55.0636C241.943 54.7892 241.663 54.5251 241.373 54.2818C240.916 53.5933 240.449 52.9099 239.915 52.2835C239.085 51.3153 237.922 50.6268 236.89 49.8917C235.749 49.0788 234 49.6897 233.341 50.8184C232.579 52.1178 233.129 53.5467 234.27 54.3595C234.353 54.4164 234.436 54.4786 234.529 54.5407C234.498 55.3535 234.856 56.1766 235.78 56.7151C235.92 56.7979 236.05 56.8756 236.184 56.9532C236.216 57.0102 236.262 57.0516 236.293 57.1033C235.998 57.4813 235.801 57.9679 235.764 58.5581C235.443 63.5488 236.994 68.2341 237.845 73.0695C237.611 73.3232 237.419 73.6338 237.284 74.0117C236.361 76.5848 235.37 79.1319 234.28 81.6428C233.725 82.9267 233.902 84.4177 235.209 85.1839C236.304 85.8259 238.197 85.5463 238.758 84.2572C239.053 83.5738 239.339 82.8853 239.629 82.1967C239.863 82.4504 240.138 82.6627 240.459 82.8439C240.766 83.4806 241.077 84.1122 241.399 84.7387C241.144 85.3651 241.144 86.1106 241.559 86.8768C242.965 89.4809 244.61 92.525 246.753 94.9117C246.784 94.9583 246.81 95.0049 246.841 95.0463C247.401 95.7969 247.956 96.4234 248.693 96.9929C248.916 97.1637 249.134 97.3087 249.357 97.4484C250.727 99.9386 253.985 100.073 256.771 100.322C261.217 100.72 265.638 101.269 270.048 101.963C270.255 101.994 270.452 102.004 270.644 101.994C274.286 102.755 277.959 103.376 281.529 104.07C282.141 104.189 282.691 104.106 283.153 103.894C285.845 104.225 288.227 103.718 290.795 102.947C290.816 102.962 290.836 102.983 290.857 102.998C291.879 103.661 292.99 104.184 294.147 104.567C294.318 104.624 294.499 104.619 294.671 104.572C294.795 104.707 294.914 104.847 295.039 104.986C295.044 104.991 295.044 104.991 295.049 104.997C295.054 105.002 295.054 105.007 295.06 105.012C295.112 105.079 295.158 105.147 295.205 105.219C295.283 105.333 295.361 105.452 295.438 105.571C295.454 105.597 295.464 105.623 295.48 105.649C295.511 105.908 295.636 106.141 295.833 106.306C295.843 106.332 295.864 106.358 295.874 106.384C295.993 106.643 296.248 106.798 296.528 106.855C296.606 107.031 296.756 107.171 296.969 107.228C297.384 107.332 297.789 107.042 297.934 106.664C298.079 106.296 298.012 105.903 297.872 105.54C297.405 104.329 296.818 103.148 296.175 102.015C296.185 102.009 296.196 102.009 296.206 102.004C296.3 101.978 296.388 101.932 296.466 101.885C297.161 102.03 297.851 102.206 298.505 102.481C299.589 102.936 300.554 103.749 301.804 103.635C302.474 103.573 302.831 103.123 302.816 102.512C303.262 102.662 303.796 102.46 304.04 102.051C304.326 101.559 304.139 100.933 303.662 100.638Z" fill="white"/>
<path d="M253.902 135.552C252.921 134.107 251.661 132.943 250.255 131.959C248.776 130.52 246.914 129.702 244.895 129.018C241.871 126.865 238.727 124.934 235.453 123.225C235.334 122.858 235.074 122.521 234.612 122.288C232.501 121.227 230.182 120.642 227.987 119.772C227.935 119.751 227.883 119.731 227.826 119.705C226.239 119.063 224.729 118.25 223.126 117.722C222.358 116.754 220.911 116.138 219.676 116.422C218.851 116.138 218.036 115.941 217.222 115.827C216.952 115.661 216.656 115.542 216.324 115.475C215.956 115.403 215.593 115.32 215.23 115.211C215.048 115.154 214.872 115.097 214.695 115.03C214.669 115.019 214.654 115.014 214.633 115.004C214.493 114.926 214.036 114.683 213.979 114.647C213.658 114.455 213.346 114.243 213.045 114.025C212.506 113.632 211.831 113.492 211.157 113.554C210.944 113.425 210.716 113.311 210.462 113.228C210.446 113.218 210.43 113.207 210.41 113.197C210.181 112.943 209.912 112.716 209.59 112.54C209.289 112.374 208.999 112.188 208.713 111.996C208.438 111.758 208.168 111.515 207.919 111.251C207.167 110.448 205.964 110.137 204.874 110.334C203.312 109.428 201.73 108.553 200.132 107.715C198.456 106.834 196.755 105.991 195.037 105.183C193.668 104.541 192.049 104.07 191.073 102.874C189.948 101.492 188.479 101.487 187.338 102.196C187.141 102.072 186.923 102.004 186.705 101.968C185.776 101.145 184.09 101.202 183.779 102.745C183.499 104.137 183.187 105.52 182.835 106.886C182.337 107.161 181.942 107.647 181.87 108.351C181.678 110.169 181.216 111.929 180.573 113.632C180.111 114.683 179.608 115.718 179.032 116.723C178.736 117.235 178.726 117.945 178.995 118.498C178.612 118.695 178.29 119.037 178.124 119.555C176.894 123.427 175.535 127.253 174.051 131.027C173.864 131.172 173.704 131.369 173.569 131.628C172.822 133.077 172.106 134.537 171.395 136.002C171.161 136.142 170.954 136.349 170.783 136.639C169.034 139.657 167.286 142.681 165.693 145.787C165.413 145.927 165.153 146.16 164.956 146.512C164.692 146.988 164.443 147.47 164.188 147.951C164.007 148.132 163.851 148.355 163.742 148.629C163.654 148.852 163.556 149.074 163.467 149.302C162.238 151.673 161.117 154.075 160.09 156.54C159.747 156.731 159.452 157.042 159.275 157.482C158.985 158.186 158.684 158.89 158.393 159.594C158.155 159.724 157.942 159.91 157.776 160.164C157.159 161.122 156.764 162.079 156.515 163.177C155.618 165.305 154.699 167.427 153.75 169.534C153.698 169.602 153.646 169.669 153.599 169.731C153.599 169.731 153.599 169.731 153.594 169.731C153.594 169.736 153.589 169.741 153.589 169.747C152.956 170.606 152.583 171.408 152.391 172.392C152.1 173.044 151.815 173.702 151.529 174.359C151.457 174.509 151.389 174.66 151.317 174.81C150.793 175.322 150.471 175.938 150.227 176.591C150.097 176.72 149.983 176.87 149.885 177.062C147.545 181.788 145.438 186.614 143.566 191.537C143.431 191.666 143.306 191.817 143.202 192.013C142.658 193.064 141.542 194.576 141.252 195.979C140.297 196.735 139.872 198.397 141.272 199.023C146.466 201.337 151.924 203.47 156.245 207.27C156.277 207.301 156.313 207.322 156.344 207.348C156.448 207.607 156.588 207.85 156.785 208.062C157.449 208.787 158.445 208.849 159.348 208.647C160.121 208.471 160.681 207.669 160.681 206.882C161.122 206.343 161.418 205.712 161.496 205.028C161.714 204.889 161.916 204.702 162.077 204.443C164.718 200.219 167.364 195.994 170.004 191.775C170.362 191.206 170.347 190.652 170.129 190.196C170.554 189.596 170.969 189.016 171.384 188.493C173.294 186.085 175.369 183.725 176.977 181.1C180.22 175.809 183.073 169.814 184.702 163.814C186.43 160.5 188.121 157.171 189.782 153.827C192.988 147.366 196.059 140.838 199.022 134.263C199.094 134.32 199.172 134.377 199.266 134.423C206.545 138.234 213.974 141.718 221.538 144.922C224.376 146.636 227.261 148.655 230.55 149.287C230.815 149.338 231.064 149.333 231.292 149.287C231.925 149.634 232.553 150.001 233.175 150.369C233.087 151.943 233.004 153.511 232.916 155.085C232.267 155.302 231.738 155.846 231.712 156.726C231.614 160.48 231.245 164.207 230.545 167.893C230.389 168.08 230.27 168.318 230.197 168.608C228.895 173.831 227.396 178.998 225.71 184.103C225.621 184.211 225.533 184.336 225.461 184.486C223.93 187.675 222.457 190.874 221.627 194.333C221.3 195.704 221.04 197.087 220.75 198.464C220.47 198.557 220.231 198.769 220.132 199.142C219.463 201.601 218.674 204.029 217.782 206.421C217.46 207.275 218.576 208.052 219.307 207.591C219.437 207.508 219.572 207.425 219.702 207.343C220.309 207.612 221.014 207.576 221.528 207.058C222.379 207.363 223.432 207.244 224.33 207.203C229.528 206.985 235.064 207.213 240.122 205.826C242.493 205.173 243.178 204.842 243.863 202.533C244.672 199.789 245.451 197.04 246.203 194.281C247.702 188.762 249.072 183.212 250.333 177.636C250.353 177.543 250.359 177.45 250.369 177.362C250.966 176.648 250.966 175.493 250.359 174.841C250.473 174.054 250.981 172.49 251.059 172.138C251.329 170.88 251.619 169.622 251.91 168.369C252.423 166.174 252.968 163.984 253.482 161.784C254.566 157.109 255.521 152.383 255.842 147.589C256.123 143.561 256.257 139.031 253.902 135.552Z" fill="black"/>
<path d="M237.155 26.222C238.711 27.1124 239.526 28.7536 239.889 30.4517C240.319 32.4656 240.283 34.6814 240.195 36.7315C240.112 38.8023 239.494 40.5936 238.363 42.3227C237.834 43.1304 237.274 44.0053 236.579 44.6835C235.863 45.3824 234.913 45.429 233.969 45.3617C232.288 45.2426 230.021 44.9941 228.947 43.5135C228.366 42.711 227.017 43.4876 227.603 44.2952C228.817 45.9726 230.773 46.5162 232.74 46.775C233.839 46.92 235.007 47.065 236.091 46.7336C237.186 46.3971 237.886 45.6102 238.555 44.7249C239.977 42.8508 241.233 40.8421 241.591 38.4762C241.777 37.2181 241.782 35.9549 241.767 34.6865C241.751 33.4492 241.725 32.2119 241.554 30.9797C241.217 28.5517 240.153 26.1392 237.943 24.8708C237.066 24.3841 236.283 25.725 237.155 26.222Z" fill="black"/>
<path d="M236.641 24.3841C235.583 24.3996 234.519 24.41 233.461 24.4255C232.952 24.4307 232.449 24.441 231.94 24.4462C231.442 24.4514 230.918 24.4152 230.426 24.5135C229.253 24.7465 229.269 25.9527 229.175 26.9002C229.077 27.9511 228.973 29.0021 228.874 30.053C228.833 30.4723 229.258 30.8296 229.652 30.8296C230.109 30.8296 230.389 30.4723 230.431 30.053C230.519 29.1418 230.607 28.2255 230.695 27.3143C230.737 26.9053 230.752 26.4756 230.809 26.0822C230.804 26.1132 230.851 25.8906 230.856 25.8906C230.841 25.9217 230.82 25.9527 230.804 25.9838C230.685 26.0408 230.664 26.0563 230.747 26.0304C230.804 26.0511 231.079 26.0097 231.183 26.0097C233.004 25.9838 234.825 25.9631 236.646 25.9372C237.642 25.9217 237.642 24.3686 236.641 24.3841Z" fill="black"/>
<path d="M231.858 31.0056C230.903 29.8304 229.326 29.3282 227.852 29.5612C226.26 29.8149 225.113 31.0729 224.444 32.4655C223.697 34.0238 223.25 35.8255 224.62 37.187C225.87 38.4295 227.78 38.3985 229.238 37.5598C228.848 37.3372 228.459 37.1146 228.065 36.8868C228.003 37.6426 227.941 38.3933 227.873 39.1492C227.857 39.3459 227.826 39.5426 227.821 39.7393C227.816 40.0034 227.769 39.8015 227.852 39.7652C227.5 39.905 227.095 39.962 226.726 40.0344C225.274 40.3244 223.79 40.3709 222.317 40.2363C221.32 40.1432 221.326 41.6963 222.317 41.7895C224.184 41.9603 226.078 41.8205 227.894 41.3598C228.273 41.2614 228.703 41.1682 228.989 40.8783C229.269 40.5884 229.331 40.2208 229.372 39.8377C229.476 38.8592 229.538 37.8704 229.621 36.8868C229.673 36.281 228.926 35.9394 228.449 36.2137C227.546 36.7314 226.301 36.8298 225.585 35.9445C224.848 35.0282 225.507 33.7132 226 32.8279C226.472 31.9789 227.178 31.2075 228.195 31.0677C229.18 30.9331 230.135 31.3369 230.752 32.1031C231.017 32.4345 231.577 32.3723 231.852 32.1031C232.184 31.7873 232.117 31.3317 231.858 31.0056Z" fill="black"/>
<path d="M230.716 46.5265C230.716 46.9096 230.711 47.2927 230.711 47.6758C230.711 48.0331 230.955 48.3126 231.282 48.4265C240.133 51.481 246.042 59.4589 249.798 67.6542C251.982 72.4223 253.58 77.4234 255.23 82.3934C255.609 83.5324 255.899 84.573 257.082 85.0907C258.286 85.6188 259.567 86.0122 260.802 86.4471C263.407 87.3738 266.027 88.2694 268.652 89.134C274.582 91.0909 280.559 92.8926 286.582 94.5441C287.547 94.8081 287.962 93.3119 286.997 93.0479C281.664 91.5828 276.362 89.9986 271.101 88.3005C268.47 87.4514 265.845 86.5713 263.235 85.6602C261.892 85.1891 260.548 84.7179 259.209 84.2313C258.665 84.0346 258.042 83.8896 257.544 83.5945C257.041 83.2942 256.942 82.6109 256.771 82.0932C253.648 72.7019 250.556 62.9327 243.878 55.369C240.568 51.6208 236.454 48.5715 231.697 46.9355C231.889 47.184 232.075 47.4325 232.267 47.6862C232.267 47.3031 232.273 46.92 232.273 46.5369C232.278 45.5274 230.721 45.5222 230.716 46.5265Z" fill="black"/>
<path d="M288.051 102.926C286.613 103.858 284.746 103.443 283.153 103.236C281.145 102.972 279.137 102.708 277.129 102.449C273.072 101.916 269.015 101.388 264.958 100.855C262.992 100.596 261.031 100.342 259.064 100.084C257.186 99.8351 255.282 99.659 253.43 99.2604C251.79 98.9084 250.203 98.3285 248.921 97.2155C247.588 96.061 246.525 94.5907 245.56 93.1256C243.36 89.7915 241.803 86.0899 240.921 82.1967C240.781 81.5755 239.78 81.4046 239.5 82.0103C235.37 90.8891 230.872 99.5917 226.011 108.098C224.636 110.5 223.235 112.887 221.803 115.258C221.284 116.117 222.628 116.899 223.147 116.039C228.205 107.652 232.916 99.0585 237.253 90.2833C238.478 87.8035 239.676 85.303 240.843 82.7973C240.371 82.7351 239.894 82.673 239.422 82.6109C240.247 86.2556 241.663 89.7708 243.614 92.9599C245.508 96.0558 247.78 99.0999 251.344 100.306C253.093 100.896 254.945 101.098 256.761 101.336C258.898 101.616 261.031 101.896 263.168 102.175C267.438 102.734 271.708 103.293 275.983 103.852C278.375 104.168 280.766 104.479 283.158 104.795C285.062 105.043 287.132 105.38 288.839 104.272C289.674 103.723 288.891 102.377 288.051 102.926Z" fill="black"/>
<path d="M221.59 41.6445C222.405 42.7939 221.092 44.0415 220.013 44.3159C218.405 44.7249 216.635 44.3056 214.996 44.3677C211.427 44.4971 207.961 45.5636 204.76 47.0908C201.668 48.5663 198.799 50.4663 196.044 52.4906C193.413 54.4268 190.892 56.5132 188.495 58.7341C178.694 67.8355 171.063 79.0749 165.361 91.1168C161.978 98.2612 159.244 105.69 156.998 113.264C156.712 114.222 158.212 114.636 158.497 113.679C162.513 100.151 168.126 87.0114 176.194 75.3733C179.976 69.9218 184.287 64.8327 189.117 60.2821C191.504 58.0352 194.015 55.9126 196.651 53.9608C199.452 51.89 202.389 49.9382 205.543 48.4317C209.268 46.656 213.196 45.7345 217.325 45.9726C219.022 46.071 220.916 46.0865 222.239 44.8492C223.302 43.85 223.842 42.1364 222.934 40.8628C222.358 40.05 221.009 40.8266 221.59 41.6445Z" fill="black"/>
<path d="M221.616 116.619C228.169 120.083 234.716 123.541 241.269 127.004C242.856 127.843 244.449 128.677 246.037 129.526C247.484 130.302 248.942 131.105 250.239 132.119C252.626 133.988 254.224 136.587 255.085 139.466C257.067 146.103 255.194 153.081 253.715 159.62C252.096 166.765 250.405 173.888 248.641 180.996C246.649 189.016 244.563 197.009 242.384 204.977C242.12 205.945 243.619 206.354 243.884 205.391C247.858 190.848 251.526 176.223 254.872 161.525C256.413 154.759 258.457 147.614 256.989 140.656C256.372 137.721 255.106 134.879 253.077 132.637C250.846 130.168 247.79 128.692 244.895 127.16C237.398 123.199 229.902 119.234 222.399 115.273C221.512 114.807 220.729 116.148 221.616 116.619Z" fill="black"/>
<path d="M189.875 81.7826C184.977 84.0553 181.932 89.2894 179.659 93.9332C178.326 96.6564 177.091 99.4157 175.691 102.103C174.31 104.759 172.837 107.363 171.275 109.91C169.501 112.799 167.613 115.615 165.615 118.359C165.024 119.166 166.378 119.943 166.959 119.14C170.435 114.367 173.584 109.361 176.365 104.153C177.74 101.585 178.985 98.9602 180.23 96.325C181.444 93.752 182.726 91.2256 184.36 88.8907C186.015 86.53 188.007 84.3504 190.658 83.1183C191.566 82.7041 190.778 81.3632 189.875 81.7826Z" fill="black"/>
<path d="M189.652 81.9534C186.923 90.0297 184.199 98.1059 181.47 106.182C178.866 113.891 176.547 121.801 173.096 129.184C171.353 132.917 169.226 136.442 167.161 140.004C165.122 143.519 163.171 147.086 161.283 150.69C157.506 157.896 153.999 165.237 150.575 172.615C146.606 181.162 142.709 189.74 138.787 198.309C138.372 199.209 139.716 200.001 140.131 199.09C147.057 183.968 153.76 168.706 161.366 153.905C163.26 150.213 165.221 146.558 167.265 142.945C169.257 139.429 171.384 135.987 173.242 132.394C176.988 125.13 179.369 117.246 181.973 109.532C185.029 100.477 188.085 91.4223 191.146 82.3676C191.473 81.4201 189.968 81.0112 189.652 81.9534Z" fill="black"/>
<path d="M232.511 149.986C220.693 144.808 209.019 139.31 197.507 133.481C194.243 131.829 190.996 130.152 187.763 128.449C186.876 127.983 186.093 129.324 186.98 129.79C198.394 135.795 209.979 141.485 221.715 146.848C225.04 148.365 228.376 149.861 231.728 151.326C232.636 151.725 233.43 150.389 232.511 149.986Z" fill="black"/>
<path d="M222.306 115.413C211.883 113.523 202.975 107.497 193.46 103.231C190.783 102.03 188.044 100.953 185.226 100.13C184.261 99.8506 183.852 101.347 184.811 101.626C194.939 104.577 203.686 110.743 213.481 114.502C216.21 115.548 219.012 116.386 221.891 116.909C222.877 117.09 223.292 115.589 222.306 115.413Z" fill="black"/>
<path d="M237.31 26.2479C239.219 25.8958 241.03 25.1244 242.602 23.9855C243.178 23.5713 243.048 22.5048 242.208 22.5359C239.64 22.6394 237.663 20.4961 235.588 19.3054C233.352 18.0215 230.768 17.7522 228.298 18.4719C222.887 20.0405 220.039 25.3781 219.453 30.6587C219.063 34.1377 219.593 37.7099 220.9 40.9508C221.268 41.8671 222.778 41.4685 222.399 40.5366C220.381 35.5407 220.143 29.3696 222.955 24.6067C224.195 22.5048 226.078 20.8119 228.428 20.056C230.747 19.3105 233.056 19.5746 235.131 20.843C237.352 22.1994 239.417 24.2029 242.208 24.089C242.078 23.6075 241.948 23.1261 241.814 22.6394C240.335 23.7111 238.69 24.4152 236.895 24.7465C235.915 24.9329 236.33 26.429 237.31 26.2479Z" fill="black"/>
<path d="M231.665 150.974C230.996 158.517 229.569 165.957 227.505 173.241C225.424 180.577 222.934 187.799 220.49 195.021C219.095 199.147 217.678 203.268 216.236 207.379C215.904 208.326 217.408 208.73 217.735 207.793C220.303 200.457 222.804 193.095 225.227 185.713C227.619 178.439 229.943 171.144 231.422 163.622C232.241 159.444 232.838 155.22 233.212 150.974C233.31 149.975 231.754 149.98 231.665 150.974Z" fill="black"/>
<path d="M198.176 134.527C193.522 144.638 188.915 154.774 184.194 164.859C181.942 169.664 179.623 174.432 177.071 179.081C174.456 183.844 171.504 188.353 168.464 192.852C165.065 197.889 162.051 203.128 159.592 208.689C159.192 209.595 160.531 210.387 160.936 209.47C163.12 204.537 165.719 199.81 168.692 195.311C171.67 190.797 174.741 186.375 177.408 181.664C182.726 172.278 187.058 162.369 191.566 152.584C194.218 146.828 196.869 141.065 199.52 135.308C199.94 134.408 198.596 133.616 198.176 134.527Z" fill="black"/>
<path d="M159.69 208.342C159.135 208.813 158.321 208.632 157.786 208.29C156.987 207.783 156.204 207.255 155.426 206.716C153.776 205.577 152.157 204.386 150.512 203.237C147.285 200.98 143.929 198.894 140.183 197.62C139.233 197.299 138.823 198.795 139.768 199.116C143.804 200.483 147.358 202.885 150.798 205.334C152.52 206.561 154.232 207.809 155.996 208.979C156.764 209.486 157.501 210.102 158.45 210.164C159.28 210.216 160.157 209.988 160.795 209.444C161.558 208.792 160.453 207.695 159.69 208.342Z" fill="black"/>
<path d="M216.957 208.751C221.741 208.01 226.55 207.456 231.375 207.099C233.736 206.923 236.107 206.789 238.472 206.706C240.164 206.644 241.923 206.675 243.505 205.971C244.418 205.562 243.629 204.226 242.721 204.63C241.212 205.303 239.308 205.116 237.71 205.184C235.344 205.277 232.978 205.422 230.612 205.608C225.901 205.981 221.206 206.535 216.537 207.26C215.556 207.405 215.977 208.901 216.957 208.751Z" fill="black"/>
<path d="M286.79 94.5855C290.536 94.9323 294.235 94.1454 297.975 94.249C299.407 94.2904 300.938 94.513 302.131 95.3672C302.287 95.4759 302.432 95.6002 302.567 95.7296C302.676 95.8332 302.749 96.0402 302.806 95.8746C302.873 95.6882 302.624 95.8539 302.52 95.8797C302.349 95.916 302.162 95.916 301.986 95.9263C300.99 95.9729 300.02 95.859 299.055 95.6054C298.084 95.3517 297.669 96.8479 298.639 97.1015C299.802 97.407 301.026 97.5571 302.23 97.4639C303.018 97.4018 303.957 97.1999 304.263 96.3612C304.611 95.4086 303.765 94.6476 303.075 94.1402C302.328 93.5863 301.446 93.2239 300.549 93.0116C298.499 92.525 296.357 92.6958 294.281 92.8511C291.791 93.0375 289.296 93.2705 286.8 93.0375C285.794 92.9392 285.799 94.4923 286.79 94.5855Z" fill="black"/>
<path d="M298.894 97.4329C300.476 98.4476 301.887 99.6849 303.283 100.933C303.438 101.072 303.604 101.212 303.755 101.362C303.822 101.43 303.869 101.476 303.895 101.512C303.926 101.554 303.978 101.673 303.983 101.673C303.921 101.663 304.061 101.533 303.973 101.657C304.004 101.585 303.999 101.59 303.952 101.668C303.994 101.606 303.983 101.606 303.921 101.673C303.931 101.663 303.942 101.652 303.957 101.642C303.874 101.683 303.869 101.688 303.937 101.663C303.89 101.678 303.838 101.694 303.786 101.704C303.854 101.694 303.859 101.694 303.802 101.694C303.558 101.688 303.278 101.492 303.039 101.269C302.676 100.933 302.349 100.586 301.949 100.291C301.612 100.042 301.083 100.234 300.886 100.57C300.652 100.964 300.824 101.383 301.166 101.632C301.467 101.854 301.726 102.18 302.017 102.434C302.364 102.75 302.759 103.019 303.21 103.159C304.097 103.433 305.202 103.014 305.477 102.072C305.768 101.078 304.974 100.353 304.31 99.7626C303.63 99.1569 302.951 98.5563 302.245 97.9817C301.425 97.3086 300.575 96.6667 299.682 96.092C299.329 95.8642 298.821 96.0195 298.619 96.3716C298.396 96.7443 298.541 97.2051 298.894 97.4329Z" fill="black"/>
<path d="M302.079 103.273C302.173 103.418 302.116 103.216 302.1 103.2C302.121 103.221 302.043 103.314 302.09 103.242C302.074 103.262 302.012 103.33 302.064 103.288C301.986 103.345 302.012 103.35 301.898 103.371C301.799 103.392 301.685 103.381 301.586 103.366C301.01 103.278 300.414 103.009 299.879 102.776C298.722 102.268 297.612 101.621 296.621 100.845C296.289 100.586 295.843 100.524 295.521 100.845C295.252 101.114 295.189 101.683 295.521 101.942C296.933 103.045 298.473 103.925 300.154 104.546C300.995 104.857 301.975 105.157 302.816 104.67C303.542 104.241 303.916 103.226 303.428 102.486C303.2 102.134 302.738 101.989 302.365 102.206C302.012 102.418 301.851 102.921 302.079 103.273Z" fill="black"/>
<path d="M295.578 102.072C296.092 102.672 296.486 103.355 296.844 104.06C297.181 104.727 297.648 105.494 297.731 106.249C297.768 106.586 297.597 107.3 297.13 107.042C296.647 106.778 296.346 106.053 296.014 105.633C294.271 103.433 291.381 102.413 288.631 102.807C288.216 102.869 287.988 103.392 288.087 103.764C288.211 104.21 288.626 104.365 289.046 104.308C290.504 104.101 292.019 104.479 293.259 105.25C293.877 105.633 294.432 106.12 294.878 106.695C295.334 107.285 295.677 107.994 296.346 108.393C297.057 108.817 297.939 108.74 298.551 108.175C299.2 107.58 299.376 106.715 299.241 105.882C299.091 104.981 298.598 104.096 298.188 103.288C297.768 102.465 297.28 101.694 296.678 100.984C296.03 100.208 294.935 101.311 295.578 102.072Z" fill="black"/>
<path d="M157.055 113.239C155.835 114.367 155.223 115.9 154.642 117.422C154.492 117.815 154.487 118.286 154.305 118.659C154.108 119.068 153.532 119.239 153.143 119.415C152.141 119.865 151.135 120.316 150.134 120.766C148.614 121.449 146.466 122.122 146.134 124.007C146.004 124.742 146.165 125.55 146.725 126.073C147.42 126.725 148.422 126.699 149.283 126.445C151.592 125.772 153.848 124.721 156.043 123.758C156.956 123.36 156.167 122.019 155.26 122.418C154.139 122.909 153.013 123.38 151.877 123.831C150.865 124.229 149.833 124.695 148.78 124.975C148.427 125.068 147.903 125.198 147.695 124.799C147.56 124.53 147.659 124.147 147.804 123.903C148.261 123.127 149.397 122.785 150.17 122.438C151.28 121.941 152.39 121.439 153.501 120.942C154.45 120.518 155.436 120.14 155.809 119.078C155.965 118.638 156.017 118.172 156.188 117.732C156.359 117.282 156.536 116.837 156.738 116.397C157.096 115.61 157.527 114.916 158.165 114.326C158.891 113.658 157.786 112.56 157.055 113.239Z" fill="black"/>
<path d="M158.212 125.016C156.65 127.087 154.3 128.516 151.773 129.055C151.488 129.117 151.197 129.168 150.902 129.2C150.741 129.22 150.575 129.236 150.409 129.241C150.383 129.241 150.113 129.21 150.103 129.215C149.973 129.153 150.009 129.277 150.217 129.583C150.227 129.562 150.243 129.541 150.253 129.52C150.383 129.464 150.549 129.194 150.642 129.091C150.87 128.837 151.094 128.578 151.311 128.319C152.266 127.196 153.179 126.031 154.18 124.944C154.86 124.209 153.76 123.106 153.081 123.846C152.116 124.892 151.234 126.01 150.315 127.098C149.62 127.921 147.835 129.355 149.138 130.432C149.61 130.82 150.243 130.82 150.824 130.758C151.498 130.685 152.162 130.571 152.816 130.395C154.046 130.059 155.239 129.531 156.308 128.837C157.568 128.019 158.647 126.994 159.55 125.798C159.804 125.462 159.602 124.928 159.27 124.737C158.876 124.504 158.466 124.68 158.212 125.016Z" fill="black"/>
<path d="M157.288 129.241C156.785 129.753 156.235 130.131 155.706 130.54C155.088 131.012 154.502 131.597 153.817 131.969C153.48 132.15 153.112 132.275 152.738 132.264C152.588 132.259 152.536 132.254 152.406 132.176C152.365 132.15 152.328 132.109 152.323 132.057C152.292 131.778 152.562 131.41 152.671 131.084C152.733 130.908 152.78 130.732 152.847 130.556C152.873 130.483 152.904 130.411 152.977 130.344C153.293 130.069 153.262 129.531 152.977 129.246C152.665 128.935 152.193 128.967 151.877 129.246C151.571 129.515 151.42 129.919 151.291 130.297C151.234 130.458 151.182 130.618 151.13 130.784C151.088 130.924 151.171 130.737 151.104 130.851C151.042 130.949 150.995 131.058 150.948 131.167C150.502 132.213 150.938 133.331 152.027 133.709C152.915 134.019 153.952 133.704 154.725 133.248C155.114 133.02 155.452 132.725 155.794 132.435C156.017 132.244 156.297 132.031 156.448 131.918C157.101 131.415 157.802 130.939 158.378 130.349C159.094 129.629 157.994 128.527 157.288 129.241Z" fill="black"/>
<path d="M163.644 121.874C161.522 124.426 161.854 127.76 161.138 130.81C160.967 131.534 160.733 132.233 160.354 132.875C160.162 133.201 159.358 134.428 158.948 133.781C158.59 133.212 158.637 132.295 158.663 131.653C158.694 130.96 158.798 130.214 159.109 129.583C159.555 128.692 158.212 127.905 157.765 128.801C157.143 130.038 156.992 131.545 157.148 132.912C157.231 133.621 157.382 134.408 157.88 134.951C158.43 135.552 159.244 135.661 159.976 135.345C161.33 134.765 162.056 133.201 162.461 131.871C162.891 130.452 163 128.961 163.192 127.501C163.4 125.922 163.69 124.23 164.738 122.966C165.376 122.21 164.282 121.103 163.644 121.874Z" fill="black"/>
<path d="M165.465 118.851C165.771 120.181 166.072 121.506 166.378 122.837C166.523 123.468 166.684 124.1 166.808 124.737C166.86 124.985 166.969 125.534 166.627 125.617C166.471 125.653 166.206 125.498 166.082 125.55C166.066 125.545 166.056 125.539 166.04 125.534C166.17 125.591 166.196 125.601 166.118 125.565C166.072 125.539 166.025 125.519 165.978 125.498C165.688 125.358 165.402 125.208 165.122 125.063C164.598 124.789 164.033 124.406 163.457 124.255C162.487 124.002 162.072 125.498 163.042 125.752C163.104 125.767 163.208 125.829 162.995 125.726C163.057 125.757 163.12 125.783 163.177 125.809C163.343 125.886 163.509 125.974 163.675 126.057C164.038 126.243 164.401 126.435 164.764 126.621C165.584 127.041 166.58 127.45 167.472 126.948C168.92 126.13 168.302 124.281 168.012 123.013C167.664 121.486 167.312 119.964 166.964 118.436C166.741 117.463 165.241 117.872 165.465 118.851Z" fill="black"/>
<path d="M235.806 206.996C235.93 208.337 236.055 209.677 236.179 211.018C236.21 211.36 236.397 211.676 236.75 211.769C241.424 212.96 246.203 213.307 251.002 212.944C253.02 212.794 255.479 212.515 257.238 213.747C258.488 214.627 259.433 216.418 258.504 217.837C258.659 217.717 258.815 217.598 258.971 217.479C249.253 219.97 239.235 221.207 229.206 221.134C226.394 221.114 223.582 220.989 220.776 220.772C221.035 221.031 221.294 221.29 221.554 221.549C221.471 219.1 222.254 216.656 222.929 214.332C223.619 211.955 224.418 209.569 224.677 207.099C224.781 206.105 223.224 206.116 223.121 207.099C222.602 211.992 219.826 216.558 219.997 221.549C220.013 221.994 220.345 222.289 220.776 222.325C230.171 223.065 239.64 222.667 248.942 221.16C251.272 220.782 253.585 220.337 255.889 219.819C257.01 219.566 258.167 219.348 259.266 219.007C260.091 218.753 260.377 217.666 260.444 216.889C260.579 215.269 259.63 213.664 258.395 212.68C256.787 211.401 254.623 211.21 252.636 211.288C250.099 211.386 247.609 211.629 245.067 211.495C242.4 211.35 239.759 210.935 237.17 210.273C237.362 210.521 237.549 210.77 237.741 211.023C237.616 209.683 237.492 208.342 237.367 207.001C237.274 206.007 235.717 205.997 235.806 206.996Z" fill="black"/>
<path d="M143.571 199.82C142.045 202.057 140.364 204.179 138.538 206.178C137.604 207.198 136.629 208.192 135.622 209.144C135.176 209.569 134.72 209.983 134.263 210.392C133.76 210.837 133.179 211.256 132.831 211.847C132.172 212.97 132.655 214.171 133.433 215.082C134.341 216.154 135.55 217.029 136.603 217.956C138.818 219.902 140.982 221.947 143.28 223.795C144.401 224.696 145.527 224.986 146.933 225.193C148.406 225.405 149.874 225.623 151.348 225.835C152.821 226.047 154.289 226.265 155.763 226.477C157.158 226.679 158.679 227.088 160.095 226.979C162.326 226.808 163.384 224.764 163.011 222.713C162.59 220.435 160.401 219.224 158.43 218.442C156.982 217.873 155.503 217.371 154.035 216.837C153.241 216.553 152.453 216.263 151.659 215.978C151.202 215.812 150.569 215.621 150.274 215.207C149.911 214.699 150.372 213.824 150.549 213.301C150.798 212.577 151.073 211.867 151.389 211.168C152.012 209.791 152.759 208.471 153.605 207.218C154.165 206.385 152.816 205.608 152.261 206.437C150.87 208.497 149.76 210.744 148.977 213.105C148.629 214.15 148.318 215.243 149.075 216.185C149.729 216.993 150.782 217.314 151.721 217.655C153.029 218.132 154.336 218.603 155.643 219.079C156.78 219.493 157.957 219.861 159.042 220.404C160.546 221.16 162.232 222.765 161.33 224.608C160.816 225.654 159.545 225.478 158.58 225.338C157.19 225.141 155.804 224.934 154.414 224.732C151.706 224.339 148.961 224.028 146.269 223.542C144.904 223.293 144.022 222.408 143.016 221.528C141.952 220.596 140.894 219.664 139.83 218.732C138.766 217.8 137.708 216.868 136.644 215.937C136.167 215.517 135.685 215.108 135.213 214.684C134.792 214.306 134.268 213.845 134.107 213.281C133.921 212.613 134.574 212.194 135.015 211.805C135.565 211.324 136.11 210.832 136.639 210.33C137.677 209.351 138.673 208.337 139.638 207.286C141.552 205.194 143.311 202.958 144.914 200.612C145.48 199.779 144.136 198.997 143.571 199.82Z" fill="black"/>
<path d="M240.75 23.68C240.709 23.5765 240.662 23.4729 240.62 23.3694C240.506 23.1726 240.351 23.0225 240.153 22.9034C240.138 22.8931 240.127 22.8827 240.112 22.8776C240.107 22.8724 240.096 22.8724 240.091 22.8672C240.086 22.8672 240.081 22.862 240.076 22.862C239.977 22.8154 239.863 22.7688 239.759 22.7274C239.728 22.7171 239.697 22.7067 239.661 22.7015C239.655 22.7015 239.65 22.7015 239.65 22.7015C239.541 22.686 239.412 22.6653 239.297 22.6549C239.287 22.6549 239.282 22.6549 239.271 22.6549C239.256 22.6549 239.24 22.6549 239.22 22.6549C239.209 22.6549 239.204 22.6549 239.194 22.6549C239.188 22.6549 239.183 22.6549 239.183 22.6549C239.074 22.6705 238.945 22.686 238.83 22.7015C238.815 22.7067 238.794 22.7067 238.779 22.7119C238.685 22.7326 238.597 22.774 238.514 22.8258C238.472 22.7637 238.426 22.7015 238.374 22.6394C237.756 21.9509 236.947 21.5004 236.101 21.1225C235.769 20.7705 235.328 20.5323 234.815 20.4236C234.747 19.9887 234.472 19.5901 233.922 19.4348C231.276 18.6893 228.361 18.9947 225.995 20.4288C224.931 21.0707 224.023 21.9146 223.297 22.919C222.711 23.7266 222.4 24.6688 221.907 25.5127C221.735 25.6162 221.595 25.756 221.497 25.9424C221.398 26.1339 221.305 26.3307 221.217 26.5274C221.18 26.5999 221.149 26.6724 221.123 26.7448C219.93 29.5301 219.686 32.6519 220.506 35.5873C220.568 35.8203 220.703 36.017 220.874 36.1723C220.895 36.2396 220.911 36.3121 220.926 36.3846C220.926 36.4105 220.936 36.483 220.936 36.5347C220.942 36.7573 220.936 36.98 220.947 37.2026C220.973 37.6944 221.061 38.1862 221.186 38.6625C221.305 39.1077 221.419 39.5944 221.642 40.0034C221.922 40.5159 222.415 40.8887 222.981 41.0233C223.448 41.132 223.977 41.1009 224.444 40.987C224.729 40.9145 224.962 40.7592 225.149 40.5573C225.512 40.5211 225.876 40.4848 226.239 40.4434C226.669 40.3968 227.058 40.3554 227.442 40.1328C227.66 40.0086 227.821 39.8325 227.972 39.6462C228.48 39.3977 228.791 38.8955 228.714 38.3053C228.677 38.0361 228.563 37.7513 228.356 37.5598C228.091 37.3165 227.8 37.2129 227.437 37.1819C227.308 37.1715 227.183 37.187 227.053 37.2181C226.815 37.156 226.576 37.0783 226.332 37.0265C226 36.9592 225.668 36.9592 225.341 36.9437C225.03 36.7418 224.688 36.5761 224.33 36.4519C224.314 36.3898 224.298 36.3276 224.272 36.2655V36.2603C224.288 36.2914 224.288 36.2862 224.272 36.2396C224.272 36.1775 224.257 36.0843 224.257 36.0533C224.257 35.9394 224.267 35.8306 224.283 35.7167C224.288 35.6598 224.298 35.6028 224.304 35.5407L224.283 35.7116C224.247 35.6909 224.376 35.1783 224.392 35.111C224.438 34.8988 224.49 34.6865 224.553 34.4742C224.61 34.2775 224.672 34.086 224.745 33.8892C224.781 33.7909 224.817 33.6977 224.854 33.6045C224.859 33.5941 224.859 33.5941 224.859 33.5838C224.864 33.5734 224.869 33.5631 224.874 33.5475C225.045 33.1593 225.248 32.7865 225.471 32.4241C225.71 32.0307 225.689 31.5078 225.461 31.1091C225.486 31.0884 225.512 31.0729 225.538 31.0522C225.595 31.0004 225.658 30.9538 225.715 30.902C225.72 30.8969 225.72 30.8969 225.725 30.8917C225.85 30.8089 225.974 30.7208 226.104 30.638C226.358 30.4827 226.617 30.3636 226.882 30.229C226.903 30.2187 226.924 30.2135 226.944 30.2031C227.007 30.1773 227.074 30.1565 227.141 30.1358C227.287 30.0892 227.432 30.0427 227.577 30.0064C227.738 29.965 227.899 29.9288 228.065 29.9029L228.086 29.8977C228.153 29.9029 228.241 29.877 228.298 29.8718C228.719 29.8356 229.232 29.6595 229.419 29.2298C229.725 28.5154 229.896 27.7958 229.845 27.0089C229.813 26.5326 229.756 26.0615 229.699 25.5904C230.41 25.3211 231.126 25.0778 231.842 24.8345C231.956 24.7983 232.065 24.7361 232.164 24.674C232.906 24.85 233.663 24.9536 234.42 25.0053C234.81 25.0312 235.199 24.9225 235.536 24.7258C235.593 24.8656 235.655 25.0053 235.712 25.1399C235.873 25.4143 236.091 25.6266 236.366 25.7923C236.708 26.0459 237.124 26.222 237.533 26.3462C237.974 26.4808 238.54 26.3928 238.934 26.165C239.251 25.9786 239.546 25.6421 239.697 25.2797C239.744 25.2745 239.79 25.2694 239.837 25.2538C240.008 25.2124 240.153 25.1348 240.278 25.0209C240.418 24.9277 240.532 24.8086 240.61 24.6585C240.651 24.5549 240.698 24.4514 240.74 24.3478C240.812 24.1356 240.812 23.9078 240.75 23.68Z" fill="black"/>
<path d="M319.076 100.425C322.8 100.425 325.82 97.412 325.82 93.695C325.82 89.978 322.8 86.9648 319.076 86.9648C315.351 86.9648 312.331 89.978 312.331 93.695C312.331 97.412 315.351 100.425 319.076 100.425Z" fill="white" stroke="#FE4D3D" stroke-miterlimit="10"/>
</g>
<defs>
<clipPath id="clip0">
<rect x="-7" width="375.104" height="227" fill="white"/>
</clipPath>
</defs>
</svg>
