<svg width="499" height="328" viewBox="0 0 499 328" fill="none" xmlns="http://www.w3.org/2000/svg">
<g clip-path="url(#clip0)">
<path d="M468.264 292.34H328.656C323.708 292.34 319.66 288.301 319.66 283.364V18.7164C319.66 13.7792 323.708 9.73975 328.656 9.73975H468.264C473.212 9.73975 477.26 13.7792 477.26 18.7164V283.364C477.26 288.301 473.212 292.34 468.264 292.34Z" fill="#EE7D9F"/>
<path d="M-42.25 283.498H498.251" stroke="black" stroke-width="2" stroke-miterlimit="10" stroke-linecap="round"/>
<path d="M314.383 47.6138C314.353 44.861 313.888 42.153 312.854 39.9463C312.404 38.9887 311.744 38.4277 311.01 38.1734C310.822 37.5525 310.53 36.954 310.118 36.4154C308.678 34.5528 306.444 33.8795 304.173 34.3732C303.191 34.5827 302.201 35.4205 301.706 36.2658C301.189 37.1485 300.972 38.4501 301.294 39.4376C301.616 40.4175 302.209 41.1806 302.966 41.6892C302.966 41.6967 302.966 41.7042 302.973 41.7042C303.236 42.6617 303.978 43.694 304.87 44.1653C305.44 44.4645 306.054 44.6216 306.677 44.659C306.969 46.1252 306.752 48.0103 306.714 49.3269C306.662 51.2718 306.287 53.0148 305.582 54.8251C305.222 55.7452 305.252 56.5606 305.522 57.2338C303.888 61.3182 310.013 64.7294 312.187 60.6001C314.016 57.1216 314.968 53.3514 314.878 49.4241C314.855 48.7135 314.675 48.1076 314.383 47.6138Z" fill="white"/>
<path d="M452.694 283.349H295.094V9.72472C295.094 4.78755 299.142 0.748047 304.09 0.748047H443.698C448.645 0.748047 452.694 4.78755 452.694 9.72472V283.349Z" stroke="black" stroke-width="2" stroke-miterlimit="10" stroke-linecap="round"/>
<path d="M313.588 94.7264C314.12 93.3948 313.933 91.794 312.793 90.4999C313.783 89.3329 314.173 87.6797 313.258 85.9442C310.29 80.3637 305.867 76.0474 300.994 72.2174C299.944 70.1752 298.76 68.2078 297.396 66.3152C297.313 66.1955 297.223 66.0833 297.126 65.9786C297.096 62.5749 296.871 59.1563 296.856 55.7601C298.535 55.8125 300.207 54.9448 300.769 52.8502C301.878 48.7284 301.983 44.6665 301.369 40.4624C301.046 38.2631 298.25 37.0513 296.294 37.5899C295.356 37.8442 294.667 38.3529 294.187 39.0112C292.598 39.0635 291.031 39.9313 290.401 41.8538C287.568 50.5013 289.629 59.3059 289.067 68.0881C288.107 69.4271 287.8 71.3421 288.692 72.9056C288.744 73.2796 288.857 73.6312 288.999 73.9603C288.445 74.9777 288.317 76.2494 288.879 77.5435C286.173 78.0372 283.782 80.6779 285.851 83.4457C286.488 84.306 287.14 85.1438 287.807 85.9741C287.29 87.2757 287.44 88.8242 288.729 90.1782L291.211 92.7814C291.218 93.5893 291.218 94.3972 291.203 95.2051C289.959 96.0953 289.097 97.5765 289.344 99.4391C289.367 99.6037 289.382 99.7757 289.404 99.9403C286.6 104.025 283.797 108.102 280.993 112.186C279.351 114.572 283.25 116.824 284.876 114.453C286.57 111.991 288.257 109.53 289.951 107.069C289.966 107.526 289.974 107.982 289.981 108.446C289.966 108.55 289.951 108.655 289.929 108.76C289.809 109.433 289.846 110.054 289.989 110.615C289.951 115.911 289.532 121.215 289.112 126.474C288.4 135.398 287.672 144.33 286.953 153.254C286.638 157.189 293.003 159.052 294.637 155.334C297.208 149.477 298.715 143.589 299.172 137.208C299.307 135.338 298.355 134.134 297.058 133.588C297.815 125.412 298.385 117.198 298.19 109.052C298.715 105.723 299.082 102.386 299.27 99.0426C299.405 99.0277 299.54 99.0052 299.667 98.9828C306.047 103.292 312.958 106.157 314.323 99.5663C314.638 98.0178 314.285 96.3571 313.588 94.7264Z" fill="white"/>
<path d="M405.885 145.415C405.533 145.198 405.173 144.981 404.813 144.771C404.761 144.495 404.633 144.225 404.408 144.001C403.644 143.238 402.857 142.482 402.032 141.787C401.994 141.457 401.874 141.106 401.612 140.889C401.125 140.485 400.63 140.081 400.143 139.685C400.93 139.707 401.717 139.774 402.489 139.916C402.699 139.954 402.916 139.954 403.126 139.916C404.663 140.492 405.915 138.144 404.363 137.201C402.039 135.787 399.161 135.667 396.469 135.877C393.816 135.608 391.162 135.742 388.568 136.266C388.403 136.206 388.231 136.161 388.043 136.146C386.941 136.064 385.847 135.959 384.745 135.825C384.617 135.81 384.49 135.795 384.355 135.78C384.28 135.772 383.815 135.712 384.175 135.757C383.92 135.727 383.658 135.682 383.403 135.645C382.848 135.563 382.294 135.473 381.739 135.376C381.251 135.293 380.712 135.398 380.344 135.705C379.895 135.615 379.452 135.54 379.003 135.458C378.838 135.047 378.508 134.702 378.035 134.583C376.146 134.097 374.212 133.782 372.271 133.618C371.843 132.989 371.191 132.473 370.247 132.204C364.827 130.693 359.377 129.331 353.889 128.097C348.597 126.249 343.349 124.634 338.281 121.933C338.274 121.926 338.266 121.926 338.259 121.926C337.524 119.764 335.867 117.744 334.623 115.926C334.99 115.216 335.125 114.363 334.878 113.375C333.731 108.782 331.857 104.683 329.713 100.486C327.734 96.604 326.767 92.3176 324.225 88.7195C323.978 88.3604 323.693 88.0761 323.386 87.8368C322.044 85.3158 320.507 82.9146 318.693 80.7003C318.206 80.1019 317.651 79.7353 317.089 79.5633C316.706 79.1668 316.301 78.7853 315.882 78.4337C315.222 77.4388 314.547 76.4514 313.775 75.5462C312.576 74.1473 310.896 73.1524 309.405 72.0902C307.755 70.9157 305.229 71.7985 304.277 73.4292C303.175 75.3068 303.97 77.3715 305.619 78.5459C305.739 78.6282 305.859 78.718 305.994 78.8077C305.949 79.9822 306.466 81.1716 307.8 81.9496C308.003 82.0693 308.19 82.1815 308.385 82.2937C308.43 82.376 308.498 82.4358 308.543 82.5106C308.115 83.0567 307.83 83.7599 307.778 84.6126C307.313 91.8239 309.555 98.5938 310.784 105.581C310.447 105.947 310.169 106.396 309.974 106.942C308.64 110.66 307.208 114.34 305.634 117.968C304.832 119.824 305.087 121.978 306.976 123.085C308.558 124.013 311.294 123.609 312.103 121.746C312.531 120.759 312.943 119.764 313.363 118.769C313.7 119.135 314.097 119.442 314.562 119.704C315.005 120.624 315.454 121.537 315.919 122.442C315.552 123.347 315.552 124.424 316.152 125.531C318.183 129.294 320.559 133.693 323.656 137.141C323.701 137.208 323.738 137.276 323.783 137.336C324.593 138.42 325.395 139.325 326.459 140.148C326.782 140.395 327.096 140.605 327.419 140.807C329.398 144.405 334.106 144.599 338.131 144.958C344.556 145.534 350.943 146.327 357.315 147.33C357.615 147.375 357.9 147.389 358.177 147.375C363.44 148.474 368.747 149.372 373.905 150.374C374.789 150.546 375.584 150.427 376.251 150.12C380.142 150.599 383.583 149.866 387.294 148.751C387.324 148.773 387.354 148.803 387.384 148.826C388.86 149.783 390.465 150.539 392.136 151.092C392.384 151.175 392.646 151.167 392.894 151.1C393.074 151.294 393.246 151.496 393.426 151.698C393.433 151.706 393.433 151.706 393.441 151.713C393.448 151.721 393.448 151.728 393.456 151.736C393.531 151.833 393.598 151.93 393.666 152.035C393.778 152.2 393.891 152.372 394.003 152.544C394.026 152.581 394.041 152.618 394.063 152.656C394.108 153.03 394.288 153.366 394.573 153.606C394.588 153.643 394.618 153.681 394.633 153.718C394.805 154.092 395.173 154.316 395.577 154.399C395.69 154.653 395.907 154.855 396.215 154.937C396.814 155.087 397.399 154.668 397.609 154.122C397.819 153.591 397.721 153.022 397.519 152.499C396.844 150.748 395.997 149.043 395.068 147.404C395.083 147.397 395.098 147.397 395.113 147.389C395.248 147.352 395.375 147.285 395.487 147.217C396.492 147.427 397.489 147.681 398.434 148.078C400 148.736 401.395 149.91 403.201 149.746C404.168 149.656 404.686 149.005 404.663 148.123C405.308 148.34 406.08 148.048 406.432 147.457C406.845 146.746 406.575 145.841 405.885 145.415Z" fill="white"/>
<path d="M333.986 195.863C332.569 193.776 330.748 192.093 328.716 190.672C326.58 188.592 323.888 187.41 320.972 186.423C316.602 183.311 312.059 180.521 307.329 178.052C307.156 177.521 306.781 177.035 306.114 176.698C303.063 175.165 299.712 174.319 296.541 173.063C296.466 173.033 296.391 173.003 296.309 172.965C294.015 172.038 291.833 170.863 289.517 170.1C288.407 168.701 286.316 167.811 284.532 168.223C283.34 167.811 282.163 167.527 280.986 167.362C280.596 167.123 280.169 166.951 279.689 166.854C279.157 166.749 278.632 166.629 278.107 166.472C277.845 166.39 277.59 166.308 277.335 166.21C277.297 166.196 277.275 166.188 277.245 166.173C277.043 166.061 276.383 165.709 276.3 165.657C275.836 165.38 275.386 165.073 274.951 164.759C274.171 164.191 273.197 163.989 272.222 164.079C271.915 163.891 271.585 163.727 271.218 163.607C271.195 163.592 271.173 163.577 271.143 163.562C270.813 163.196 270.423 162.867 269.958 162.612C269.524 162.373 269.104 162.104 268.691 161.827C268.294 161.483 267.904 161.131 267.544 160.75C266.457 159.59 264.718 159.141 263.144 159.426C260.888 158.116 258.601 156.852 256.292 155.64C253.871 154.369 251.412 153.149 248.931 151.982C246.951 151.055 244.613 150.374 243.203 148.646C241.576 146.649 239.455 146.641 237.806 147.666C237.521 147.487 237.206 147.389 236.891 147.337C235.549 146.148 233.113 146.23 232.663 148.459C232.258 150.471 231.808 152.469 231.299 154.444C230.579 154.84 230.009 155.543 229.904 156.561C229.627 159.186 228.96 161.73 228.03 164.191C227.363 165.709 226.636 167.205 225.804 168.657C225.376 169.397 225.361 170.422 225.751 171.222C225.197 171.507 224.732 172 224.492 172.748C222.715 178.344 220.751 183.872 218.607 189.325C218.337 189.535 218.105 189.819 217.91 190.193C216.83 192.288 215.796 194.397 214.769 196.514C214.431 196.716 214.132 197.015 213.884 197.434C211.358 201.795 208.832 206.164 206.53 210.652C206.125 210.854 205.75 211.191 205.466 211.7C205.083 212.388 204.723 213.084 204.356 213.779C204.094 214.041 203.869 214.363 203.711 214.759C203.584 215.081 203.442 215.403 203.314 215.732C201.537 219.158 199.918 222.629 198.434 226.19C197.939 226.466 197.512 226.915 197.257 227.551C196.837 228.568 196.402 229.586 195.983 230.603C195.638 230.79 195.33 231.059 195.09 231.426C194.198 232.81 193.629 234.194 193.269 235.78C191.972 238.854 190.645 241.921 189.273 244.966C189.198 245.063 189.123 245.16 189.056 245.25C189.056 245.25 189.056 245.25 189.048 245.25C189.048 245.258 189.041 245.265 189.041 245.272C188.126 246.514 187.586 247.674 187.309 249.095C186.889 250.038 186.477 250.988 186.065 251.938C185.96 252.155 185.862 252.372 185.757 252.588C185 253.329 184.535 254.219 184.183 255.162C183.996 255.349 183.831 255.566 183.688 255.843C180.307 262.672 177.264 269.644 174.557 276.758C174.362 276.945 174.183 277.162 174.033 277.446C173.245 278.965 171.634 281.149 171.214 283.176C169.835 284.269 169.22 286.67 171.244 287.575C178.748 290.919 186.634 294.001 192.879 299.492C192.924 299.536 192.976 299.566 193.021 299.604C193.171 299.978 193.374 300.329 193.659 300.636C194.618 301.683 196.057 301.773 197.362 301.481C198.479 301.227 199.288 300.068 199.288 298.931C199.926 298.153 200.353 297.24 200.465 296.253C200.78 296.051 201.073 295.781 201.305 295.407C205.121 289.303 208.944 283.199 212.76 277.102C213.277 276.279 213.255 275.479 212.94 274.821C213.554 273.953 214.154 273.115 214.754 272.36C217.513 268.881 220.511 265.47 222.835 261.677C227.52 254.032 231.644 245.37 233.997 236.7C236.494 231.912 238.938 227.102 241.337 222.27C245.969 212.934 250.407 203.501 254.688 194.001C254.793 194.083 254.905 194.165 255.04 194.233C265.558 199.738 276.293 204.773 287.223 209.403C291.324 211.879 295.492 214.797 300.244 215.709C300.627 215.784 300.987 215.777 301.316 215.709C302.231 216.211 303.138 216.742 304.038 217.273C303.91 219.547 303.79 221.813 303.663 224.088C302.726 224.402 301.961 225.187 301.924 226.459C301.781 231.882 301.249 237.268 300.237 242.594C300.012 242.864 299.84 243.208 299.735 243.627C297.853 251.175 295.687 258.64 293.25 266.016C293.123 266.173 292.995 266.353 292.89 266.57C290.679 271.178 288.55 275.801 287.35 280.798C286.878 282.78 286.503 284.777 286.083 286.767C285.679 286.902 285.334 287.209 285.191 287.747C284.224 291.3 283.085 294.809 281.795 298.265C281.331 299.499 282.942 300.621 283.999 299.955C284.187 299.836 284.382 299.716 284.569 299.596C285.446 299.985 286.466 299.933 287.208 299.185C288.437 299.626 289.959 299.454 291.256 299.394C298.768 299.08 306.766 299.409 314.076 297.405C317.501 296.462 318.491 295.983 319.481 292.647C320.65 288.682 321.774 284.71 322.861 280.723C325.028 272.749 327.007 264.729 328.829 256.673C328.859 256.538 328.866 256.404 328.881 256.276C329.743 255.244 329.743 253.576 328.866 252.633C329.031 251.496 329.766 249.237 329.878 248.729C330.268 246.911 330.688 245.093 331.108 243.283C331.85 240.111 332.637 236.947 333.379 233.767C334.946 227.012 336.325 220.183 336.79 213.256C337.195 207.436 337.39 200.89 333.986 195.863Z" fill="black"/>
<path d="M309.787 37.889C312.036 39.1757 313.213 41.547 313.738 44.0007C314.36 46.9106 314.308 50.1123 314.18 53.0746C314.06 56.0668 313.168 58.6551 311.534 61.1536C310.769 62.3205 309.96 63.5848 308.955 64.5647C307.921 65.5746 306.549 65.6419 305.184 65.5447C302.756 65.3726 299.48 65.0135 297.928 62.8741C297.088 61.7146 295.139 62.8367 295.986 64.0037C297.74 66.4274 300.567 67.2128 303.408 67.5869C304.997 67.7963 306.684 68.0058 308.25 67.527C309.832 67.0408 310.844 65.9037 311.811 64.6245C313.865 61.9166 315.68 59.0141 316.197 55.5955C316.467 53.7777 316.474 51.9525 316.452 50.1198C316.429 48.3319 316.392 46.544 316.144 44.7637C315.657 41.2553 314.12 37.7694 310.927 35.9366C309.66 35.2334 308.528 37.1709 309.787 37.889Z" fill="black"/>
<path d="M309.045 35.2333C307.515 35.2558 305.979 35.2707 304.449 35.2932C303.715 35.3006 302.988 35.3156 302.253 35.3231C301.533 35.3306 300.776 35.2782 300.064 35.4203C298.37 35.757 298.392 37.4999 298.257 38.8689C298.115 40.3874 297.965 41.906 297.822 43.4245C297.762 44.0305 298.377 44.5466 298.947 44.5466C299.607 44.5466 300.011 44.0305 300.071 43.4245C300.199 42.108 300.326 40.7839 300.454 39.4673C300.514 38.8764 300.536 38.2555 300.619 37.6869C300.611 37.7318 300.679 37.4102 300.686 37.4102C300.664 37.455 300.634 37.4999 300.611 37.5448C300.439 37.6271 300.409 37.6495 300.529 37.6121C300.611 37.6421 301.008 37.5822 301.158 37.5822C303.79 37.5448 306.421 37.5149 309.052 37.4775C310.492 37.455 310.492 35.2109 309.045 35.2333Z" fill="black"/>
<path d="M302.134 44.801C300.755 43.1029 298.476 42.3773 296.347 42.7139C294.046 43.0805 292.389 44.8982 291.422 46.9105C290.342 49.1622 289.698 51.7654 291.677 53.7328C293.483 55.5281 296.242 55.4832 298.349 54.2714C297.786 53.9497 297.224 53.628 296.654 53.2989C296.564 54.3911 296.474 55.4757 296.377 56.5679C296.354 56.8522 296.309 57.1364 296.302 57.4207C296.294 57.8022 296.227 57.5105 296.347 57.4581C295.837 57.6601 295.252 57.7424 294.72 57.8471C292.621 58.266 290.477 58.3333 288.348 58.1388C286.909 58.0042 286.916 60.2483 288.348 60.383C291.047 60.6299 293.783 60.4279 296.407 59.7621C296.954 59.62 297.576 59.4853 297.989 59.0664C298.394 58.6475 298.484 58.1164 298.543 57.5628C298.693 56.149 298.783 54.7202 298.903 53.2989C298.978 52.4237 297.899 51.93 297.209 52.3264C295.905 53.0745 294.106 53.2166 293.071 51.9374C292.006 50.6134 292.959 48.7133 293.671 47.4341C294.353 46.2073 295.372 45.0927 296.842 44.8908C298.266 44.6963 299.645 45.2797 300.538 46.3869C300.92 46.8656 301.73 46.7759 302.127 46.3869C302.607 45.9306 302.509 45.2723 302.134 44.801Z" fill="black"/>
<path d="M300.484 67.2278C300.484 67.7814 300.477 68.3349 300.477 68.8885C300.477 69.4046 300.829 69.8086 301.301 69.9732C314.09 74.3867 322.629 85.9142 328.056 97.7559C331.212 104.646 333.521 111.872 335.905 119.053C336.452 120.699 336.872 122.202 338.581 122.95C340.321 123.713 342.172 124.282 343.956 124.91C347.72 126.249 351.506 127.544 355.299 128.793C363.867 131.62 372.503 134.224 381.207 136.61C382.601 136.991 383.201 134.83 381.807 134.448C374.1 132.331 366.439 130.042 358.837 127.588C355.036 126.362 351.243 125.09 347.472 123.773C345.531 123.093 343.589 122.412 341.655 121.709C340.868 121.424 339.968 121.215 339.249 120.789C338.522 120.355 338.379 119.367 338.132 118.619C333.619 105.05 329.151 90.9337 319.503 80.0046C314.72 74.5887 308.775 70.1826 301.901 67.8188C302.178 68.1778 302.448 68.5369 302.726 68.9034C302.726 68.3499 302.733 67.7963 302.733 67.2428C302.741 65.7841 300.492 65.7766 300.484 67.2278Z" fill="black"/>
<path d="M383.328 148.721C381.251 150.067 378.553 149.469 376.251 149.17C373.35 148.788 370.449 148.407 367.548 148.033C361.686 147.262 355.823 146.499 349.961 145.729C347.12 145.355 344.286 144.988 341.445 144.614C338.731 144.255 335.98 144.001 333.304 143.425C330.935 142.916 328.641 142.078 326.789 140.47C324.862 138.802 323.326 136.677 321.931 134.56C318.753 129.743 316.504 124.394 315.229 118.769C315.027 117.871 313.58 117.624 313.175 118.499C307.208 131.329 300.709 143.903 293.684 156.194C291.698 159.665 289.674 163.113 287.605 166.54C286.855 167.781 288.797 168.911 289.546 167.669C296.855 155.551 303.662 143.133 309.929 130.453C311.699 126.87 313.43 123.257 315.117 119.636C314.435 119.547 313.745 119.457 313.063 119.367C314.255 124.633 316.301 129.713 319.12 134.321C321.856 138.794 325.14 143.193 330.29 144.936C332.816 145.788 335.493 146.08 338.116 146.424C341.205 146.828 344.286 147.232 347.375 147.636C353.544 148.444 359.714 149.252 365.891 150.06C369.347 150.516 372.803 150.965 376.259 151.421C379.01 151.78 382.001 152.267 384.467 150.666C385.674 149.873 384.542 147.928 383.328 148.721Z" fill="black"/>
<path d="M287.298 60.1735C288.475 61.8342 286.578 63.637 285.019 64.0335C282.695 64.6245 280.139 64.0185 277.77 64.1083C272.612 64.2953 267.605 65.8363 262.979 68.0431C258.511 70.175 254.366 72.9204 250.385 75.8453C246.584 78.643 242.941 81.6577 239.477 84.8668C225.317 98.0177 214.289 114.258 206.05 131.658C201.163 141.981 197.212 152.715 193.966 163.66C193.554 165.043 195.72 165.642 196.132 164.258C201.935 144.711 210.046 125.726 221.703 108.909C227.168 101.032 233.398 93.6789 240.377 87.1035C243.825 83.857 247.454 80.7899 251.262 77.9698C255.31 74.9775 259.553 72.1574 264.111 69.9805C269.494 67.4147 275.169 66.0832 281.136 66.4273C283.587 66.5694 286.323 66.5918 288.235 64.804C289.772 63.3602 290.551 60.8842 289.24 59.044C288.407 57.8695 286.458 58.9916 287.298 60.1735Z" fill="black"/>
<path d="M287.335 168.507C296.803 173.512 306.264 178.509 315.732 183.513C318.026 184.725 320.327 185.929 322.621 187.156C324.713 188.278 326.819 189.438 328.694 190.904C332.142 193.604 334.451 197.36 335.695 201.519C338.559 211.109 335.853 221.193 333.716 230.641C331.377 240.964 328.933 251.257 326.385 261.528C323.506 273.115 320.492 284.665 317.344 296.178C316.961 297.577 319.128 298.168 319.51 296.776C325.253 275.763 330.553 254.631 335.388 233.393C337.614 223.616 340.568 213.293 338.447 203.239C337.554 198.998 335.725 194.891 332.794 191.652C329.571 188.084 325.155 185.952 320.972 183.737C310.14 178.015 299.307 172.285 288.467 166.562C287.185 165.889 286.053 167.826 287.335 168.507Z" fill="black"/>
<path d="M241.47 118.17C234.394 121.454 229.993 129.017 226.71 135.727C224.783 139.662 222.999 143.649 220.975 147.532C218.981 151.369 216.852 155.132 214.595 158.812C212.031 162.986 209.303 167.056 206.417 171.021C205.562 172.187 207.519 173.31 208.358 172.15C213.381 165.253 217.931 158.019 221.949 150.494C223.936 146.784 225.735 142.991 227.534 139.183C229.289 135.465 231.14 131.815 233.502 128.441C235.893 125.03 238.772 121.881 242.602 120.1C243.914 119.502 242.775 117.564 241.47 118.17Z" fill="black"/>
<path d="M241.149 118.417C237.206 130.087 233.27 141.756 229.327 153.426C225.563 164.565 222.212 175.995 217.227 186.662C214.708 192.056 211.635 197.15 208.651 202.297C205.705 207.376 202.886 212.53 200.158 217.736C194.7 228.149 189.633 238.757 184.685 249.417C178.95 261.767 173.32 274.162 167.653 286.543C167.053 287.844 168.995 288.989 169.594 287.672C179.602 265.821 189.288 243.769 200.278 222.382C203.014 217.048 205.848 211.767 208.801 206.546C211.68 201.466 214.753 196.492 217.437 191.3C222.85 180.805 226.291 169.412 230.054 158.266C234.469 145.183 238.885 132.099 243.308 119.016C243.78 117.647 241.606 117.056 241.149 118.417Z" fill="black"/>
<path d="M303.078 216.719C286.001 209.239 269.134 201.294 252.499 192.871C247.783 190.485 243.091 188.061 238.42 185.6C237.138 184.927 236.006 186.864 237.288 187.538C253.781 196.215 270.52 204.436 287.478 212.186C292.283 214.378 297.103 216.54 301.946 218.657C303.258 219.233 304.405 217.303 303.078 216.719Z" fill="black"/>
<path d="M288.332 166.764C273.272 164.034 260.4 155.326 246.652 149.162C242.783 147.427 238.825 145.871 234.755 144.681C233.36 144.277 232.768 146.439 234.155 146.843C248.788 151.107 261.427 160.017 275.581 165.447C279.524 166.958 283.572 168.17 287.733 168.926C289.157 169.188 289.757 167.018 288.332 166.764Z" fill="black"/>
<path d="M310.013 37.9263C312.772 37.4176 315.388 36.303 317.66 34.6573C318.492 34.0588 318.304 32.5179 317.09 32.5627C313.379 32.7123 310.523 29.6154 307.524 27.8949C304.293 26.0397 300.56 25.6507 296.992 26.6905C289.173 28.9571 285.057 36.6696 284.21 44.2997C283.648 49.3267 284.412 54.4883 286.301 59.1711C286.834 60.4951 289.015 59.9191 288.468 58.5726C285.552 51.3539 285.207 42.4371 289.27 35.555C291.062 32.5179 293.783 30.0717 297.179 28.9796C300.53 27.9024 303.866 28.2839 306.865 30.1166C310.073 32.0765 313.057 34.9715 317.09 34.8069C316.902 34.1112 316.715 33.4155 316.52 32.7123C314.384 34.2608 312.007 35.2782 309.413 35.7569C307.997 36.0262 308.596 38.1881 310.013 37.9263Z" fill="black"/>
<path d="M301.856 218.148C300.889 229.047 298.827 239.797 295.843 250.322C292.837 260.922 289.239 271.357 285.708 281.792C283.691 287.754 281.645 293.709 279.561 299.649C279.081 301.018 281.255 301.601 281.727 300.247C285.438 289.647 289.051 279.01 292.552 268.342C296.008 257.832 299.367 247.292 301.503 236.423C302.688 230.386 303.55 224.282 304.09 218.148C304.232 216.704 301.983 216.712 301.856 218.148Z" fill="black"/>
<path d="M253.466 194.382C246.741 208.992 240.084 223.639 233.262 238.211C230.009 245.153 226.658 252.042 222.97 258.76C219.191 265.642 214.926 272.158 210.533 278.658C205.623 285.937 201.267 293.507 197.714 301.541C197.137 302.85 199.071 303.995 199.655 302.671C202.811 295.542 206.567 288.712 210.863 282.211C215.166 275.688 219.604 269.3 223.457 262.493C231.141 248.93 237.4 234.613 243.915 220.474C247.746 212.156 251.576 203.83 255.407 195.512C256.014 194.21 254.073 193.066 253.466 194.382Z" fill="black"/>
<path d="M197.857 301.04C197.055 301.721 195.878 301.459 195.106 300.965C193.951 300.232 192.819 299.469 191.695 298.691C189.311 297.045 186.972 295.325 184.596 293.664C179.933 290.403 175.083 287.388 169.67 285.548C168.298 285.084 167.706 287.246 169.07 287.71C174.903 289.684 180.038 293.155 185.008 296.694C187.497 298.467 189.971 300.269 192.52 301.96C193.629 302.693 194.694 303.583 196.065 303.673C197.265 303.748 198.532 303.419 199.454 302.633C200.556 301.691 198.959 300.105 197.857 301.04Z" fill="black"/>
<path d="M280.603 301.631C287.515 300.561 294.464 299.761 301.436 299.245C304.847 298.99 308.273 298.796 311.691 298.676C314.135 298.586 316.676 298.631 318.963 297.614C320.282 297.023 319.143 295.093 317.831 295.676C315.649 296.649 312.898 296.38 310.589 296.477C307.171 296.612 303.752 296.821 300.334 297.09C293.527 297.629 286.743 298.429 279.996 299.477C278.579 299.686 279.186 301.848 280.603 301.631Z" fill="black"/>
<path d="M381.506 136.67C386.919 137.171 392.264 136.034 397.669 136.184C399.738 136.243 401.95 136.565 403.674 137.799C403.899 137.956 404.109 138.136 404.303 138.323C404.461 138.473 404.566 138.772 404.648 138.532C404.746 138.263 404.386 138.503 404.236 138.54C403.989 138.592 403.719 138.592 403.464 138.607C402.025 138.675 400.623 138.51 399.228 138.143C397.826 137.777 397.227 139.939 398.629 140.305C400.308 140.747 402.077 140.964 403.816 140.829C404.956 140.739 406.313 140.447 406.755 139.236C407.257 137.859 406.035 136.76 405.038 136.026C403.959 135.226 402.684 134.702 401.387 134.396C398.426 133.693 395.33 133.939 392.331 134.164C388.733 134.433 385.127 134.77 381.521 134.433C380.067 134.291 380.075 136.535 381.506 136.67Z" fill="black"/>
<path d="M398.996 140.784C401.283 142.25 403.322 144.038 405.338 145.841C405.563 146.043 405.803 146.245 406.02 146.462C406.118 146.559 406.185 146.626 406.223 146.679C406.268 146.739 406.343 146.911 406.35 146.911C406.26 146.896 406.463 146.709 406.335 146.888C406.38 146.784 406.373 146.791 406.305 146.903C406.365 146.813 406.35 146.813 406.26 146.911C406.275 146.896 406.29 146.881 406.313 146.866C406.193 146.926 406.185 146.933 406.283 146.896C406.215 146.918 406.14 146.941 406.066 146.956C406.163 146.941 406.17 146.941 406.088 146.941C405.736 146.933 405.331 146.649 404.986 146.327C404.461 145.841 403.989 145.34 403.412 144.913C402.924 144.554 402.16 144.831 401.875 145.317C401.538 145.886 401.785 146.492 402.28 146.851C402.715 147.173 403.089 147.644 403.509 148.01C404.011 148.467 404.581 148.856 405.233 149.058C406.515 149.454 408.112 148.848 408.509 147.487C408.929 146.05 407.782 145.003 406.823 144.15C405.841 143.275 404.859 142.407 403.839 141.577C402.655 140.605 401.425 139.677 400.136 138.847C399.626 138.518 398.891 138.742 398.599 139.251C398.277 139.789 398.486 140.455 398.996 140.784Z" fill="black"/>
<path d="M403.599 149.222C403.734 149.432 403.652 149.14 403.63 149.117C403.659 149.147 403.547 149.282 403.615 149.177C403.592 149.207 403.502 149.304 403.577 149.245C403.465 149.327 403.502 149.334 403.337 149.364C403.195 149.394 403.03 149.379 402.887 149.357C402.055 149.23 401.193 148.841 400.421 148.504C398.749 147.771 397.145 146.836 395.713 145.714C395.233 145.34 394.589 145.25 394.124 145.714C393.734 146.103 393.644 146.926 394.124 147.3C396.163 148.893 398.389 150.165 400.818 151.062C402.033 151.511 403.45 151.945 404.664 151.242C405.714 150.621 406.253 149.155 405.549 148.085C405.219 147.576 404.552 147.367 404.012 147.681C403.502 147.988 403.27 148.713 403.599 149.222Z" fill="black"/>
<path d="M394.206 147.487C394.948 148.354 395.518 149.342 396.035 150.359C396.522 151.324 397.197 152.431 397.317 153.523C397.369 154.01 397.122 155.042 396.447 154.668C395.75 154.286 395.315 153.239 394.835 152.633C392.316 149.454 388.141 147.98 384.168 148.549C383.568 148.639 383.238 149.394 383.381 149.933C383.561 150.576 384.16 150.801 384.767 150.718C386.874 150.419 389.063 150.965 390.855 152.08C391.747 152.633 392.549 153.336 393.194 154.167C393.853 155.02 394.348 156.044 395.315 156.62C396.342 157.234 397.617 157.122 398.501 156.306C399.438 155.446 399.693 154.197 399.498 152.992C399.281 151.691 398.569 150.412 397.976 149.245C397.369 148.055 396.664 146.941 395.795 145.916C394.858 144.794 393.276 146.387 394.206 147.487Z" fill="black"/>
<path d="M194.048 163.622C192.287 165.253 191.402 167.467 190.562 169.666C190.345 170.235 190.338 170.916 190.075 171.454C189.79 172.045 188.958 172.292 188.396 172.546C186.949 173.197 185.495 173.848 184.048 174.499C181.851 175.486 178.748 176.459 178.268 179.182C178.081 180.244 178.313 181.411 179.123 182.166C180.127 183.109 181.574 183.072 182.819 182.705C186.154 181.733 189.415 180.214 192.587 178.823C193.906 178.247 192.766 176.309 191.455 176.885C189.835 177.596 188.209 178.277 186.567 178.927C185.105 179.503 183.613 180.177 182.091 180.581C181.582 180.715 180.824 180.902 180.525 180.326C180.33 179.937 180.472 179.384 180.682 179.032C181.342 177.91 182.983 177.416 184.1 176.915C185.705 176.197 187.309 175.471 188.913 174.753C190.285 174.14 191.709 173.594 192.249 172.06C192.474 171.424 192.549 170.751 192.796 170.115C193.044 169.464 193.299 168.821 193.591 168.185C194.108 167.048 194.731 166.046 195.653 165.193C196.702 164.228 195.105 162.642 194.048 163.622Z" fill="black"/>
<path d="M195.72 180.64C193.464 183.633 190.068 185.697 186.417 186.475C186.005 186.565 185.585 186.64 185.158 186.685C184.925 186.715 184.685 186.737 184.445 186.745C184.408 186.745 184.018 186.7 184.003 186.707C183.816 186.617 183.868 186.797 184.168 187.238C184.183 187.208 184.206 187.178 184.221 187.149C184.408 187.066 184.648 186.677 184.783 186.528C185.113 186.161 185.435 185.787 185.75 185.413C187.129 183.79 188.449 182.107 189.895 180.536C190.878 179.474 189.288 177.88 188.306 178.95C186.912 180.461 185.637 182.077 184.311 183.648C183.306 184.837 180.727 186.909 182.609 188.465C183.291 189.026 184.206 189.026 185.045 188.936C186.02 188.832 186.979 188.667 187.924 188.413C189.701 187.927 191.425 187.164 192.969 186.161C194.791 184.979 196.35 183.498 197.654 181.77C198.022 181.284 197.729 180.513 197.25 180.237C196.68 179.9 196.088 180.154 195.72 180.64Z" fill="black"/>
<path d="M194.386 186.745C193.658 187.485 192.864 188.031 192.099 188.622C191.207 189.303 190.36 190.148 189.37 190.687C188.883 190.949 188.351 191.128 187.811 191.113C187.594 191.106 187.519 191.098 187.331 190.986C187.271 190.949 187.219 190.889 187.211 190.814C187.166 190.41 187.556 189.879 187.714 189.408C187.804 189.153 187.871 188.899 187.969 188.645C188.006 188.54 188.051 188.435 188.156 188.338C188.613 187.942 188.568 187.164 188.156 186.752C187.706 186.303 187.024 186.348 186.567 186.752C186.124 187.141 185.907 187.725 185.72 188.271C185.637 188.503 185.562 188.735 185.487 188.974C185.427 189.176 185.547 188.907 185.45 189.071C185.36 189.213 185.292 189.37 185.225 189.527C184.58 191.039 185.21 192.654 186.784 193.2C188.066 193.649 189.565 193.193 190.682 192.535C191.245 192.206 191.732 191.779 192.227 191.36C192.549 191.083 192.954 190.777 193.171 190.612C194.116 189.887 195.128 189.198 195.96 188.346C196.994 187.306 195.405 185.712 194.386 186.745Z" fill="black"/>
<path d="M203.569 176.1C200.503 179.788 200.983 184.605 199.949 189.011C199.701 190.058 199.364 191.068 198.817 191.996C198.539 192.467 197.377 194.24 196.785 193.305C196.268 192.482 196.335 191.158 196.373 190.231C196.418 189.228 196.568 188.151 197.017 187.238C197.662 185.952 195.721 184.815 195.076 186.109C194.176 187.897 193.959 190.073 194.184 192.048C194.304 193.073 194.521 194.21 195.241 194.996C196.035 195.863 197.212 196.02 198.269 195.564C200.226 194.726 201.275 192.467 201.86 190.545C202.482 188.495 202.64 186.341 202.917 184.231C203.217 181.95 203.637 179.503 205.151 177.678C206.073 176.586 204.491 174.985 203.569 176.1Z" fill="black"/>
<path d="M206.2 171.731C206.642 173.654 207.077 175.569 207.519 177.491C207.729 178.404 207.961 179.316 208.141 180.237C208.216 180.596 208.374 181.389 207.879 181.508C207.654 181.561 207.272 181.336 207.092 181.411C207.069 181.403 207.054 181.396 207.032 181.389C207.219 181.471 207.257 181.486 207.144 181.433C207.077 181.396 207.009 181.366 206.942 181.336C206.522 181.134 206.11 180.917 205.705 180.708C204.948 180.311 204.13 179.758 203.298 179.541C201.897 179.174 201.297 181.336 202.699 181.703C202.789 181.725 202.939 181.815 202.631 181.665C202.721 181.71 202.811 181.748 202.894 181.785C203.133 181.897 203.373 182.024 203.613 182.144C204.138 182.413 204.663 182.69 205.188 182.959C206.372 183.565 207.811 184.156 209.101 183.431C211.192 182.249 210.3 179.578 209.88 177.745C209.378 175.539 208.868 173.339 208.366 171.133C208.044 169.726 205.877 170.317 206.2 171.731Z" fill="black"/>
<path d="M307.837 299.095C308.017 301.033 308.197 302.97 308.377 304.907C308.422 305.401 308.692 305.858 309.202 305.992C315.956 307.713 322.86 308.214 329.795 307.69C332.711 307.473 336.264 307.069 338.806 308.85C340.612 310.121 341.977 312.71 340.635 314.759C340.86 314.587 341.084 314.415 341.309 314.243C327.268 317.841 312.793 319.629 298.302 319.525C294.239 319.495 290.175 319.315 286.12 319.001C286.495 319.375 286.869 319.749 287.244 320.123C287.124 316.585 288.256 313.054 289.231 309.695C290.228 306.261 291.382 302.813 291.757 299.245C291.907 297.808 289.658 297.823 289.508 299.245C288.759 306.314 284.748 312.912 284.995 320.123C285.018 320.766 285.498 321.193 286.12 321.245C299.696 322.315 313.377 321.739 326.819 319.562C330.185 319.016 333.528 318.372 336.856 317.624C338.476 317.258 340.147 316.944 341.737 316.45C342.929 316.083 343.341 314.513 343.438 313.39C343.633 311.049 342.261 308.73 340.477 307.309C338.153 305.461 335.027 305.184 332.156 305.296C328.49 305.439 324.892 305.79 321.219 305.596C317.365 305.386 313.55 304.788 309.809 303.83C310.086 304.189 310.356 304.548 310.634 304.915C310.454 302.977 310.274 301.04 310.094 299.103C309.959 297.666 307.71 297.651 307.837 299.095Z" fill="black"/>
<path d="M174.565 288.727C172.361 291.959 169.932 295.026 167.293 297.913C165.944 299.387 164.535 300.823 163.08 302.2C162.436 302.813 161.776 303.411 161.116 304.002C160.389 304.646 159.55 305.252 159.047 306.104C158.095 307.728 158.792 309.463 159.917 310.78C161.229 312.328 162.975 313.592 164.497 314.931C167.698 317.744 170.824 320.699 174.145 323.37C175.765 324.671 177.391 325.09 179.423 325.389C181.552 325.696 183.673 326.01 185.802 326.317C187.931 326.624 190.053 326.938 192.182 327.244C194.199 327.536 196.395 328.127 198.442 327.97C201.665 327.723 203.194 324.768 202.655 321.806C202.047 318.515 198.884 316.764 196.035 315.635C193.944 314.812 191.807 314.086 189.686 313.316C188.539 312.904 187.399 312.485 186.252 312.074C185.593 311.835 184.678 311.558 184.251 310.959C183.726 310.226 184.393 308.962 184.648 308.206C185.008 307.159 185.405 306.134 185.862 305.124C186.762 303.135 187.841 301.227 189.063 299.417C189.873 298.212 187.924 297.09 187.122 298.287C185.113 301.265 183.508 304.511 182.377 307.922C181.874 309.433 181.424 311.012 182.519 312.373C183.463 313.54 184.985 314.004 186.342 314.498C188.231 315.186 190.12 315.867 192.01 316.555C193.651 317.153 195.353 317.684 196.92 318.47C199.094 319.562 201.53 321.881 200.226 324.544C199.484 326.055 197.647 325.801 196.253 325.599C194.244 325.315 192.242 325.015 190.233 324.724C186.32 324.155 182.354 323.706 178.463 323.003C176.492 322.644 175.217 321.365 173.763 320.093C172.226 318.747 170.697 317.4 169.16 316.054C167.623 314.707 166.094 313.361 164.557 312.014C163.868 311.408 163.17 310.817 162.488 310.204C161.881 309.658 161.124 308.992 160.891 308.177C160.622 307.212 161.566 306.606 162.203 306.045C162.998 305.349 163.785 304.638 164.55 303.913C166.049 302.499 167.488 301.033 168.883 299.514C171.649 296.492 174.19 293.26 176.507 289.872C177.324 288.667 175.382 287.538 174.565 288.727Z" fill="black"/>
<path d="M314.983 34.2162C314.923 34.0665 314.856 33.9169 314.796 33.7673C314.631 33.4831 314.406 33.2661 314.121 33.0941C314.098 33.0791 314.083 33.0641 314.061 33.0567C314.053 33.0492 314.038 33.0492 314.031 33.0417C314.023 33.0417 314.016 33.0342 314.008 33.0342C313.866 32.9669 313.701 32.8996 313.551 32.8397C313.506 32.8248 313.461 32.8098 313.409 32.8023C313.401 32.8023 313.394 32.8023 313.394 32.8023C313.236 32.7799 313.049 32.75 312.884 32.735C312.869 32.735 312.862 32.735 312.847 32.735C312.824 32.735 312.802 32.735 312.772 32.735C312.757 32.735 312.749 32.735 312.734 32.735C312.727 32.735 312.719 32.735 312.719 32.735C312.562 32.7574 312.374 32.7799 312.209 32.8023C312.187 32.8098 312.157 32.8098 312.134 32.8173C311.999 32.8472 311.872 32.9071 311.752 32.9819C311.692 32.8921 311.625 32.8023 311.55 32.7126C310.658 31.7176 309.488 31.0668 308.266 30.5208C307.786 30.0121 307.149 29.668 306.407 29.5109C306.31 28.8825 305.912 28.3065 305.118 28.0821C301.294 27.0049 297.081 27.4462 293.663 29.5184C292.126 30.446 290.814 31.6653 289.765 33.1165C288.918 34.2835 288.468 35.6449 287.756 36.8643C287.508 37.0139 287.306 37.2159 287.163 37.4852C287.021 37.7619 286.886 38.0462 286.759 38.3305C286.706 38.4352 286.661 38.5399 286.624 38.6446C284.899 42.6692 284.547 47.18 285.732 51.4214C285.821 51.7581 286.016 52.0423 286.264 52.2667C286.294 52.364 286.316 52.4687 286.339 52.5734C286.339 52.6108 286.354 52.7156 286.354 52.7904C286.361 53.112 286.354 53.4337 286.369 53.7554C286.406 54.466 286.534 55.1767 286.714 55.8649C286.886 56.5082 287.051 57.2114 287.373 57.8023C287.778 58.5429 288.49 59.0815 289.307 59.276C289.982 59.4331 290.747 59.3882 291.421 59.2237C291.834 59.1189 292.171 58.8945 292.441 58.6028C292.966 58.5504 293.49 58.498 294.015 58.4382C294.637 58.3709 295.2 58.311 295.754 57.9894C296.069 57.8098 296.302 57.5555 296.519 57.2862C297.254 56.9271 297.703 56.2015 297.591 55.3487C297.539 54.9597 297.374 54.5483 297.074 54.2715C296.691 53.9199 296.272 53.7703 295.747 53.7254C295.559 53.7105 295.38 53.7329 295.192 53.7778C294.847 53.688 294.502 53.5758 294.15 53.501C293.67 53.4038 293.191 53.4038 292.718 53.3813C292.268 53.0896 291.774 52.8502 291.256 52.6707C291.234 52.5809 291.211 52.4912 291.174 52.4014V52.3939C291.196 52.4388 291.196 52.4313 291.174 52.364C291.174 52.2742 291.152 52.1396 291.152 52.0947C291.152 51.9301 291.167 51.773 291.189 51.6084C291.197 51.5262 291.211 51.4439 291.219 51.3541L291.189 51.601C291.137 51.571 291.324 50.8305 291.346 50.7332C291.414 50.4265 291.489 50.1198 291.579 49.8131C291.661 49.5289 291.751 49.2521 291.856 48.9678C291.909 48.8257 291.961 48.691 292.014 48.5564C292.021 48.5414 292.021 48.5414 292.021 48.5265C292.029 48.5115 292.036 48.4965 292.044 48.4741C292.291 47.9131 292.583 47.3745 292.906 46.8508C293.251 46.2823 293.221 45.5268 292.891 44.9508C292.928 44.9208 292.966 44.8984 293.003 44.8685C293.086 44.7937 293.176 44.7263 293.258 44.6515C293.266 44.644 293.266 44.644 293.273 44.6366C293.453 44.5169 293.633 44.3897 293.82 44.27C294.188 44.0456 294.562 43.8736 294.945 43.6791C294.975 43.6641 295.005 43.6566 295.035 43.6417C295.125 43.6043 295.222 43.5743 295.32 43.5444C295.529 43.4771 295.739 43.4098 295.949 43.3574C296.182 43.2975 296.414 43.2452 296.654 43.2078L296.684 43.2003C296.781 43.2078 296.909 43.1704 296.991 43.1629C297.599 43.1105 298.341 42.8562 298.611 42.2353C299.053 41.203 299.3 40.1632 299.225 39.0262C299.18 38.3379 299.098 37.6572 299.015 36.9765C300.042 36.5875 301.077 36.2359 302.111 35.8843C302.276 35.832 302.434 35.7422 302.576 35.6524C303.648 35.9068 304.743 36.0564 305.837 36.1312C306.399 36.1686 306.962 36.0115 307.449 35.7272C307.531 35.9292 307.621 36.1312 307.704 36.3257C307.936 36.7221 308.251 37.0288 308.648 37.2682C309.143 37.6348 309.743 37.8891 310.335 38.0686C310.972 38.2631 311.79 38.136 312.359 37.8068C312.817 37.5375 313.244 37.0513 313.461 36.5276C313.529 36.5202 313.596 36.5127 313.664 36.4902C313.911 36.4304 314.121 36.3182 314.301 36.1536C314.503 36.019 314.668 35.8469 314.781 35.63C314.841 35.4804 314.908 35.3308 314.968 35.1811C315.073 34.8744 315.073 34.5453 314.983 34.2162Z" fill="black"/>
<path d="M428.158 145.108C433.54 145.108 437.903 140.754 437.903 135.383C437.903 130.012 433.54 125.658 428.158 125.658C422.775 125.658 418.412 130.012 418.412 135.383C418.412 140.754 422.775 145.108 428.158 145.108Z" fill="white" stroke="#FE4D3D" stroke-miterlimit="10"/>
</g>
<defs>
<clipPath id="clip0">
<rect x="-43" width="542" height="328" fill="white"/>
</clipPath>
</defs>
</svg>
