<svg width="20" height="20" viewBox="0 0 20 20" fill="none" xmlns="http://www.w3.org/2000/svg">
<rect x="0.5" y="0.5" width="19" height="19" rx="1.5" fill="#1F99A7" stroke="#1F99A7"/>
<path d="M4.52031 9.53172C4.26168 9.24437 3.81908 9.22107 3.53172 9.47969C3.24437 9.73832 3.22107 10.1809 3.47969 10.4683L4.52031 9.53172ZM8.5 15L7.97969 15.4683L8.56526 16.1189L9.07122 15.4046L8.5 15ZM17.5712 3.40461C17.7947 3.08914 17.7201 2.65224 17.4046 2.42878C17.0891 2.20532 16.6522 2.27991 16.4288 2.59539L17.5712 3.40461ZM3.47969 10.4683L7.97969 15.4683L9.02031 14.5317L4.52031 9.53172L3.47969 10.4683ZM9.07122 15.4046L17.5712 3.40461L16.4288 2.59539L7.92878 14.5954L9.07122 15.4046Z" fill="white"/>
</svg>
