<svg width="35" height="35" viewBox="0 0 35 35" fill="none" xmlns="http://www.w3.org/2000/svg">
<path d="M30.0635 13.7972H28.2054C29.4154 11.9446 29.2074 9.43667 27.5806 7.80985C25.7147 5.94398 22.6896 5.94398 20.8237 7.80985L20.3956 8.23799V5.9055C20.3956 2.644 17.7516 0 14.4901 0C11.2286 0 8.58464 2.644 8.58464 5.9055V8.46761H7.60129C3.4032 8.46761 0 11.8708 0 16.0689C0 20.267 3.4032 23.6702 7.60129 23.6702H30.0635C32.7899 23.6702 35 21.4601 35 18.7337C35 16.0074 32.7899 13.7972 30.0635 13.7972Z" fill="#71CAD4"/>
<path d="M30.0634 13.7971H28.2054C29.4153 11.9445 29.2074 9.43655 27.5806 7.80974C25.7147 5.94387 22.6895 5.94387 20.8237 7.80974L20.3955 8.23787V5.90538C20.3955 2.65865 17.7752 0.024834 14.5342 0.000976562V23.6701H30.0634C32.7898 23.6701 35 21.4599 35 18.7336C35 16.0072 32.7898 13.7971 30.0634 13.7971Z" fill="#1F99A7"/>
<path d="M11.4014 33.5979C11.4508 33.5986 11.5002 33.5998 11.5498 33.5998C17.1466 33.5998 21.6999 29.0465 21.6999 23.4497C21.6999 19.8475 19.8138 16.6776 16.9772 14.8757C15.4065 13.8779 11.4508 23.1764 11.4014 23.1771V33.5979H11.4014Z" fill="#1A838E"/>
<path d="M16.8812 14.8537C15.3533 13.8699 13.5439 13.2998 11.6061 13.2998C6.15001 13.2998 11.6061 23.0998 11.6061 23.0998L16.8812 14.8537Z" fill="#F0F5F8"/>
<path d="M11.2814 13.2998C5.87768 13.2998 1.48145 17.8798 1.48145 23.5094C2.47271 29.0434 11.2814 23.2351 11.2814 23.2351V13.2998Z" fill="#EBEBFF"/>
<path d="M1.40366 23.1777C1.40128 23.2683 1.3999 23.3592 1.3999 23.4503C1.3999 29.0471 5.9532 33.6004 11.55 33.6004V23.1777H1.40366Z" fill="#71CAD4"/>
</svg>
