<svg width="68" height="68" viewBox="0 0 68 68" fill="none" xmlns="http://www.w3.org/2000/svg">
<path d="M34 0C15.3133 0 0 15.3133 0 34C0 52.6867 15.3133 68 34 68C52.6867 68 68 52.6867 68 34C68 15.3133 52.6867 0 34 0Z" fill="#F0F5F8"/>
<path d="M68 34C68 52.6867 52.6867 68 34 68V0C52.6867 0 68 15.3133 68 34Z" fill="#F0F5F8"/>
<path d="M34 7.96875C19.7358 7.96875 7.96875 19.7358 7.96875 34C7.96875 48.2639 19.7358 60.0312 34 60.0312C48.2642 60.0312 60.0312 48.2639 60.0312 34C60.0312 19.7358 48.2642 7.96875 34 7.96875Z" fill="#71CAD4"/>
<path d="M60.0312 34C60.0312 48.2639 48.2642 60.0312 34 60.0312V7.96875C48.2642 7.96875 60.0312 19.7358 60.0312 34Z" fill="#1F99A7"/>
<path d="M37.9844 32.0078H35.9922V24.0391H37.9844C39.1001 24.0391 39.9766 24.9155 39.9766 26.0312C39.9766 27.1467 40.853 28.0234 41.9688 28.0234C43.0845 28.0234 43.9609 27.1467 43.9609 26.0312C43.9609 22.7241 41.2915 20.0547 37.9844 20.0547H35.9922V18.0625C35.9922 16.9467 35.1158 16.0703 34 16.0703C32.8842 16.0703 32.0078 16.9467 32.0078 18.0625V20.0547H30.0156C26.7085 20.0547 24.0391 22.7241 24.0391 26.0312V30.0156C24.0391 33.3225 26.7085 35.9922 30.0156 35.9922H32.0078V43.9609H30.0156C28.8999 43.9609 28.0234 43.0842 28.0234 41.9688C28.0234 40.853 27.147 39.9766 26.0312 39.9766C24.9155 39.9766 24.0391 40.853 24.0391 41.9688C24.0391 45.2756 26.7085 47.9453 30.0156 47.9453H32.0078V49.9375C32.0078 51.053 32.8842 51.9297 34 51.9297C35.1158 51.9297 35.9922 51.053 35.9922 49.9375V47.9453H37.9844C41.2915 47.9453 43.9609 45.2756 43.9609 41.9688V37.9844C43.9609 34.6772 41.2915 32.0078 37.9844 32.0078ZM32.0078 32.0078H30.0156C28.8999 32.0078 28.0234 31.1311 28.0234 30.0156V26.0312C28.0234 24.9155 28.8999 24.0391 30.0156 24.0391H32.0078V32.0078ZM39.9766 41.9688C39.9766 43.0842 39.1001 43.9609 37.9844 43.9609H35.9922V35.9922H37.9844C39.1001 35.9922 39.9766 36.8686 39.9766 37.9844V41.9688Z" fill="white"/>
<path d="M37.9844 32.0078H35.9922V24.0391H37.9844C39.1001 24.0391 39.9766 24.9155 39.9766 26.0312C39.9766 27.1467 40.853 28.0234 41.9688 28.0234C43.0845 28.0234 43.9609 27.1467 43.9609 26.0312C43.9609 22.7241 41.2915 20.0547 37.9844 20.0547H35.9922V18.0625C35.9922 16.9467 35.1158 16.0703 34 16.0703V51.9297C35.1158 51.9297 35.9922 51.053 35.9922 49.9375V47.9453H37.9844C41.2915 47.9453 43.9609 45.2756 43.9609 41.9688V37.9844C43.9609 34.6772 41.2915 32.0078 37.9844 32.0078ZM39.9766 41.9688C39.9766 43.0842 39.1001 43.9609 37.9844 43.9609H35.9922V35.9922H37.9844C39.1001 35.9922 39.9766 36.8686 39.9766 37.9844V41.9688Z" fill="white"/>
</svg>
