<svg width="414" height="221" viewBox="0 0 414 221" fill="none" xmlns="http://www.w3.org/2000/svg">
<g clip-path="url(#clip0)">
<path d="M457.195 162.094C457.094 162.013 456.986 161.938 456.885 161.858C457.158 161.579 457.41 161.268 457.619 160.931C460.824 159.114 461.135 154.059 456.643 152.226C449.182 149.181 441.426 146.104 433.557 144.282C429.778 143.408 425.988 143.22 422.284 141.966C418.537 140.701 414.887 139.157 411.13 137.903C403.443 135.336 395.585 133.342 387.705 131.46C380.094 129.648 372.203 128.292 364.838 125.607C364.184 125.365 363.498 125.333 362.839 125.451C362.132 125.071 361.419 124.695 360.695 124.331C360.422 124.09 360.105 123.865 359.741 123.672C346.807 116.666 332.05 122.492 318.306 120.6C317.529 120.005 316.789 119.185 316.082 118.719C314.79 117.866 313.316 117.32 311.858 116.821C308.615 115.712 305.275 114.758 301.952 113.911C297.884 112.871 293.617 112.19 289.42 112.383C289.211 112.276 288.991 112.174 288.766 112.088C286.23 111.139 283.802 111.675 281.31 112.437C279.412 113.015 277.397 113.037 275.542 113.723C273.328 114.548 271.361 115.449 269.083 116.124C266.976 116.746 265.009 117.636 263.214 118.901C261.52 120.096 259.542 121.485 258.48 123.329C257.29 125.408 257.414 128.072 257.489 130.479C256.738 133.122 256.015 135.775 255.656 138.503C255.468 139.935 255.393 141.323 255.473 142.743C255.345 142.642 255.211 142.545 255.077 142.443C255.082 142.459 255.087 142.475 255.087 142.497C255.345 144.464 256.385 146.238 257.103 148.088C257.66 148.114 258.116 148.549 258.325 149.063C258.212 148.795 258.352 149.074 258.384 149.133C258.389 149.149 258.395 149.149 258.4 149.16C258.405 149.165 258.405 149.165 258.411 149.17C258.518 149.283 258.625 149.39 258.743 149.492C258.995 149.712 259.263 149.921 259.488 150.173C259.794 150.516 260.056 150.88 260.265 151.288C260.351 151.448 260.432 151.615 260.517 151.775C260.566 151.856 260.608 151.942 260.662 152.022C260.689 152.065 260.732 152.124 260.742 152.145C261.257 152.762 261.911 153.271 262.495 153.812C263.155 154.423 263.76 155.067 264.264 155.812C264.682 156.423 264.361 157.259 263.787 157.629C263.155 158.036 262.361 157.725 261.97 157.152C261.922 157.082 261.879 157.018 261.831 156.953C261.809 156.927 261.702 156.798 261.691 156.782C261.563 156.632 261.434 156.492 261.295 156.353C260.989 156.037 260.667 155.742 260.346 155.447C259.938 155.072 259.515 154.707 259.129 154.305C259.006 154.305 258.888 154.295 258.775 154.268C258.443 154.177 258.164 153.946 257.982 153.657C257.451 152.805 256.99 151.915 256.395 151.105C256.32 151.014 256.245 150.928 256.165 150.843C255.629 150.853 255.098 150.575 254.91 149.915C254.878 149.792 254.835 149.674 254.798 149.551C254.38 149.519 253.983 149.272 253.715 148.902C253.774 148.983 253.64 148.854 253.581 148.811C253.399 148.699 253.356 148.688 253.201 148.634C253.061 148.586 252.916 148.549 252.777 148.516C252.305 148.468 251.844 148.388 251.394 148.275C250.858 148.211 250.295 148.152 249.759 148.045C249.137 147.921 248.848 147.493 248.811 147.01C248.226 146.86 247.642 146.715 247.047 146.608C245.289 146.287 243.145 146.587 241.429 147.294C241.237 147.428 241.049 147.573 240.851 147.707C241.376 148.168 242.057 148.527 242.925 148.72C243.08 148.758 243.241 148.79 243.397 148.827C243.295 148.967 243.198 149.117 243.113 149.267C243.096 149.256 243.075 149.245 243.059 149.235C242.255 148.747 241.472 148.264 240.679 147.825C240.122 148.195 239.553 148.559 238.969 148.892C238.256 149.294 237.586 148.983 237.238 148.457C237.195 148.495 237.152 148.527 237.109 148.565C237.109 148.565 237.109 148.565 237.114 148.565C237.511 148.731 237.801 148.924 237.972 149.331C238.133 149.706 238.133 150.157 237.908 150.51C237.393 151.32 236.525 151.888 235.614 152.156C234.772 152.403 233.764 152.328 233.121 151.679C232.778 151.915 232.435 152.145 232.081 152.36C231.663 152.612 231.213 152.858 230.741 153.019C230.784 153.11 230.822 153.207 230.87 153.298C229.991 154.456 229.562 156.01 229.835 157.5C229.728 157.43 229.621 157.361 229.514 157.291C224.995 154.386 219.335 161.413 223.666 164.87C225.542 166.366 227.455 167.819 229.396 169.234C228.903 169.212 228.409 169.207 227.916 169.239C223.714 169.496 221.784 174.851 224.266 177.462C223.071 177.306 221.875 177.145 220.685 176.99C217.019 176.508 215.245 180.78 216.242 183.76C212.082 182.452 207.848 181.133 203.565 180.061C199.234 176.02 194.099 172.943 188.111 172.348C186.975 172.235 185.929 172.659 185.099 173.377C184.413 172.964 183.721 172.562 183.024 172.166C182.987 172.235 182.949 172.305 182.901 172.369C182.542 172.852 182.209 173.286 181.888 173.704C181.882 173.736 181.877 173.763 181.872 173.795C181.598 174.948 180.65 175.859 179.787 176.69C179.771 176.985 179.695 177.29 179.572 177.58C179.245 178.346 178.548 178.791 177.953 179.316C177.557 179.67 177.165 180.035 176.78 180.399C176.747 180.619 176.678 180.833 176.56 181.037C176.431 181.262 176.265 181.444 176.077 181.605C175.868 181.825 175.659 182.039 175.439 182.248C175.295 182.382 175.145 182.516 175.005 182.65C174.893 182.752 174.732 182.929 174.818 182.811C174.496 183.229 174.207 183.653 173.821 183.996C173.724 184.173 173.596 184.334 173.445 184.451C173.054 184.752 172.406 184.853 171.971 184.553C171.961 184.548 171.95 184.543 171.945 184.532C171.886 184.516 171.827 184.494 171.768 184.473C171.162 184.623 170.497 184.58 169.892 184.505C169.409 184.446 168.927 184.376 168.455 184.253C168.171 184.178 167.882 184.076 167.613 183.942C167.592 183.953 167.571 183.964 167.549 183.974C167.217 184.146 166.863 184.183 166.547 184.098C166.429 184.189 166.29 184.269 166.123 184.334C165.753 184.478 165.373 184.602 165.003 184.741C164.312 184.998 163.62 185.256 162.929 185.513C162.843 185.856 162.628 186.167 162.318 186.328C161.347 186.837 160.313 187.228 159.257 187.518C159.15 187.56 159.032 187.593 158.914 187.609C158.903 187.609 158.892 187.614 158.882 187.614C158.517 187.839 158.142 188.037 157.745 188.198C157.022 188.493 156.239 188.359 155.612 187.903C155.569 187.871 155.237 187.678 155.237 187.652C155.237 187.668 155.553 187.775 155.296 187.673C155.237 187.652 155.172 187.625 155.113 187.603C154.851 187.507 154.588 187.416 154.331 187.308C153.784 187.083 153.28 186.805 152.846 186.419C152.75 186.424 152.653 186.419 152.557 186.397C152.38 186.392 152.214 186.338 152.063 186.242C151.849 186.113 151.645 185.952 151.452 185.792C151.329 185.69 151.211 185.582 151.104 185.459C150.981 185.32 150.868 185.17 150.756 185.02C150.707 184.955 150.664 184.891 150.627 184.821C150.536 184.666 150.466 184.484 150.407 184.317C150.38 184.253 150.364 184.183 150.348 184.114C150.337 184.066 150.337 184.017 150.327 183.964C149.962 183.664 149.614 183.347 149.271 183.02C148.563 182.34 147.716 181.707 147.137 180.898C147.084 180.892 147.025 180.887 146.971 180.865C146.8 180.823 146.65 180.748 146.521 180.63C146.376 180.538 146.264 180.41 146.178 180.26C146.006 179.954 145.846 179.643 145.733 179.306C145.722 179.263 145.717 179.22 145.706 179.182C145.519 179.118 145.336 179.022 145.186 178.888C144.607 178.384 144.071 177.837 143.519 177.301C143.251 177.038 142.978 176.781 142.694 176.529C142.645 176.486 142.243 176.186 142.249 176.154C142.174 176.095 142.099 176.036 142.024 175.977C141.965 175.929 141.906 175.88 141.852 175.827C141.6 175.602 141.38 175.344 141.155 175.092C141.037 174.958 140.919 174.83 140.796 174.707C140.775 174.685 140.753 174.669 140.732 174.653C140.609 174.583 140.657 174.599 140.732 174.653C140.759 174.669 140.785 174.685 140.828 174.707C140.769 174.674 140.716 174.631 140.662 174.594C140.389 174.422 140.099 174.267 139.874 174.031C139.826 173.983 139.794 173.929 139.751 173.881C139.118 174.841 138.502 175.811 137.912 176.792C137.516 177.006 137.146 177.285 136.824 177.639C135.806 178.748 134.809 179.868 133.822 181.005C127.669 178.025 116.595 182.35 111.626 186.569C109.374 185.556 107.241 184.843 105.29 183.208C104.057 182.173 102.84 181.117 101.629 180.061C101.377 179.461 100.964 178.877 100.342 178.341C94.4032 173.216 90.3509 165.621 81.8656 164.415C80.5041 164.222 79.2284 164.27 78.0331 164.511C77.4649 164.463 76.8538 164.522 76.1945 164.72C71.1558 166.237 68.0898 170.424 64.3591 173.838C62.7188 175.339 60.9875 176.684 59.0095 177.719C57.1602 178.684 55.3378 179.257 53.6064 180.233C53.1293 180.158 52.6523 180.094 52.1752 180.024C52.1698 180.035 52.1645 180.045 52.1591 180.056C51.3765 181.273 50.2134 181.825 48.9805 182.468C47.7477 183.111 46.5362 183.894 45.4856 184.811C44.9871 185.245 44.435 185.432 43.9043 185.438C43.5934 185.749 43.2826 186.06 42.9717 186.365C43.0199 186.478 43.0574 186.601 43.0896 186.719C43.2182 186.815 43.3362 186.923 43.4273 187.062C43.5827 187.233 43.6899 187.437 43.7435 187.668C43.8239 188.166 43.8454 188.472 43.7328 188.976C43.7167 189.045 43.6899 189.115 43.6631 189.179C43.5881 189.361 43.5238 189.56 43.4166 189.731C43.1646 190.133 42.8055 190.401 42.3552 190.546C41.8996 190.696 41.4011 190.584 40.9884 190.369C40.7847 190.262 40.6078 190.085 40.4631 189.881C40.447 189.881 40.4363 189.887 40.4202 189.887C40.2915 189.887 40.1629 189.887 40.0342 189.865C39.777 189.865 39.5304 189.801 39.3106 189.667C39.2302 189.608 39.1498 189.544 39.0748 189.485C37.322 188.949 35.537 188.247 33.9772 187.373C33.7735 187.26 33.6127 187.121 33.4626 186.971C31.7419 186.563 30.2143 185.068 28.826 183.921C28.7884 183.889 28.7617 183.856 28.7241 183.824C26.5103 183.942 24.2858 184.178 22.0506 184.575C20.8874 184.778 19.9601 185.54 19.3437 186.521C17.8107 185.808 16.283 185.095 14.75 184.382C12.3914 183.283 9.55052 183.717 8.1515 186.113C7.92101 186.51 7.75484 186.955 7.65299 187.421C7.32601 187.394 6.99905 187.378 6.67743 187.357C7.28313 184.864 6.12532 182.072 3.42375 180.63C-0.087204 178.754 -4.48796 178.662 -8.47063 178.941C-8.96377 179.509 -9.54804 180.024 -10.2342 180.34C-10.261 180.351 -10.2878 180.356 -10.3146 180.367C-11.4402 181.348 -12.6141 182.441 -13.8041 183.31C-14.0828 183.513 -14.3883 183.631 -14.71 183.69C-15.0584 184.001 -15.4122 184.312 -15.7713 184.618C-15.8946 184.725 -16.0286 184.816 -16.1626 184.907C-16.1679 184.912 -16.1787 184.918 -16.184 184.929C-16.2751 185.084 -16.3824 185.229 -16.5217 185.357C-16.7415 185.593 -17.0042 185.765 -17.3043 185.861C-17.5938 186.011 -17.91 186.081 -18.2424 186.07C-18.7409 186.054 -19.0678 185.968 -19.502 185.733C-19.695 185.625 -19.8665 185.475 -20.0327 185.325C-20.038 185.32 -20.0488 185.309 -20.0541 185.304C-20.0648 185.288 -20.0756 185.272 -20.0917 185.255C-20.1399 185.229 -20.1935 185.207 -20.2417 185.18C-20.2525 185.175 -20.2632 185.164 -20.2739 185.159C-20.2846 185.154 -20.2953 185.148 -20.3061 185.143C-20.3275 185.127 -20.3489 185.111 -20.3704 185.095C-20.4937 185.009 -20.5901 184.934 -20.6813 184.853C-20.7617 184.795 -20.8367 184.736 -20.9171 184.671C-21.1101 184.478 -21.2709 184.264 -21.4049 184.033C-22.8951 183.487 -24.3262 182.468 -25.3822 181.621C-32.5381 183.181 -40.3695 184.982 -46.7374 188.836C-48.3562 187.791 -50.3342 187.121 -52.0334 186.713C-53.5771 186.344 -55.0941 185.733 -56.6217 185.164C-56.6593 185.116 -56.6914 185.073 -56.7236 185.025C-57.2542 184.366 -57.8975 183.846 -58.5997 183.396C-59.0178 184.666 -59.8915 185.711 -60.867 186.692C-61.0547 186.88 -61.2691 187.024 -61.4888 187.153C-61.7837 188.15 -62.309 188.911 -62.9522 189.715C-63.1505 189.962 -63.3542 190.198 -63.5633 190.439C-63.6544 190.541 -63.7401 190.648 -63.8366 190.755C-63.842 190.76 -63.8473 190.766 -63.8527 190.771C-63.9706 190.959 -64.0993 191.125 -64.2279 191.302C-64.2386 191.339 -64.244 191.372 -64.2547 191.409C-64.3458 191.8 -64.5281 192.143 -64.7908 192.433C-65.0052 192.76 -65.2839 193.017 -65.6323 193.205C-65.6537 193.215 -65.6698 193.226 -65.6913 193.237C-65.702 193.242 -65.7074 193.242 -65.7181 193.248C-65.7181 193.248 -65.7181 193.253 -65.7234 193.253C-66.104 193.687 -66.5972 194.003 -67.0742 194.336C-68.4089 195.477 -69.8508 196.523 -71.207 197.664C-71.2981 197.74 -71.3946 197.809 -71.4911 197.879C-72.2522 198.71 -73.0187 199.541 -73.871 200.275C-73.9461 200.484 -74.0425 200.677 -74.1819 200.859C-76.0955 203.357 -78.3736 205.389 -80.5928 207.597C-82.0347 209.034 -83.7392 210.781 -85.7118 211.585C-85.7225 211.623 -85.7332 211.665 -85.744 211.703C-84.8756 211.28 -84.0448 210.797 -83.2782 210.202C-79.2795 211.167 -75.0663 212.277 -71.0247 211.017C-70.4565 210.84 -69.9634 210.583 -69.5399 210.282C-66.8223 210.92 -64.0993 211.564 -61.3816 212.201C-59.4787 213.166 -57.5544 214.099 -55.5926 214.951C-51.224 216.854 -46.5498 218.725 -41.731 217.342C-41.1413 217.176 -40.5678 216.951 -40.0157 216.688C-39.4421 216.784 -38.874 216.892 -38.3004 216.988C-36.1563 217.342 -34.0122 216.752 -32.8544 214.769C-31.9646 213.241 -32.0021 211.124 -33.0045 209.639C-29.5739 209.484 -26.138 209.366 -22.7074 209.323C-15.4229 209.639 -8.13293 210.09 -0.918037 211.108C9.02522 212.507 18.47 216.173 28.4025 217.396C31.5275 217.781 33.736 214.137 33.1142 211.301C38.2225 212.941 43.3308 214.581 48.4391 216.222C52.0573 217.385 54.3139 214.485 54.2818 211.489C55.4503 211.74 56.6242 211.955 57.8142 212.121C59.835 212.4 61.8129 211.933 62.9654 210.315C63.4156 210.266 63.8605 210.229 64.3108 210.181C65.3132 210.068 66.1494 209.763 66.8301 209.328C67.0553 209.741 67.275 210.159 67.5162 210.572C69.0493 213.188 71.8152 213.429 73.8628 212.271C76.6447 215.016 81.5279 213.734 82.0425 209.028C82.0479 208.996 82.0479 208.969 82.0479 208.937C82.9001 210.647 83.8864 212.293 85.0443 213.852C86.5397 217.203 88.7482 220.086 92.2484 220.086C96.5366 220.086 98.268 216.345 98.8094 212.362C100.048 213.043 101.313 213.676 102.604 214.254C106.014 215.782 110.034 217.744 113.872 216.913C114.799 216.709 115.662 216.345 116.434 215.857C117.86 216.361 119.205 216.157 120.293 215.525C122.48 215.289 124.528 214.469 125.863 212.571C126.463 211.714 126.795 210.856 126.913 210.02C128.269 210.154 129.62 210.282 130.976 210.4C135.029 210.749 140.421 211.306 144.237 209.173C145.508 209.457 146.784 209.746 148.054 210.025C147.893 210.743 147.781 211.472 147.727 212.228C147.346 217.615 156.121 218.848 157.204 213.509C157.311 212.984 157.424 212.464 157.542 211.944C157.906 212.008 158.271 212.067 158.635 212.132C158.941 212.512 159.246 212.893 159.573 213.263C161.594 215.541 164.403 214.962 166.172 213.204C166.525 213.241 166.879 213.29 167.233 213.327C167.249 213.327 167.265 213.327 167.287 213.327C169.683 215.235 173.269 213.777 174.485 211.092C175.536 210.845 176.522 210.24 177.251 209.387C179.888 209.65 182.542 209.838 185.195 209.977C185.586 210.572 185.972 211.172 186.364 211.767C189.001 215.734 194.501 213.842 195.342 210.309C199.904 210.395 204.476 210.433 209.032 210.534C210.64 210.781 212.248 211.044 213.851 211.333C225.633 213.429 237.399 215.804 249.384 216.366C252.997 216.538 254.508 213.391 253.892 210.62C254.005 210.62 254.117 210.62 254.23 210.615C254.825 210.733 255.42 210.84 256.015 210.963C257.36 211.237 258.523 211.049 259.456 210.567C262.302 210.54 265.149 210.513 267.995 210.486C268.933 210.749 269.876 211.001 270.82 211.237C272.599 211.676 274.036 211.274 275.044 210.422C278.458 210.39 281.878 210.363 285.292 210.331C286.418 210.942 287.549 211.542 288.691 212.126C291.323 213.472 294.013 212.271 295.257 210.245C301.373 210.207 307.489 210.234 313.6 210.561C314.077 210.722 314.581 210.797 315.101 210.76C315.342 210.743 315.583 210.727 315.824 210.711C320.016 211.033 324.219 211.569 328.416 211.606C329.07 211.719 329.729 211.826 330.388 211.912C332.425 213.488 334.494 215.037 336.601 216.527C338.327 217.749 341.028 217.192 342.449 215.771C343.703 214.517 344.035 212.813 343.655 211.194C351.073 211.848 358.487 212.603 365.921 212.737C367.111 212.759 368.076 212.421 368.816 211.864C370.831 212.684 372.873 213.424 374.943 213.933C378.598 214.833 382.366 213.826 384.237 211.092C387.437 212.26 391.409 213.231 394.347 211.574C394.62 211.73 394.888 211.885 395.161 212.041C397.348 213.247 400.307 212.357 401.717 210.459C402.719 210.62 403.722 210.776 404.729 210.915C406.932 213.515 409.366 215.9 412.073 218.039C414.528 219.974 417.862 219.936 419.652 217.063C421.818 213.584 420.596 210.175 418.698 207.077C419.615 205.657 419.92 203.829 419.004 202.135C417.058 198.538 415.048 194.915 412.866 191.409C416.147 191.849 419.047 188.879 418.189 185.625C418.237 185.652 418.285 185.679 418.339 185.706C421.486 187.389 425.699 184.843 425.763 181.616C426.889 182.65 428.009 183.685 429.119 184.736C431.997 187.464 435.819 185.668 437.03 182.902C438.933 184.553 440.782 186.279 442.557 188.113C443.532 189.12 444.636 189.549 445.708 189.565C446.491 190.509 447.66 191.039 448.892 191.162C448.828 193.816 448.775 196.469 448.742 199.122C448.657 205.335 458.305 205.335 458.391 199.122C458.509 190.401 458.782 181.686 459.2 172.975C461.677 169.491 460.481 164.801 457.195 162.094Z" fill="white"/>
<path d="M275.478 113.514C273.478 113.503 271.817 114.538 270.101 115.438C268.418 116.323 267.035 117.202 265.888 118.751C265.754 118.933 265.658 119.132 265.588 119.335C264.671 118.654 263.433 118.66 262.318 119.142C259.713 120.273 257.939 122.868 257.516 125.639C256.449 128.48 256.143 131.664 256.117 134.607C256.09 137.201 258.566 137.973 260.319 137.094C261.091 137.003 261.825 136.563 262.302 135.652C262.361 135.539 262.42 135.427 262.479 135.314C262.929 134.451 262.929 133.615 262.651 132.902C262.651 132.693 262.645 132.484 262.651 132.275C262.661 131.728 262.495 131.23 262.222 130.806C262.302 130.163 262.426 129.52 262.586 128.898C263.037 128.378 263.31 127.713 263.305 126.995C263.305 126.979 263.305 126.963 263.305 126.947C263.621 126.309 264.018 125.725 264.511 125.21C264.784 124.926 264.982 124.626 265.122 124.315C265.175 124.288 265.229 124.267 265.283 124.24C265.979 123.934 266.419 123.286 266.607 122.557C266.714 122.642 266.821 122.723 266.934 122.787C268.434 123.661 270.021 123.012 270.97 121.731C271.377 121.179 272.487 120.836 273.066 120.536C273.709 120.198 274.727 119.41 275.467 119.416C279.273 119.426 279.278 113.53 275.478 113.514Z" fill="white"/>
<path d="M257.548 124.165C257.055 127.676 256.562 131.182 256.069 134.693C255.57 138.22 255.093 141.929 256.353 145.263C258.465 150.843 264.999 154.161 266.146 160.015C266.323 160.921 266.35 161.896 265.959 162.732C265.042 164.7 262.373 165.069 260.85 166.619C258.492 169.009 259.692 172.997 261.075 176.058C266.87 188.869 273.495 201.299 280.892 213.258" fill="white"/>
<path d="M257.162 124.058C256.62 127.922 256.052 131.787 255.532 135.657C255.082 139.029 254.782 142.583 256.143 145.799C258.245 150.773 263.567 153.641 265.384 158.749C265.91 160.228 266.247 162.072 265.068 163.332C264.168 164.292 262.833 164.736 261.739 165.423C259.327 166.939 258.797 169.502 259.327 172.166C259.611 173.586 260.142 174.942 260.732 176.256C261.493 177.955 262.281 179.643 263.079 181.326C264.671 184.693 266.328 188.037 268.032 191.35C271.913 198.876 276.094 206.252 280.548 213.456C280.822 213.895 281.513 213.493 281.245 213.048C277.327 206.707 273.618 200.237 270.144 193.644C268.445 190.423 266.799 187.174 265.207 183.899C264.393 182.222 263.594 180.538 262.806 178.85C262.077 177.285 261.3 175.72 260.716 174.095C259.751 171.399 259.247 168.017 262.002 166.211C263.026 165.54 264.189 165.106 265.149 164.34C266.215 163.488 266.735 162.303 266.671 160.936C266.408 155.42 260.968 151.947 258.137 147.755C257.221 146.394 256.545 144.92 256.224 143.301C255.822 141.269 255.934 139.163 256.159 137.12C256.636 132.827 257.339 128.549 257.939 124.272C258.003 123.763 257.231 123.543 257.162 124.058Z" fill="black"/>
<path d="M429.896 143.478C424.696 141.414 419.17 139.699 413.59 139.093C409.822 138.68 409.854 144.582 413.59 144.989C418.596 145.536 423.673 147.316 428.331 149.165C431.852 150.564 433.385 144.866 429.896 143.478Z" fill="white"/>
<path d="M25.3203 181.171C22.935 179.08 20.7695 177.086 17.6552 176.272C16.4009 175.264 14.2675 175.114 12.8792 174.739C11.1264 174.262 9.44864 173.752 7.77088 174.063C6.44154 173.86 5.0586 173.86 3.63813 174.069C0.0521288 174.594 -4.76674 176.309 -7.43078 178.871C-8.86197 180.249 -8.40634 182.045 -7.24853 183.069C-8.31522 185.105 -5.91918 187.818 -3.72148 187.073C-3.67324 187.057 -3.625 187.04 -3.57676 187.024C-3.42131 187.024 -3.2605 187.014 -3.09434 186.987C-2.45111 187.298 -1.69531 187.394 -0.901996 187.148C-0.966319 188.021 -0.644708 188.868 -0.119404 189.512C-0.0711622 189.989 0.0735722 190.471 0.298703 190.932C0.990174 192.363 3.03779 192.749 4.33497 191.988C4.62978 191.816 4.86027 191.602 5.0586 191.372C5.44454 192.792 6.73099 193.923 8.54276 193.328C12.0216 192.186 15.9935 190.718 19.7671 190.38C21.0482 191.2 22.8707 191.173 23.8355 189.463C23.9535 189.26 24.066 189.051 24.184 188.847C24.2268 188.772 24.259 188.697 24.2912 188.622C25.6956 190.471 28.9814 190.68 29.3673 187.866C29.8712 184.269 27.7271 183.283 25.3203 181.171Z" fill="white"/>
<path d="M113.191 184.896C112.832 184.275 112.44 183.953 111.872 183.546C111.283 183.127 110.275 183.063 109.599 183.251C108.913 183.438 108.174 183.969 107.836 184.607C107.477 185.293 107.295 186.118 107.541 186.88C107.547 186.896 107.557 186.917 107.563 186.933C107.525 187.121 107.504 187.308 107.504 187.48C107.504 188.204 107.825 189.067 108.367 189.565C108.929 190.08 109.664 190.466 110.452 190.428C111.261 190.391 111.926 190.101 112.537 189.565C113.314 188.879 113.716 187.753 113.689 186.735C113.679 186.102 113.512 185.448 113.191 184.896Z" fill="white"/>
<path d="M141.552 176.899C141.455 176.513 141.305 176.175 141.118 175.87C140.968 175.184 140.539 174.54 139.729 174.09C137.95 173.098 135.977 172.589 133.999 172.691C133.185 172.316 132.241 172.257 131.271 172.648C130.697 172.879 130.161 173.168 129.668 173.511C128.795 173.881 128.023 174.465 127.412 175.226C127.026 175.371 126.667 175.586 126.345 175.87C124.115 177.858 121.172 179.772 120.036 182.613C119.446 184.092 120.679 185.85 122.094 186.242C123.734 186.692 125.064 185.711 125.675 184.28C125.68 184.28 125.691 184.28 125.696 184.28C125.696 184.323 125.745 184.312 125.809 184.264C126.34 184.189 126.876 183.958 127.369 183.53C127.851 183.111 128.35 182.618 128.864 182.114C128.805 183.251 129.218 184.334 130.274 184.95C131.378 185.593 132.954 185.438 133.849 184.489C134.525 183.771 134.943 182.993 135.297 182.179C136.347 183.095 137.955 183.363 139.236 182.104C139.654 181.691 139.981 181.23 140.223 180.731C141.343 179.895 141.954 178.48 141.552 176.899Z" fill="white"/>
<path d="M218.777 181.519C214.982 179.295 210.79 177.794 206.684 176.143C205.634 174.808 204.551 173.5 203.393 172.252C202.643 171.442 201.855 170.509 200.938 169.861C200.911 169.368 200.772 168.88 200.493 168.403C200.182 167.878 199.791 167.513 199.271 167.213C199.084 167.111 198.891 167.025 198.692 166.95C198.489 166.698 198.242 166.479 197.947 166.318C197.802 166.125 197.647 165.937 197.475 165.766C197.014 165.331 196.452 164.988 195.835 164.822C195.556 164.747 195.256 164.704 194.961 164.699C194.356 164.479 193.729 164.356 193.08 164.42C191.724 164.554 190.625 165.144 189.735 166.055C188.599 166.923 187.543 167.84 186.567 168.826C185.645 169.239 184.986 170.054 184.407 170.847C184.23 171.088 184.075 171.34 183.903 171.582C183.882 171.614 183.871 171.63 183.855 171.651C183.78 171.721 183.7 171.785 183.667 171.812C182.536 172.863 182.526 174.932 183.667 175.982C184.23 176.497 184.965 176.883 185.753 176.845C185.871 176.84 185.978 176.818 186.09 176.802C186.299 179.139 189.966 180.608 191.66 178.046C192.099 177.381 192.646 176.76 193.209 176.148C192.898 177.204 192.587 178.196 192.174 178.957C190.368 182.297 195.455 185.277 197.266 181.932C197.786 180.973 198.258 179.976 198.649 178.957C198.799 179.064 198.96 179.161 199.142 179.252C200.113 179.713 201.094 180.147 202.091 180.565C202.428 180.833 202.793 181.064 203.2 181.241C203.511 181.38 203.838 181.471 204.16 181.525C204.17 181.53 204.181 181.53 204.197 181.535C204.358 181.584 204.519 181.605 204.685 181.616C206.593 182.377 208.518 183.117 210.399 183.926C210.324 185.454 211.273 187.035 213.24 187.035C213.658 187.035 214.023 186.96 214.35 186.837C214.355 186.837 214.366 186.842 214.371 186.842C215.379 187.035 216.279 187.142 217.303 187.014C219.999 186.665 221.538 183.138 218.777 181.519Z" fill="white"/>
<path d="M303.506 114.232C302.799 114.12 302.231 113.739 301.561 113.46C300.623 113.069 299.669 112.892 298.65 112.812C298.345 112.785 298.044 112.774 297.75 112.769C297.465 112.688 297.144 112.646 296.795 112.656C295.552 112.694 294.405 111.917 293.183 111.691C291.617 111.402 290.068 111.402 288.541 111.895C285.389 112.914 285.995 117.159 289.05 117.641C289.345 117.743 289.677 117.797 290.042 117.797C290.626 117.797 291.119 117.657 291.521 117.422C292.078 117.459 292.631 117.593 293.188 117.759C293.29 117.92 293.408 118.065 293.536 118.193C294.528 119.185 295.782 119.217 296.892 118.692C297.08 118.66 297.272 118.671 297.723 118.676C298.152 118.681 298.57 118.676 298.988 118.788C300.012 119.062 300.858 119.743 301.936 119.919C303.506 120.171 305.109 119.512 305.565 117.861C305.951 116.451 305.088 114.484 303.506 114.232Z" fill="white"/>
<path d="M464.105 203.057C463.59 200.468 462.057 198.002 460.219 196.131C456.568 192.417 451.819 189.796 447.413 187.115C442.541 184.151 437.663 181.192 432.79 178.228C423.41 172.53 414.147 166.318 403.593 162.984C398.297 161.311 392.83 160.336 387.325 159.698C383.278 159.226 378.437 158.846 375.286 161.96C370.735 161.477 366.189 162.078 361.638 162.7C360.647 162.834 359.853 163.461 359.312 164.286C359.285 164.275 359.258 164.265 359.232 164.259C350.762 161.209 342.679 157.243 334.843 152.821C325.821 147.728 317.143 142.052 308.475 136.381C303.844 133.352 299.54 140.771 304.144 143.789C320.113 154.236 336.231 164.635 354.134 171.49C358.68 173.227 363.327 174.669 367.862 176.443C372.246 178.153 376.411 180.367 380.549 182.597C385.609 185.331 390.637 188.118 395.649 190.937C402.376 196.362 409.452 201.363 416.811 205.876C421.47 208.733 427.253 212.314 432.999 213.584C434.843 215.037 436.682 216.726 438.772 217.808C442.814 219.899 448.533 220.628 453.009 220.033C457.351 219.454 461.237 217.026 463.36 213.134C465.048 210.041 465.665 206.166 464.105 203.057Z" fill="#DEE2E6"/>
<path d="M379.949 162.957L379.842 162.7C379.767 162.576 379.67 162.474 379.558 162.394C379.499 161.51 378.904 160.668 377.757 160.668C377.333 160.668 376.99 160.786 376.711 160.979C376.942 160.389 376.958 159.735 376.792 159.076C377.853 157.693 377.601 155.597 376.266 154.252C375.478 153.458 374.213 153.212 373.163 153.571C372.991 153.56 372.82 153.566 372.664 153.587C372.032 153.673 371.367 154 370.885 154.488C370.81 154.456 370.735 154.418 370.66 154.397C370.606 154.38 370.526 154.375 370.477 154.37C370.402 154.359 370.333 154.343 370.258 154.348C370.156 154.359 370.043 154.37 369.947 154.391C369.893 154.402 369.829 154.439 369.781 154.456C369.63 154.52 369.614 154.525 369.486 154.627C369.443 154.665 369.389 154.697 369.352 154.74C369.346 154.745 369.341 154.756 369.33 154.761C369.888 155.211 369.952 156.128 369.518 156.68C369.555 156.707 369.593 156.739 369.63 156.76C369.647 156.771 369.668 156.776 369.684 156.787C369.738 156.927 369.797 157.061 369.856 157.195C369.888 157.254 369.925 157.313 369.973 157.361C369.931 157.924 369.947 158.486 370.059 159.065C370.124 159.382 370.215 159.682 370.311 159.987C370.252 160.052 370.193 160.116 370.15 160.196C370.102 160.304 370.059 160.411 370.011 160.513C369.931 160.636 369.888 160.77 369.882 160.909C369.85 161.054 369.856 161.193 369.904 161.338C369.936 161.477 370 161.601 370.097 161.703C370.172 161.82 370.274 161.912 370.397 161.981L370.654 162.089C370.761 162.115 370.869 162.126 370.976 162.121C371.549 163.118 372.857 163.67 373.951 163.525C374.696 163.423 375.457 162.978 375.95 162.351C375.859 163.354 376.449 164.426 377.746 164.426C377.998 164.426 378.212 164.377 378.411 164.308C378.507 164.324 378.604 164.34 378.7 164.345C378.721 164.345 378.748 164.345 378.77 164.345C378.888 164.34 379 164.318 379.118 164.302C379.145 164.297 379.166 164.292 379.188 164.286C379.327 164.254 379.45 164.19 379.552 164.093C379.67 164.018 379.761 163.916 379.831 163.793C379.911 163.67 379.954 163.536 379.96 163.396C380.003 163.241 379.997 163.102 379.949 162.957Z" fill="white"/>
<path d="M339.318 12.4572C339.554 10.3506 339.291 8.10468 337.426 6.93079C336.954 6.63597 336.424 6.40548 335.872 6.27147C334.263 5.04934 331.744 5.70865 331.203 7.78842C331.01 8.52814 330.817 9.26785 330.619 10.0076C330.506 10.4417 330.485 10.8491 330.538 11.2243C329.949 13.3845 329.841 15.8342 331.841 17.2278C332.178 17.4637 332.511 17.6245 332.843 17.7478C334.135 18.8734 336.048 18.9645 337.362 17.7799C338.235 16.992 338.621 15.8288 338.9 14.7031C339.168 14.2904 339.34 13.7812 339.361 13.1755C339.372 12.9182 339.35 12.6877 339.318 12.4572Z" fill="white"/>
<path d="M324.937 138.38C324.749 138.037 324.385 137.785 323.993 137.801C323.95 137.801 323.913 137.812 323.87 137.817C323.902 137.292 323.672 136.788 323.109 136.633C322.841 136.558 322.557 136.601 322.321 136.729C322.133 136.306 321.635 136.075 321.179 136.107C321.093 135.973 320.981 135.855 320.825 135.764C320.359 135.491 319.603 135.62 319.357 136.15C318.874 137.179 318.419 138.219 317.968 139.259C317.915 139.366 317.867 139.479 317.818 139.592C317.046 139.141 316.071 139.029 315.181 138.868C314.468 138.745 313.755 138.616 313.042 138.493C312.619 138.418 312.169 138.284 311.751 138.434C311.102 138.664 310.818 139.222 310.93 139.892C311.027 140.444 311.734 140.808 312.249 140.642C312.319 140.621 312.383 140.589 312.447 140.562L312.662 140.599C312.689 140.605 312.715 140.61 312.742 140.615C312.876 140.857 313.107 141.044 313.401 141.173C314.13 141.484 314.897 141.703 315.674 141.854C315.889 141.907 316.103 141.95 316.323 141.988C316.355 142.036 316.392 142.079 316.435 142.116C316.896 142.54 317.486 142.497 317.952 142.116C317.974 142.095 317.99 142.068 318.011 142.047C318.027 142.041 318.043 142.047 318.06 142.041C318.124 142.122 318.204 142.197 318.306 142.256C318.376 142.432 318.488 142.593 318.644 142.711C318.628 142.77 318.612 142.824 318.601 142.883C318.387 143.789 319.191 144.314 319.877 144.18C320.161 144.319 320.515 144.346 320.82 144.239C320.799 144.4 320.777 144.555 320.75 144.716C320.67 145.289 320.89 145.868 321.501 146.035C321.833 146.126 322.267 146.018 322.546 145.767C322.525 146.313 323.082 146.828 323.618 146.801C323.757 146.796 323.886 146.764 324.004 146.715C324.106 146.796 324.224 146.86 324.363 146.898C324.883 147.042 325.58 146.721 325.682 146.147C326.084 143.923 326.32 141.677 326.379 139.415C326.389 138.712 325.564 138.166 324.937 138.38Z" fill="white"/>
<path d="M372.193 72.567C372.991 70.1924 372.82 67.3729 372.632 64.9072C372.225 59.5952 370.772 54.5459 368.451 49.7592C367.888 48.6014 366.666 48.2047 365.519 48.3816C364.254 48.2101 362.919 48.864 362.41 50.1237C362.137 50.1129 361.863 50.129 361.595 50.1826C360.518 48.3494 357.8 48.8372 356.664 50.322C356.45 50.2845 356.23 50.2791 356.015 50.2845C355.689 46.8003 355.206 43.3322 354.488 39.9017C358.653 38.1167 358.015 30.6338 352.537 30.6338C352.022 30.6338 351.556 30.7089 351.127 30.8321C350.886 28.3986 350.023 26.1794 347.9 24.7697C345.686 23.3064 342.647 23.1241 340.669 25.1932C340.562 25.3057 340.465 25.4344 340.364 25.5577C338.616 25.8953 337.196 27.2408 336.558 29.015C336.043 30.4569 335.63 31.9149 335.293 33.389C333.009 35.5813 332.811 39.7569 332.532 42.7587C332.35 44.6884 332.441 46.6288 332.543 48.5638C332.205 48.998 331.975 49.5448 331.921 50.2201C331.712 53.0182 331.798 55.8002 331.921 58.5982C331.937 58.8984 331.996 59.1718 332.082 59.4291C330.796 65.2556 328.7 70.9107 326.631 76.4907C326.036 76.6086 325.489 76.941 325.14 77.5628C322.911 81.5025 319.866 85.6567 318.735 90.1111C318.488 90.5667 318.247 91.0277 318.022 91.494C317.652 92.2445 317.304 93.0003 316.971 93.7668C316.816 94.1206 316.076 95.1068 316.376 95.1873C315.653 95.7769 315.149 96.6774 315.546 97.6423C315.572 97.7012 315.594 97.7655 315.621 97.8245C316.248 99.3575 317.625 99.9793 319.164 99.2664C319.453 99.1324 319.689 98.9448 319.893 98.7304C321.705 99.6363 324.235 99.5559 325.548 97.9049C327.145 95.9002 328.743 93.8901 330.345 91.8907C331.707 90.1915 332.891 89.4679 334.714 88.3154C335.218 87.9938 335.722 87.6507 336.204 87.2809C336.692 88.5995 337.683 89.6608 339.281 90.1004C341.596 90.7383 344.78 89.3124 345.215 86.7288L345.247 86.5251C345.274 86.5412 345.295 86.5626 345.322 86.5787C345.515 86.6591 345.708 86.7395 345.895 86.8199C346.324 86.9325 346.748 86.9325 347.176 86.8199C347.455 86.777 347.729 86.7341 348.007 86.6913C348.179 86.6484 348.34 86.5841 348.484 86.4983C348.961 86.9057 349.578 87.1522 350.296 87.1094C352.585 86.9807 354.622 86.3804 356.68 85.3887C357.248 85.1154 357.8 84.8152 358.347 84.5096C359.049 86.1445 361.188 86.7824 362.657 85.8336C364.222 86.0534 365.868 85.1582 365.835 83.0356C365.83 82.596 365.787 82.1351 365.712 81.6741C365.701 81.5722 365.691 81.465 365.685 81.3632C367.385 82.8908 370.965 81.9957 370.692 79.2405C370.579 78.1149 370.333 76.7748 370.628 75.6545C370.928 74.5449 371.817 73.6819 372.193 72.567Z" fill="white"/>
<path d="M112.44 182.49C112.435 182.474 112.43 182.463 112.424 182.447C110.532 178.587 106.512 176.915 102.647 175.655C101.666 175.339 100.433 175.135 99.5597 174.567C98.5198 173.892 97.9302 172.369 97.3031 171.34C96.1077 169.378 94.9606 167.272 93.374 165.589C90.5545 162.603 86.3896 161.686 82.4391 161.488C78.3707 161.284 73.9217 161.424 70.1052 162.973C68.0308 163.815 66.2565 165.09 64.8039 166.795C63.2226 168.649 61.9683 170.751 60.2155 172.455C53.5581 176.818 46.8632 180.908 41.9049 187.292C41.0848 188.343 42.3927 189.801 43.2986 189.099C45.8072 189.742 48.3319 190.557 50.8726 191.039C52.8184 191.409 53.5903 190.476 54.5497 188.954C55.9166 186.783 57.6319 185.089 60.3388 185.02C62.7188 184.955 64.954 186.06 67.0123 187.142C71.1183 189.302 75.0848 191.784 78.6709 194.732C82.1604 197.6 85.0656 201.133 88.8017 203.689C89.2788 204.016 89.7397 203.904 90.0506 203.604C99.3131 199.98 106.925 191.94 112.264 183.739C112.365 183.621 112.446 183.481 112.499 183.331C112.612 183.02 112.574 182.731 112.44 182.49Z" fill="#F4C670"/>
<path d="M255.543 164.356C255.843 162.919 256.159 161.52 256.974 160.282C257.585 159.355 258.368 158.556 259.183 157.806C259.252 157.768 259.322 157.725 259.392 157.682C260.142 157.275 261.01 156.873 261.214 155.956C261.257 155.769 261.193 155.613 261.085 155.506C261.134 155.388 261.128 155.254 261.032 155.115C258.555 151.389 254.835 148.543 250.612 147.096C249.684 146.013 248.157 145.434 246.784 145.113C244.78 144.641 242.775 144.807 240.893 145.665C237.5 147.214 234.188 149.438 231.443 152.065C230.639 152.483 229.862 152.955 229.117 153.48C226.994 154.986 225.011 156.701 222.953 158.288C218.815 161.472 214.548 164.517 209.97 167.031C207.767 168.242 205.13 169.175 203.672 171.346C203.634 171.399 203.613 171.453 203.602 171.506C203.49 171.705 203.42 171.93 203.436 172.182C203.463 172.777 203.859 173.388 204.433 173.576C206.084 176.47 208.41 178.957 211.171 180.823C211.605 181.343 212.35 181.702 213.106 181.986C213.24 182.055 213.374 182.125 213.508 182.189C215.202 183.283 217.335 183.315 219.147 184.194C221.286 185.239 222.921 187.051 224.491 188.788C224.775 189.104 225.054 189.42 225.327 189.742C225.82 190.578 226.383 191.388 227.01 192.127C227.037 192.176 227.069 192.224 227.091 192.277C227.15 192.39 227.236 192.46 227.327 192.492C228.383 193.66 229.599 194.631 230.977 195.263C231.02 195.311 231.057 195.365 231.1 195.413C231.293 195.778 231.561 196.105 231.904 196.389C232.017 196.485 232.14 196.566 232.263 196.635C234.091 198.335 236.353 199.589 238.567 200.714C238.728 200.795 238.883 200.784 239.012 200.714C240.416 201.433 241.864 202.076 243.429 202.333C245.498 202.666 247.529 202.247 249.54 201.776C252.954 200.977 256.299 199.996 258.984 197.638C259.493 197.187 259.606 196.249 259.236 195.681C258.518 194.577 258.271 193.328 257.955 192.063C257.869 191.715 257.671 191.173 257.478 190.584C257.499 190.525 257.516 190.466 257.521 190.401C257.564 189.721 257.467 189.045 257.36 188.375C257.317 188.118 257.28 187.861 257.248 187.598C257.349 187.271 257.344 186.96 257.258 186.676C259.896 185.416 262.195 183.706 260.507 181.97C260.49 181.846 260.458 181.718 260.415 181.589C260.046 180.544 259.054 179.692 258.443 178.786C257.762 177.783 257.242 176.701 256.61 175.671C256.143 174.91 255.452 174.347 254.884 173.688C254.675 172.16 254.642 170.606 254.782 169.051C254.932 167.476 255.221 165.91 255.543 164.356Z" fill="#F4C670"/>
<path d="M263.396 157.752C260.185 154.622 256.867 151.395 252.681 149.615C250.724 148.784 248.612 148.264 246.473 148.291C244.426 148.318 242.448 148.892 240.625 149.814C236.761 151.77 233.561 154.954 230.173 157.602C226.426 160.534 222.551 163.305 218.579 165.921C214.162 168.826 209.616 171.528 204.964 174.026C204.508 174.272 204.915 174.964 205.371 174.723C213.385 170.424 221.066 165.514 228.324 160.03C230.082 158.701 231.819 157.339 233.528 155.946C235.163 154.616 236.761 153.233 238.492 152.038C240.197 150.859 242.051 149.851 244.088 149.379C246.248 148.881 248.494 149.074 250.606 149.706C255.5 151.18 259.258 154.836 262.828 158.315C263.197 158.679 263.766 158.111 263.396 157.752Z" fill="black"/>
<path d="M155.612 197.873C164.429 193.403 172.213 186.912 178.189 179.043C181.673 174.46 184.664 169.298 189.387 166.001C190.877 164.962 192.64 164.104 194.447 164.292C196.95 164.554 198.783 166.682 200.354 168.649C203.05 172.042 205.746 175.435 208.442 178.829C210.356 181.235 212.377 183.728 215.164 185.025C216.971 185.861 218.991 186.14 220.809 186.949C224.32 188.504 226.673 191.79 229.24 194.647C233.378 199.251 238.626 203.094 244.662 204.472C250.697 205.85 257.575 204.429 261.82 199.926" stroke="black" stroke-miterlimit="10" stroke-linecap="round"/>
<path d="M172.663 184.644C170.76 184.945 168.836 184.049 166.922 184.232C165.373 184.376 163.985 185.202 162.623 185.947C159.895 187.448 157.048 188.718 154.116 189.753C152.723 190.241 151.216 190.75 150.37 191.956C149.582 193.081 149.539 194.588 148.783 195.735C147.571 197.579 145.041 197.879 142.844 197.997" stroke="black" stroke-miterlimit="10" stroke-linecap="round"/>
<path d="M156.679 188.541C153.409 187.416 150.777 184.971 148.445 182.42C146.114 179.868 143.948 177.113 141.155 175.071C138.363 173.029 134.755 171.764 131.426 172.68C125.895 174.197 123.156 180.903 117.731 182.779C116.745 183.122 115.667 183.299 114.826 183.921C114.188 184.392 113.738 185.073 113.298 185.733C109.696 191.114 105.451 196.062 100.68 200.441C97.6837 203.191 94.2531 205.817 90.2222 206.348" stroke="black" stroke-miterlimit="10" stroke-linecap="round"/>
<path d="M113.352 184.848C111.315 181.391 107.777 178.85 103.848 178.03C102.937 177.842 101.993 177.73 101.168 177.296C99.8707 176.604 99.1203 175.237 98.3537 173.983C96.9226 171.646 95.2019 169.491 93.2454 167.577C92.3181 166.672 91.3104 165.803 90.1204 165.289C88.8232 164.731 87.3867 164.624 85.9823 164.522C80.086 164.099 73.6162 163.831 68.8777 167.363C66.8945 168.842 65.399 170.874 63.6462 172.627C60.3335 175.939 56.1472 178.212 52.2449 180.801C48.3373 183.39 44.5369 186.51 42.6179 190.782" stroke="black" stroke-miterlimit="10" stroke-linecap="round"/>
<path d="M99.4258 211.799C93.031 208.144 86.9632 203.925 81.3082 199.203C75.9104 194.695 70.7002 189.613 64.075 187.25C63.1369 186.917 62.1506 186.638 61.1644 186.762C59.969 186.912 58.9184 187.641 58.0661 188.493C56.5706 189.994 55.5468 191.908 54.0942 193.441C52.9257 194.673 51.5105 195.633 50.1812 196.684C47.7798 198.592 45.6357 200.827 43.84 203.314" stroke="black" stroke-miterlimit="10" stroke-linecap="round"/>
<path d="M-33.9479 197.729C-30.051 195.611 -26.524 192.888 -23.013 190.182C-20.29 188.08 -17.5724 185.979 -14.8493 183.878C-10.4379 180.469 -5.91917 177.001 -0.639321 175.205C6.6667 172.718 15.093 173.801 21.536 178.051C25.5401 180.699 28.7563 184.446 32.8944 186.88C35.0438 188.145 37.397 189.018 39.7341 189.892C44.1295 191.527 48.5892 193.183 53.2633 193.558" stroke="black" stroke-miterlimit="10" stroke-linecap="round"/>
<path d="M9.29858 174.042C6.73639 179.102 3.37016 183.755 -0.639304 187.769C-1.53982 188.675 -2.48323 189.554 -3.20151 190.61" stroke="black" stroke-miterlimit="10" stroke-linecap="round"/>
<path d="M67.1892 188.579C64.7182 192.561 61.5395 196.099 57.841 198.972C56.6027 199.937 55.2949 200.832 53.8583 201.465C47.9728 204.049 40.924 201.851 34.8616 203.99C28.8152 206.123 25.0684 212.03 21.788 217.54" stroke="black" stroke-miterlimit="10" stroke-linecap="round"/>
<path d="M122.014 211.258C123.295 210.583 124.195 209.387 125.058 208.224C127.599 204.799 130.135 201.368 132.675 197.943C133.865 196.335 135.431 194.55 137.425 194.743C139.065 194.899 140.228 196.351 141.257 197.632C144.307 201.433 147.898 204.794 151.892 207.581" stroke="black" stroke-miterlimit="10" stroke-linecap="round"/>
<path d="M458.664 152.279C457.056 151.282 455.153 150.671 453.384 150.028C450.232 148.886 447.043 147.857 443.843 146.849C434.95 144.051 425.988 141.473 417.02 138.932C407.704 136.295 398.367 133.727 389.013 131.213C382.919 129.573 376.824 127.933 370.708 126.395C369.089 125.987 367.476 125.591 365.884 125.092C362.035 123.881 358.299 122.321 354.418 121.222C350.425 120.096 346.426 119.705 342.288 119.962C338.059 120.225 333.867 120.943 329.622 120.997C325.285 121.05 321.265 120.08 317.25 118.499C313.23 116.918 309.296 115.17 305.168 113.878C297.594 111.499 289.698 110.678 281.819 111.745C278.072 112.249 274.379 113.155 270.825 114.457C267.357 115.728 263.798 117.304 260.78 119.448C258.437 121.115 255.907 124.095 257.853 127C258.834 128.464 260.308 129.707 261.589 130.908C263.031 132.253 264.537 133.54 266.092 134.757C272.053 139.415 278.667 142.861 285.732 145.509C289.388 146.882 293.092 148.173 296.522 150.06C300.017 151.979 302.847 154.579 305.383 157.634C307.923 160.7 310.255 163.911 313.074 166.73C315.899 169.55 319.008 172.064 322.198 174.465C325.441 176.91 328.716 179.375 332.141 181.562C335.598 183.771 339.249 185.298 343.29 186.043C347.466 186.81 351.722 187.04 355.914 187.694C359.923 188.322 363.9 189.201 367.744 190.503C374.921 192.942 381.654 197.037 386.263 203.159C388.316 205.887 389.871 208.948 390.766 212.25C390.9 212.748 391.677 212.539 391.543 212.035C389.78 205.544 385.524 200.071 380.212 196.046C374.079 191.404 366.618 188.874 359.13 187.437C351.079 185.893 342.374 186.338 334.998 182.323C331.433 180.383 328.185 177.874 324.915 175.489C321.603 173.066 318.333 170.568 315.32 167.781C312.404 165.085 309.928 162.067 307.468 158.964C305.098 155.972 302.622 153.089 299.449 150.918C293.268 146.689 285.748 145.075 279.058 141.875C272.117 138.552 265.749 134.044 260.324 128.582C258.877 127.124 257.296 125.575 258.255 123.377C259.016 121.645 260.667 120.413 262.233 119.458C265.599 117.411 269.206 115.781 272.953 114.575C280.334 112.201 288.262 111.472 295.943 112.571C300.13 113.166 304.214 114.329 308.191 115.765C312.142 117.191 315.937 119.04 319.925 120.348C323.811 121.624 327.762 121.972 331.83 121.731C336 121.479 340.133 120.777 344.314 120.697C348.538 120.611 352.558 121.436 356.557 122.744C360.336 123.977 364.024 125.499 367.872 126.539C373.109 127.954 378.389 129.236 383.631 130.635C392.481 132.993 401.32 135.405 410.143 137.866C419.395 140.449 428.631 143.076 437.824 145.863C444.015 147.739 450.361 149.513 456.327 152.054C456.981 152.333 457.64 152.622 458.241 152.998C458.702 153.244 459.104 152.547 458.664 152.279Z" fill="black"/>
<path d="M379.124 161.118C378.829 160.47 378.518 159.971 378.309 159.365C378.25 159.114 378.185 158.856 378.126 158.604C377.381 155.501 373.056 156.911 373.474 159.885C373.527 160.261 373.613 160.598 373.72 160.92C373.726 160.947 373.731 160.974 373.742 161C373.506 161.086 373.324 161.161 373.27 161.183C372.739 160.438 371.689 160.1 370.928 160.99C370.483 161.51 369.727 161.36 369.1 161.585C368.521 161.794 368.022 161.976 367.47 162.067C366.929 162.013 366.388 161.933 365.83 161.837C365.181 161.724 364.624 161.858 364.158 162.126C363.874 162.105 363.589 162.089 363.305 162.089C362.877 162.094 362.507 162.18 362.115 162.357C362.051 162.383 361.987 162.415 361.922 162.448C361.172 162.566 360.513 163.241 360.545 164.029C360.582 164.903 361.252 165.637 362.153 165.637C362.48 165.637 362.748 165.578 363.027 165.465C363.289 165.964 363.777 166.35 364.538 166.479C367.25 166.94 369.764 167.165 372.461 166.446C374.669 165.857 377.698 165.487 379.118 163.546C379.654 162.823 379.456 161.863 379.124 161.118Z" fill="white"/>
<path d="M324.604 145.043C322.407 144.394 320.466 143.226 318.413 142.277C318.403 142.047 318.338 141.816 318.204 141.607C317.577 140.642 316.537 140.24 315.529 139.779C314.393 139.259 313.498 138.434 312.399 137.898C311.102 137.26 309.29 136.869 307.886 136.483C306.653 136.145 305.484 136.118 304.294 136.59C303.072 137.078 302.617 138.777 303.908 139.527C305.436 140.412 306.862 141.226 308.513 141.837C309.928 142.363 311.198 143.135 312.587 143.687C312.758 144.014 313.032 144.292 313.439 144.464C316.494 145.745 319.603 146.908 322.696 148.098C323.082 148.248 323.425 148.238 323.709 148.125C323.725 148.13 323.736 148.136 323.752 148.141C325.741 148.725 326.588 145.627 324.604 145.043Z" fill="white"/>
<path d="M373.565 165.246C373.356 164.753 372.82 164.49 372.3 164.624C371.887 164.731 371.474 164.838 371.067 164.946C371.029 164.956 370.992 164.967 370.954 164.972C370.912 164.967 370.869 164.967 370.831 164.962C370.622 164.929 370.418 164.892 370.209 164.849C369.925 164.79 369.641 164.806 369.384 164.956C369.368 164.967 369.352 164.983 369.336 164.994C368.896 164.897 368.382 165.085 368.167 165.492C367.888 166.018 368.044 166.645 368.553 166.961C369.266 167.401 370.102 167.368 370.885 167.202C370.981 167.181 371.072 167.154 371.169 167.132C371.249 167.132 371.33 167.138 371.405 167.132C372.005 167.1 372.643 166.95 373.125 166.58C373.345 166.414 373.554 166.227 373.619 165.937C373.677 165.707 373.661 165.476 373.565 165.246Z" fill="white"/>
<path d="M364.42 164.184C364.351 164.131 364.276 164.072 364.206 164.018C364.04 163.922 363.857 163.874 363.664 163.874C363.3 163.825 362.935 163.777 362.566 163.729C362.475 163.589 362.357 163.466 362.217 163.391C361.971 163.257 361.665 163.193 361.392 163.284L361.134 163.391C360.974 163.488 360.845 163.616 360.749 163.777C360.679 163.868 360.636 164.002 360.604 164.109C360.539 164.318 360.556 164.533 360.604 164.742C360.652 164.972 360.797 165.219 360.968 165.38C361.151 165.557 361.392 165.691 361.638 165.744C361.831 165.787 362.03 165.803 362.223 165.825C362.7 165.889 363.177 165.948 363.659 166.012C363.911 166.044 364.249 165.868 364.415 165.696C364.603 165.508 364.742 165.203 364.731 164.94C364.72 164.667 364.629 164.377 364.42 164.184Z" fill="white"/>
<path d="M376.754 118.585C376.449 116.248 376.17 113.905 375.634 111.606C375.559 111.273 375.371 111.059 375.141 110.946C375.066 109.96 374.98 108.974 374.873 107.993C374.76 106.921 374.632 105.854 374.498 104.782C374.374 103.78 374.38 102.622 374.026 101.668C373.828 101.126 373.302 100.757 372.707 100.917C372.187 101.062 371.758 101.689 371.957 102.236C372.289 103.131 372.284 104.209 372.396 105.152C372.525 106.181 372.643 107.21 372.75 108.239C372.97 110.341 373.125 112.442 373.174 114.554C373.19 115.208 373.683 115.551 374.192 115.583C374.353 116.671 374.492 117.759 374.637 118.847C374.932 121.115 375.232 123.388 375.527 125.655C375.602 126.228 375.966 126.727 376.599 126.727C377.119 126.727 377.746 126.234 377.671 125.655C377.371 123.296 377.065 120.943 376.754 118.585Z" fill="black"/>
<path d="M361.981 122.358C361.88 121.876 361.783 121.394 361.687 120.911C361.74 120.654 361.729 120.343 361.574 120.123C361.526 120.059 361.478 119.989 361.429 119.925C361.268 119.705 361.07 119.496 360.786 119.432C360.545 119.378 360.314 119.389 360.089 119.485C359.886 119.571 359.682 119.721 359.575 119.925C359.435 120.193 359.408 120.455 359.467 120.75C359.607 121.479 359.752 122.203 359.912 122.927C359.966 123.178 360.186 123.441 360.405 123.57C360.636 123.704 360.974 123.763 361.231 123.677C361.488 123.591 361.74 123.43 361.874 123.184C362.014 122.921 362.046 122.653 361.981 122.358Z" fill="black"/>
<path d="M365.058 141.125C364.924 140.363 364.624 139.645 364.302 138.938C364.292 138.863 364.281 138.782 364.276 138.707C364.243 138.412 364.179 138.166 363.959 137.951C363.772 137.764 363.466 137.624 363.204 137.635C362.925 137.646 362.641 137.737 362.448 137.951C362.266 138.15 362.105 138.434 362.131 138.707C362.137 138.761 362.142 138.814 362.148 138.863C362.137 138.932 362.131 139.002 362.121 139.072C362.121 139.227 362.164 139.377 362.228 139.516C362.276 139.881 362.335 140.245 362.421 140.599C362.507 140.937 362.63 141.259 362.769 141.575C362.855 141.773 362.946 141.955 363.107 142.105C363.439 142.427 363.863 142.54 364.313 142.438C364.56 142.379 364.838 142.17 364.956 141.945C365.09 141.682 365.112 141.425 365.058 141.125Z" fill="black"/>
<path d="M378.641 136.456C377.816 133.958 378.207 131.246 377.773 128.667C377.676 128.094 376.969 127.778 376.454 127.917C375.848 128.083 375.607 128.662 375.704 129.236C376.063 131.364 375.859 133.556 376.245 135.679C376.17 135.882 376.149 136.113 376.207 136.338C376.325 136.788 376.545 137.153 376.851 137.501C377.548 138.305 378.968 137.447 378.641 136.456Z" fill="black"/>
<path d="M380.056 151.695C380.003 151.518 379.928 151.384 379.831 151.277C379.81 151.154 379.788 151.03 379.772 150.902C379.729 150.628 379.681 150.355 379.638 150.082C379.552 149.556 379.467 149.031 379.386 148.506C379.247 147.568 379.134 146.474 379.129 145.434C379.129 144.871 378.636 144.335 378.057 144.362C377.478 144.389 376.985 144.834 376.985 145.434C376.99 147.166 377.28 148.881 377.558 150.585C377.585 150.736 377.606 150.88 377.633 151.03C377.51 151.159 377.413 151.309 377.376 151.481C377.242 152.07 377.553 152.612 378.126 152.799C378.153 152.81 378.18 152.815 378.207 152.821C378.325 152.933 378.47 153.019 378.657 153.062C379.44 153.249 380.313 152.547 380.056 151.695Z" fill="black"/>
<path d="M375.087 152.735C375.071 152.676 375.001 152.52 374.975 152.467C374.921 152.397 374.862 152.322 374.808 152.252C374.733 152.199 374.664 152.14 374.594 152.086C374.546 152.059 374.498 152.038 374.449 152.022C374.364 151.974 374.278 151.947 374.181 151.947C374.117 151.936 374.069 151.925 374.01 151.925C373.908 151.925 373.79 151.952 373.688 151.968C373.651 151.974 373.618 151.979 373.581 151.984C373.501 151.995 373.42 152.011 373.34 152.022C373.024 152.07 372.713 152.118 372.396 152.167C372.289 152.193 372.193 152.242 372.107 152.306C371.962 152.29 371.817 152.295 371.689 152.333C371.523 152.376 371.351 152.483 371.217 152.612C371.062 152.649 370.901 152.687 370.745 152.719C370.676 152.735 370.601 152.746 370.531 152.756C370.156 152.531 369.705 152.547 369.341 152.799C369.336 152.805 369.33 152.805 369.325 152.81C369.116 152.88 368.896 152.939 368.682 152.998C368.44 153.067 368.194 153.137 367.947 153.185C367.867 153.191 367.787 153.191 367.706 153.185C367.642 153.169 367.572 153.158 367.508 153.142C366.972 152.981 366.318 153.335 366.189 153.893C366.055 154.472 366.366 155.034 366.94 155.211C367.61 155.415 368.29 155.34 368.95 155.152C369.212 155.077 369.486 155.013 369.754 154.933L369.813 154.959C370 155.013 370.193 155.013 370.381 154.959C370.804 154.9 371.222 154.82 371.635 154.718C371.828 154.67 372.026 154.627 372.214 154.563C372.396 154.498 372.563 154.413 372.707 154.279C372.793 154.279 372.879 154.268 372.97 154.241C373.259 154.198 373.543 154.155 373.833 154.112C373.903 154.129 373.972 154.134 374.047 154.129C374.122 154.123 374.267 154.107 374.342 154.091C374.482 154.059 374.605 153.995 374.707 153.898C374.75 153.871 374.787 153.844 374.819 153.812C374.851 153.78 374.884 153.743 374.905 153.7C374.969 153.635 375.018 153.555 375.044 153.464C375.114 153.298 375.098 153.367 375.119 153.185C375.135 153.132 375.141 153.083 375.135 153.03C375.114 152.922 375.098 152.831 375.087 152.735Z" fill="black"/>
<path d="M331.133 111.413C330.495 111.413 330.131 111.906 330.061 112.485C329.471 117.25 328.978 122.026 328.592 126.807C328.48 128.185 330.624 128.174 330.737 126.807C331.122 122.021 331.61 117.245 332.205 112.485C332.28 111.911 331.664 111.413 331.133 111.413Z" fill="black"/>
<path d="M331.739 5.39239C329.413 8.69431 329.482 12.9289 329.723 16.7936C329.825 18.45 329.975 20.2403 330.849 21.6983C331.814 23.3224 333.524 23.8852 335.336 23.8424C337.26 23.7995 339.758 23.0115 339.72 20.6691C339.71 20.1545 338.906 20.1492 338.916 20.6691C338.959 23.2313 334.966 23.4028 333.25 22.7596C331.31 22.0306 330.806 19.7847 330.619 17.9407C330.211 13.9313 330.008 9.25177 332.436 5.79977C332.731 5.37631 332.034 4.97429 331.739 5.39239Z" fill="black"/>
<path d="M335.523 29.7494C334.317 31.4754 333.674 33.5766 333.208 35.6081C332.677 37.897 332.377 40.2447 332.13 42.5818C331.616 47.465 331.487 52.375 331.021 57.2582C330.554 62.1038 329.718 66.9656 327.815 71.4735C326.84 73.7892 325.532 75.9333 324.218 78.0666C322.921 80.1732 321.672 82.3066 320.541 84.5097C318.022 89.3928 315.985 94.5226 314.425 99.7864C314.302 100.21 314.806 100.403 315.095 100.178C316.392 99.1699 317.411 97.8835 318.145 96.4201C317.899 96.388 317.657 96.3558 317.411 96.3236C317.684 97.4118 315.83 99.5076 317.598 100.135C318.242 100.365 318.906 99.9043 319.266 99.3951C319.823 98.6071 319.651 97.4922 320.284 96.7578C320.053 96.6613 319.828 96.5702 319.598 96.4737C319.442 98.13 320.525 99.9043 322.224 100.204C322.46 100.247 322.755 100.097 322.734 99.8185C322.664 98.8698 322.594 97.9264 322.53 96.9776C322.46 96.0235 322.235 94.9353 322.433 93.9866C322.605 93.1557 323.254 92.5983 323.859 92.0622C324.556 91.4458 325.248 90.824 325.923 90.1915C328.544 87.7419 331.015 85.1315 333.325 82.3924C337.855 77.0268 342.057 71.1037 345.032 64.725C346.705 61.1336 347.884 57.3225 348.157 53.3505C348.195 52.836 347.391 52.836 347.353 53.3505C346.849 60.6458 343.188 67.2282 339.222 73.1995C335.25 79.1816 330.597 84.7133 325.355 89.6233C324.626 90.3041 323.881 90.9634 323.141 91.6281C322.535 92.1695 321.956 92.7644 321.715 93.5631C321.431 94.4851 321.624 95.525 321.688 96.4684C321.769 97.5887 321.849 98.7036 321.93 99.8239C322.101 99.6952 322.267 99.5666 322.439 99.438C321.061 99.1967 320.279 97.8084 320.402 96.4791C320.434 96.136 319.936 95.9377 319.716 96.195C319.314 96.6613 319.142 97.1974 318.998 97.7924C318.922 98.1086 318.864 98.4409 318.719 98.7358C318.579 99.0145 318.102 99.6363 317.732 99.2932C317.373 98.9609 317.877 98.0711 318.006 97.7227C318.204 97.192 318.322 96.6721 318.183 96.1146C318.102 95.793 317.604 95.7072 317.448 96.0181C316.741 97.4279 315.771 98.6446 314.522 99.6148C314.747 99.7435 314.972 99.8775 315.192 100.006C316.596 95.2677 318.386 90.6471 320.573 86.2196C321.646 84.0487 322.814 81.926 324.068 79.8516C325.355 77.729 326.716 75.6438 327.81 73.4086C332.071 64.7143 331.916 54.8246 332.672 45.3959C332.897 42.5979 333.186 39.7891 333.722 37.0286C334.178 34.6594 334.81 32.1615 336.209 30.1568C336.515 29.7333 335.818 29.3313 335.523 29.7494Z" fill="black"/>
<path d="M352.906 24.9412C354.852 28.9292 358.079 32.1132 360.336 35.919C362.592 39.7248 364.211 43.8629 365.455 48.0975C368.049 56.9472 369.137 66.1937 370.644 75.2686C371.528 80.6181 372.471 85.9569 373.522 91.2743C373.624 91.7835 374.396 91.5691 374.299 91.0599C372.434 81.6205 370.954 72.1114 369.389 62.6184C367.942 53.8329 366.136 44.892 361.869 36.9803C360.695 34.8041 359.307 32.7833 357.811 30.8214C356.278 28.8113 354.724 26.8066 353.609 24.5231C353.378 24.0729 352.681 24.4802 352.906 24.9412Z" fill="black"/>
<path d="M338.343 8.43165C337.228 8.09396 336.113 8.59782 335.336 9.41258C334.398 10.3935 334.06 11.755 333.347 12.8807C332.023 14.9765 329.488 15.8288 327.794 17.5548C325.982 19.4094 325.596 22.2236 326.105 24.6946C326.341 25.8417 326.925 26.9084 327.96 27.5034C328.946 28.0716 330.142 28.1734 331.246 28.0126C334.012 27.6213 336.542 25.2789 339.452 25.9489C342.341 26.6136 342.347 30.3443 342.947 32.6546C343.655 35.383 344.764 38.047 346.48 40.3037C348.243 42.63 350.559 44.5115 352.789 46.3715C354.9 48.135 357.136 49.8074 359.714 50.8205C362.003 51.7156 365.224 52.3642 367.202 50.4774C368.103 49.6198 368.387 48.4781 368.156 47.272C367.942 46.1303 367.106 44.5115 368.103 43.493C368.628 42.9516 369.314 43.3483 369.915 43.5198C370.472 43.6806 371.04 43.6967 371.598 43.5359C372.659 43.2357 373.549 42.3942 373.972 41.3865C375.028 38.8671 373.367 36.2513 371.587 34.5789C370.568 33.6195 369.411 32.8154 368.43 31.813C367.347 30.7088 366.795 29.4117 366.57 27.8947C366.361 26.485 366.366 25.0484 366.093 23.644C365.851 22.4165 365.428 21.2212 364.865 20.1063C363.74 17.871 362.003 15.9414 359.891 14.6013C358.706 13.8509 357.414 13.2934 356.214 12.5698C354.933 11.7979 353.962 10.8116 353.126 9.57339C351.545 7.24704 350.023 4.92069 347.841 3.09285C345.761 1.35077 343.199 0.117913 340.46 0.0107076C338.043 -0.0857768 335.614 0.820105 333.969 2.62651C333.186 3.48415 332.629 4.50259 332.35 5.62825C332.227 6.13211 332.999 6.34652 333.127 5.84266C333.706 3.51095 335.652 1.75279 337.93 1.1042C340.54 0.359124 343.371 1.09884 345.638 2.48714C347.938 3.90225 349.739 5.9981 351.25 8.20652C351.968 9.25177 352.606 10.3613 353.437 11.3262C354.257 12.2803 355.286 12.9932 356.38 13.5989C357.5 14.2207 358.669 14.7567 359.741 15.4643C360.754 16.1397 361.665 16.9652 362.448 17.8925C364.018 19.7525 365.069 22.052 365.423 24.4588C365.792 26.9942 365.583 29.6314 367.293 31.7434C368.939 33.7856 371.485 34.9649 372.793 37.3019C373.447 38.4651 373.785 39.9928 373.168 41.2417C372.616 42.3567 371.372 43.1017 370.134 42.748C369.18 42.4746 368.264 42.1315 367.492 42.9838C366.902 43.6324 366.757 44.624 366.891 45.4602C367.111 46.8271 367.921 48.2208 366.993 49.5019C366.125 50.7026 364.581 50.9652 363.198 50.8526C360.513 50.6329 358.026 49.2875 355.871 47.7544C353.662 46.1839 351.572 44.3667 349.599 42.5121C347.536 40.5717 345.895 38.3472 344.813 35.7153C344.314 34.5093 343.928 33.2603 343.617 31.9953C343.322 30.7839 343.167 29.5242 342.781 28.3342C342.063 26.1365 340.321 24.8715 337.978 25.0591C335.357 25.2735 333.192 27.1711 330.565 27.2729C329.359 27.3212 328.099 26.9567 327.419 25.89C326.716 24.7911 326.679 23.2849 326.754 22.0199C326.84 20.7013 327.236 19.4041 328.115 18.3964C328.882 17.5173 329.874 16.874 330.828 16.2255C331.685 15.6412 332.559 15.0408 333.272 14.2797C334.135 13.3577 334.564 12.2213 335.143 11.1225C335.711 10.0397 336.756 8.79615 338.128 9.20889C338.627 9.35362 338.841 8.58174 338.343 8.43165Z" fill="black"/>
<path d="M331.937 5.9016C333.149 7.23631 334.323 8.83366 334.14 10.7312C334.371 10.6347 334.596 10.5436 334.826 10.4471C334.8 10.4203 334.778 10.3935 334.751 10.3667C334.398 9.98611 333.829 10.5543 334.183 10.9349C334.21 10.9617 334.231 10.9885 334.258 11.0153C334.515 11.294 334.912 11.0528 334.944 10.7312C335.143 8.61925 333.851 6.81285 332.505 5.33342C332.157 4.94748 331.589 5.51567 331.937 5.9016Z" fill="black"/>
<path d="M337.013 25.9007C336.719 27.1228 336.29 28.3021 335.727 29.4224C335.63 29.6153 335.673 29.8565 335.872 29.9745C336.049 30.0763 336.322 30.0227 336.424 29.8297C337.019 28.6451 337.48 27.4016 337.791 26.1151C337.914 25.6112 337.137 25.3968 337.013 25.9007Z" fill="black"/>
<path d="M366.334 44.6616C366.522 46.6127 367.556 48.2315 368.451 49.9253C369.421 51.7532 370.15 53.6936 370.708 55.6822C371.807 59.6274 372.219 63.7172 372.509 67.791C372.589 68.9113 372.718 70.0477 372.713 71.168C372.707 72.433 372.16 73.5319 370.826 73.7516C370.317 73.8374 370.531 74.6093 371.04 74.5289C373.077 74.1912 373.592 72.2883 373.495 70.4872C373.377 68.3271 373.216 66.1669 372.997 64.0174C372.557 59.756 371.801 55.4893 370.108 51.528C369.148 49.2875 367.379 47.1434 367.143 44.6669C367.09 44.147 366.286 44.147 366.334 44.6616Z" fill="black"/>
<path d="M374.037 39.0923C373.903 38.6688 373.667 38.299 373.436 37.9237C373.206 37.5485 372.981 37.1787 372.75 36.8034C371.951 35.5009 371.067 34.1662 369.689 33.4211C369.497 33.3193 369.277 33.2764 369.057 33.2925C368.14 32.1668 367.326 30.9876 366.538 29.7654C366.618 29.6154 366.666 29.4545 366.65 29.2777C366.463 27.5356 366.302 25.7881 366.087 24.0461C365.878 22.3522 365.412 20.7013 363.906 19.715C363.836 19.6721 363.766 19.6399 363.691 19.6131C363.6 19.447 363.509 19.2808 363.413 19.1146C362.448 17.4851 360.62 15.3946 358.578 14.7889C357.817 13.9259 357.066 12.8592 356.026 12.3554C355.592 12.1463 355.431 12.1302 355.035 11.8354C354.536 11.4602 354.043 11.0796 353.544 10.7044C351.534 5.15119 345.343 -0.300177 339.672 0.804034C339.629 0.798673 339.592 0.787953 339.554 0.787953C339.399 0.777232 339.243 0.782593 339.088 0.798673C338.841 0.830835 338.6 0.857636 338.364 0.93804C338.316 0.954121 338.268 0.975562 338.219 0.991642C336.118 1.13101 333.733 2.34778 333.272 4.37932C333.267 4.3954 333.267 4.40612 333.267 4.4222C333.256 4.43828 333.24 4.45972 333.229 4.4758C333.213 4.49724 333.202 4.51868 333.192 4.54549C333.133 4.67413 333.063 4.80814 333.041 4.9475C333.02 5.09223 332.988 5.23696 332.999 5.38704C333.004 5.53713 333.031 5.68186 333.052 5.82658C333.063 5.88019 333.074 5.93915 333.084 5.99275C333.111 6.10532 333.165 6.22324 333.213 6.31973C333.218 6.33045 333.224 6.34117 333.229 6.35189C333.256 6.39477 333.288 6.43229 333.32 6.46981C333.347 6.5127 333.379 6.55022 333.411 6.58774C333.438 6.61454 333.476 6.63598 333.508 6.66278C333.647 7.038 333.824 7.40786 333.996 7.79916C334.483 8.89265 334.719 9.94861 335.25 10.9671C334.173 13.213 331.46 14.135 329.713 15.7913C328.619 16.8258 327.815 18.0962 327.36 19.4952C327.344 19.4952 327.327 19.5006 327.311 19.5006C327.129 19.5542 326.974 19.6453 326.84 19.7739C326.743 19.8543 326.663 19.9669 326.598 20.0741C326.534 20.1813 326.481 20.3153 326.443 20.4333C326.405 20.5458 326.389 20.6584 326.363 20.771C326.293 21.1033 326.239 21.4463 326.202 21.784C326.175 22.036 326.175 22.2879 326.202 22.5345C326.239 22.8239 326.255 23.0276 326.411 23.2795C326.448 23.3439 326.502 23.4028 326.55 23.4618C326.411 24.8233 326.577 26.2598 327.837 27.0639C328.571 27.5302 329.332 27.5892 330.077 27.423C330.372 27.5677 330.72 27.6213 331.037 27.6106C331.433 27.5945 331.819 27.5034 332.189 27.3694C332.843 27.1282 333.46 26.8173 334.017 26.3992C334.097 26.3402 334.178 26.2706 334.248 26.2009C334.253 26.2009 334.258 26.1955 334.264 26.1955C334.901 26.7369 335.802 26.8656 336.676 26.1151L337.029 25.8096C337.244 25.622 337.405 25.4183 337.528 25.2039C339.34 25.4076 340.921 26.0722 342.25 27.1604C342.122 27.4713 342.079 27.8358 342.165 28.2431C342.733 31.0573 343.387 33.9732 344.534 36.6212C345.193 38.1381 346.206 40.1268 347.798 40.9308C348.447 42.2816 349.374 43.5198 350.301 44.6723C351.62 46.3018 353.448 47.1916 355.431 47.6901C355.892 48.462 356.321 49.2071 357.157 49.786C358.24 50.5364 359.607 50.8526 360.872 51.1475C363 51.6406 365.701 51.8389 366.854 49.9843C367.036 49.8664 367.213 49.7324 367.379 49.5662C368.285 48.6549 368.382 47.5454 368.103 46.3608C367.846 45.2619 367.578 44.281 367.411 43.2518C367.878 43.0106 368.446 42.9302 369.041 42.9195C370.376 42.8927 371.582 43.0428 372.67 42.0994C372.965 41.8421 373.168 41.5526 373.292 41.2524C373.988 40.8236 374.278 39.8749 374.037 39.0923Z" fill="black"/>
<path d="M379.199 151.438C379.338 150.516 379 149.347 378.909 148.581C378.893 148.436 378.85 148.318 378.797 148.205C378.77 144.786 378.571 141.371 378.218 137.967C378.202 137.828 378.164 137.71 378.116 137.603C378.116 137.147 378.057 136.702 377.853 136.274C377.842 136.166 377.837 136.059 377.826 135.952C377.8 135.491 377.778 135.025 377.746 134.564C377.853 133.926 377.805 133.347 377.617 132.682C377.617 132.677 377.617 132.677 377.617 132.671C377.601 132.623 377.585 132.57 377.569 132.516C377.467 131.02 377.387 129.52 377.322 128.019C377.419 127.295 377.392 126.62 377.237 125.896C377.194 125.703 377.103 125.542 376.99 125.408C376.974 124.915 376.947 124.417 376.931 123.924C376.92 123.613 376.813 123.361 376.647 123.168C376.577 121.436 376.438 119.721 376.224 118C376.218 117.845 376.213 117.684 376.208 117.529C376.202 117.336 376.159 117.164 376.09 117.014C376.041 116.666 375.998 116.317 375.945 115.964C375.907 115.706 375.8 115.508 375.661 115.358C375.393 113.107 375.012 110.871 374.632 108.641C374.594 108.427 374.514 108.256 374.401 108.116C374.299 107.066 374.192 106.01 374.063 104.959C374.042 104.771 373.983 104.616 373.903 104.482C373.854 101.85 373.887 99.2128 374.015 96.5755C374.031 96.2218 373.913 95.943 373.726 95.734C374.015 95.4606 374.165 95.0264 374.101 94.6459C373.978 93.9061 373.903 93.1611 373.86 92.416C373.854 91.5369 373.919 90.6632 374.069 89.8002C373.849 89.9664 373.602 90.0253 373.35 89.9664C373.313 89.7305 373.265 89.5 373.2 89.2749C373.195 89.2642 373.19 89.2534 373.19 89.2374C373.179 89.1677 373.163 89.1034 373.131 89.0283C372.884 88.4708 373.04 87.7311 372.97 87.1308C372.895 86.4608 372.793 85.7907 372.702 85.126C372.509 83.7431 372.321 82.3548 372.128 80.9719C372.112 80.8379 372.064 80.7253 372.005 80.6288C371.989 80.3554 371.973 80.0874 371.957 79.814C371.941 79.546 371.855 79.2995 371.678 79.0958C371.737 78.8385 371.732 78.5705 371.63 78.3132C371.533 78.0773 371.346 77.9165 371.11 77.8468C370.885 77.7771 370.59 77.7986 370.402 77.9648C370.29 78.0666 370.172 78.1685 370.059 78.2703C369.947 78.2649 369.84 78.281 369.732 78.3239C369.395 78.474 369.089 78.667 368.81 78.8974C368.746 78.9189 368.682 78.935 368.612 78.9671C360.406 82.5424 351.422 82.8104 342.604 83.0248C342.395 83.0302 342.213 83.0677 342.047 83.1213C340.766 83.1481 339.463 83.3197 338.118 83.4644C336.713 83.6145 334.751 83.5341 333.031 83.8503C332.559 83.8503 332.087 83.8503 331.616 83.8503C331.337 83.8503 331.08 84.0862 330.967 84.322C330.769 84.7455 330.554 85.1636 330.335 85.5763C330.109 85.5977 329.89 85.6942 329.713 85.8711C329.177 86.4286 328.657 87.0021 328.099 87.5382C327.558 88.0527 326.915 88.4387 326.497 89.0712C326.459 89.1034 326.416 89.1302 326.379 89.1677C325.95 89.5697 325.537 89.9985 325.119 90.4166C324.428 91.1081 323.666 91.7781 323.066 92.5607C322.562 92.5339 322.096 92.8287 321.946 93.3379C321.817 93.7882 321.801 94.2492 321.86 94.7155C321.892 94.9835 321.935 95.2462 321.983 95.5142C321.983 95.5303 321.999 95.6268 322.01 95.6965C322.015 95.7393 322.026 95.8358 322.026 95.8841C322.01 95.943 321.994 96.0074 321.989 96.0663C321.967 96.2432 321.994 96.3933 322.042 96.538C322.042 96.7417 322.042 96.94 322.064 97.1437C322.091 97.4064 322.139 97.6637 322.192 97.9263C322.198 97.9478 322.203 97.9692 322.203 97.9906C322.203 98.0121 322.203 98.0335 322.203 98.0603C322.203 98.0657 322.203 98.0657 322.198 98.0764C322.128 98.323 322.166 98.5963 322.278 98.8268C322.203 98.918 322.133 99.0145 322.053 99.1002C321.817 99.3468 321.538 99.5666 321.233 99.7381C321.19 99.6255 321.131 99.5183 321.067 99.4218C320.906 99.1753 320.638 98.9555 320.359 98.8536C320.327 98.8429 320.295 98.8429 320.257 98.8322C320.257 98.6446 320.252 98.4516 320.236 98.264C320.231 98.2265 320.22 98.189 320.204 98.1515C320.204 98.0282 320.086 97.921 319.973 97.9049C319.845 97.8888 319.711 97.9692 319.678 98.0978C319.614 98.3605 319.544 98.6231 319.48 98.8858C319.464 98.9448 319.448 99.0091 319.432 99.0681C319.384 99.127 319.33 99.1806 319.298 99.2557L319.271 99.3093C319.223 99.3414 319.18 99.3789 319.137 99.4218C318.949 99.6255 318.81 99.8935 318.821 100.178C318.821 100.204 318.826 100.231 318.826 100.263L318.687 100.569C318.478 101.019 318.226 101.48 318.161 101.979C318.108 102.397 318.387 102.847 318.826 102.901C318.885 102.906 318.944 102.906 318.998 102.901C318.874 103.715 318.756 104.53 318.655 105.345C318.467 106.798 318.306 108.256 318.124 109.708C318.022 110.539 317.915 111.37 317.792 112.195C317.759 112.426 317.717 113.492 317.609 114.002C317.095 114.259 316.832 114.967 317.036 115.535C317.02 115.588 317.004 115.647 316.993 115.712C316.505 119.394 316.087 123.082 315.755 126.781C315.589 128.63 315.444 130.479 315.315 132.334C315.208 133.894 315.556 134.253 316.848 135.18C319.609 137.163 323.029 138.268 326.138 139.57C326.674 139.795 327.29 140.106 327.874 140.111C328.067 140.54 328.491 140.723 328.919 140.696C328.978 140.776 329.043 140.857 329.102 140.937C329.439 141.382 330.292 141.157 330.292 140.567C330.286 138.911 330.356 137.254 330.501 135.603C330.522 135.357 330.426 135.169 330.276 135.051C330.41 134.151 330.565 133.245 330.672 132.339C330.946 130.05 330.774 127.767 330.56 125.478C330.549 125.371 330.528 125.274 330.495 125.189C330.619 121.699 330.871 118.215 331.257 114.741C331.278 114.548 331.257 114.377 331.203 114.227C331.61 111.825 332.227 109.472 333.009 107.162C333.133 106.798 333.079 106.476 332.929 106.219C332.956 106.176 332.977 106.133 332.993 106.085C333.229 105.393 333.492 104.712 333.76 104.032C333.937 104.042 334.119 103.999 334.253 103.876C334.398 103.748 334.548 103.624 334.709 103.506C334.8 103.442 334.891 103.378 334.987 103.319C334.998 103.308 335.084 103.26 335.116 103.244C335.341 103.12 335.582 103.024 335.829 102.938C337.834 103.158 339.887 102.633 341.854 102.257C347.176 102.005 352.478 101.55 357.763 100.869C357.827 100.858 357.886 100.842 357.945 100.826C358.261 105.5 358.663 110.164 359.157 114.822C359.414 117.234 359.693 119.641 359.993 122.047C359.628 126.073 360.014 130.361 360.791 134.317C361.177 136.279 361.912 138.182 362.528 140.079C362.662 140.492 362.785 140.937 362.909 141.398C362.673 141.628 362.544 141.961 362.63 142.39C363.284 145.557 363.938 148.725 364.592 151.893C364.629 152.086 364.71 152.247 364.812 152.381C364.704 152.815 364.742 153.266 364.887 153.694C364.71 154.171 364.865 154.788 365.299 155.067C365.803 155.394 366.42 155.581 366.988 155.286C367.154 155.201 367.299 155.083 367.417 154.949C367.443 154.938 367.47 154.933 367.497 154.922C370.981 153.582 374.776 153.507 378.459 153.266C379.488 153.223 379.606 152.113 379.199 151.438Z" fill="black"/>
<path d="M318.338 102.365C316.912 112.924 315.728 123.516 314.79 134.135C314.747 134.649 315.551 134.649 315.594 134.135C316.526 123.591 317.695 113.069 319.11 102.579C319.18 102.075 318.408 101.855 318.338 102.365Z" fill="black"/>
<path d="M373.506 91.1724C373.415 94.5869 373.57 98.0121 373.817 101.416C374.09 105.254 374.744 109.006 375.371 112.796C376.797 121.426 377.532 130.152 378.191 138.868C378.539 143.488 379.086 148.093 379.44 152.719C379.477 153.233 380.281 153.233 380.244 152.719C379.933 148.624 379.424 144.544 379.113 140.449C378.791 136.156 378.459 131.867 378.046 127.579C377.628 123.264 377.129 118.949 376.476 114.661C375.864 110.641 375.039 106.669 374.712 102.611C374.401 98.8108 374.208 94.9782 374.31 91.1671C374.321 90.6579 373.517 90.6579 373.506 91.1724Z" fill="black"/>
<path d="M333.518 103.404C332.248 108.068 331.428 112.839 331.026 117.657C330.603 122.701 330.495 127.772 330.345 132.827C330.259 135.711 330.195 138.595 330.142 141.478C330.131 141.998 330.935 141.998 330.946 141.478C331.037 136.466 331.176 131.449 331.364 126.443C331.551 121.485 331.766 116.521 332.564 111.611C332.999 108.92 333.583 106.251 334.301 103.619C334.43 103.12 333.652 102.906 333.518 103.404Z" fill="black"/>
<path d="M357.548 101.282C358.09 108.384 358.604 115.487 359.189 122.583C359.467 125.998 359.8 129.412 360.288 132.811C360.786 136.274 361.52 139.672 362.351 143.07C363.327 147.048 364.04 151.046 364.292 155.142C364.324 155.656 365.128 155.662 365.096 155.142C364.876 151.652 364.372 148.189 363.584 144.78C362.785 141.323 361.901 137.908 361.333 134.403C360.213 127.461 359.816 120.418 359.28 113.412C358.969 109.37 358.663 105.324 358.353 101.282C358.31 100.773 357.506 100.767 357.548 101.282Z" fill="black"/>
<path d="M364.404 155.238C364.93 156.106 365.862 156.257 366.773 156.064C368.156 155.769 369.539 155.463 370.922 155.163C373.785 154.541 376.652 153.973 379.552 153.571C380.061 153.501 379.847 152.724 379.338 152.794C376.824 153.142 374.331 153.614 371.85 154.139C370.702 154.386 369.561 154.638 368.414 154.89C367.792 155.024 367.175 155.163 366.554 155.292C366.002 155.404 365.428 155.383 365.096 154.836C364.828 154.391 364.136 154.793 364.404 155.238Z" fill="black"/>
<path d="M330.801 141.435C328.142 139.956 325.43 138.573 322.664 137.297C321.367 136.697 320.059 136.123 318.74 135.571C317.647 135.11 316.35 134.762 315.465 133.926C315.09 133.572 314.522 134.14 314.897 134.494C315.658 135.212 316.644 135.571 317.593 135.957C319.089 136.568 320.568 137.212 322.031 137.887C324.872 139.195 327.665 140.61 330.399 142.132C330.849 142.384 331.251 141.687 330.801 141.435Z" fill="black"/>
<path d="M318.419 136.509C318.043 137.297 317.663 138.085 317.288 138.879C317.406 138.814 317.518 138.745 317.636 138.68C314.404 138.337 311.461 137.34 308.508 136.032C307.323 135.507 305.988 134.998 304.67 135.26C303.64 135.464 302.633 136.172 302.225 137.163C302.059 137.565 301.936 138.166 302.118 138.584C302.322 139.061 303.169 139.42 303.587 139.699C304.847 140.535 306.133 141.334 307.446 142.095C310.03 143.596 312.705 144.941 315.449 146.126C318.553 147.466 321.747 148.602 325.001 149.524C325.226 149.588 325.414 149.444 325.494 149.245C326.706 146.244 326.073 142.834 326.85 139.742C326.974 139.238 326.202 139.023 326.073 139.527C325.296 142.625 325.923 146.04 324.717 149.031C324.883 148.94 325.049 148.843 325.21 148.752C319.952 147.262 314.859 145.214 310.041 142.625C308.845 141.988 307.671 141.312 306.514 140.61C305.388 139.924 304.101 139.265 303.099 138.407C302.097 137.549 304.01 136.231 304.788 136.064C306.181 135.759 307.628 136.52 308.856 137.078C311.649 138.353 314.581 139.168 317.636 139.49C317.765 139.506 317.926 139.404 317.985 139.291C318.36 138.503 318.74 137.715 319.116 136.922C319.335 136.45 318.638 136.043 318.419 136.509Z" fill="black"/>
<path d="M376.041 153.453C376.819 156.562 377.982 159.558 379.493 162.389C379.745 162.855 380.029 163.3 379.627 163.75C379.402 164.007 379 164.158 378.695 164.281C377.848 164.635 376.985 164.94 376.127 165.267C374.524 165.884 372.922 166.602 371.281 167.111C370.44 167.374 369.679 167.149 368.843 166.966C367.926 166.773 367.009 166.575 366.093 166.382C365.262 166.205 364.431 166.028 363.606 165.851C362.802 165.68 361.847 165.61 361.102 165.24C360.395 164.887 360.293 164.168 360.609 163.493C360.942 162.775 361.654 162.432 362.394 162.276C363.986 161.949 365.76 162.164 367.374 162.174C368.558 162.18 370.268 162.367 370.488 160.813C370.74 159.017 370.456 157.055 370.032 155.308C369.909 154.804 369.137 155.018 369.255 155.522C369.486 156.492 369.647 157.473 369.706 158.465C369.732 158.937 369.743 159.408 369.732 159.88C369.722 160.448 369.807 161.075 369.175 161.301C368.462 161.552 367.465 161.37 366.731 161.365C365.776 161.36 364.828 161.343 363.874 161.349C362.533 161.36 360.974 161.531 360.132 162.716C359.473 163.643 359.387 165.031 360.389 165.755C361.022 166.211 361.858 166.296 362.598 166.452C363.557 166.655 364.522 166.859 365.482 167.063C366.441 167.267 367.406 167.47 368.365 167.674C369.186 167.845 370.065 168.14 370.912 168.012C371.732 167.888 372.52 167.492 373.286 167.197C374.262 166.822 375.243 166.446 376.218 166.071C377.113 165.728 378.014 165.396 378.909 165.037C379.445 164.822 380.019 164.57 380.372 164.088C380.903 163.364 380.555 162.657 380.185 161.96C379.724 161.102 379.295 160.229 378.898 159.339C378.025 157.366 377.339 155.313 376.813 153.223C376.695 152.735 375.918 152.949 376.041 153.453Z" fill="black"/>
</g>
<defs>
<clipPath id="clip0">
<rect width="555" height="220.236" fill="white" transform="translate(-90)"/>
</clipPath>
</defs>
</svg>
