<svg width="55" height="55" viewBox="0 0 55 55" fill="none" xmlns="http://www.w3.org/2000/svg">
<g clip-path="url(#clip0)">
<path d="M15.0344 5.81741C13.8094 5.25334 12.3626 5.5119 11.4089 6.4656L0.943652 16.931C-0.0241141 17.8987 -0.27473 19.3721 0.318562 20.6055L3.31349 26.8315C3.47065 27.1584 3.68216 27.4564 3.93858 27.7129L27.8027 51.5771C29.0607 52.8351 31.1005 52.8352 32.3586 51.5771C33.6167 50.319 33.6166 48.2791 32.3586 47.0212L33.4976 48.1602C34.7556 49.4182 36.7953 49.4183 38.0535 48.1602C39.3116 46.9021 39.3115 44.8623 38.0535 43.6043L39.1925 44.7433C40.4505 46.0013 42.4902 46.0014 43.7484 44.7433C45.0065 43.4852 45.0064 41.4455 43.7484 40.1874L44.8873 41.3264C46.1454 42.5845 48.1851 42.5846 49.4432 41.3264C50.7014 40.0683 50.7012 38.0285 49.4432 36.7706L21.848 9.17478C21.5786 8.90537 21.2636 8.68601 20.9175 8.5266L15.0344 5.81741Z" fill="#1F99A7"/>
<path d="M15.2739 29.9362L8.4399 36.7702C7.18178 38.0284 5.14205 38.0284 3.88403 36.7702C2.6259 35.5121 2.6259 33.4724 3.88403 32.2143L10.718 25.3804C11.9761 24.1222 14.0159 24.1222 15.2739 25.3804C16.5319 26.6384 16.5319 28.6782 15.2739 29.9362Z" fill="#71CAD4"/>
<path d="M19.83 34.4923L12.9961 41.3262C11.7379 42.5844 9.6982 42.5844 8.44018 41.3262C7.18205 40.0681 7.18205 38.0284 8.44018 36.7704L15.2742 29.9364C16.5323 28.6783 18.572 28.6783 19.83 29.9364C21.0881 31.1944 21.0881 33.2342 19.83 34.4923Z" fill="#71CAD4"/>
<path d="M24.3857 39.0482L17.5517 45.8822C16.2936 47.1403 14.2539 47.1403 12.9958 45.8822C11.7377 44.624 11.7377 42.5843 12.9958 41.3263L19.8298 34.4923C21.0879 33.2342 23.1277 33.2342 24.3857 34.4923C25.6438 35.7502 25.6438 37.7901 24.3857 39.0482Z" fill="#71CAD4"/>
<path d="M26.6638 45.8819L22.1079 50.4378C20.8497 51.6959 18.81 51.6959 17.552 50.4378C16.2939 49.1797 16.2939 47.1399 17.552 45.8819L22.1079 41.326C23.366 40.0679 25.4057 40.0679 26.6638 41.326C27.9219 42.5842 27.9219 44.6239 26.6638 45.8819Z" fill="#71CAD4"/>
<path d="M43.2177 3.88637C42.134 2.79926 40.5822 2.29212 38.9808 2.54209L26.74 4.80257L15.2742 16.2685C15.262 16.2807 15.2586 16.2977 15.2465 16.3101C14.0249 17.5709 14.0282 19.5785 15.2742 20.8244C16.5322 22.0824 18.572 22.0825 19.8301 20.8244L26.6641 13.9904L44.1637 31.4901L53.7937 20.8725C55.4783 18.9628 55.389 16.0575 53.5878 14.2565L43.2177 3.88637Z" fill="#71CAD4"/>
</g>
<defs>
<clipPath id="clip0">
<rect width="55" height="55" fill="white"/>
</clipPath>
</defs>
</svg>
