<svg width="895" height="355" viewBox="0 0 895 355" fill="none" xmlns="http://www.w3.org/2000/svg">
<g clip-path="url(#clip0)">
<path d="M882.027 261.28C881.862 261.15 881.69 261.029 881.525 260.899C881.966 260.45 882.372 259.949 882.709 259.405C887.876 256.476 888.377 248.328 881.137 245.373C869.109 240.465 856.607 235.506 843.923 232.568C837.832 231.16 831.723 230.858 825.753 228.836C819.713 226.797 813.829 224.308 807.773 222.286C795.383 218.148 782.716 214.934 770.015 211.901C757.746 208.981 745.027 206.795 733.156 202.466C732.102 202.077 730.996 202.025 729.933 202.215C728.793 201.602 727.643 200.997 726.477 200.409C726.036 200.021 725.527 199.658 724.939 199.347C704.09 188.054 680.304 197.446 658.15 194.396C656.897 193.437 655.705 192.115 654.565 191.363C652.482 189.989 650.106 189.108 647.756 188.305C642.529 186.516 637.146 184.978 631.789 183.613C625.231 181.937 618.354 180.839 611.588 181.15C611.251 180.978 610.897 180.813 610.534 180.675C606.447 179.146 602.533 180.01 598.516 181.237C595.457 182.17 592.208 182.205 589.219 183.31C585.65 184.641 582.479 186.093 578.807 187.181C575.412 188.184 572.241 189.618 569.346 191.657C566.616 193.584 563.428 195.822 561.717 198.794C559.799 202.146 559.998 206.44 560.119 210.32C558.909 214.579 557.742 218.856 557.164 223.254C556.861 225.561 556.74 227.799 556.87 230.089C556.662 229.924 556.446 229.769 556.23 229.605C556.239 229.631 556.248 229.657 556.248 229.691C556.662 232.862 558.339 235.722 559.496 238.703C560.395 238.746 561.129 239.446 561.466 240.275C561.285 239.843 561.51 240.293 561.561 240.388C561.57 240.414 561.579 240.414 561.587 240.431C561.596 240.439 561.596 240.44 561.605 240.448C561.777 240.63 561.95 240.802 562.14 240.967C562.546 241.321 562.978 241.658 563.341 242.064C563.834 242.617 564.257 243.204 564.594 243.861C564.732 244.12 564.862 244.388 565 244.647C565.078 244.777 565.147 244.915 565.234 245.045C565.277 245.114 565.346 245.209 565.363 245.243C566.193 246.237 567.247 247.058 568.188 247.931C569.251 248.916 570.228 249.952 571.04 251.153C571.714 252.138 571.195 253.486 570.271 254.082C569.251 254.739 567.972 254.238 567.342 253.313C567.264 253.201 567.195 253.097 567.117 252.994C567.083 252.951 566.91 252.743 566.892 252.717C566.685 252.475 566.478 252.251 566.253 252.026C565.761 251.516 565.242 251.041 564.724 250.566C564.067 249.961 563.385 249.373 562.762 248.725C562.564 248.725 562.374 248.708 562.192 248.665C561.656 248.518 561.207 248.147 560.913 247.68C560.058 246.306 559.315 244.872 558.356 243.567C558.235 243.42 558.114 243.282 557.984 243.144C557.12 243.161 556.265 242.712 555.963 241.649C555.911 241.45 555.842 241.26 555.781 241.062C555.107 241.01 554.468 240.612 554.036 240.016C554.131 240.146 553.915 239.938 553.82 239.869C553.526 239.688 553.457 239.671 553.206 239.584C552.982 239.506 552.748 239.446 552.524 239.394C551.763 239.316 551.02 239.187 550.295 239.005C549.431 238.902 548.523 238.807 547.659 238.634C546.657 238.435 546.19 237.744 546.13 236.966C545.188 236.724 544.246 236.491 543.287 236.318C540.453 235.8 536.997 236.284 534.232 237.424C533.921 237.64 533.619 237.873 533.299 238.089C534.146 238.832 535.243 239.411 536.643 239.722C536.894 239.783 537.153 239.835 537.403 239.895C537.239 240.12 537.084 240.362 536.945 240.604C536.92 240.586 536.885 240.569 536.859 240.552C535.563 239.766 534.302 238.988 533.023 238.279C532.124 238.876 531.208 239.463 530.267 239.999C529.117 240.647 528.037 240.146 527.476 239.299C527.407 239.359 527.338 239.411 527.268 239.472C527.268 239.472 527.268 239.472 527.277 239.472C527.916 239.74 528.383 240.051 528.659 240.707C528.919 241.312 528.919 242.038 528.556 242.608C527.726 243.913 526.327 244.829 524.858 245.261C523.501 245.658 521.877 245.537 520.84 244.492C520.287 244.872 519.734 245.243 519.164 245.589C518.49 245.995 517.764 246.393 517.004 246.652C517.073 246.799 517.133 246.954 517.211 247.101C515.794 248.967 515.103 251.473 515.544 253.875C515.371 253.763 515.198 253.65 515.025 253.538C507.742 248.855 498.618 260.182 505.599 265.755C508.623 268.166 511.707 270.507 514.835 272.788C514.04 272.754 513.245 272.745 512.45 272.797C505.677 273.212 502.566 281.843 506.566 286.051C504.64 285.801 502.713 285.541 500.795 285.291C494.885 284.513 492.025 291.399 493.632 296.203C486.927 294.095 480.102 291.97 473.198 290.242C466.217 283.727 457.939 278.767 448.288 277.808C446.457 277.627 444.772 278.31 443.433 279.467C442.327 278.802 441.212 278.154 440.089 277.515C440.028 277.627 439.968 277.739 439.89 277.843C439.311 278.621 438.775 279.32 438.257 279.994C438.248 280.046 438.24 280.089 438.231 280.141C437.79 281.999 436.261 283.468 434.87 284.807C434.844 285.282 434.723 285.775 434.525 286.241C433.997 287.477 432.874 288.194 431.915 289.041C431.276 289.611 430.645 290.198 430.023 290.786C429.971 291.14 429.859 291.486 429.669 291.814C429.461 292.177 429.194 292.471 428.891 292.73C428.554 293.084 428.217 293.43 427.863 293.767C427.63 293.983 427.388 294.199 427.163 294.415C426.982 294.579 426.722 294.864 426.861 294.674C426.342 295.348 425.876 296.031 425.254 296.584C425.098 296.869 424.891 297.128 424.649 297.318C424.018 297.802 422.973 297.966 422.273 297.482C422.255 297.473 422.238 297.465 422.229 297.448C422.134 297.422 422.039 297.387 421.944 297.353C420.968 297.594 419.897 297.525 418.92 297.404C418.143 297.309 417.365 297.197 416.605 296.998C416.147 296.877 415.68 296.713 415.248 296.497C415.214 296.514 415.179 296.532 415.145 296.549C414.609 296.825 414.039 296.886 413.529 296.748C413.339 296.895 413.114 297.024 412.846 297.128C412.25 297.361 411.637 297.56 411.04 297.785C409.926 298.199 408.811 298.614 407.697 299.029C407.558 299.582 407.213 300.083 406.712 300.342C405.148 301.163 403.48 301.794 401.778 302.26C401.605 302.329 401.415 302.381 401.225 302.407C401.208 302.407 401.191 302.416 401.173 302.416C400.586 302.779 399.981 303.098 399.342 303.357C398.175 303.833 396.914 303.617 395.903 302.882C395.834 302.83 395.298 302.519 395.298 302.476C395.298 302.502 395.808 302.675 395.393 302.511C395.298 302.476 395.194 302.433 395.099 302.398C394.676 302.243 394.253 302.096 393.838 301.923C392.956 301.56 392.144 301.111 391.444 300.489C391.289 300.498 391.133 300.489 390.978 300.454C390.693 300.446 390.425 300.359 390.183 300.204C389.837 299.996 389.509 299.737 389.198 299.478C388.999 299.314 388.809 299.141 388.636 298.942C388.438 298.718 388.256 298.476 388.075 298.234C387.997 298.13 387.928 298.026 387.867 297.914C387.721 297.664 387.608 297.37 387.513 297.102C387.47 296.998 387.444 296.886 387.418 296.774C387.401 296.696 387.401 296.618 387.384 296.532C386.796 296.048 386.234 295.538 385.681 295.011C384.541 293.914 383.176 292.894 382.243 291.59C382.156 291.581 382.061 291.572 381.975 291.538C381.698 291.469 381.456 291.348 381.249 291.158C381.016 291.011 380.834 290.803 380.696 290.561C380.42 290.069 380.16 289.568 379.979 289.023C379.962 288.954 379.953 288.885 379.936 288.825C379.633 288.721 379.34 288.565 379.098 288.349C378.164 287.537 377.3 286.656 376.41 285.792C375.978 285.369 375.538 284.954 375.08 284.548C375.002 284.479 374.354 283.995 374.363 283.943C374.242 283.848 374.121 283.753 374 283.658C373.905 283.58 373.81 283.502 373.723 283.416C373.317 283.053 372.963 282.638 372.6 282.232C372.41 282.016 372.22 281.809 372.021 281.61C371.987 281.576 371.952 281.55 371.918 281.524C371.719 281.411 371.797 281.437 371.918 281.524C371.961 281.55 372.004 281.576 372.073 281.61C371.978 281.558 371.892 281.489 371.805 281.429C371.365 281.152 370.898 280.902 370.535 280.521C370.457 280.444 370.406 280.357 370.336 280.279C369.317 281.826 368.323 283.39 367.373 284.971C366.733 285.317 366.137 285.766 365.619 286.336C363.977 288.125 362.37 289.931 360.78 291.762C350.861 286.958 333.011 293.931 325.001 300.731C321.372 299.098 317.934 297.949 314.789 295.313C312.801 293.646 310.84 291.944 308.887 290.242C308.481 289.274 307.816 288.332 306.814 287.468C297.24 279.208 290.708 266.965 277.031 265.021C274.836 264.71 272.78 264.788 270.853 265.176C269.937 265.099 268.952 265.194 267.89 265.513C259.768 267.959 254.826 274.707 248.812 280.21C246.168 282.63 243.377 284.798 240.189 286.466C237.208 288.021 234.271 288.946 231.48 290.518C230.711 290.397 229.942 290.293 229.173 290.181C229.164 290.198 229.156 290.216 229.147 290.233C227.885 292.194 226.01 293.084 224.023 294.121C222.036 295.158 220.083 296.419 218.39 297.897C217.586 298.597 216.696 298.899 215.841 298.908C215.34 299.409 214.839 299.91 214.338 300.403C214.415 300.584 214.476 300.783 214.528 300.973C214.735 301.128 214.925 301.301 215.072 301.526C215.323 301.802 215.495 302.131 215.582 302.502C215.711 303.306 215.746 303.798 215.564 304.61C215.539 304.723 215.495 304.835 215.452 304.939C215.331 305.232 215.227 305.552 215.055 305.829C214.649 306.477 214.07 306.909 213.344 307.142C212.61 307.384 211.806 307.202 211.141 306.857C210.812 306.684 210.527 306.399 210.294 306.07C210.268 306.07 210.251 306.079 210.225 306.079C210.017 306.079 209.81 306.079 209.603 306.045C209.188 306.045 208.791 305.941 208.436 305.725C208.307 305.63 208.177 305.526 208.056 305.431C205.231 304.567 202.354 303.435 199.839 302.027C199.511 301.845 199.252 301.621 199.01 301.379C196.236 300.722 193.774 298.312 191.536 296.463C191.476 296.411 191.432 296.359 191.372 296.307C187.803 296.497 184.218 296.877 180.615 297.517C178.74 297.845 177.245 299.072 176.252 300.653C173.78 299.504 171.318 298.355 168.847 297.206C165.045 295.434 160.466 296.134 158.211 299.996C157.839 300.636 157.571 301.353 157.407 302.105C156.88 302.061 156.353 302.036 155.835 302.001C156.811 297.983 154.945 293.482 150.59 291.158C144.931 288.133 137.837 287.987 131.418 288.436C130.623 289.352 129.681 290.181 128.575 290.691C128.532 290.708 128.488 290.717 128.445 290.734C126.631 292.315 124.739 294.078 122.821 295.478C122.371 295.806 121.879 295.996 121.36 296.091C120.799 296.592 120.228 297.093 119.65 297.586C119.451 297.759 119.235 297.905 119.019 298.052C119.01 298.061 118.993 298.07 118.984 298.087C118.837 298.338 118.665 298.571 118.44 298.778C118.086 299.158 117.662 299.435 117.178 299.59C116.712 299.832 116.202 299.945 115.666 299.927C114.863 299.901 114.336 299.763 113.636 299.383C113.325 299.21 113.048 298.968 112.781 298.726C112.772 298.718 112.755 298.7 112.746 298.692C112.729 298.666 112.711 298.64 112.686 298.614C112.608 298.571 112.521 298.536 112.444 298.493C112.426 298.484 112.409 298.467 112.392 298.458C112.375 298.45 112.357 298.441 112.34 298.433C112.305 298.407 112.271 298.381 112.236 298.355C112.038 298.217 111.882 298.096 111.735 297.966C111.606 297.871 111.485 297.776 111.355 297.672C111.044 297.361 110.785 297.016 110.569 296.644C108.167 295.763 105.86 294.121 104.158 292.756C92.623 295.27 79.9997 298.173 69.7351 304.386C67.1258 302.701 63.9375 301.621 61.1986 300.964C58.7102 300.368 56.265 299.383 53.8026 298.467C53.7421 298.389 53.6903 298.32 53.6384 298.242C52.783 297.18 51.7462 296.342 50.6143 295.616C49.9404 297.664 48.5321 299.348 46.9595 300.93C46.6571 301.232 46.3115 301.465 45.9573 301.673C45.4821 303.28 44.6353 304.507 43.5985 305.803C43.2788 306.2 42.9505 306.58 42.6135 306.969C42.4666 307.133 42.3284 307.306 42.1729 307.479C42.1642 307.487 42.1556 307.496 42.1469 307.505C41.9569 307.807 41.7495 308.075 41.5421 308.36C41.5248 308.421 41.5162 308.472 41.4989 308.533C41.352 309.164 41.0583 309.717 40.6349 310.183C40.2893 310.71 39.84 311.125 39.2784 311.427C39.2438 311.445 39.2179 311.462 39.1834 311.479C39.1661 311.488 39.1574 311.488 39.1402 311.497C39.1402 311.497 39.1402 311.505 39.1315 311.505C38.5181 312.205 37.7232 312.715 36.9542 313.25C34.8028 315.091 32.4786 316.776 30.2926 318.616C30.1457 318.737 29.9902 318.849 29.8347 318.962C28.6077 320.301 27.3722 321.64 25.9984 322.824C25.8774 323.161 25.7219 323.472 25.4973 323.766C22.4127 327.792 18.7406 331.067 15.1636 334.626C12.8394 336.942 10.0918 339.759 6.91219 341.055C6.89491 341.115 6.87763 341.184 6.86035 341.245C8.26006 340.562 9.5993 339.785 10.8348 338.826C17.2804 340.381 24.0716 342.169 30.5864 340.139C31.5022 339.854 32.2971 339.439 32.9797 338.955C37.3603 339.983 41.7495 341.02 46.1301 342.048C49.1973 343.604 52.2992 345.107 55.4615 346.481C62.5033 349.548 70.0375 352.563 77.8051 350.334C78.7555 350.066 79.68 349.704 80.5699 349.28C81.4944 349.436 82.4103 349.608 83.3348 349.764C86.7909 350.334 90.247 349.384 92.1132 346.187C93.5475 343.725 93.487 340.312 91.8713 337.918C97.401 337.668 102.939 337.478 108.469 337.409C120.211 337.918 131.962 338.644 143.592 340.286C159.619 342.541 174.843 348.451 190.853 350.421C195.891 351.043 199.45 345.167 198.448 340.597C206.682 343.241 214.916 345.885 223.151 348.528C228.983 350.403 232.62 345.729 232.568 340.899C234.452 341.305 236.344 341.651 238.262 341.919C241.52 342.368 244.708 341.616 246.566 339.007C247.291 338.929 248.008 338.869 248.734 338.791C250.35 338.609 251.698 338.117 252.795 337.417C253.158 338.082 253.512 338.756 253.901 339.422C256.372 343.638 260.831 344.027 264.131 342.161C268.615 346.584 276.487 344.519 277.316 336.933C277.325 336.881 277.325 336.838 277.325 336.786C278.698 339.543 280.288 342.195 282.155 344.709C284.565 350.11 288.125 354.758 293.767 354.758C300.679 354.758 303.47 348.727 304.343 342.307C306.338 343.405 308.378 344.424 310.46 345.357C315.955 347.82 322.435 350.982 328.622 349.643C330.116 349.315 331.507 348.727 332.752 347.941C335.05 348.753 337.219 348.425 338.973 347.405C342.498 347.025 345.798 345.703 347.95 342.644C348.917 341.262 349.453 339.88 349.643 338.532C351.829 338.748 354.006 338.955 356.192 339.145C362.724 339.707 371.416 340.605 377.568 337.167C379.616 337.625 381.672 338.091 383.72 338.54C383.461 339.698 383.279 340.873 383.193 342.091C382.58 350.775 396.724 352.762 398.469 344.157C398.642 343.31 398.823 342.472 399.013 341.634C399.601 341.737 400.188 341.832 400.776 341.936C401.268 342.549 401.761 343.163 402.288 343.759C405.545 347.431 410.073 346.498 412.924 343.664C413.494 343.724 414.065 343.802 414.635 343.863C414.661 343.863 414.687 343.863 414.721 343.863C418.583 346.939 424.364 344.589 426.325 340.26C428.018 339.862 429.608 338.886 430.783 337.512C435.034 337.936 439.311 338.238 443.588 338.463C444.219 339.422 444.841 340.389 445.472 341.348C449.723 347.742 458.587 344.692 459.944 338.998C467.297 339.137 474.667 339.197 482.011 339.361C484.603 339.759 487.195 340.182 489.779 340.649C508.77 344.027 527.735 347.855 547.055 348.762C552.878 349.038 555.315 343.966 554.321 339.499C554.502 339.499 554.684 339.499 554.865 339.491C555.824 339.681 556.783 339.854 557.742 340.052C559.911 340.493 561.786 340.191 563.289 339.413C567.877 339.37 572.465 339.327 577.053 339.283C578.565 339.707 580.086 340.113 581.607 340.493C584.475 341.202 586.791 340.554 588.415 339.18C593.919 339.128 599.431 339.085 604.935 339.033C606.75 340.018 608.573 340.986 610.413 341.927C614.655 344.096 618.993 342.161 620.997 338.895C630.856 338.834 640.714 338.877 650.564 339.404C651.333 339.664 652.145 339.785 652.983 339.724C653.372 339.698 653.761 339.672 654.15 339.646C660.906 340.165 667.68 341.029 674.446 341.089C675.5 341.271 676.563 341.443 677.625 341.582C680.909 344.122 684.244 346.619 687.639 349.021C690.421 350.991 694.776 350.092 697.066 347.803C699.088 345.781 699.623 343.033 699.01 340.424C710.968 341.478 722.917 342.696 734.901 342.912C736.819 342.947 738.375 342.403 739.567 341.504C742.816 342.826 746.108 344.018 749.443 344.839C755.335 346.291 761.409 344.666 764.425 340.26C769.583 342.143 775.985 343.707 780.72 341.037C781.161 341.288 781.593 341.539 782.033 341.789C785.559 343.733 790.328 342.299 792.6 339.24C794.216 339.499 795.832 339.75 797.456 339.975C801.007 344.165 804.93 348.01 809.293 351.457C813.25 354.577 818.625 354.516 821.511 349.885C825.001 344.277 823.031 338.782 819.973 333.788C821.45 331.499 821.943 328.552 820.465 325.822C817.329 320.024 814.089 314.184 810.572 308.533C815.86 309.241 820.534 304.455 819.152 299.21C819.23 299.253 819.307 299.297 819.394 299.34C824.466 302.053 831.257 297.949 831.36 292.747C833.175 294.415 834.981 296.082 836.769 297.776C841.409 302.174 847.569 299.279 849.522 294.821C852.589 297.482 855.57 300.264 858.43 303.219C860.003 304.844 861.783 305.535 863.511 305.561C864.772 307.081 866.656 307.937 868.643 308.135C868.539 312.412 868.453 316.689 868.401 320.966C868.263 330.98 883.815 330.98 883.953 320.966C884.143 306.909 884.584 292.86 885.258 278.819C889.25 273.203 887.323 265.643 882.027 261.28Z" fill="white"/>
<path d="M589.115 182.974C585.892 182.956 583.214 184.624 580.449 186.075C577.736 187.501 575.507 188.918 573.658 191.415C573.442 191.709 573.286 192.028 573.174 192.357C571.696 191.259 569.7 191.268 567.903 192.046C563.704 193.869 560.844 198.051 560.162 202.518C558.442 207.097 557.95 212.229 557.907 216.973C557.863 221.155 561.855 222.399 564.68 220.982C565.925 220.835 567.108 220.126 567.877 218.658C567.972 218.476 568.067 218.295 568.162 218.113C568.888 216.722 568.888 215.374 568.439 214.225C568.439 213.888 568.43 213.551 568.439 213.214C568.456 212.333 568.188 211.529 567.748 210.847C567.877 209.81 568.076 208.773 568.335 207.771C569.061 206.933 569.502 205.861 569.493 204.704C569.493 204.678 569.493 204.652 569.493 204.626C570.003 203.598 570.642 202.656 571.437 201.826C571.878 201.369 572.197 200.885 572.422 200.384C572.509 200.34 572.595 200.306 572.681 200.263C573.805 199.77 574.513 198.725 574.815 197.55C574.988 197.688 575.161 197.817 575.342 197.921C577.762 199.329 580.319 198.284 581.849 196.219C582.505 195.329 584.294 194.776 585.227 194.292C586.264 193.748 587.905 192.478 589.098 192.486C595.232 192.504 595.241 182.999 589.115 182.974Z" fill="white"/>
<path d="M560.213 200.142C559.419 205.801 558.624 211.452 557.829 217.111C557.025 222.796 556.256 228.775 558.287 234.149C561.691 243.144 572.223 248.492 574.072 257.927C574.357 259.387 574.401 260.96 573.77 262.308C572.292 265.479 567.99 266.075 565.536 268.572C561.734 272.426 563.67 278.854 565.899 283.787C575.239 304.438 585.918 324.474 597.841 343.75" fill="white"/>
<path d="M559.591 199.969C558.719 206.199 557.803 212.428 556.965 218.666C556.239 224.101 555.755 229.829 557.95 235.014C561.337 243.032 569.916 247.654 572.845 255.888C573.692 258.273 574.236 261.245 572.336 263.276C570.884 264.822 568.733 265.539 566.97 266.645C563.082 269.091 562.227 273.221 563.082 277.515C563.54 279.804 564.395 281.99 565.346 284.107C566.573 286.846 567.843 289.568 569.13 292.281C571.696 297.707 574.366 303.098 577.114 308.438C583.369 320.569 590.109 332.458 597.289 344.07C597.729 344.779 598.844 344.131 598.412 343.414C592.096 333.192 586.117 322.763 580.518 312.136C577.779 306.943 575.126 301.707 572.56 296.428C571.247 293.724 569.96 291.011 568.689 288.289C567.514 285.766 566.262 283.243 565.32 280.625C563.765 276.279 562.952 270.827 567.393 267.915C569.044 266.835 570.919 266.136 572.465 264.9C574.185 263.526 575.023 261.617 574.919 259.414C574.496 250.523 565.726 244.924 561.164 238.167C559.686 235.973 558.598 233.597 558.079 230.987C557.431 227.713 557.613 224.317 557.976 221.025C558.745 214.104 559.876 207.209 560.844 200.315C560.948 199.494 559.704 199.139 559.591 199.969Z" fill="black"/>
<path d="M838.022 231.272C829.641 227.946 820.733 225.181 811.738 224.205C805.664 223.539 805.716 233.052 811.738 233.709C819.808 234.59 827.991 237.459 835.499 240.44C841.176 242.695 843.647 233.51 838.022 231.272Z" fill="white"/>
<path d="M102.732 292.099C101.358 289.049 97.4961 287.304 94.8608 285.55C94.3338 285.196 93.7894 284.85 93.2451 284.513C92.0527 282.872 90.437 281.437 89.0373 280.504C87.5771 279.528 85.8577 278.742 84.1124 278.361C84.0087 278.292 83.8964 278.223 83.7927 278.154C83.7409 278.094 83.689 278.033 83.6372 277.981C81.1056 275.45 76.5695 275.251 73.1912 275.744C72.4049 275.856 71.6446 276.055 70.9188 276.314C68.1539 276.737 65.0175 278.577 63.4018 281.066C63.3586 281.109 63.3154 281.152 63.2722 281.195C63.1253 281.316 62.9785 281.429 62.8316 281.576C62.7538 281.662 62.676 281.748 62.5983 281.826C60.7234 283.597 58.8398 285.377 57.1982 287.373C55.4528 289.499 54.2778 292.203 52.1177 293.931C51.1759 294.683 50.7526 295.849 50.7439 297.042C50.2428 297.785 49.7762 298.571 49.3788 299.4C48.774 300.662 48.748 301.889 49.0936 302.96C48.0136 304.265 46.925 305.552 45.8622 306.866C42.0605 311.583 48.7394 318.348 52.5843 313.588C54.2087 311.566 55.8676 309.57 57.5351 307.583C58.1486 308.905 59.3323 309.976 60.6974 310.391C62.6328 312.11 65.0175 312.369 67.5059 311.808C69.0266 312.905 71.1348 313.32 72.8542 312.387C76.3276 310.503 79.4035 307.617 82.3152 304.68C86.6181 304.412 90.9036 300.118 93.4784 297.206C93.5993 297.068 93.703 296.921 93.8067 296.782C94.0141 297.085 94.2646 297.379 94.5843 297.664C95.6125 298.597 96.7012 299.444 97.8503 300.23C102.87 303.686 107.596 295.573 102.732 292.099Z" fill="white"/>
<path d="M185.885 292.03C182.04 288.661 178.55 285.446 173.53 284.133C171.508 282.509 168.069 282.267 165.831 281.662C163.006 280.893 160.302 280.072 157.597 280.573C155.454 280.245 153.225 280.245 150.936 280.582C145.155 281.429 137.388 284.194 133.094 288.324C130.787 290.544 131.521 293.439 133.387 295.089C131.668 298.372 135.53 302.744 139.073 301.543C139.15 301.517 139.228 301.491 139.306 301.465C139.556 301.465 139.816 301.448 140.084 301.405C141.12 301.906 142.339 302.062 143.617 301.664C143.514 303.072 144.032 304.438 144.879 305.474C144.957 306.243 145.19 307.021 145.553 307.764C146.667 310.071 149.968 310.693 152.059 309.466C152.534 309.19 152.906 308.844 153.225 308.473C153.847 310.762 155.921 312.585 158.841 311.626C164.449 309.786 170.851 307.418 176.934 306.874C178.999 308.196 181.937 308.153 183.492 305.397C183.682 305.068 183.863 304.731 184.054 304.403C184.123 304.282 184.174 304.161 184.226 304.04C186.49 307.021 191.787 307.358 192.409 302.822C193.221 297.024 189.765 295.434 185.885 292.03Z" fill="white"/>
<path d="M327.524 298.035C326.945 297.033 326.314 296.515 325.399 295.858C324.448 295.184 322.824 295.08 321.735 295.383C320.629 295.685 319.437 296.54 318.893 297.569C318.314 298.675 318.02 300.005 318.417 301.232C318.426 301.258 318.443 301.293 318.452 301.318C318.391 301.621 318.357 301.923 318.357 302.2C318.357 303.366 318.875 304.757 319.748 305.561C320.655 306.39 321.839 307.012 323.109 306.952C324.414 306.891 325.485 306.425 326.47 305.561C327.723 304.455 328.371 302.64 328.328 300.999C328.31 299.979 328.043 298.925 327.524 298.035Z" fill="white"/>
<path d="M373.239 285.144C373.084 284.522 372.842 283.978 372.54 283.485C372.298 282.379 371.606 281.342 370.302 280.617C367.433 279.018 364.254 278.197 361.065 278.362C359.752 277.757 358.231 277.662 356.668 278.292C355.743 278.664 354.879 279.13 354.084 279.683C352.676 280.28 351.432 281.221 350.447 282.448C349.824 282.682 349.246 283.027 348.727 283.485C345.133 286.691 340.389 289.775 338.558 294.354C337.607 296.739 339.594 299.573 341.876 300.204C344.519 300.93 346.662 299.349 347.647 297.042C347.656 297.042 347.673 297.042 347.682 297.042C347.682 297.111 347.759 297.093 347.863 297.016C348.719 296.895 349.583 296.523 350.377 295.832C351.155 295.158 351.959 294.363 352.788 293.551C352.693 295.383 353.358 297.128 355.06 298.122C356.84 299.158 359.381 298.908 360.823 297.379C361.912 296.221 362.586 294.968 363.156 293.655C364.85 295.132 367.442 295.564 369.507 293.534C370.181 292.868 370.708 292.125 371.097 291.322C372.902 289.974 373.887 287.693 373.239 285.144Z" fill="white"/>
<path d="M497.719 292.592C491.602 289.006 484.845 286.587 478.227 283.926C476.533 281.774 474.788 279.666 472.922 277.653C471.712 276.348 470.442 274.845 468.964 273.799C468.921 273.005 468.697 272.218 468.247 271.449C467.746 270.603 467.115 270.015 466.277 269.531C465.975 269.367 465.664 269.229 465.344 269.108C465.016 268.702 464.618 268.347 464.143 268.088C463.91 267.777 463.659 267.475 463.383 267.198C462.64 266.498 461.732 265.946 460.739 265.678C460.29 265.557 459.806 265.488 459.331 265.479C458.354 265.125 457.343 264.926 456.298 265.03C454.112 265.246 452.341 266.196 450.906 267.665C449.075 269.065 447.372 270.542 445.8 272.132C444.314 272.797 443.251 274.111 442.318 275.389C442.033 275.778 441.782 276.184 441.506 276.573C441.471 276.625 441.454 276.651 441.428 276.685C441.307 276.798 441.177 276.901 441.126 276.944C439.302 278.638 439.285 281.973 441.126 283.667C442.033 284.496 443.217 285.118 444.487 285.058C444.677 285.049 444.85 285.014 445.031 284.989C445.368 288.756 451.278 291.123 454.008 286.993C454.717 285.922 455.598 284.919 456.505 283.934C456.004 285.637 455.503 287.235 454.838 288.462C451.926 293.845 460.125 298.649 463.046 293.257C463.884 291.711 464.644 290.103 465.275 288.462C465.517 288.635 465.776 288.79 466.07 288.937C467.634 289.68 469.215 290.38 470.822 291.054C471.366 291.486 471.954 291.857 472.611 292.143C473.112 292.367 473.639 292.514 474.157 292.601C474.174 292.609 474.192 292.609 474.218 292.618C474.477 292.696 474.736 292.73 475.004 292.747C478.08 293.974 481.182 295.167 484.214 296.471C484.093 298.934 485.623 301.483 488.794 301.483C489.468 301.483 490.055 301.362 490.582 301.163C490.591 301.163 490.608 301.172 490.617 301.172C492.241 301.483 493.693 301.655 495.343 301.448C499.689 300.886 502.169 295.201 497.719 292.592Z" fill="white"/>
<path d="M634.295 184.131C633.154 183.95 632.238 183.337 631.158 182.887C629.646 182.257 628.108 181.971 626.467 181.842C625.974 181.799 625.49 181.781 625.015 181.773C624.557 181.643 624.039 181.574 623.477 181.591C621.472 181.652 619.623 180.399 617.654 180.036C615.131 179.569 612.634 179.569 610.171 180.364C605.091 182.006 606.067 188.849 610.992 189.627C611.467 189.791 612.003 189.877 612.59 189.877C613.532 189.877 614.327 189.653 614.975 189.272C615.874 189.333 616.764 189.549 617.662 189.817C617.826 190.076 618.016 190.309 618.224 190.517C619.822 192.115 621.844 192.167 623.633 191.32C623.935 191.268 624.246 191.286 624.972 191.294C625.663 191.303 626.337 191.294 627.011 191.476C628.661 191.916 630.026 193.014 631.763 193.299C634.295 193.705 636.878 192.642 637.612 189.981C638.235 187.708 636.843 184.538 634.295 184.131Z" fill="white"/>
<path d="M893.164 327.308C892.334 323.135 889.863 319.16 886.9 316.145C881.016 310.157 873.361 305.932 866.258 301.612C858.404 296.834 850.542 292.065 842.688 287.287C827.567 278.102 812.637 268.088 795.625 262.714C787.088 260.018 778.275 258.446 769.402 257.418C762.878 256.657 755.076 256.044 749.996 261.064C742.66 260.286 735.333 261.254 727.998 262.256C726.399 262.472 725.12 263.483 724.248 264.814C724.205 264.796 724.161 264.779 724.118 264.77C710.467 259.854 697.437 253.46 684.805 246.332C670.264 238.124 656.275 228.974 642.304 219.833C634.839 214.951 627.901 226.909 635.323 231.773C661.062 248.613 687.043 265.375 715.901 276.426C723.228 279.225 730.719 281.55 738.029 284.41C745.097 287.166 751.81 290.734 758.48 294.329C766.637 298.735 774.741 303.228 782.82 307.773C793.663 316.517 805.068 324.578 816.931 331.853C824.44 336.458 833.762 342.23 843.025 344.278C845.997 346.619 848.961 349.341 852.33 351.086C858.845 354.456 868.064 355.631 875.279 354.672C882.277 353.739 888.541 349.825 891.963 343.552C894.684 338.566 895.678 332.319 893.164 327.308Z" fill="#DEE2E6"/>
<path d="M757.513 262.671L757.34 262.256C757.219 262.057 757.063 261.893 756.882 261.763C756.787 260.338 755.828 258.981 753.979 258.981C753.296 258.981 752.743 259.171 752.294 259.482C752.665 258.532 752.691 257.478 752.423 256.415C754.134 254.186 753.728 250.808 751.577 248.639C750.307 247.36 748.267 246.963 746.574 247.542C746.298 247.524 746.021 247.533 745.77 247.568C744.751 247.706 743.68 248.233 742.902 249.019C742.781 248.967 742.66 248.907 742.539 248.872C742.453 248.846 742.323 248.838 742.245 248.829C742.124 248.812 742.012 248.786 741.891 248.795C741.727 248.812 741.545 248.829 741.39 248.864C741.303 248.881 741.2 248.941 741.122 248.967C740.88 249.071 740.854 249.08 740.647 249.244C740.578 249.304 740.491 249.356 740.431 249.425C740.422 249.434 740.414 249.451 740.396 249.46C741.295 250.186 741.399 251.663 740.699 252.553C740.759 252.596 740.82 252.648 740.88 252.683C740.906 252.7 740.941 252.709 740.967 252.726C741.053 252.95 741.148 253.166 741.243 253.382C741.295 253.478 741.355 253.573 741.433 253.65C741.364 254.558 741.39 255.465 741.571 256.398C741.675 256.908 741.822 257.392 741.977 257.884C741.882 257.988 741.787 258.091 741.718 258.221C741.64 258.394 741.571 258.567 741.494 258.731C741.364 258.93 741.295 259.145 741.286 259.37C741.234 259.603 741.243 259.828 741.321 260.061C741.373 260.286 741.476 260.485 741.632 260.649C741.753 260.839 741.917 260.986 742.116 261.098L742.53 261.271C742.703 261.314 742.876 261.331 743.049 261.323C743.973 262.93 746.081 263.82 747.844 263.587C749.045 263.422 750.272 262.705 751.067 261.694C750.92 263.31 751.87 265.038 753.961 265.038C754.367 265.038 754.713 264.96 755.033 264.848C755.188 264.874 755.344 264.9 755.499 264.909C755.534 264.909 755.577 264.909 755.612 264.909C755.802 264.9 755.983 264.865 756.173 264.839C756.216 264.831 756.251 264.822 756.286 264.813C756.51 264.762 756.709 264.658 756.873 264.502C757.063 264.381 757.21 264.217 757.322 264.019C757.452 263.82 757.521 263.604 757.53 263.379C757.599 263.129 757.59 262.904 757.513 262.671Z" fill="white"/>
<path d="M692.02 20.0797C692.4 16.6841 691.976 13.0639 688.97 11.1717C688.209 10.6964 687.354 10.3249 686.464 10.1089C683.872 8.13894 679.811 9.20169 678.938 12.5541C678.627 13.7464 678.316 14.9388 677.997 16.1311C677.815 16.831 677.781 17.4876 677.867 18.0925C676.917 21.5745 676.744 25.523 679.967 27.7695C680.511 28.1497 681.047 28.4089 681.582 28.6076C683.665 30.422 686.749 30.5689 688.866 28.6594C690.274 27.3893 690.896 25.5144 691.346 23.6999C691.778 23.0347 692.054 22.2138 692.089 21.2375C692.106 20.8228 692.072 20.4512 692.02 20.0797Z" fill="white"/>
<path d="M668.838 223.055C668.536 222.502 667.948 222.096 667.317 222.122C667.248 222.122 667.188 222.14 667.119 222.148C667.171 221.301 666.799 220.489 665.892 220.239C665.46 220.118 665.002 220.187 664.622 220.394C664.319 219.712 663.516 219.34 662.781 219.392C662.643 219.176 662.462 218.986 662.211 218.839C661.459 218.398 660.241 218.606 659.844 219.461C659.066 221.12 658.332 222.796 657.606 224.472C657.519 224.645 657.442 224.827 657.364 225.008C656.12 224.282 654.547 224.101 653.113 223.842C651.964 223.643 650.815 223.436 649.665 223.237C648.983 223.116 648.257 222.9 647.583 223.142C646.538 223.513 646.08 224.412 646.261 225.492C646.417 226.382 647.557 226.969 648.387 226.702C648.499 226.667 648.603 226.615 648.706 226.572L649.052 226.632C649.095 226.641 649.138 226.65 649.182 226.658C649.398 227.047 649.769 227.35 650.244 227.557C651.419 228.058 652.655 228.412 653.908 228.654C654.253 228.741 654.599 228.81 654.953 228.87C655.005 228.948 655.066 229.017 655.135 229.078C655.878 229.76 656.828 229.691 657.58 229.078C657.614 229.043 657.64 229 657.675 228.965C657.701 228.957 657.727 228.965 657.753 228.957C657.856 229.086 657.986 229.207 658.15 229.302C658.262 229.587 658.444 229.847 658.695 230.037C658.669 230.132 658.643 230.218 658.625 230.313C658.28 231.773 659.576 232.62 660.682 232.404C661.14 232.629 661.71 232.672 662.202 232.499C662.168 232.758 662.133 233.009 662.09 233.268C661.96 234.193 662.315 235.126 663.3 235.394C663.835 235.541 664.535 235.368 664.985 234.962C664.95 235.843 665.849 236.672 666.713 236.629C666.937 236.621 667.145 236.569 667.335 236.491C667.499 236.621 667.689 236.724 667.914 236.785C668.752 237.018 669.875 236.5 670.039 235.575C670.687 231.989 671.067 228.369 671.162 224.723C671.18 223.591 669.849 222.71 668.838 223.055Z" fill="white"/>
<path d="M745.01 116.971C746.298 113.143 746.021 108.599 745.719 104.624C745.062 96.0617 742.721 87.9226 738.979 80.2069C738.072 78.3406 736.102 77.7013 734.253 77.9864C732.214 77.7099 730.063 78.764 729.242 80.7945C728.801 80.7772 728.36 80.8031 727.928 80.8895C726.192 77.9346 721.811 78.7208 719.979 81.1141C719.634 81.0537 719.28 81.045 718.934 81.0537C718.407 75.4375 717.629 69.8473 716.472 64.3176C723.185 61.4404 722.157 49.3787 713.327 49.3787C712.497 49.3787 711.745 49.4996 711.054 49.6984C710.665 45.7757 709.274 42.1987 705.853 39.9263C702.284 37.5675 697.385 37.2738 694.197 40.6089C694.024 40.7903 693.869 40.9977 693.705 41.1964C690.888 41.7407 688.598 43.9094 687.57 46.7693C686.741 49.0936 686.075 51.4437 685.531 53.8197C681.85 57.3536 681.531 64.0843 681.081 68.9228C680.788 72.0333 680.934 75.161 681.099 78.2802C680.554 78.98 680.183 79.8613 680.096 80.95C679.759 85.4602 679.898 89.9444 680.096 94.4546C680.122 94.9385 680.217 95.3791 680.356 95.7939C678.282 105.186 674.904 114.301 671.568 123.296C670.609 123.486 669.728 124.021 669.166 125.024C665.572 131.374 660.665 138.07 658.841 145.25C658.444 145.985 658.055 146.728 657.692 147.48C657.096 148.689 656.535 149.907 655.999 151.143C655.748 151.713 654.556 153.303 655.04 153.433C653.873 154.383 653.061 155.835 653.701 157.39C653.744 157.485 653.778 157.589 653.821 157.684C654.832 160.155 657.053 161.157 659.533 160.008C659.999 159.792 660.379 159.489 660.708 159.144C663.628 160.604 667.706 160.474 669.823 157.813C672.398 154.582 674.973 151.342 677.556 148.119C679.751 145.38 681.66 144.214 684.598 142.356C685.41 141.837 686.222 141.285 687 140.688C687.786 142.814 689.385 144.525 691.959 145.233C695.692 146.261 700.824 143.963 701.524 139.798L701.576 139.47C701.619 139.496 701.654 139.531 701.697 139.556C702.008 139.686 702.319 139.816 702.621 139.945C703.313 140.127 703.995 140.127 704.686 139.945C705.136 139.876 705.576 139.807 706.026 139.738C706.302 139.669 706.561 139.565 706.795 139.427C707.564 140.084 708.557 140.481 709.715 140.412C713.404 140.204 716.688 139.237 720.005 137.638C720.921 137.198 721.811 136.714 722.692 136.221C723.824 138.857 727.272 139.885 729.639 138.355C732.162 138.71 734.815 137.267 734.763 133.845C734.754 133.137 734.685 132.394 734.564 131.651C734.547 131.487 734.53 131.314 734.521 131.15C737.26 133.612 743.032 132.169 742.591 127.728C742.409 125.914 742.012 123.754 742.487 121.948C742.971 120.159 744.405 118.768 745.01 116.971Z" fill="white"/>
<path d="M326.314 294.156C326.306 294.13 326.297 294.113 326.289 294.087C323.239 287.866 316.758 285.17 310.529 283.139C308.948 282.63 306.96 282.301 305.552 281.386C303.876 280.297 302.925 277.843 301.915 276.184C299.988 273.022 298.139 269.626 295.581 266.913C291.037 262.101 284.323 260.623 277.955 260.303C271.397 259.975 264.226 260.2 258.074 262.697C254.73 264.053 251.87 266.11 249.529 268.857C246.98 271.847 244.958 275.234 242.133 277.981C231.402 285.014 220.61 291.607 212.618 301.897C211.296 303.591 213.404 305.941 214.865 304.809C218.908 305.846 222.978 307.159 227.073 307.937C230.21 308.533 231.454 307.03 233 304.576C235.204 301.077 237.968 298.346 242.332 298.234C246.168 298.13 249.771 299.91 253.089 301.655C259.707 305.137 266.101 309.138 271.881 313.89C277.506 318.512 282.189 324.206 288.211 328.328C288.98 328.855 289.723 328.673 290.224 328.189C305.155 322.349 317.424 309.388 326.029 296.169C326.193 295.979 326.323 295.754 326.41 295.512C326.591 295.011 326.53 294.545 326.314 294.156Z" fill="#F4C670"/>
<path d="M556.982 264.926C557.466 262.61 557.976 260.355 559.289 258.359C560.274 256.865 561.535 255.577 562.849 254.368C562.961 254.307 563.073 254.238 563.186 254.169C564.395 253.512 565.795 252.864 566.123 251.387C566.192 251.084 566.089 250.834 565.916 250.661C565.994 250.471 565.985 250.255 565.83 250.03C561.838 244.025 555.842 239.437 549.033 237.105C547.538 235.359 545.076 234.426 542.864 233.908C539.633 233.147 536.401 233.415 533.368 234.798C527.899 237.295 522.559 240.88 518.136 245.114C516.84 245.788 515.587 246.548 514.386 247.395C510.964 249.823 507.767 252.588 504.45 255.145C497.779 260.278 490.902 265.185 483.523 269.237C479.972 271.19 475.721 272.694 473.371 276.193C473.31 276.279 473.276 276.366 473.258 276.452C473.077 276.772 472.965 277.135 472.991 277.541C473.034 278.5 473.673 279.485 474.598 279.787C477.259 284.453 481.009 288.462 485.458 291.469C486.158 292.307 487.359 292.886 488.578 293.344C488.794 293.456 489.01 293.568 489.226 293.672C491.956 295.435 495.395 295.486 498.315 296.903C501.763 298.588 504.398 301.509 506.929 304.308C507.387 304.818 507.837 305.328 508.277 305.846C509.072 307.194 509.979 308.499 510.99 309.691C511.033 309.769 511.085 309.846 511.12 309.933C511.215 310.114 511.353 310.227 511.5 310.278C513.202 312.162 515.163 313.726 517.384 314.745C517.453 314.823 517.514 314.91 517.583 314.987C517.894 315.575 518.326 316.102 518.879 316.56C519.06 316.715 519.259 316.845 519.458 316.957C522.404 319.696 526.05 321.718 529.619 323.533C529.878 323.662 530.128 323.645 530.336 323.533C532.599 324.69 534.932 325.727 537.455 326.142C540.79 326.678 544.065 326.004 547.305 325.243C552.809 323.956 558.2 322.375 562.529 318.573C563.35 317.847 563.531 316.335 562.935 315.419C561.777 313.639 561.38 311.626 560.87 309.587C560.732 309.026 560.412 308.153 560.101 307.202C560.136 307.107 560.162 307.012 560.17 306.909C560.239 305.811 560.084 304.723 559.911 303.643C559.842 303.228 559.781 302.813 559.73 302.39C559.894 301.863 559.885 301.362 559.747 300.904C563.998 298.873 567.705 296.117 564.983 293.318C564.957 293.119 564.905 292.912 564.836 292.704C564.24 291.019 562.641 289.646 561.656 288.185C560.559 286.57 559.721 284.824 558.701 283.165C557.95 281.939 556.835 281.031 555.919 279.969C555.582 277.506 555.53 275 555.755 272.495C555.997 269.955 556.464 267.432 556.982 264.926Z" fill="#F4C670"/>
<path d="M569.64 254.281C564.464 249.235 559.116 244.034 552.368 241.165C549.214 239.826 545.81 238.988 542.363 239.031C539.062 239.074 535.874 239.999 532.936 241.485C526.707 244.639 521.549 249.771 516.088 254.039C510.048 258.765 503.802 263.232 497.399 267.449C490.28 272.132 482.953 276.486 475.453 280.513C474.719 280.91 475.375 282.025 476.11 281.636C489.027 274.707 501.408 266.792 513.107 257.953C515.941 255.81 518.741 253.616 521.497 251.369C524.132 249.227 526.707 246.997 529.498 245.071C532.245 243.17 535.235 241.545 538.518 240.785C542 239.982 545.62 240.293 549.024 241.312C556.913 243.688 562.97 249.581 568.724 255.188C569.32 255.776 570.236 254.86 569.64 254.281Z" fill="black"/>
<path d="M395.903 318.953C410.116 311.747 422.661 301.284 432.295 288.6C437.911 281.213 442.733 272.892 450.345 267.579C452.747 265.902 455.589 264.52 458.501 264.822C462.536 265.246 465.491 268.676 468.023 271.847C472.369 277.316 476.715 282.785 481.061 288.255C484.145 292.134 487.403 296.152 491.895 298.243C494.807 299.59 498.065 300.04 500.994 301.344C506.653 303.85 510.446 309.147 514.585 313.752C521.255 321.174 529.714 327.369 539.442 329.589C549.171 331.81 560.257 329.52 567.1 322.262" stroke="black" stroke-miterlimit="10" stroke-linecap="round"/>
<path d="M423.387 297.629C420.32 298.113 417.218 296.67 414.134 296.964C411.637 297.197 409.399 298.528 407.204 299.729C402.806 302.148 398.218 304.196 393.492 305.863C391.246 306.65 388.818 307.47 387.453 309.414C386.182 311.229 386.113 313.657 384.895 315.506C382.942 318.478 378.864 318.962 375.322 319.152" stroke="black" stroke-miterlimit="10" stroke-linecap="round"/>
<path d="M397.622 303.91C392.352 302.096 388.109 298.156 384.351 294.043C380.592 289.931 377.102 285.489 372.6 282.198C368.099 278.906 362.284 276.867 356.918 278.344C348.001 280.789 343.586 291.598 334.842 294.622C333.253 295.175 331.516 295.46 330.159 296.463C329.131 297.223 328.405 298.32 327.697 299.383C321.891 308.058 315.048 316.033 307.358 323.092C302.528 327.524 296.998 331.758 290.501 332.613" stroke="black" stroke-miterlimit="10" stroke-linecap="round"/>
<path d="M327.783 297.957C324.5 292.384 318.798 288.289 312.464 286.967C310.995 286.665 309.475 286.483 308.144 285.783C306.053 284.669 304.844 282.465 303.608 280.444C301.301 276.677 298.528 273.203 295.374 270.119C293.879 268.658 292.255 267.259 290.337 266.429C288.246 265.531 285.93 265.358 283.667 265.194C274.162 264.511 263.734 264.079 256.096 269.773C252.899 272.158 250.488 275.432 247.663 278.258C242.323 283.597 235.575 287.261 229.285 291.434C222.986 295.607 216.86 300.636 213.767 307.522" stroke="black" stroke-miterlimit="10" stroke-linecap="round"/>
<path d="M305.336 341.4C295.028 335.508 285.248 328.708 276.132 321.096C267.432 313.829 259.033 305.638 248.354 301.828C246.842 301.292 245.252 300.843 243.662 301.042C241.736 301.284 240.042 302.459 238.668 303.833C236.258 306.252 234.607 309.336 232.266 311.808C230.382 313.795 228.101 315.341 225.959 317.035C222.088 320.111 218.632 323.714 215.737 327.723" stroke="black" stroke-miterlimit="10" stroke-linecap="round"/>
<path d="M90.3506 318.72C96.632 315.307 102.317 310.918 107.977 306.554C112.366 303.167 116.746 299.78 121.136 296.393C128.247 290.898 135.53 285.308 144.041 282.414C155.817 278.405 169.4 280.15 179.785 287.002C186.24 291.27 191.424 297.309 198.094 301.232C201.559 303.271 205.352 304.679 209.119 306.088C216.204 308.723 223.392 311.393 230.927 311.998" stroke="black" stroke-miterlimit="10" stroke-linecap="round"/>
<path d="M0.432007 345.902C5.50381 342.696 10.2732 339.007 14.6365 334.894C19.3109 330.488 23.5186 325.606 28.1671 321.182C30.7246 318.754 33.4117 316.465 36.0901 314.175C39.5635 311.211 43.0455 308.248 46.5188 305.276C49.4997 302.735 52.5497 300.152 56.1786 298.666C61.0257 296.687 66.7801 296.929 71.3335 299.513C74.9019 301.534 77.5631 304.792 80.2761 307.868C85.6244 313.933 91.4825 319.54 97.7725 324.63" stroke="black" stroke-miterlimit="10" stroke-linecap="round"/>
<path d="M116.081 300.472C109.566 296.601 103.328 292.255 97.4356 287.485C92.9513 283.848 88.588 279.917 83.3434 277.515C78.0988 275.104 71.6446 274.456 66.7024 277.437C64.3436 278.862 62.5032 280.997 60.7406 283.122C53.7507 291.529 47.2619 300.342 41.3002 309.501" stroke="black" stroke-miterlimit="10" stroke-linecap="round"/>
<path d="M59.5656 297.309C63.2549 306.598 68.6378 315.22 75.3598 322.616" stroke="black" stroke-miterlimit="10" stroke-linecap="round"/>
<path d="M160.06 280.539C155.93 288.695 150.504 296.195 144.041 302.666C142.589 304.127 141.069 305.544 139.911 307.246" stroke="black" stroke-miterlimit="10" stroke-linecap="round"/>
<path d="M130.934 321.874C126.838 325.718 121.049 327.092 116.245 330.004C113.904 331.421 111.778 333.227 109.247 334.255C109.074 334.324 108.867 334.445 108.892 334.626C108.918 334.808 109.29 334.652 109.126 334.557" stroke="black" stroke-miterlimit="10" stroke-linecap="round"/>
<path d="M253.374 303.971C249.391 310.391 244.267 316.093 238.305 320.724C236.31 322.28 234.201 323.722 231.886 324.742C222.399 328.907 211.037 325.364 201.265 328.812C191.519 332.25 185.479 341.772 180.191 350.654" stroke="black" stroke-miterlimit="10" stroke-linecap="round"/>
<path d="M341.746 340.528C343.811 339.439 345.262 337.512 346.654 335.637C350.749 330.116 354.836 324.587 358.931 319.065C360.849 316.473 363.372 313.596 366.587 313.907C369.23 314.158 371.105 316.499 372.764 318.564C377.681 324.69 383.469 330.108 389.906 334.601" stroke="black" stroke-miterlimit="10" stroke-linecap="round"/>
<path d="M884.394 245.459C881.802 243.852 878.735 242.867 875.883 241.831C870.803 239.99 865.662 238.331 860.504 236.707C846.17 232.197 831.723 228.041 817.268 223.945C802.251 219.694 787.2 215.556 772.123 211.503C762.299 208.86 752.475 206.216 742.617 203.736C740.007 203.079 737.407 202.44 734.841 201.636C728.637 199.684 722.615 197.169 716.359 195.398C709.922 193.584 703.477 192.953 696.806 193.368C689.989 193.791 683.233 194.949 676.39 195.035C669.4 195.122 662.92 193.558 656.448 191.009C649.968 188.46 643.626 185.643 636.973 183.561C624.764 179.725 612.037 178.403 599.336 180.122C593.297 180.934 587.344 182.395 581.615 184.494C576.025 186.542 570.288 189.082 565.423 192.538C561.648 195.225 557.57 200.029 560.706 204.712C562.287 207.071 564.663 209.076 566.728 211.011C569.052 213.18 571.48 215.253 573.986 217.215C583.594 224.723 594.256 230.279 605.644 234.547C611.536 236.759 617.507 238.841 623.036 241.882C628.67 244.976 633.232 249.166 637.319 254.091C641.414 259.033 645.173 264.209 649.717 268.753C654.271 273.298 659.282 277.35 664.423 281.221C669.65 285.161 674.929 289.136 680.451 292.661C686.023 296.221 691.907 298.683 698.422 299.884C705.153 301.12 712.013 301.491 718.77 302.545C725.233 303.556 731.644 304.973 737.839 307.073C749.408 311.004 760.26 317.605 767.691 327.472C771 331.87 773.505 336.804 774.948 342.126C775.164 342.93 776.417 342.593 776.201 341.78C773.359 331.317 766.498 322.496 757.936 316.007C748.051 308.524 736.024 304.446 723.954 302.131C710.976 299.642 696.945 300.359 685.056 293.888C679.31 290.76 674.074 286.716 668.804 282.872C663.464 278.966 658.193 274.94 653.338 270.447C648.637 266.101 644.646 261.236 640.68 256.234C636.861 251.413 632.869 246.764 627.754 243.265C617.792 236.448 605.67 233.847 594.887 228.689C583.698 223.332 573.433 216.066 564.689 207.261C562.356 204.911 559.807 202.414 561.354 198.872C562.581 196.081 565.242 194.093 567.765 192.556C573.191 189.255 579.006 186.628 585.045 184.684C596.943 180.857 609.722 179.682 622.103 181.453C628.851 182.412 635.435 184.287 641.846 186.602C648.214 188.901 654.331 191.882 660.759 193.99C667.024 196.046 673.391 196.608 679.949 196.219C686.671 195.813 693.333 194.681 700.072 194.551C706.881 194.413 713.361 195.744 719.807 197.852C725.898 199.839 731.842 202.293 738.046 203.969C746.488 206.25 754.998 208.315 763.448 210.57C777.713 214.372 791.961 218.26 806.183 222.226C821.096 226.391 835.983 230.624 850.801 235.117C860.78 238.141 871.01 241.001 880.627 245.097C881.681 245.546 882.744 246.012 883.711 246.617C884.454 247.015 885.102 245.891 884.394 245.459Z" fill="black"/>
<path d="M756.182 259.707C755.707 258.662 755.206 257.858 754.869 256.882C754.774 256.476 754.67 256.061 754.575 255.655C753.374 250.652 746.401 252.925 747.075 257.72C747.162 258.325 747.3 258.869 747.473 259.387C747.481 259.431 747.49 259.474 747.507 259.517C747.127 259.655 746.833 259.776 746.747 259.811C745.891 258.61 744.198 258.065 742.971 259.5C742.254 260.338 741.036 260.096 740.025 260.459C739.092 260.796 738.288 261.09 737.398 261.236C736.525 261.15 735.653 261.02 734.754 260.865C733.709 260.683 732.81 260.899 732.058 261.331C731.601 261.297 731.143 261.271 730.685 261.271C729.993 261.28 729.397 261.418 728.767 261.703C728.663 261.746 728.559 261.798 728.455 261.85C727.246 262.04 726.183 263.129 726.235 264.399C726.295 265.807 727.375 266.991 728.827 266.991C729.354 266.991 729.786 266.896 730.235 266.714C730.659 267.518 731.445 268.14 732.672 268.347C737.044 269.09 741.096 269.453 745.442 268.295C749.002 267.345 753.884 266.749 756.173 263.621C757.037 262.455 756.718 260.908 756.182 259.707Z" fill="white"/>
<path d="M668.302 233.795C664.76 232.75 661.632 230.866 658.323 229.337C658.306 228.965 658.202 228.594 657.986 228.257C656.975 226.702 655.299 226.054 653.675 225.311C651.843 224.472 650.4 223.142 648.629 222.278C646.538 221.25 643.617 220.619 641.354 219.997C639.366 219.452 637.483 219.409 635.565 220.17C633.595 220.956 632.86 223.695 634.943 224.904C637.405 226.33 639.703 227.643 642.365 228.628C644.646 229.475 646.693 230.719 648.931 231.609C649.208 232.136 649.648 232.586 650.305 232.862C655.23 234.927 660.241 236.802 665.226 238.72C665.849 238.962 666.402 238.945 666.859 238.763C666.885 238.772 666.903 238.781 666.929 238.789C670.134 239.731 671.499 234.737 668.302 233.795Z" fill="white"/>
<path d="M747.222 266.36C746.885 265.565 746.021 265.142 745.183 265.358C744.518 265.531 743.852 265.703 743.196 265.876C743.135 265.894 743.075 265.911 743.014 265.919C742.945 265.911 742.876 265.911 742.815 265.902C742.479 265.85 742.15 265.79 741.813 265.721C741.355 265.626 740.897 265.652 740.483 265.894C740.457 265.911 740.431 265.937 740.405 265.954C739.696 265.799 738.867 266.101 738.521 266.758C738.072 267.604 738.323 268.615 739.143 269.125C740.293 269.833 741.64 269.782 742.902 269.514C743.057 269.479 743.204 269.436 743.36 269.401C743.489 269.401 743.619 269.41 743.74 269.401C744.708 269.35 745.736 269.108 746.514 268.512C746.868 268.244 747.205 267.941 747.308 267.475C747.403 267.103 747.378 266.732 747.222 266.36Z" fill="white"/>
<path d="M732.482 264.65C732.369 264.563 732.248 264.468 732.136 264.382C731.868 264.226 731.575 264.148 731.264 264.148C730.676 264.071 730.088 263.993 729.492 263.915C729.345 263.69 729.155 263.492 728.931 263.371C728.533 263.155 728.041 263.051 727.6 263.198L727.185 263.371C726.926 263.526 726.719 263.734 726.563 263.993C726.451 264.14 726.382 264.356 726.33 264.529C726.226 264.866 726.252 265.211 726.33 265.548C726.408 265.92 726.641 266.317 726.918 266.576C727.211 266.861 727.6 267.077 727.998 267.164C728.309 267.233 728.628 267.259 728.939 267.293C729.708 267.397 730.477 267.492 731.255 267.596C731.661 267.648 732.205 267.363 732.473 267.086C732.776 266.784 733 266.291 732.983 265.868C732.966 265.427 732.819 264.961 732.482 264.65Z" fill="white"/>
<path d="M752.363 191.147C751.871 187.38 751.421 183.604 750.557 179.898C750.436 179.362 750.134 179.016 749.762 178.835C749.641 177.245 749.503 175.655 749.33 174.074C749.149 172.346 748.941 170.627 748.725 168.899C748.527 167.283 748.535 165.417 747.965 163.879C747.645 163.006 746.799 162.41 745.84 162.669C745.001 162.902 744.31 163.913 744.63 164.794C745.166 166.237 745.157 167.974 745.339 169.495C745.546 171.154 745.736 172.813 745.909 174.472C746.263 177.858 746.514 181.245 746.591 184.65C746.617 185.704 747.412 186.257 748.233 186.309C748.492 188.063 748.717 189.817 748.95 191.57C749.425 195.225 749.909 198.889 750.384 202.544C750.505 203.468 751.093 204.272 752.112 204.272C752.95 204.272 753.961 203.477 753.84 202.544C753.357 198.742 752.864 194.949 752.363 191.147Z" fill="black"/>
<path d="M728.551 197.23C728.386 196.452 728.231 195.675 728.075 194.897C728.162 194.482 728.144 193.981 727.894 193.627C727.816 193.523 727.738 193.411 727.661 193.307C727.401 192.953 727.082 192.616 726.624 192.512C726.235 192.426 725.863 192.443 725.501 192.599C725.172 192.737 724.844 192.979 724.671 193.307C724.446 193.739 724.403 194.163 724.498 194.638C724.723 195.813 724.956 196.979 725.215 198.146C725.302 198.552 725.656 198.975 726.01 199.183C726.382 199.399 726.926 199.494 727.341 199.355C727.756 199.217 728.162 198.958 728.378 198.561C728.602 198.137 728.654 197.705 728.551 197.23Z" fill="black"/>
<path d="M733.51 227.479C733.294 226.252 732.81 225.095 732.292 223.954C732.274 223.833 732.257 223.703 732.249 223.582C732.197 223.107 732.093 222.71 731.739 222.364C731.436 222.062 730.944 221.837 730.521 221.854C730.071 221.872 729.613 222.019 729.302 222.364C729.009 222.684 728.749 223.142 728.793 223.582C728.801 223.669 728.81 223.755 728.818 223.833C728.801 223.945 728.792 224.058 728.775 224.17C728.775 224.421 728.844 224.663 728.948 224.887C729.026 225.475 729.121 226.062 729.259 226.632C729.397 227.177 729.596 227.695 729.821 228.205C729.959 228.525 730.106 228.818 730.365 229.06C730.901 229.579 731.583 229.76 732.309 229.596C732.706 229.501 733.156 229.164 733.346 228.801C733.562 228.378 733.596 227.963 733.51 227.479Z" fill="black"/>
<path d="M755.404 219.954C754.074 215.927 754.704 211.556 754.005 207.4C753.849 206.475 752.709 205.965 751.879 206.19C750.903 206.458 750.514 207.391 750.669 208.315C751.248 211.746 750.92 215.279 751.542 218.701C751.421 219.029 751.387 219.401 751.482 219.764C751.672 220.49 752.026 221.077 752.518 221.639C753.642 222.935 755.931 221.552 755.404 219.954Z" fill="black"/>
<path d="M757.685 244.518C757.599 244.233 757.478 244.017 757.322 243.844C757.288 243.645 757.253 243.446 757.227 243.239C757.158 242.798 757.081 242.358 757.011 241.917C756.873 241.07 756.735 240.223 756.605 239.377C756.381 237.865 756.199 236.102 756.191 234.426C756.191 233.519 755.396 232.655 754.462 232.698C753.529 232.741 752.734 233.458 752.734 234.426C752.743 237.217 753.21 239.982 753.659 242.729C753.702 242.971 753.737 243.204 753.78 243.446C753.581 243.654 753.426 243.896 753.365 244.172C753.149 245.122 753.65 245.995 754.575 246.298C754.618 246.315 754.661 246.323 754.704 246.332C754.894 246.514 755.128 246.652 755.43 246.721C756.692 247.023 758.1 245.891 757.685 244.518Z" fill="black"/>
<path d="M749.676 246.194C749.65 246.099 749.538 245.848 749.494 245.762C749.408 245.65 749.313 245.529 749.227 245.416C749.106 245.33 748.993 245.235 748.881 245.148C748.803 245.105 748.725 245.071 748.648 245.045C748.509 244.967 748.371 244.924 748.216 244.924C748.112 244.906 748.034 244.889 747.939 244.889C747.775 244.889 747.585 244.932 747.421 244.958C747.36 244.967 747.308 244.976 747.248 244.984C747.118 245.001 746.989 245.027 746.859 245.045C746.349 245.122 745.848 245.2 745.338 245.278C745.166 245.321 745.01 245.399 744.872 245.503C744.639 245.477 744.405 245.485 744.198 245.546C743.93 245.615 743.654 245.788 743.438 245.995C743.187 246.056 742.928 246.116 742.677 246.168C742.565 246.194 742.444 246.211 742.332 246.228C741.727 245.866 741.001 245.891 740.414 246.298C740.405 246.306 740.396 246.306 740.388 246.315C740.051 246.427 739.696 246.522 739.351 246.617C738.962 246.73 738.565 246.842 738.167 246.92C738.037 246.928 737.908 246.928 737.778 246.92C737.675 246.894 737.562 246.876 737.459 246.85C736.595 246.591 735.54 247.162 735.333 248.06C735.117 248.993 735.618 249.9 736.543 250.186C737.623 250.514 738.72 250.393 739.783 250.091C740.206 249.97 740.647 249.866 741.079 249.736L741.174 249.78C741.476 249.866 741.787 249.866 742.09 249.78C742.772 249.684 743.446 249.555 744.112 249.391C744.423 249.313 744.742 249.244 745.045 249.14C745.338 249.036 745.606 248.898 745.84 248.682C745.978 248.682 746.116 248.665 746.263 248.622C746.73 248.553 747.187 248.483 747.654 248.414C747.766 248.44 747.879 248.449 748 248.44C748.121 248.432 748.354 248.406 748.475 248.38C748.7 248.328 748.898 248.224 749.062 248.069C749.132 248.026 749.192 247.982 749.244 247.931C749.296 247.879 749.348 247.818 749.382 247.749C749.486 247.645 749.564 247.516 749.607 247.369C749.719 247.101 749.693 247.213 749.728 246.92C749.754 246.833 749.762 246.755 749.754 246.669C749.719 246.496 749.693 246.349 749.676 246.194Z" fill="black"/>
<path d="M678.826 179.587C677.798 179.587 677.21 180.382 677.098 181.315C676.148 188.996 675.353 196.694 674.731 204.401C674.549 206.622 678.005 206.605 678.187 204.401C678.809 196.686 679.595 188.987 680.554 181.315C680.675 180.39 679.682 179.587 678.826 179.587Z" fill="black"/>
<path d="M679.803 8.6921C676.053 14.0145 676.165 20.8402 676.554 27.0698C676.718 29.7396 676.96 32.6255 678.368 34.9756C679.924 37.5936 682.68 38.5008 685.6 38.4317C688.702 38.3626 692.728 37.0924 692.668 33.3167C692.65 32.4872 691.354 32.4786 691.372 33.3167C691.441 37.4467 685.004 37.7232 682.239 36.6864C679.111 35.5113 678.299 31.891 677.997 28.9188C677.34 22.4559 677.012 14.913 680.926 9.34875C681.401 8.66618 680.278 8.01816 679.803 8.6921Z" fill="black"/>
<path d="M685.902 47.9533C683.958 50.7355 682.922 54.1224 682.17 57.3971C681.315 61.0864 680.831 64.8708 680.433 68.638C679.604 76.5092 679.396 84.4236 678.645 92.2948C677.893 100.106 676.545 107.942 673.478 115.209C671.905 118.941 669.797 122.397 667.68 125.836C665.589 129.232 663.576 132.671 661.753 136.222C657.692 144.093 654.409 152.362 651.895 160.846C651.696 161.529 652.508 161.84 652.975 161.477C655.066 159.853 656.707 157.779 657.891 155.42C657.493 155.368 657.105 155.316 656.707 155.265C657.148 157.019 654.158 160.397 657.01 161.408C658.046 161.779 659.118 161.036 659.697 160.215C660.595 158.945 660.319 157.148 661.338 155.965C660.967 155.809 660.604 155.662 660.232 155.507C659.982 158.176 661.727 161.036 664.466 161.52C664.846 161.589 665.321 161.347 665.287 160.898C665.175 159.369 665.062 157.848 664.959 156.319C664.846 154.781 664.483 153.027 664.803 151.498C665.08 150.158 666.125 149.26 667.101 148.396C668.225 147.402 669.339 146.4 670.428 145.38C674.653 141.432 678.636 137.224 682.36 132.809C689.661 124.16 696.435 114.612 701.23 104.331C703.926 98.5417 705.827 92.3985 706.267 85.9961C706.328 85.1667 705.032 85.1667 704.971 85.9961C704.159 97.7555 698.258 108.366 691.864 117.991C685.462 127.633 677.962 136.55 669.512 144.464C668.337 145.562 667.136 146.624 665.944 147.696C664.967 148.568 664.034 149.528 663.645 150.815C663.187 152.301 663.498 153.977 663.602 155.498C663.732 157.304 663.861 159.101 663.991 160.907C664.267 160.699 664.535 160.492 664.812 160.285C662.591 159.896 661.33 157.658 661.528 155.515C661.58 154.962 660.777 154.643 660.422 155.057C659.774 155.809 659.498 156.673 659.265 157.632C659.144 158.142 659.049 158.678 658.815 159.153C658.591 159.602 657.822 160.604 657.226 160.051C656.647 159.516 657.459 158.081 657.666 157.52C657.986 156.664 658.176 155.826 657.951 154.928C657.822 154.409 657.018 154.271 656.768 154.772C655.627 157.045 654.063 159.006 652.05 160.57C652.413 160.777 652.776 160.993 653.13 161.2C655.394 153.563 658.28 146.115 661.805 138.978C663.533 135.479 665.416 132.057 667.438 128.713C669.512 125.292 671.707 121.931 673.469 118.328C680.338 104.313 680.088 88.3722 681.306 73.1741C681.669 68.6639 682.135 64.1364 682.999 59.6867C683.734 55.8678 684.753 51.8414 687.008 48.61C687.501 47.9274 686.378 47.2794 685.902 47.9533Z" fill="black"/>
<path d="M713.923 40.2029C717.059 46.6312 722.26 51.7635 725.898 57.898C729.535 64.0325 732.145 70.7028 734.149 77.5285C738.331 91.7935 740.085 106.698 742.513 121.326C743.939 129.949 745.459 138.554 747.153 147.125C747.317 147.946 748.561 147.601 748.406 146.78C745.399 131.564 743.014 116.237 740.491 100.935C738.158 86.7736 735.247 72.3617 728.369 59.6088C726.477 56.1008 724.239 52.8435 721.828 49.6812C719.357 46.4411 716.852 43.2097 715.054 39.5289C714.683 38.8032 713.56 39.4598 713.923 40.2029Z" fill="black"/>
<path d="M690.447 13.5911C688.65 13.0468 686.853 13.859 685.6 15.1723C684.088 16.7534 683.544 18.948 682.395 20.7625C680.26 24.1408 676.174 25.5146 673.443 28.2967C670.523 31.2862 669.901 35.8223 670.722 39.8055C671.102 41.6545 672.044 43.3739 673.711 44.3329C675.301 45.2488 677.228 45.413 679.008 45.1538C683.466 44.523 687.544 40.7473 692.236 41.8273C696.893 42.8987 696.901 48.9123 697.869 52.6362C699.01 57.034 700.798 61.3282 703.563 64.9658C706.406 68.7156 710.138 71.7483 713.733 74.7465C717.137 77.5891 720.74 80.2848 724.896 81.9178C728.585 83.3607 733.778 84.4062 736.966 81.3649C738.418 79.9824 738.876 78.1421 738.504 76.198C738.158 74.3577 736.811 71.7483 738.418 70.1067C739.264 69.234 740.37 69.8734 741.338 70.1499C742.237 70.4091 743.152 70.435 744.051 70.1758C745.762 69.6919 747.196 68.3354 747.879 66.7111C749.581 62.6502 746.902 58.4338 744.034 55.738C742.392 54.1914 740.526 52.8954 738.945 51.2797C737.199 49.4998 736.309 47.4089 735.947 44.9637C735.61 42.6913 735.618 40.3757 735.178 38.112C734.789 36.1334 734.106 34.2066 733.199 32.4095C731.385 28.8065 728.585 25.696 725.181 23.536C723.271 22.3263 721.189 21.4278 719.254 20.2613C717.189 19.0172 715.625 17.4274 714.277 15.4315C711.728 11.6816 709.274 7.93177 705.758 4.98547C702.405 2.1774 698.275 0.190154 693.86 0.0173495C689.963 -0.138174 686.049 1.32202 683.397 4.23377C682.135 5.6162 681.237 7.25784 680.787 9.07228C680.589 9.88446 681.833 10.2301 682.04 9.41789C682.973 5.6594 686.11 2.82542 689.782 1.77995C693.99 0.578963 698.552 1.77131 702.207 4.00912C705.913 6.29014 708.816 9.66846 711.253 13.2282C712.411 14.9131 713.439 16.7016 714.778 18.2568C716.1 19.7948 717.759 20.9439 719.522 21.9203C721.327 22.9225 723.211 23.7865 724.939 24.9271C726.572 26.0157 728.041 27.3463 729.302 28.8411C731.834 31.8392 733.527 35.5459 734.098 39.4253C734.694 43.5121 734.357 47.7631 737.113 51.1673C739.765 54.4593 743.87 56.3601 745.978 60.1272C747.032 62.0022 747.576 64.4646 746.583 66.4778C745.693 68.2749 743.688 69.4759 741.692 68.9057C740.154 68.465 738.677 67.9121 737.433 69.2859C736.482 70.3313 736.249 71.9297 736.465 73.2776C736.819 75.4809 738.124 77.7273 736.629 79.7923C735.229 81.7277 732.741 82.1511 730.512 81.9697C726.183 81.6154 722.174 79.4467 718.701 76.9756C715.141 74.444 711.771 71.515 708.592 68.5255C705.265 65.3978 702.621 61.8121 700.876 57.5697C700.072 55.6257 699.45 53.6125 698.949 51.5734C698.474 49.6207 698.223 47.5903 697.601 45.6722C696.444 42.1297 693.635 40.0906 689.86 40.393C685.635 40.7386 682.144 43.7973 677.91 43.9614C675.966 44.0392 673.936 43.4516 672.839 41.7322C671.707 39.961 671.646 37.5331 671.767 35.494C671.905 33.3685 672.545 31.2776 673.962 29.6532C675.197 28.2362 676.796 27.1994 678.334 26.154C679.716 25.2122 681.124 24.2445 682.274 23.0176C683.665 21.5315 684.356 19.6997 685.289 17.9285C686.205 16.1832 687.89 14.1786 690.102 14.8439C690.905 15.0772 691.251 13.833 690.447 13.5911Z" fill="black"/>
<path d="M680.122 9.51281C682.075 11.6642 683.967 14.239 683.673 17.2976C684.045 17.1421 684.408 16.9952 684.779 16.8397C684.736 16.7965 684.701 16.7533 684.658 16.7101C684.088 16.0966 683.172 17.0125 683.742 17.626C683.786 17.6692 683.82 17.7124 683.863 17.7556C684.278 18.2049 684.918 17.816 684.969 17.2976C685.289 13.8934 683.207 10.9816 681.038 8.59695C680.476 7.97486 679.56 8.89072 680.122 9.51281Z" fill="black"/>
<path d="M688.305 41.7495C687.829 43.7195 687.138 45.6203 686.231 47.4261C686.075 47.7372 686.145 48.126 686.464 48.316C686.749 48.4802 687.19 48.3938 687.354 48.0828C688.313 46.1733 689.056 44.1688 689.557 42.0951C689.756 41.2829 688.503 40.9373 688.305 41.7495Z" fill="black"/>
<path d="M735.566 71.9902C735.869 75.1352 737.536 77.7445 738.979 80.4748C740.543 83.4211 741.718 86.5489 742.617 89.7544C744.388 96.1136 745.053 102.706 745.52 109.273C745.649 111.078 745.857 112.91 745.848 114.716C745.84 116.755 744.958 118.526 742.807 118.881C741.986 119.019 742.332 120.263 743.152 120.133C746.436 119.589 747.265 116.522 747.11 113.619C746.92 110.137 746.66 106.655 746.306 103.19C745.598 96.321 744.379 89.4434 741.649 83.0583C740.102 79.4467 737.251 75.9906 736.871 71.9988C736.785 71.1607 735.489 71.1607 735.566 71.9902Z" fill="black"/>
<path d="M747.982 63.0131C747.766 62.3306 747.386 61.7344 747.015 61.1296C746.643 60.5248 746.28 59.9286 745.909 59.3238C744.621 57.2242 743.196 55.0728 740.975 53.8718C740.664 53.7076 740.31 53.6385 739.956 53.6645C738.478 51.85 737.165 49.9492 735.895 47.9792C736.024 47.7373 736.102 47.4781 736.076 47.1929C735.774 44.3849 735.515 41.5682 735.169 38.7601C734.832 36.0298 734.08 33.3686 731.652 31.7788C731.54 31.7097 731.428 31.6579 731.307 31.6147C731.16 31.3468 731.013 31.079 730.858 30.8111C729.302 28.1845 726.356 24.8148 723.064 23.8385C721.837 22.4474 720.628 20.728 718.951 19.9158C718.251 19.5789 717.992 19.5529 717.353 19.0777C716.549 18.4729 715.754 17.8595 714.951 17.2546C711.711 8.30339 701.731 -0.483698 692.59 1.29618C692.521 1.28754 692.461 1.27026 692.4 1.27026C692.149 1.25298 691.899 1.26162 691.648 1.28754C691.251 1.33938 690.862 1.38259 690.482 1.51219C690.404 1.53811 690.326 1.57267 690.249 1.59859C686.862 1.82324 683.017 3.78456 682.274 7.0592C682.265 7.08512 682.265 7.1024 682.265 7.12832C682.248 7.15424 682.222 7.1888 682.205 7.21472C682.179 7.24928 682.161 7.28384 682.144 7.32704C682.049 7.53441 681.937 7.75041 681.902 7.97506C681.868 8.20834 681.816 8.44163 681.833 8.68356C681.842 8.92548 681.885 9.15877 681.919 9.39205C681.937 9.47845 681.954 9.5735 681.971 9.6599C682.015 9.84134 682.101 10.0314 682.179 10.187C682.187 10.2042 682.196 10.2215 682.205 10.2388C682.248 10.3079 682.3 10.3684 682.351 10.4289C682.395 10.498 682.446 10.5585 682.498 10.619C682.542 10.6622 682.602 10.6967 682.654 10.7399C682.879 11.3447 683.164 11.9409 683.44 12.5716C684.226 14.3342 684.607 16.0364 685.462 17.678C683.725 21.2983 679.353 22.7844 676.537 25.4542C674.774 27.1217 673.478 29.1695 672.744 31.4246C672.718 31.4246 672.692 31.4332 672.666 31.4332C672.372 31.5196 672.122 31.6665 671.905 31.8739C671.75 32.0035 671.62 32.1849 671.517 32.3577C671.413 32.5305 671.327 32.7465 671.266 32.9366C671.206 33.118 671.18 33.2995 671.137 33.4809C671.024 34.0166 670.938 34.5696 670.877 35.1139C670.834 35.52 670.834 35.9261 670.877 36.3236C670.938 36.7901 670.964 37.1185 671.214 37.5246C671.275 37.6282 671.361 37.7233 671.439 37.8183C671.214 40.0129 671.482 42.3285 673.513 43.6245C674.696 44.3762 675.923 44.4713 677.124 44.2034C677.599 44.4367 678.161 44.5231 678.671 44.5058C679.31 44.4799 679.932 44.333 680.528 44.117C681.583 43.7282 682.576 43.2271 683.475 42.5532C683.604 42.4581 683.734 42.3458 683.846 42.2335C683.855 42.2335 683.864 42.2248 683.872 42.2248C684.9 43.0975 686.352 43.3048 687.76 42.0952L688.33 41.6027C688.676 41.3003 688.935 40.972 689.134 40.6264C692.054 40.9547 694.603 42.0261 696.746 43.7801C696.539 44.2812 696.47 44.8687 696.608 45.5254C697.524 50.0615 698.578 54.7618 700.427 59.03C701.49 61.4752 703.123 64.6807 705.689 65.9767C706.734 68.1541 708.229 70.1499 709.724 72.0076C711.849 74.6342 714.795 76.0685 717.992 76.872C718.735 78.1162 719.427 79.3172 720.774 80.2503C722.52 81.46 724.723 81.9697 726.762 82.445C730.192 83.2399 734.547 83.5595 736.405 80.57C736.698 80.38 736.983 80.1639 737.251 79.8961C738.712 78.4273 738.867 76.6387 738.418 74.7293C738.003 72.958 737.571 71.3769 737.303 69.7179C738.055 69.3291 738.971 69.1995 739.93 69.1823C742.081 69.139 744.025 69.381 745.779 67.8603C746.254 67.4456 746.583 66.979 746.781 66.4951C747.905 65.8039 748.371 64.2746 747.982 63.0131Z" fill="black"/>
<path d="M756.303 244.103C756.528 242.617 755.983 240.733 755.836 239.498C755.81 239.264 755.741 239.074 755.655 238.893C755.612 233.38 755.292 227.877 754.722 222.39C754.696 222.166 754.635 221.975 754.558 221.803C754.558 221.068 754.463 220.351 754.134 219.66C754.117 219.487 754.108 219.314 754.091 219.141C754.048 218.398 754.013 217.647 753.961 216.904C754.134 215.875 754.057 214.942 753.754 213.871C753.754 213.862 753.754 213.862 753.754 213.854C753.728 213.776 753.702 213.689 753.676 213.603C753.512 211.192 753.383 208.773 753.279 206.354C753.434 205.188 753.391 204.099 753.141 202.932C753.072 202.621 752.925 202.362 752.743 202.146C752.717 201.351 752.674 200.548 752.648 199.753C752.631 199.252 752.458 198.846 752.19 198.535C752.078 195.744 751.853 192.979 751.508 190.205C751.499 189.955 751.49 189.696 751.482 189.445C751.473 189.134 751.404 188.858 751.292 188.616C751.214 188.054 751.145 187.492 751.058 186.922C750.998 186.507 750.825 186.188 750.6 185.946C750.168 182.317 749.555 178.714 748.942 175.12C748.881 174.774 748.751 174.498 748.57 174.273C748.406 172.579 748.233 170.877 748.026 169.184C747.991 168.881 747.896 168.631 747.766 168.415C747.689 164.172 747.741 159.921 747.948 155.671C747.974 155.1 747.784 154.651 747.481 154.314C747.948 153.873 748.19 153.174 748.086 152.56C747.887 151.368 747.766 150.167 747.697 148.966C747.689 147.549 747.792 146.14 748.034 144.749C747.68 145.017 747.283 145.112 746.876 145.017C746.816 144.637 746.738 144.265 746.635 143.903C746.626 143.885 746.617 143.868 746.617 143.842C746.6 143.73 746.574 143.626 746.522 143.505C746.125 142.607 746.375 141.414 746.263 140.446C746.142 139.366 745.978 138.286 745.831 137.215C745.52 134.986 745.218 132.748 744.907 130.519C744.881 130.303 744.803 130.121 744.708 129.966C744.682 129.525 744.656 129.093 744.63 128.653C744.604 128.221 744.466 127.823 744.181 127.495C744.276 127.08 744.267 126.648 744.103 126.233C743.947 125.853 743.645 125.594 743.265 125.482C742.902 125.369 742.427 125.404 742.124 125.672C741.943 125.836 741.753 126 741.571 126.164C741.39 126.156 741.217 126.182 741.044 126.251C740.5 126.493 740.008 126.804 739.558 127.175C739.455 127.21 739.351 127.236 739.239 127.287C726.01 133.05 711.529 133.482 697.316 133.828C696.979 133.837 696.686 133.897 696.418 133.984C694.353 134.027 692.253 134.303 690.084 134.537C687.821 134.779 684.658 134.649 681.885 135.159C681.125 135.159 680.364 135.159 679.604 135.159C679.155 135.159 678.74 135.539 678.558 135.919C678.239 136.602 677.893 137.276 677.539 137.941C677.176 137.975 676.822 138.131 676.537 138.416C675.673 139.315 674.835 140.239 673.936 141.103C673.063 141.933 672.026 142.555 671.353 143.574C671.292 143.626 671.223 143.669 671.162 143.73C670.471 144.378 669.806 145.069 669.132 145.743C668.017 146.858 666.79 147.938 665.823 149.199C665.011 149.156 664.259 149.631 664.017 150.452C663.81 151.178 663.784 151.921 663.879 152.672C663.931 153.104 664 153.528 664.077 153.96C664.077 153.986 664.103 154.141 664.121 154.254C664.129 154.323 664.147 154.478 664.147 154.556C664.121 154.651 664.095 154.755 664.086 154.85C664.052 155.135 664.095 155.377 664.173 155.61C664.173 155.938 664.172 156.258 664.207 156.586C664.25 157.01 664.328 157.424 664.414 157.848C664.423 157.882 664.432 157.917 664.432 157.952C664.432 157.986 664.432 158.021 664.432 158.064C664.432 158.072 664.432 158.072 664.423 158.09C664.311 158.487 664.371 158.928 664.553 159.299C664.432 159.446 664.319 159.602 664.19 159.74C663.81 160.138 663.36 160.492 662.868 160.768C662.799 160.587 662.704 160.414 662.6 160.258C662.341 159.861 661.909 159.507 661.459 159.343C661.408 159.325 661.356 159.325 661.295 159.308C661.295 159.006 661.287 158.695 661.261 158.392C661.252 158.332 661.235 158.271 661.209 158.211C661.209 158.012 661.019 157.839 660.837 157.813C660.63 157.787 660.414 157.917 660.362 158.124C660.258 158.548 660.146 158.971 660.042 159.394C660.017 159.489 659.991 159.593 659.965 159.688C659.887 159.783 659.801 159.87 659.749 159.991L659.706 160.077C659.628 160.129 659.559 160.189 659.49 160.258C659.187 160.587 658.962 161.019 658.98 161.477C658.98 161.52 658.988 161.563 658.988 161.615L658.764 162.107C658.427 162.833 658.021 163.576 657.917 164.38C657.831 165.054 658.28 165.78 658.988 165.866C659.083 165.875 659.178 165.875 659.265 165.866C659.066 167.179 658.876 168.493 658.712 169.806C658.409 172.147 658.15 174.498 657.857 176.839C657.692 178.178 657.52 179.517 657.321 180.848C657.269 181.22 657.2 182.939 657.027 183.76C656.198 184.175 655.774 185.315 656.103 186.231C656.077 186.317 656.051 186.412 656.033 186.516C655.247 192.452 654.573 198.396 654.038 204.358C653.77 207.339 653.536 210.32 653.329 213.309C653.156 215.824 653.718 216.402 655.8 217.897C660.25 221.094 665.762 222.874 670.774 224.974C671.638 225.336 672.631 225.838 673.573 225.846C673.884 226.537 674.567 226.831 675.258 226.788C675.353 226.918 675.457 227.047 675.552 227.177C676.096 227.894 677.47 227.531 677.47 226.581C677.461 223.911 677.573 221.241 677.807 218.58C677.841 218.182 677.686 217.88 677.444 217.69C677.66 216.238 677.91 214.778 678.083 213.318C678.524 209.629 678.247 205.948 677.902 202.258C677.885 202.086 677.85 201.93 677.798 201.792C677.997 196.167 678.403 190.551 679.025 184.952C679.06 184.641 679.025 184.365 678.939 184.123C679.595 180.252 680.589 176.459 681.85 172.735C682.049 172.147 681.963 171.629 681.721 171.214C681.764 171.145 681.799 171.076 681.824 170.998C682.205 169.884 682.628 168.786 683.06 167.689C683.345 167.706 683.639 167.637 683.855 167.438C684.088 167.231 684.33 167.032 684.589 166.842C684.736 166.739 684.883 166.635 685.039 166.54C685.056 166.523 685.194 166.445 685.246 166.419C685.609 166.22 685.998 166.065 686.395 165.926C689.627 166.281 692.936 165.434 696.107 164.829C704.686 164.423 713.232 163.689 721.751 162.591C721.854 162.574 721.95 162.548 722.045 162.522C722.554 170.056 723.202 177.573 723.997 185.082C724.412 188.97 724.861 192.849 725.345 196.729C724.758 203.218 725.38 210.13 726.632 216.506C727.255 219.668 728.438 222.736 729.432 225.794C729.648 226.46 729.847 227.177 730.045 227.92C729.665 228.291 729.458 228.827 729.596 229.518C730.65 234.625 731.704 239.731 732.758 244.837C732.819 245.148 732.948 245.408 733.113 245.624C732.94 246.324 733 247.049 733.234 247.741C732.949 248.51 733.199 249.503 733.899 249.952C734.711 250.479 735.705 250.782 736.621 250.307C736.888 250.168 737.122 249.978 737.312 249.762C737.355 249.745 737.398 249.736 737.441 249.719C743.058 247.559 749.175 247.438 755.111 247.049C756.77 246.98 756.96 245.192 756.303 244.103Z" fill="black"/>
<path d="M658.202 165.002C655.904 182.023 653.994 199.096 652.482 216.212C652.413 217.042 653.709 217.042 653.778 216.212C655.282 199.217 657.165 182.256 659.446 165.348C659.558 164.535 658.314 164.181 658.202 165.002Z" fill="black"/>
<path d="M747.127 146.961C746.98 152.465 747.231 157.986 747.628 163.473C748.069 169.659 749.123 175.707 750.134 181.816C752.432 195.727 753.616 209.793 754.679 223.842C755.24 231.29 756.121 238.712 756.692 246.168C756.752 246.998 758.048 246.998 757.988 246.168C757.487 239.567 756.666 232.992 756.165 226.391C755.646 219.47 755.111 212.558 754.445 205.646C753.771 198.69 752.968 191.735 751.914 184.823C750.929 178.343 749.598 171.94 749.071 165.399C748.57 159.274 748.259 153.096 748.423 146.953C748.44 146.132 747.144 146.132 747.127 146.961Z" fill="black"/>
<path d="M682.671 166.678C680.623 174.195 679.301 181.885 678.653 189.652C677.971 197.783 677.798 205.956 677.556 214.104C677.418 218.753 677.314 223.401 677.228 228.049C677.21 228.888 678.507 228.888 678.524 228.049C678.671 219.971 678.895 211.884 679.198 203.814C679.5 195.822 679.846 187.821 681.133 179.906C681.833 175.569 682.775 171.266 683.933 167.024C684.14 166.22 682.887 165.875 682.671 166.678Z" fill="black"/>
<path d="M721.405 163.257C722.278 174.705 723.107 186.153 724.049 197.593C724.498 203.097 725.034 208.601 725.82 214.078C726.624 219.66 727.807 225.138 729.147 230.616C730.719 237.027 731.868 243.472 732.274 250.074C732.326 250.903 733.622 250.912 733.571 250.074C733.216 244.449 732.404 238.867 731.134 233.372C729.847 227.799 728.421 222.295 727.505 216.645C725.699 205.456 725.06 194.102 724.196 182.81C723.695 176.295 723.202 169.772 722.701 163.257C722.632 162.436 721.336 162.427 721.405 163.257Z" fill="black"/>
<path d="M732.456 250.229C733.303 251.629 734.806 251.871 736.275 251.56C738.504 251.084 740.733 250.592 742.962 250.108C747.576 249.106 752.199 248.19 756.873 247.542C757.694 247.43 757.348 246.177 756.527 246.289C752.475 246.851 748.458 247.611 744.457 248.458C742.608 248.855 740.768 249.261 738.919 249.667C737.917 249.883 736.923 250.108 735.921 250.315C735.031 250.497 734.106 250.462 733.571 249.581C733.139 248.864 732.024 249.512 732.456 250.229Z" fill="black"/>
<path d="M678.29 227.98C674.005 225.596 669.633 223.366 665.175 221.31C663.084 220.342 660.976 219.418 658.85 218.528C657.087 217.785 654.996 217.223 653.571 215.875C652.966 215.305 652.05 216.221 652.655 216.791C653.882 217.949 655.472 218.528 657.001 219.15C659.412 220.135 661.796 221.172 664.155 222.261C668.734 224.369 673.236 226.65 677.642 229.104C678.368 229.51 679.016 228.386 678.29 227.98Z" fill="black"/>
<path d="M658.332 220.04C657.727 221.31 657.113 222.58 656.509 223.859C656.699 223.756 656.88 223.643 657.07 223.54C651.86 222.987 647.117 221.379 642.356 219.271C640.446 218.425 638.295 217.604 636.169 218.027C634.511 218.355 632.886 219.496 632.23 221.094C631.962 221.742 631.763 222.71 632.057 223.384C632.385 224.153 633.75 224.732 634.424 225.181C636.455 226.529 638.528 227.816 640.645 229.043C644.81 231.463 649.121 233.631 653.545 235.541C658.548 237.701 663.697 239.533 668.942 241.019C669.305 241.122 669.607 240.889 669.737 240.569C671.689 235.731 670.67 230.236 671.923 225.25C672.121 224.438 670.877 224.092 670.67 224.905C669.417 229.899 670.428 235.403 668.484 240.224C668.752 240.077 669.02 239.921 669.279 239.774C660.803 237.372 652.595 234.072 644.827 229.899C642.9 228.871 641.008 227.782 639.142 226.65C637.327 225.544 635.254 224.481 633.638 223.099C632.022 221.716 635.107 219.591 636.36 219.323C638.606 218.831 640.939 220.058 642.917 220.956C647.419 223.012 652.145 224.326 657.07 224.844C657.278 224.87 657.537 224.706 657.632 224.524C658.237 223.254 658.85 221.984 659.455 220.706C659.809 219.945 658.686 219.289 658.332 220.04Z" fill="black"/>
<path d="M751.214 247.352C752.467 252.363 754.342 257.193 756.778 261.755C757.184 262.507 757.642 263.224 756.994 263.95C756.631 264.364 755.983 264.606 755.491 264.805C754.126 265.375 752.734 265.868 751.352 266.395C748.769 267.388 746.185 268.546 743.541 269.367C742.185 269.79 740.958 269.428 739.61 269.134C738.133 268.823 736.655 268.503 735.178 268.192C733.838 267.907 732.499 267.622 731.169 267.337C729.872 267.06 728.335 266.948 727.134 266.352C725.993 265.781 725.829 264.624 726.339 263.535C726.874 262.377 728.023 261.824 729.216 261.574C731.782 261.047 734.642 261.392 737.243 261.409C739.152 261.418 741.908 261.72 742.263 259.215C742.669 256.32 742.211 253.158 741.528 250.341C741.329 249.529 740.085 249.875 740.275 250.687C740.647 252.251 740.906 253.832 741.001 255.43C741.044 256.191 741.062 256.951 741.044 257.711C741.027 258.627 741.165 259.638 740.146 260.001C738.997 260.407 737.389 260.113 736.206 260.105C734.668 260.096 733.138 260.07 731.601 260.079C729.44 260.096 726.926 260.373 725.57 262.282C724.507 263.777 724.369 266.015 725.984 267.181C727.004 267.915 728.352 268.054 729.544 268.304C731.091 268.633 732.646 268.961 734.193 269.289C735.739 269.618 737.294 269.946 738.841 270.274C740.163 270.551 741.58 271.026 742.945 270.819C744.267 270.62 745.537 269.981 746.773 269.505C748.345 268.9 749.926 268.296 751.499 267.691C752.942 267.138 754.393 266.602 755.836 266.023C756.7 265.678 757.625 265.272 758.195 264.494C759.051 263.328 758.489 262.187 757.893 261.064C757.15 259.681 756.458 258.273 755.819 256.839C754.411 253.659 753.305 250.35 752.458 246.98C752.268 246.194 751.015 246.54 751.214 247.352Z" fill="black"/>
</g>
<defs>
<clipPath id="clip0">
<rect width="894.607" height="355" fill="white"/>
</clipPath>
</defs>
</svg>
