<svg width="20" height="20" viewBox="0 0 20 20" fill="none" xmlns="http://www.w3.org/2000/svg">
<path d="M19.8729 9.61109C19.6942 9.36667 15.4371 3.62646 9.9999 3.62646C4.56274 3.62646 0.305391 9.36667 0.126914 9.61085C-0.0423048 9.84273 -0.0423048 10.1572 0.126914 10.3891C0.305391 10.6335 4.56274 16.3737 9.9999 16.3737C15.4371 16.3737 19.6942 10.6335 19.8729 10.3893C20.0423 10.1575 20.0423 9.84273 19.8729 9.61109ZM9.9999 15.055C5.99486 15.055 2.52606 11.2452 1.49922 9.99964C2.52473 8.75304 5.98626 4.94514 9.9999 4.94514C14.0048 4.94514 17.4733 8.75436 18.5006 10.0005C17.4751 11.2471 14.0135 15.055 9.9999 15.055Z" fill="#ADB5BD"/>
<line x1="18.3737" y1="0.332182" x2="2.3737" y2="18.3322" stroke="#ADB5BD"/>
</svg>
