<svg width="50" height="50" viewBox="0 0 50 50" fill="none" xmlns="http://www.w3.org/2000/svg">
<path d="M2.92969 39.7461V22.168C2.92969 21.3583 3.58486 20.7031 4.39453 20.7031C5.2042 20.7031 5.85938 21.3583 5.85938 22.168C5.85938 26.2063 9.14521 29.4922 13.1836 29.4922C15.1146 29.4922 15.1225 32.4219 13.1836 32.4219C9.14521 32.4219 5.85938 35.7077 5.85938 39.7461C5.85938 41.677 2.92969 41.685 2.92969 39.7461Z" fill="#71CAD4"/>
<path d="M45.6055 50H21.9727C21.1522 50 20.5078 49.3554 20.5078 48.5352C20.5078 47.7147 21.1522 47.0703 21.9727 47.0703C23.9062 47.0703 23.9062 44.1406 21.9727 44.1406C21.1522 44.1406 20.5078 43.496 20.5078 42.6758V39.7461C20.5078 37.7831 19.7461 35.9667 18.3692 34.5604C16.9628 33.1836 15.1464 32.4219 13.1836 32.4219C11.2501 32.4219 11.2501 29.4922 13.1836 29.4922C17.2266 29.4922 20.5078 26.2109 20.5078 22.168V19.2383C20.5078 18.4179 21.1522 17.7734 21.9727 17.7734C23.9062 17.7734 23.9062 14.8438 21.9727 14.8438H4.39453C3.57412 14.8438 2.92969 14.1991 2.92969 13.3789V6.09365C2.92969 2.63662 5.5665 0 8.78906 0C10.8105 0 15.5273 1.02529 16.5819 2.57812L18.0761 5.85938H39.7461C40.5665 5.85938 41.2109 6.50381 41.2109 7.32422V45.6055C41.2109 48.037 43.1737 50 45.6055 50Z" fill="#71CAD4"/>
<path d="M49.6452 42.1651C49.432 41.5915 48.8842 41.2109 48.2719 41.2109H39.7461C38.9364 41.2109 38.2812 41.8661 38.2812 42.6758V44.1406C38.2812 47.3722 40.9091 50 44.1406 50H45.6055C48.0325 50 50 48.0325 50 45.6055V44.1406C50 43.454 49.8841 42.8074 49.6452 42.1651Z" fill="#1A838E"/>
<path d="M45.6055 50H26.3672V5.85938H39.7461C40.5665 5.85938 41.2109 6.50381 41.2109 7.32422V45.6055C41.2109 48.037 43.1737 50 45.6055 50Z" fill="#71CAD4"/>
<path d="M20.4198 32.5097C18.4863 30.5469 15.9082 29.4922 13.1836 29.4922C7.5293 29.4922 2.92969 34.0918 2.92969 39.7461V42.6758C2.92969 43.496 3.57412 44.1406 4.39453 44.1406H12.0833C15.8172 44.5802 12.4642 44.1406 12.0833 44.1406L13.1836 38.8964L18.0177 43.7011C18.2813 43.9941 18.6621 44.1406 19.043 44.1406H21.9727C22.7931 44.1406 23.4375 43.496 23.4375 42.6758V39.7461C23.4375 37.0215 22.3828 34.4434 20.4198 32.5097Z" fill="#F0F5F8"/>
<path d="M21.9727 17.7734H4.39453C3.57412 17.7734 2.92969 18.4179 2.92969 19.2383V22.168C2.92969 27.8223 7.5293 32.4219 13.1836 32.4219C18.8379 32.4219 23.4375 27.8223 23.4375 22.168V19.2383C23.4375 18.4179 22.7931 17.7734 21.9727 17.7734Z" fill="#F0F5F8"/>
<path d="M23.4375 19.2383V22.168C23.4375 27.8223 18.8379 32.4219 13.1836 32.4219V17.7734H21.9727C22.7931 17.7734 23.4375 18.4179 23.4375 19.2383Z" fill="#E6EEFF"/>
<path d="M23.4375 39.7461V42.6758C23.4375 43.496 22.7931 44.1406 21.9727 44.1406H19.043C18.6621 44.1406 13.4472 44.4337 13.1836 44.1406V38.8964V29.4922C15.9082 29.4922 18.4863 30.5469 20.4198 32.5097C22.3828 34.4434 23.4375 37.0215 23.4375 39.7461Z" fill="#E6EEFF"/>
<path d="M21.9736 11.9141H4.39543C-1.40525 11.9141 -1.40525 20.7031 4.39543 20.7031H21.9736C27.7742 20.7031 27.7742 11.9141 21.9736 11.9141Z" fill="#868E96"/>
<path d="M21.9727 20.7031H13.1836V11.9141H21.9727C27.7733 11.9141 27.7733 20.7031 21.9727 20.7031Z" fill="#606A73"/>
<path d="M21.9727 41.2109H4.39453C1.96279 41.2109 0 43.1737 0 45.6055C0 48.037 1.96279 50 4.39453 50H21.9727C24.873 50 26.3379 47.8027 26.3379 45.6055C26.3379 43.4082 24.873 41.2109 21.9727 41.2109Z" fill="#868E96"/>
<path d="M26.3379 45.6055C26.3379 47.8027 24.873 50 21.9727 50H13.1836V41.2109H21.9727C24.873 41.2109 26.3379 43.4082 26.3379 45.6055Z" fill="#606A73"/>
<path d="M50 5.85938V7.32422C50 8.14443 49.3556 8.78906 48.5352 8.78906H14.6484V5.85938C14.6484 2.63662 12.0116 0 8.78906 0H44.1406C47.3632 0 50 2.63662 50 5.85938Z" fill="#1A838E"/>
<path d="M50 5.85938V7.32422C50 8.14443 49.3556 8.78906 48.5352 8.78906H26.3672V0H44.1406C47.3632 0 50 2.63662 50 5.85938Z" fill="#1A838E"/>
</svg>
