<svg width="22" height="15" viewBox="0 0 22 15" fill="none" xmlns="http://www.w3.org/2000/svg">
<path d="M15 7.10339L22 12V2L15 7.10339Z" fill="#868E96"/>
<path d="M0 2V12L7 7.10339L0 2Z" fill="#868E96"/>
<path d="M20.6612 0H1.33877C0.650063 0 0.103513 0.487709 0 1.1157L11 8L22 1.1157C21.8965 0.487709 21.3499 0 20.6612 0Z" fill="#868E96"/>
<path d="M13.3331 8.00145L11.3796 9.35639C11.2637 9.43634 11.1325 9.4756 11 9.4756C10.8675 9.4756 10.7363 9.43634 10.6204 9.35639L8.66692 8L0 13.773C0.1063 14.4636 0.650226 15 1.33635 15H20.6637C21.3498 15 21.8937 14.4636 22 13.773L13.3331 8.00145Z" fill="#868E96"/>
</svg>
