<svg width="20" height="19" viewBox="0 0 20 19" fill="none" xmlns="http://www.w3.org/2000/svg">
<path d="M9.08657 9.08698V5.75839C8.10832 5.68559 7.15593 5.41683 6.2445 4.95654C5.9795 6.22501 5.82149 7.62525 5.78223 9.08698H9.08657Z" fill="#868E96"/>
<path d="M9.08657 12.576V9.91309H5.78223C5.82149 11.0825 5.9795 12.2027 6.2445 13.2174C7.15593 12.8492 8.10832 12.6342 9.08657 12.576Z" fill="#868E96"/>
<path d="M6.6084 4.31161C7.39395 4.67321 8.22745 4.89157 9.08666 4.95648V0.82605C7.89557 1.25039 7.06424 2.92997 6.6084 4.31161Z" fill="#868E96"/>
<path d="M13.2175 14.6883C12.432 14.3267 11.5985 14.1084 10.7393 14.0435V18.1739C11.9304 17.7496 12.7617 16.07 13.2175 14.6883Z" fill="#868E96"/>
<path d="M4.30367 9.08697C4.35384 7.43706 4.5774 5.85199 4.95652 4.42057C4.0478 3.90129 3.21157 3.25079 2.45881 2.47827C0.995751 4.33364 0.139552 6.6347 0 9.08697H4.30367Z" fill="#868E96"/>
<path d="M15.522 9.91309C15.4718 11.3568 15.2483 12.7437 14.8691 13.9962C15.7779 14.4506 16.6141 15.0197 17.3668 15.6957C18.8299 14.0722 19.6861 12.0588 19.8257 9.91309H15.522Z" fill="#868E96"/>
<path d="M4.30367 9.91309H0C0.139552 12.0588 0.995751 14.0722 2.45881 15.6957C3.21157 15.0197 4.0478 14.4506 4.95652 13.9962C4.5774 12.7437 4.35384 11.3568 4.30367 9.91309Z" fill="#868E96"/>
<path d="M9.08666 18.1739V14.0435C8.22741 14.1083 7.39395 14.3267 6.6084 14.6883C7.06494 16.0722 7.89644 17.7499 9.08666 18.1739Z" fill="#868E96"/>
<path d="M14.5582 14.8695C13.9584 16.4933 12.9827 18.1866 11.5654 18.9999C13.4069 18.6607 15.1154 17.7696 16.522 16.4025C15.9209 15.7989 15.2617 15.2858 14.5582 14.8695Z" fill="#868E96"/>
<path d="M5.26843 14.8695C4.56494 15.2858 3.90575 15.7989 3.30469 16.4025C4.71124 17.7695 6.41977 18.6607 8.26121 18.9999C6.84373 18.1865 5.86809 16.4929 5.26843 14.8695Z" fill="#868E96"/>
<path d="M5.26843 3.30435C5.86825 2.0053 6.84392 0.650635 8.26121 0C6.41977 0.271403 4.71124 0.984307 3.30469 2.07796C3.90579 2.56085 4.56494 2.97128 5.26843 3.30435Z" fill="#868E96"/>
<path d="M10.7393 9.91309V12.576C11.7175 12.6342 12.6699 12.8492 13.5813 13.2174C13.8463 12.2027 14.0043 11.0825 14.0436 9.91309H10.7393Z" fill="#868E96"/>
<path d="M14.8691 4.42057C15.2483 5.85199 15.4718 7.43706 15.522 9.08697H19.8257C19.6861 6.6347 18.8299 4.33364 17.3668 2.47827C16.6141 3.25079 15.7779 3.90124 14.8691 4.42057Z" fill="#868E96"/>
<path d="M10.7393 5.75839V9.08698H14.0436C14.0043 7.62525 13.8463 6.22501 13.5813 4.95654C12.6699 5.41683 11.7175 5.68563 10.7393 5.75839Z" fill="#868E96"/>
<path d="M10.7393 0.82605V4.95648C11.5985 4.8916 12.432 4.67324 13.2175 4.3116C12.761 2.92774 11.9295 1.25008 10.7393 0.82605Z" fill="#868E96"/>
<path d="M11.5654 0C12.9829 0.650736 13.9585 2.00557 14.5582 3.30435C15.2617 2.97128 15.9209 2.56081 16.522 2.07792C15.1154 0.984341 13.4069 0.271403 11.5654 0Z" fill="#868E96"/>
</svg>
