<svg width="18" height="18" viewBox="0 0 18 18" fill="none" xmlns="http://www.w3.org/2000/svg">
<circle cx="8.99984" cy="8.99996" r="7.83871" fill="#868E96"/>
<path d="M9 0C4.0374 0 0 4.0374 0 9C0 13.9626 4.0374 18 9 18C13.9626 18 18 13.9626 18 9C18 4.0374 13.9626 0 9 0ZM9 16.085C5.09339 16.085 1.91486 12.9068 1.91486 9C1.91486 5.09321 5.09339 1.91505 9 1.91505C12.9066 1.91505 16.0851 5.09321 16.0851 9C16.0851 12.9068 12.9066 16.085 9 16.085Z" fill="#868E96"/>
<path d="M13.6898 8.72208H9.64518V3.85897C9.64518 3.44972 9.31337 3.11792 8.90413 3.11792C8.49489 3.11792 8.16309 3.44972 8.16309 3.85897V9.46312C8.16309 9.87237 8.49489 10.2042 8.90413 10.2042H13.6898C14.099 10.2042 14.4309 9.87237 14.4309 9.46312C14.4309 9.05388 14.099 8.72208 13.6898 8.72208Z" fill="white"/>
</svg>
