<svg width="1920" height="226" viewBox="0 0 1920 226" fill="none" xmlns="http://www.w3.org/2000/svg">
<g clip-path="url(#clip0)">
<path d="M1545.42 111.006C1541.16 118.45 1532.57 121.641 1528.8 122.306L1540.1 171.494L1617.21 195.423L1701.62 171.494L1710.27 93.0586C1709.38 93.9449 1707.34 96.5151 1706.28 99.7057C1705.21 102.896 1696.09 113.886 1691.65 118.982C1690.77 119.425 1688.6 120.046 1687 118.982C1685.01 117.653 1675.04 116.988 1672.38 118.982C1670.25 120.577 1654.21 127.623 1646.45 130.947C1645.12 130.282 1641.67 127.889 1638.48 123.635C1634.49 118.317 1596.6 90.3998 1592.61 87.0763C1588.62 83.7528 1587.29 82.4233 1581.31 83.0881C1575.33 83.7528 1555.39 102.365 1554.06 103.694C1552.73 105.023 1549.41 107.017 1545.42 111.006Z" fill="white"/>
<path d="M1171.84 125.03C1160.92 106.87 1115.57 79.6296 1108.31 74.1816C1101.06 68.7336 1084.73 72.3656 1075.66 74.1816C1066.59 75.9976 1050.27 105.054 1037.57 114.134C1024.87 123.214 1008.55 174.062 1008.55 174.062C1008.55 174.062 1022.15 154.994 1025.78 154.994C1029.41 154.994 1040.29 144.098 1045.73 140.466C1051.17 136.834 1063.44 122.052 1070.91 119.455C1078.38 116.858 1081.56 117.239 1087.24 121.598C1092.91 125.956 1124.4 151.562 1124.4 151.562C1124.4 151.562 1127.72 157.482 1136.61 149.891C1145.5 142.282 1171.84 125.03 1171.84 125.03Z" fill="#F7F7F7"/>
<path d="M1124.4 151.544C1124.4 151.544 1090.63 122.687 1087.24 121.579C1083.84 120.472 1078.29 116.876 1078.29 116.876C1078.29 116.876 1076.37 119.473 1078.29 126.337C1080.22 133.202 1096.51 167.179 1099.25 170.158C1101.97 173.154 1109.22 187.682 1120.11 184.05C1130.99 180.418 1139.86 166.435 1137.25 162.53C1134.64 158.626 1124.4 151.544 1124.4 151.544Z" fill="#F7F7F7"/>
<path d="M1334.3 135.49C1348.66 107.778 1395.83 87.8019 1404.9 76.9058C1413.97 66.0097 1457.5 58.7457 1466.57 67.8258C1475.64 76.9058 1491.97 100.514 1502.85 102.33C1513.73 104.146 1530.06 122.306 1530.06 122.306L1494.69 157.591C1494.69 157.591 1474.75 180.418 1464.3 176.786C1453.85 173.154 1422.24 138.777 1413.57 135.999C1404.9 133.202 1394.01 124.122 1388.57 124.122C1383.13 124.122 1369.71 145.188 1360.09 141.919C1350.48 138.65 1334.3 135.49 1334.3 135.49Z" fill="#F7F7F7"/>
<path d="M1641.15 133.329L1632.55 135.926L1629.7 137.379L1625.29 148.638L1620.49 149.819C1620.49 149.819 1607.53 140.611 1604.61 134.637C1601.71 128.662 1588.03 98.8069 1586.36 95.7197C1583.57 90.5259 1584.37 82.3721 1584.37 82.3721L1598.59 90.9981L1616.26 105.127L1641.13 126.138C1641.13 126.138 1649.56 130.533 1643.78 132.312C1637.99 134.11 1641.15 133.329 1641.15 133.329Z" fill="#F7F7F7"/>
<path d="M1930.04 43.9089V155.902L1917.34 164.982L1873.8 172.246L1855.67 161.35L1839.34 141.374L1819.39 125.03L1803.06 121.398L1792.18 112.318C1792.18 112.318 1774.07 89.9266 1781.76 87.9653C1789.46 86.004 1835.86 53.8788 1840.77 49.0482C1845.69 44.2177 1872.92 27.1472 1877.43 24.7864C1881.95 22.4256 1887.88 17.7766 1893.99 21.0091C1900.11 24.2416 1930.04 43.9089 1930.04 43.9089Z" fill="#F7F7F7"/>
<path d="M1881.33 141.156C1881.33 141.156 1894.32 111.937 1894.32 91.8516C1912.88 99.1519 1933.28 100.986 1933.28 100.986" stroke="#7F7F7F" stroke-width="1.2" stroke-miterlimit="10" stroke-linecap="round"/>
<path d="M1933.28 153.941C1933.28 153.941 1929.57 157.591 1924.02 161.241C1918.46 164.891 1881.33 174.026 1870.2 170.376C1859.06 166.726 1844.22 150.291 1838.65 141.156C1833.08 132.022 1818.24 122.887 1812.67 122.887C1807.11 122.887 1792.27 119.237 1784.85 100.968C1777.43 82.6989 1744.02 55.3135 1744.02 55.3135L1739.45 59.5811L1736.58 62.6138C1736.58 62.6138 1710.6 88.1832 1703.18 104.618C1695.77 121.053 1641.95 155.757 1641.95 155.757" stroke="#7F7F7F" stroke-width="1.2" stroke-miterlimit="10" stroke-linecap="round"/>
<path d="M1690.1 119.891C1680.93 117.403 1677.21 115.587 1671.64 119.237C1666.07 122.887 1638.24 135.672 1632.67 135.672C1627.11 135.672 1628.96 146.622 1625.26 148.457C1621.54 150.291 1612.27 157.591 1612.27 157.591" stroke="#7F7F7F" stroke-width="1.2" stroke-miterlimit="10" stroke-linecap="round"/>
<path d="M1646.86 131.077C1646.86 131.077 1595.56 86.367 1586.29 82.7168C1577.02 79.0666 1552.9 106.452 1551.03 106.452C1549.18 106.452 1538.04 121.071 1532.47 121.071C1526.9 121.071 1519.48 135.69 1513.92 139.34C1508.35 142.99 1475.8 178.602 1468.38 178.602" stroke="#7F7F7F" stroke-width="1.2" stroke-miterlimit="10" stroke-linecap="round"/>
<path d="M1779.48 88.7098C1792.47 85.0596 1821.02 65.3559 1834.01 54.4053C1846.99 43.4548 1882.26 19.7014 1889.68 19.7014C1897.1 19.7014 1935.84 48.0856 1935.84 48.0856" stroke="#7F7F7F" stroke-width="1.2" stroke-miterlimit="10" stroke-linecap="round"/>
<path d="M1582.74 82.3721C1584.42 93.6676 1602.25 144.952 1622.1 150.363" stroke="#7F7F7F" stroke-width="1.2" stroke-miterlimit="10" stroke-linecap="round"/>
<path d="M1140.77 165.582C1140.77 165.582 1089.47 120.871 1080.2 117.221C1070.93 113.571 1046.79 140.956 1044.94 140.956C1043.08 140.956 1031.95 155.575 1026.38 155.575C1020.81 155.575 1013.39 170.194 1007.82 173.844C1002.25 177.495 966.989 214.014 959.57 214.014" stroke="#7F7F7F" stroke-width="1.2" stroke-miterlimit="10" stroke-linecap="round"/>
<path d="M1076.64 116.876C1078.33 128.172 1096.16 179.456 1116.01 184.867" stroke="#7F7F7F" stroke-width="1.2" stroke-miterlimit="10" stroke-linecap="round"/>
<path d="M1527.34 208.566C1527.34 208.566 1563.62 184.958 1574.5 168.614C1585.38 152.27 1594.45 145.006 1594.45 145.006C1594.45 145.006 1656.13 199.486 1665.2 204.934" stroke="#7F7F7F" stroke-width="1.2" stroke-miterlimit="10" stroke-linecap="round"/>
<path d="M1128.27 155.902C1128.27 155.902 1215.34 92.3418 1226.22 92.3418C1237.1 92.3418 1251.62 86.8937 1260.69 92.3418C1269.76 97.7898 1311.48 130.478 1329.62 134.11C1347.76 137.742 1364.08 143.19 1364.08 143.19" stroke="#7F7F7F" stroke-width="1.2" stroke-miterlimit="10" stroke-linecap="round"/>
<path d="M1133.71 224.91C1150.03 223.094 1179.06 210.382 1193.57 204.934C1208.08 199.486 1233.48 221.278 1247.99 221.278C1262.5 221.278 1296.96 186.774 1306.03 177.694C1315.1 168.614 1338.69 170.43 1342.31 168.614C1345.94 166.798 1378.59 125.03 1389.48 125.03C1400.36 125.03 1431.2 146.822 1440.27 157.718C1449.34 168.614 1480.17 186.774 1491.06 194.038" stroke="#7F7F7F" stroke-width="1.2" stroke-miterlimit="10" stroke-linecap="round"/>
<path d="M1400.69 128.589C1396.73 146.822 1384.33 172.301 1336.11 169.54" stroke="#7F7F7F" stroke-width="1.2" stroke-miterlimit="10" stroke-linecap="round"/>
<path d="M1248.9 89.9448C1233.48 110.502 1213.52 135.926 1204.45 143.19" stroke="#7F7F7F" stroke-width="1.2" stroke-miterlimit="10" stroke-linecap="round"/>
<path d="M1180.87 161.35C1160.92 172.246 1133.71 186.774 1133.71 186.774" stroke="#7F7F7F" stroke-width="1.2" stroke-miterlimit="10" stroke-linecap="round"/>
<path d="M1389.48 170.43C1382.22 184.958 1369.52 210.382 1367.71 221.278" stroke="#7F7F7F" stroke-width="1.2" stroke-miterlimit="10" stroke-linecap="round"/>
<path d="M1333.79 135.363C1348.16 107.651 1395.32 87.6744 1404.39 76.7784C1413.46 65.8823 1456.99 58.6183 1466.06 67.6983C1475.13 76.7784 1491.46 100.386 1502.34 102.202C1513.23 104.018 1529.55 122.179 1529.55 122.179L1494.18 157.464C1494.18 157.464 1474.24 180.291 1463.8 176.659C1453.36 173.027 1421.73 138.65 1413.06 135.871C1404.39 133.075 1393.5 123.995 1388.06 123.995C1382.62 123.995 1369.2 145.06 1359.58 141.791C1349.97 138.505 1333.79 135.363 1333.79 135.363Z" stroke="#7F7F7F" stroke-width="1.2" stroke-miterlimit="10" stroke-linecap="round"/>
<path d="M1171.84 125.03C1171.84 125.03 1138.17 91.7788 1121.43 82.9712C1104.69 74.1636 1106.75 70.2591 1097.56 71.3124C1088.36 72.3657 1078.42 72.3657 1073.41 75.0897C1068.41 77.8137 1061.24 87.3296 1061.24 87.3296C1061.24 87.3296 1049.94 102.257 1047.38 104.564C1044.83 106.87 1035.81 118.71 1032.15 120.054C1028.5 121.398 1008.55 174.062 1008.55 174.062" stroke="#7F7F7F" stroke-width="1.2" stroke-miterlimit="10" stroke-linecap="round"/>
</g>
<path d="M418.619 100.686C423.254 108.799 432.622 112.275 436.727 113L424.413 166.602L340.393 192.679L248.405 166.602L238.989 81.128C239.955 82.0938 242.176 84.8947 243.335 88.3716C244.494 91.8485 254.441 103.825 259.27 109.378C260.236 109.861 262.602 110.537 264.34 109.378C266.513 107.929 277.378 107.205 280.275 109.378C282.593 111.116 300.073 118.795 308.523 122.416C309.972 121.692 313.738 119.084 317.215 114.449C321.561 108.654 362.847 78.2306 367.193 74.6088C371.538 70.987 372.987 69.5383 379.506 70.2626C386.025 70.987 407.754 91.269 409.203 92.7178C410.651 94.1665 414.273 96.3396 418.619 100.686Z" fill="white"/>
<path d="M825.698 115.969C837.597 96.1787 887.012 66.494 894.919 60.557C902.825 54.6201 920.615 58.578 930.498 60.557C940.381 62.536 958.171 94.1997 972.007 104.095C985.843 113.99 1003.63 169.401 1003.63 169.401C1003.63 169.401 988.808 148.622 984.855 148.622C980.902 148.622 969.042 136.748 963.112 132.79C957.182 128.832 943.82 112.723 935.677 109.893C927.533 107.063 924.074 107.479 917.887 112.228C911.7 116.978 877.386 144.882 877.386 144.882C877.386 144.882 873.769 151.333 864.084 143.061C854.398 134.769 825.698 115.969 825.698 115.969Z" fill="#F7F7F7"/>
<path d="M877.386 144.862C877.386 144.862 914.19 113.416 917.887 112.209C921.583 111.001 927.631 107.083 927.631 107.083C927.631 107.083 929.727 109.913 927.631 117.394C925.536 124.874 907.786 161.901 904.801 165.146C901.836 168.412 893.93 184.244 882.07 180.286C870.211 176.328 860.545 161.089 863.391 156.835C866.238 152.58 877.386 144.862 877.386 144.862Z" fill="#F7F7F7"/>
<path d="M648.672 127.367C633.017 97.1681 581.625 75.3992 571.742 63.5253C561.859 51.6514 514.42 43.7355 504.537 53.6304C494.654 63.5253 476.864 89.2521 465.004 91.2311C453.145 93.2101 435.355 113 435.355 113L473.899 151.452C473.899 151.452 495.622 176.327 507.008 172.369C518.393 168.411 552.845 130.949 562.294 127.921C571.742 124.874 583.602 114.979 589.531 114.979C595.461 114.979 610.088 137.935 620.564 134.373C631.04 130.811 648.672 127.367 648.672 127.367Z" fill="#F7F7F7"/>
<path d="M314.306 125.012L323.675 127.842L326.778 129.425L331.582 141.695L336.82 142.981C336.82 142.981 350.933 132.948 354.115 126.437C357.278 119.926 372.181 87.3917 374 84.0275C377.044 78.3676 376.174 69.4819 376.174 69.4819L360.677 78.8821L341.425 94.2786L314.326 117.175C314.326 117.175 305.134 121.965 311.44 123.904C317.745 125.863 314.306 125.012 314.306 125.012Z" fill="#F7F7F7"/>
<path d="M-0.490299 27.5672V149.611L13.346 159.506L60.7848 167.422L80.551 155.548L98.3405 133.779L120.083 115.968L137.873 112.011L149.733 102.116C149.733 102.116 169.459 77.7147 161.078 75.5774C152.698 73.4401 102.136 38.4319 96.779 33.1678C91.4223 27.9037 61.7533 9.30122 56.8316 6.72854C51.9098 4.15586 45.4463 -0.910343 38.7851 2.61225C32.1239 6.13484 -0.490299 27.5672 -0.490299 27.5672Z" fill="#F7F7F7"/>
<path d="M52.582 133.542C52.582 133.542 38.4295 101.7 38.4295 79.8125C18.2086 87.768 -4.02844 89.7668 -4.02844 89.7668" stroke="#7F7F7F" stroke-width="1.2" stroke-miterlimit="10" stroke-linecap="round"/>
<path d="M-4.02721 147.474C-4.02721 147.474 0.0248248 151.452 6.07328 155.43C12.1217 159.407 52.5832 169.362 64.7196 165.384C76.8561 161.406 93.0248 143.496 99.093 133.542C105.161 123.588 121.33 113.633 127.398 113.633C133.466 113.633 149.635 109.656 157.72 89.747C165.804 69.8384 202.213 39.9954 202.213 39.9954L207.194 44.646L210.317 47.9509C210.317 47.9509 238.622 75.815 246.707 93.7248C254.791 111.635 313.438 149.453 313.438 149.453" stroke="#7F7F7F" stroke-width="1.2" stroke-miterlimit="10" stroke-linecap="round"/>
<path d="M260.957 110.368C270.958 107.657 275.01 105.678 281.079 109.656C287.147 113.633 317.468 127.565 323.536 127.565C329.605 127.565 327.589 139.499 331.621 141.497C335.673 143.496 345.773 151.452 345.773 151.452" stroke="#7F7F7F" stroke-width="1.2" stroke-miterlimit="10" stroke-linecap="round"/>
<path d="M308.081 122.559C308.081 122.559 363.98 73.836 374.08 69.8582C384.181 65.8804 410.47 95.7235 412.506 95.7235C414.522 95.7235 426.658 111.654 432.727 111.654C438.795 111.654 446.879 127.585 452.947 131.563C459.016 135.541 494.476 174.349 502.561 174.349" stroke="#7F7F7F" stroke-width="1.2" stroke-miterlimit="10" stroke-linecap="round"/>
<path d="M163.57 76.3889C149.418 72.4112 118.306 50.9392 104.153 39.0059C90.0006 27.0726 51.5752 1.1875 43.4908 1.1875C35.4064 1.1875 -6.81415 32.119 -6.81415 32.119" stroke="#7F7F7F" stroke-width="1.2" stroke-miterlimit="10" stroke-linecap="round"/>
<path d="M377.953 69.4819C376.115 81.7912 356.685 137.678 335.06 143.575" stroke="#7F7F7F" stroke-width="1.2" stroke-miterlimit="10" stroke-linecap="round"/>
<path d="M859.557 160.159C859.557 160.159 915.456 111.437 925.557 107.459C935.657 103.481 961.966 133.324 963.982 133.324C965.998 133.324 978.135 149.255 984.203 149.255C990.271 149.255 998.356 165.186 1004.42 169.164" stroke="#7F7F7F" stroke-width="1.2" stroke-miterlimit="10" stroke-linecap="round"/>
<path d="M929.43 107.083C927.591 119.392 908.161 175.279 886.537 181.176" stroke="#7F7F7F" stroke-width="1.2" stroke-miterlimit="10" stroke-linecap="round"/>
<path d="M438.32 207.002C438.32 207.002 398.788 181.275 386.928 163.464C375.068 145.653 365.185 137.737 365.185 137.737C365.185 137.737 297.98 197.107 288.097 203.044" stroke="#7F7F7F" stroke-width="1.2" stroke-miterlimit="10" stroke-linecap="round"/>
<path d="M873.176 149.611C873.176 149.611 778.298 80.3467 766.438 80.3467C754.579 80.3467 738.766 74.4097 728.883 80.3467C718.999 86.2836 673.537 121.905 653.771 125.863C634.005 129.821 616.215 135.758 616.215 135.758" stroke="#7F7F7F" stroke-width="1.2" stroke-miterlimit="10" stroke-linecap="round"/>
<path d="M867.246 224.812C849.457 222.833 817.831 208.981 802.018 203.044C786.205 197.107 758.532 220.854 742.719 220.854C726.906 220.854 689.35 183.254 679.467 173.359C669.584 163.464 643.888 165.443 639.935 163.464C635.982 161.485 600.403 115.968 588.543 115.968C576.683 115.968 543.081 139.716 533.197 151.59C523.314 163.464 489.712 183.254 477.852 191.17" stroke="#7F7F7F" stroke-width="1.2" stroke-miterlimit="10" stroke-linecap="round"/>
<path d="M576.328 119.847C580.637 139.716 594.157 167.481 646.695 164.473" stroke="#7F7F7F" stroke-width="1.2" stroke-miterlimit="10" stroke-linecap="round"/>
<path d="M741.731 77.7344C758.532 100.136 780.275 127.842 790.158 135.758" stroke="#7F7F7F" stroke-width="1.2" stroke-miterlimit="10" stroke-linecap="round"/>
<path d="M815.854 155.548C837.597 167.422 867.246 183.254 867.246 183.254" stroke="#7F7F7F" stroke-width="1.2" stroke-miterlimit="10" stroke-linecap="round"/>
<path d="M588.542 165.443C596.449 181.275 610.285 208.981 612.262 220.854" stroke="#7F7F7F" stroke-width="1.2" stroke-miterlimit="10" stroke-linecap="round"/>
<path d="M649.225 127.229C633.57 97.0296 582.178 75.2608 572.295 63.3869C562.411 51.513 514.973 43.5971 505.09 53.492C495.206 63.3869 477.417 89.1137 465.557 91.0927C453.697 93.0717 435.908 112.862 435.908 112.862L474.452 151.313C474.452 151.313 496.175 176.189 507.56 172.231C518.926 168.273 553.398 130.811 562.846 127.783C572.295 124.735 584.154 114.84 590.084 114.84C596.014 114.84 610.641 137.797 621.117 134.235C631.593 130.653 649.225 127.229 649.225 127.229Z" stroke="#7F7F7F" stroke-width="1.2" stroke-miterlimit="10" stroke-linecap="round"/>
<path d="M825.698 115.968C825.698 115.968 862.384 79.7332 880.628 70.1351C898.872 60.537 896.619 56.2822 906.64 57.43C916.662 58.5778 927.493 58.5778 932.949 61.5463C938.404 64.5148 946.212 74.8847 946.212 74.8847C946.212 74.8847 958.526 91.1519 961.313 93.6652C964.1 96.1785 973.924 109.082 977.917 110.546C981.89 112.01 1003.63 169.401 1003.63 169.401" stroke="#7F7F7F" stroke-width="1.2" stroke-miterlimit="10" stroke-linecap="round"/>
<defs>
<clipPath id="clip0">
<rect x="958.482" y="18.6118" width="978.447" height="207.388" fill="white"/>
</clipPath>
</defs>
</svg>
