<svg width="31" height="31" viewBox="0 0 31 31" fill="none" xmlns="http://www.w3.org/2000/svg">
<path d="M30.0918 7.32617H22.2812C21.7797 7.32617 21.373 7.7328 21.373 8.23438V26.8223C21.373 28.5611 22.7826 29.9707 24.5215 29.9707H27.8516C29.5904 29.9707 31 28.5611 31 26.8223V8.23438C31 7.7328 30.5934 7.32617 30.0918 7.32617Z" fill="#1A838E"/>
<path d="M25.9129 29.9707H4.54102C2.0368 29.9707 0 27.9333 0 25.4297V1.9375C0 1.43617 0.406875 1.0293 0.908203 1.0293H22.2812C22.7826 1.0293 23.1895 1.43617 23.1895 1.9375V26.7308C23.1895 28.3171 24.3214 29.7051 25.9129 29.9707Z" fill="#1F99A7"/>
<path d="M25.9129 29.9707H10.6562V1.0293H22.2812C22.7826 1.0293 23.1895 1.43617 23.1895 1.9375V26.7308C23.1895 28.3171 24.3214 29.7051 25.9129 29.9707Z" fill="#71CAD4"/>
<path d="M19.3145 24.7031C19.3145 25.2045 18.9076 25.6113 18.4062 25.6113H4.84375C4.34242 25.6113 3.93555 25.2045 3.93555 24.7031C3.93555 24.2018 4.34242 23.7949 4.84375 23.7949H18.4062C18.9076 23.7949 19.3145 24.2018 19.3145 24.7031Z" fill="#71CAD4"/>
<path d="M19.3145 24.7031C19.3145 25.2045 18.9076 25.6113 18.4062 25.6113H10.6562V23.7949H18.4062C18.9076 23.7949 19.3145 24.2018 19.3145 24.7031Z" fill="#FAFBFD"/>
<path d="M7.75 20.2832H4.84375C4.34218 20.2832 3.93555 19.8766 3.93555 19.375C3.93555 18.8734 4.34218 18.4668 4.84375 18.4668H7.75C8.25157 18.4668 8.6582 18.8734 8.6582 19.375C8.6582 19.8766 8.25157 20.2832 7.75 20.2832Z" fill="#71CAD4"/>
<path d="M7.75 16.4082H4.84375C4.34218 16.4082 3.93555 16.0016 3.93555 15.5C3.93555 14.9984 4.34218 14.5918 4.84375 14.5918H7.75C8.25157 14.5918 8.6582 14.9984 8.6582 15.5C8.6582 16.0016 8.25157 16.4082 7.75 16.4082Z" fill="#71CAD4"/>
<path d="M19.3145 10.1719C19.3145 10.6732 18.9076 11.0801 18.4062 11.0801H4.84375C4.34242 11.0801 3.93555 10.6732 3.93555 10.1719C3.93555 9.67055 4.34242 9.26367 4.84375 9.26367H18.4062C18.9076 9.26367 19.3145 9.67055 19.3145 10.1719Z" fill="#71CAD4"/>
<path d="M19.3145 10.1719C19.3145 10.6732 18.9076 11.0801 18.4062 11.0801H10.6562V9.26367H18.4062C18.9076 9.26367 19.3145 9.67055 19.3145 10.1719Z" fill="#FAFBFD"/>
<path d="M19.3145 6.29688C19.3145 6.7982 18.9076 7.20508 18.4062 7.20508H4.84375C4.34242 7.20508 3.93555 6.7982 3.93555 6.29688C3.93555 5.79555 4.34242 5.38867 4.84375 5.38867H18.4062C18.9076 5.38867 19.3145 5.79555 19.3145 6.29688Z" fill="#71CAD4"/>
<path d="M18.4062 7.20508H10.6562V5.38867H18.4062C18.9076 5.38867 19.3145 5.79555 19.3145 6.29688C19.3145 6.7982 18.9076 7.20508 18.4062 7.20508Z" fill="#FAFBFD"/>
</svg>
