<svg width="442" height="323" viewBox="0 0 442 323" fill="none" xmlns="http://www.w3.org/2000/svg">
<g clip-path="url(#clip0)">
<path d="M99.6319 323C154.657 323 199.264 278.363 199.264 223.299C199.264 168.236 154.657 123.599 99.6319 123.599C44.6067 123.599 0 168.236 0 223.299C0 278.363 44.6067 323 99.6319 323Z" fill="#FAE24C"/>
<path d="M184.987 168.432C185.095 167.694 185.198 166.95 185.283 166.206C185.337 165.74 185.265 165.347 185.102 165.026C185.114 164.954 185.132 164.887 185.15 164.815C185.277 164.192 185.174 163.647 184.926 163.206C185.748 160.702 182.563 159.625 181.015 161.173C180.961 160.919 180.846 160.683 180.695 160.478C181.142 159.328 181.584 158.173 182.013 157.018C182.919 154.592 178.845 152.838 177.794 155.24C177.455 156.014 177.141 156.8 176.833 157.586C176.234 157.665 175.648 157.998 175.225 158.681C174.657 159.601 174.179 160.556 173.786 161.554C172.644 163.865 171.538 166.2 170.431 168.535C170.401 168.583 170.365 168.631 170.341 168.68C169.501 170.15 168.666 171.625 167.832 173.095C167.391 173.271 167.016 173.579 166.799 174.039C166.781 174.075 166.762 174.118 166.744 174.154C166.146 174.607 165.699 175.261 165.517 175.999C165.487 176.114 165.475 176.222 165.463 176.337C164.647 177.208 163.928 178.122 163.782 179.186C163.432 179.737 163.087 180.299 162.761 180.868C161.655 182.803 160.766 184.739 159.37 186.499C156.813 189.729 155.441 193.957 152.298 196.679C151.675 197.217 151.482 197.853 151.56 198.451C151.313 198.621 151.083 198.857 150.896 199.165C149.602 201.264 148.423 203.563 146.852 205.468C145.848 206.684 144.839 207.821 143.908 209.043C143.249 209.49 142.53 209.859 141.913 210.379C141.188 210.99 140.668 211.825 139.931 212.418C139.465 212.793 139.036 213.101 138.625 213.44C136.594 214.547 134.569 215.666 132.587 216.851C132.472 216.918 132.357 216.991 132.242 217.063C131.994 217.142 131.746 217.214 131.499 217.287C131.444 217.281 131.384 217.269 131.329 217.263C130.804 217.214 130.338 217.233 129.812 217.317C129.486 217.372 129.153 217.481 128.821 217.571C128.337 213.646 127.999 209.732 127.993 205.77C133.681 203.817 139.326 200.75 142.246 195.258C143.715 192.493 144.259 189.481 144.525 186.39C144.803 183.191 144.597 180.045 143.013 177.184C142.349 175.987 141.146 175.835 140.179 176.277C139.29 175.908 138.281 175.805 137.247 176.077C135.53 176.525 134.098 177.287 132.822 178.243C131.607 175.666 127.818 174.716 125.303 176.864C123.846 178.11 122.553 179.598 121.483 181.237C121.066 180.765 120.528 180.378 119.857 180.106C117.886 179.313 115.094 179.888 114.09 181.993C111.153 188.193 108.59 194.574 106.523 201.113C104.812 201.433 103.373 202.734 102.878 204.427C102.684 205.087 102.497 205.746 102.304 206.405C101.016 206.442 99.7044 206.829 98.4532 207.633C97.4921 208.25 96.664 209.061 95.9266 209.98C93.805 209.279 91.7619 210.131 90.4744 211.982C89.2716 213.718 88.0627 215.454 86.8598 217.19C86.3642 216.906 85.8201 216.706 85.252 216.61C84.9981 215.914 84.5931 215.279 84.1337 214.819C82.8523 213.537 81.3351 213.398 79.6426 213.634C71.948 214.68 64.5253 217.426 57.9367 221.521C57.6466 221.703 57.3806 221.914 57.1449 222.144C56.5405 222.537 55.942 222.943 55.3497 223.372C54.9387 223.644 54.5458 223.935 54.177 224.255C54.0259 224.37 53.8688 224.485 53.7177 224.606C53.3913 224.866 53.1313 225.181 52.9258 225.531C52.7505 225.743 52.5813 225.955 52.4241 226.179C51.7895 226.427 51.1548 226.681 50.5201 226.929C48.3743 227.775 45.7631 228.38 44.3486 230.352C44.1734 230.6 44.0283 230.854 43.8953 231.12L42.638 231.84C41.006 232.772 39.8032 235.191 40.5164 237.054C40.601 237.272 40.6978 237.49 40.7824 237.707C39.912 238.627 39.1504 239.631 38.5096 240.708C38.3827 240.756 38.2558 240.835 38.1349 240.937C37.5183 241.488 37.0831 242.068 36.7507 242.758C35.8198 243.792 34.7378 244.742 33.94 245.867C32.7008 247.627 31.637 249.484 30.2468 251.135C27.4905 254.402 25.7738 258.43 23.7912 262.199C23.6099 262.543 23.6159 262.882 23.7368 263.166C23.4708 263.221 23.223 263.402 23.0477 263.735C22.4977 264.787 21.6938 265.804 22.2559 266.983C23.0659 268.689 24.6495 270.292 25.7738 271.816C26.0035 272.124 26.3239 272.294 26.6503 272.336C27.0311 273.443 27.6476 274.435 28.5724 275.221C28.8626 275.469 29.1648 275.675 29.4791 275.856C29.4852 275.893 29.4912 275.929 29.5033 275.959C29.739 276.758 30.0654 277.32 30.6155 277.937C30.8814 278.24 31.2139 278.336 31.5222 278.288C32.1145 279.056 32.7311 279.806 33.4141 280.496C33.9823 281.076 35.8198 282.183 35.9105 283.006C35.983 283.696 36.527 284.107 37.071 284.131L37.1798 284.355C37.2161 284.421 37.2645 284.476 37.3309 284.518C37.3853 284.567 37.4518 284.603 37.5244 284.621C37.5727 284.627 37.6271 284.633 37.6755 284.639C37.7541 284.639 37.8266 284.627 37.8991 284.591C37.9475 284.579 37.9898 284.554 38.0261 284.518C38.0865 284.476 38.1409 284.421 38.1772 284.355C38.1953 284.306 38.2134 284.264 38.2376 284.216C38.2678 284.113 38.2678 284.01 38.2376 283.907C38.1893 283.78 38.1349 283.659 38.0865 283.532C38.1228 283.466 38.153 283.393 38.1832 283.308C38.8119 281.415 39.5674 279.582 40.4983 277.822C41.0846 276.721 41.6709 275.742 41.955 274.574C42.9282 273.038 43.9376 271.52 44.9833 270.026C45.1284 269.82 45.1828 269.608 45.1707 269.403C46.428 267.842 47.5764 266.154 48.6705 264.443C51.3301 266.874 54.5034 268.574 58.3478 268.181C58.8313 268.132 59.3028 268.048 59.7561 267.939C58.245 270.818 56.9152 273.776 55.7244 276.818C55.2167 278.113 55.4464 279.328 56.0871 280.314C55.7063 280.804 55.392 281.355 55.1865 281.954C55.126 282.123 54.9447 282.903 54.9205 283.562C54.6727 283.889 54.4611 284.234 54.2738 284.597C53.5121 285.964 52.8654 287.155 51.868 288.371C50.8767 289.581 50.0607 290.773 49.6557 292.303C49.6195 292.442 49.5953 292.581 49.5772 292.714C48.9485 293.289 49.1117 294.426 49.8492 294.831C50.6168 295.249 51.2031 295.914 51.9647 296.331C52.678 296.718 53.4759 296.785 54.1287 297.281C54.6485 297.674 55.2107 298.025 55.7788 298.188C55.8151 298.255 55.8514 298.315 55.9058 298.376C57.4834 300.299 59.8831 300.825 61.9443 302.059C62.6152 302.465 63.2862 302.761 63.951 302.9C64.0478 303.021 64.1807 303.13 64.3621 303.209C65.299 303.608 66.7376 304.576 67.9344 304.594C68.3333 304.908 68.8894 304.999 69.3125 304.684C70.183 304.872 71.0534 305.459 71.7908 305.822C72.7761 306.306 73.7613 306.729 74.8131 307.056C76.5237 307.588 78.2826 307.921 79.9993 308.404C80.102 308.495 80.2229 308.568 80.3619 308.616C80.8576 308.792 81.3109 308.906 81.8247 308.997C82.006 309.027 82.1753 309.027 82.3264 308.997C82.5017 309.082 82.677 309.173 82.8523 309.257C83.1847 309.421 83.5293 309.409 83.8315 309.288C84.4359 309.548 85.0585 309.784 85.7174 309.959C87.5307 310.449 89.3743 310.667 91.1575 311.278C93.0615 311.931 94.8446 311.447 96.7668 311.798C97.1476 311.864 97.4679 311.768 97.7097 311.574C98.7917 311.876 99.8858 312.082 101.046 312.209C101.602 312.27 102.122 312.082 102.557 311.761C105.29 311.985 108.028 312.106 110.766 312.003C111.11 311.991 111.419 311.925 111.697 311.816C113.83 311.852 115.91 311.641 118.05 311.29C122.136 310.612 126.518 310.969 130.253 309.04C131.124 309.076 131.94 308.937 132.744 308.592C132.774 308.592 132.798 308.592 132.828 308.592C132.834 308.598 132.847 308.61 132.853 308.616C135.137 309.578 136.503 306.281 135.101 304.757C134.95 304.594 134.986 303.463 134.95 303.257C134.847 302.701 134.72 302.168 134.412 301.678C134.237 301.4 134.031 301.158 133.802 300.965C133.995 300.535 134.031 300.015 133.82 299.422C133.282 297.928 132.732 296.434 132.194 294.934C132.23 294.65 132.242 294.359 132.248 294.063C132.26 293.936 132.26 293.803 132.254 293.664C132.236 293.452 132.224 293.246 132.206 293.035C132.139 292.406 131.867 291.91 131.499 291.547C131.595 290.24 131.468 288.988 131.106 287.663C130.719 286.242 130.114 284.929 130.006 283.496C130.006 283.187 130.006 282.873 130.012 282.564C130.018 281.839 129.77 281.294 129.383 280.925C129.468 277.102 129.298 273.298 128.899 269.505C129.099 267.521 129.298 265.537 129.492 263.559C129.546 263.039 129.57 262.447 129.619 261.842C129.848 261.588 130.012 261.261 130.072 260.844C130.241 259.694 130.532 258.702 131.1 257.686C131.396 257.154 131.444 256.597 131.317 256.089C131.541 255.624 131.789 255.17 132.061 254.728C132.103 254.656 132.139 254.583 132.17 254.511C135.669 252.363 138.994 249.962 142.336 247.555C144.247 246.182 146.151 244.784 147.831 243.133C148.248 243.314 148.719 243.321 149.131 243.03C150.926 241.766 153.597 240.526 154.891 238.724C155.405 238.004 155.556 237.193 155.423 236.328C155.338 235.772 154.921 235.088 154.752 234.465C154.74 234.09 154.746 233.715 154.764 233.316C154.776 233.086 154.734 232.881 154.655 232.699C155.217 231.889 155.779 231.078 156.324 230.255C158.802 226.554 161.093 222.737 163.021 218.721C163.317 218.364 163.613 218.001 163.891 217.632C165.771 215.128 166.962 212.091 168.298 209.266C170.709 205.365 173.012 201.397 174.796 197.205C175.309 197.048 175.757 196.721 175.974 196.213C176.397 195.246 176.82 194.272 177.238 193.304C177.618 192.433 178.368 191.32 178.265 190.364C178.259 190.316 178.247 190.268 178.241 190.219C181.432 184.086 184.128 177.704 186.31 171.129C186.758 169.769 186.008 168.795 184.987 168.432Z" fill="white"/>
<path d="M342.368 206.357C397.393 206.357 442 161.72 442 106.657C442 51.5935 397.393 6.95605 342.368 6.95605C287.343 6.95605 242.736 51.5935 242.736 106.657C242.736 161.72 287.343 206.357 342.368 206.357Z" fill="#36D3B8"/>
<path d="M422.772 132.914C422.295 132.025 421.569 131.275 420.663 130.863C420.627 130.845 420.584 130.833 420.548 130.815C419.182 128.873 417.526 127.222 415.591 125.807C415.464 125.631 415.344 125.456 415.217 125.286C415.053 125.014 414.872 124.754 414.661 124.506C412.95 122.504 411.064 120.708 408.991 119.087C406.7 117.29 404.131 115.965 401.792 114.26C399.779 112.79 398.183 110.836 396.025 109.542C394.98 108.913 393.251 108.447 391.927 107.963C391.123 107.419 390.289 106.911 389.431 106.457C389.213 106.342 388.996 106.257 388.778 106.179C388.125 105.707 387.478 105.283 386.91 104.908C384.051 103.039 381.077 101.346 378.019 99.8275C374.64 98.1581 371.164 96.7124 367.634 95.4301C367.163 95.037 366.613 94.7164 366.008 94.5047C363.403 93.5792 360.749 92.8594 358.035 92.3271C358.035 92.3211 358.035 92.315 358.029 92.309C357.365 89.8411 356.7 87.3672 356.035 84.8994C355.72 83.732 355.394 82.5464 354.947 81.4153C354.421 78.6813 353.955 75.9352 353.544 73.183C353.508 72.9471 353.442 72.7233 353.357 72.5056C354.336 71.7072 354.995 70.5458 354.923 69.1849C354.85 67.9328 354.784 66.6867 354.711 65.4347C354.638 64.11 354.741 62.5373 354.318 61.2792C353.865 59.9364 352.759 58.4121 351.229 58.1883C351.187 58.1823 351.151 58.1762 351.114 58.1702C350.945 58.146 350.788 58.1279 350.625 58.1158C350.534 57.4504 350.444 56.785 350.341 56.1257C349.972 53.7184 346.998 52.5147 344.901 53.0349C343.081 53.4885 341.77 54.7587 341.238 56.4161C339.219 56.6883 337.575 58.025 336.233 59.7368C334.166 58.9263 331.881 59.1017 329.934 61.0494C329.342 61.6421 329.04 62.2954 328.798 62.985C327.855 63.2632 327.039 63.8499 326.453 64.6362C325.147 65.4226 324.186 66.8319 324.295 68.3985C324.343 69.1365 324.398 69.8744 324.446 70.6123C324.434 70.6668 324.422 70.7152 324.41 70.7696C324.349 71.1809 324.307 71.5741 324.277 71.9491L324.253 71.9431C324.144 76.0199 323.733 80.2479 325.057 84.1856C325.256 84.7663 325.48 85.353 325.721 85.9337C325.746 87.1434 326.211 88.4015 327.027 89.085L328 89.8956C329.04 91.2263 330.309 92.3392 331.838 93.059C331.911 93.5187 332.056 93.9905 332.286 94.4684C333.549 97.1177 333.168 101.061 333.217 103.916C333.229 104.6 333.223 105.283 333.223 105.967C333.168 105.973 333.114 105.973 333.066 105.985C331.524 105.38 329.65 105.398 327.831 106.124C325.836 106.911 324.005 107.951 322.288 109.179C321.925 109.197 321.539 109.251 321.14 109.366C317.199 110.516 313.693 113.123 310.556 115.887C307.92 116.667 305.901 118.421 304.088 120.411C301.169 122.093 298.872 124.93 296.714 127.464C295.033 129.436 293.552 131.498 292.38 133.755C290.923 134.438 289.636 135.612 288.409 136.597C287.998 136.93 287.58 137.317 287.163 137.729C286.16 137.88 285.253 138.164 284.449 138.606C284.135 138.454 283.766 138.364 283.343 138.358C282.564 138.346 281.657 138.418 281.052 138.255C280.877 138.206 280.702 138.152 280.526 138.092C280.254 137.759 279.964 137.414 279.541 137.13C279.481 137.087 279.42 137.057 279.36 137.021C278.115 135.485 276.845 133.984 275.141 132.98C274.282 132.478 273.926 131.771 273.291 130.972C272.602 130.101 271.834 129.315 271.037 128.541C267.918 125.504 264.75 122.522 261.559 119.558C260.985 118.851 260.404 118.149 259.794 117.472C259.123 116.728 258.144 115.965 257.267 115.137C257.14 114.695 257.019 114.26 256.844 113.897C256.3 112.754 255.502 111.84 254.366 111.266C254.197 111.181 254.015 111.12 253.828 111.078C253.81 111.054 253.792 111.036 253.773 111.012C253.719 110.891 253.653 110.77 253.568 110.649C252.74 109.415 251.821 108.284 250.739 107.261C250.733 107.255 250.727 107.255 250.721 107.249C250.63 106.85 250.431 106.469 250.098 106.13C249.923 105.949 249.724 105.779 249.512 105.61C248.775 104.412 247.844 103.342 246.671 102.574C246.665 102.549 246.653 102.531 246.647 102.513C246.339 101.563 245.692 101.025 244.967 100.832C244.356 100.051 243.733 99.2771 243.093 98.521C241.817 97.0209 239.883 97.8254 239.158 99.2408C238.305 99.7852 238.088 100.644 238.287 101.461C237.78 102.338 237.707 103.493 238.535 104.467C239.533 105.646 240.421 106.904 241.219 108.217C240.542 108.78 240.161 109.663 240.494 110.685C240.88 111.858 241.298 113.014 241.739 114.163C239.786 112.735 236.547 114.979 238.082 117.405C239.049 118.923 240.197 120.248 241.431 121.5C239.617 121.929 238.596 124.821 240.657 126.188C240.826 126.303 240.977 126.496 241.11 126.72C241.122 127.137 241.213 127.549 241.388 127.893C242.531 130.192 243.963 132.315 245.565 134.311C245.541 136.585 246.774 138.388 248.067 140.336C248.092 140.372 248.116 140.408 248.14 140.438C248.043 140.953 248.122 141.533 248.442 142.144C248.829 142.888 249.228 143.626 249.633 144.358C249.446 145.066 249.615 145.876 250.334 146.608C250.866 147.146 251.398 147.685 251.93 148.217C252.027 148.32 252.135 148.405 252.238 148.483C254.251 151.235 256.524 153.77 258.996 156.117C259.232 156.34 259.479 156.552 259.721 156.764C261.093 158.603 262.858 160.841 265.095 161.403C265.488 161.76 265.893 162.105 266.34 162.425C269.163 164.427 272.469 166.018 275.618 167.428C277.311 168.184 279.027 168.879 280.811 169.393C281.76 169.672 282.842 170.059 283.851 169.98C287.272 171.22 291.08 171.269 294.507 169.889C298.594 168.25 302.583 165.692 305.986 162.819C306.711 162.413 307.437 161.996 308.15 161.566C309.933 167.603 309.873 173.888 309.51 180.13C309.329 183.245 309.317 186.469 308.797 189.548C308.271 192.645 307.588 195.639 307.382 198.79C307.322 199.673 307.781 200.236 308.398 200.484C308.652 200.689 308.948 200.835 309.28 200.883C310.399 201.052 311.529 201.282 312.653 201.373C313.499 201.439 314.321 201.137 315.131 201.179C316.05 201.228 317.017 201.591 317.942 201.706C319.091 201.851 320.233 201.917 321.388 201.972C323.63 202.075 325.721 202.571 327.928 202.806C329.584 202.988 331.288 202.613 332.945 202.268C335.344 202.546 337.744 202.667 340.095 202.038C340.198 202.008 340.295 201.978 340.391 201.941C340.887 201.954 341.389 201.954 341.884 201.954C344.943 201.929 347.899 201.197 350.812 200.32C351.296 200.387 351.822 200.284 352.36 199.945C352.541 199.83 352.722 199.722 352.904 199.607C352.964 199.57 353.019 199.528 353.079 199.486C355.074 199.353 357.213 199.08 358.7 197.78C360.097 197.423 361.499 197.121 362.883 196.715C366.613 195.621 370.227 194.187 373.733 192.506C374.301 192.233 374.597 191.81 374.688 191.356C375.704 190.915 376.719 190.461 377.716 189.977C379.149 189.288 380.944 188.646 382.02 187.479C382.498 187.503 382.981 187.346 383.38 186.941C385.236 185.041 387.732 183.977 389.588 182.084C389.6 182.078 389.612 182.072 389.624 182.065C389.697 182.023 389.763 181.981 389.836 181.932C389.975 181.884 390.102 181.824 390.229 181.751C390.694 181.751 391.159 181.521 391.395 181.098C391.401 181.086 391.407 181.08 391.413 181.067C391.649 180.644 391.643 180.124 391.407 179.713C391.401 179.604 391.389 179.495 391.365 179.38C391.335 179.217 391.25 179.053 391.129 178.902C391.093 178.66 391.026 178.412 390.918 178.158C389.914 175.878 388.76 173.615 387.944 171.263C387.267 169.315 387.303 167.234 386.251 165.419C386.1 165.153 385.919 164.942 385.725 164.766C385.514 162.97 384.873 160.732 383.773 159.177C382.782 155.578 381.911 151.949 381.15 148.296C381.083 147.975 380.962 147.697 380.799 147.467C380.848 147.044 380.908 146.614 380.956 146.191C381.803 147.019 382.8 147.727 383.707 148.417C384.027 148.665 384.353 148.901 384.686 149.13C384.716 149.233 384.758 149.336 384.813 149.433C384.94 149.735 385.067 150.032 385.194 150.334C385.314 150.624 385.713 150.872 385.997 150.951C386.046 150.963 386.1 150.969 386.155 150.975C386.167 150.987 386.179 151.005 386.197 151.024C386.995 151.725 387.871 152.118 388.947 152.076C389.376 152.064 389.781 152.016 390.156 151.907C390.736 152.282 391.607 152.294 392.133 151.58C392.169 151.526 392.205 151.477 392.235 151.423C393.251 152.421 394.26 153.419 395.276 154.423C395.542 154.689 395.844 154.865 396.152 154.973C396.726 155.736 397.277 156.522 397.893 157.23C399.93 159.583 402.324 161.27 403.557 164.252C403.75 164.718 404.022 165.123 404.367 165.438C404.433 165.728 404.602 166.03 404.82 166.23C404.868 166.315 404.929 166.393 404.995 166.454C405.001 166.46 405.001 166.46 405.007 166.466L405.243 166.647C405.425 166.762 405.533 166.78 405.721 166.805C405.926 166.835 405.993 166.847 406.222 166.786C406.428 166.732 406.609 166.629 406.76 166.478C406.797 166.442 406.821 166.393 406.857 166.357C406.918 166.315 406.978 166.272 407.038 166.218C407.244 166.042 407.365 165.819 407.462 165.577C407.975 165.178 408.368 164.573 408.477 163.938C408.525 163.889 408.568 163.835 408.622 163.786C408.949 163.442 409.263 163.024 409.48 162.571C409.704 162.413 409.916 162.232 410.085 162.014C412.188 159.286 414.83 156.588 415.694 153.159C415.718 153.068 415.73 152.977 415.743 152.887C417.236 150.485 418.608 148.011 419.847 145.465C420.645 143.82 421.382 142.144 422.083 140.451C422.76 138.805 423.903 136.761 423.885 134.952C423.909 134.045 423.449 133.343 422.772 132.914Z" fill="white"/>
<path d="M191.956 157.471C201.827 173.083 207.345 191.332 207.345 211.172C207.345 266.977 162.132 312.221 106.365 312.221C50.5987 312.221 5.38562 266.983 5.38562 211.172C5.38562 155.36 50.5987 110.122 106.365 110.122C135.21 110.122 160.863 121.893 179.262 141.303" stroke="black" stroke-width="2" stroke-miterlimit="10" stroke-linecap="round"/>
<path d="M233.428 70.0076C246.665 29.7052 284.582 0.60498 329.288 0.60498C385.006 0.60498 430.171 45.8008 430.171 101.558C430.171 157.314 385.006 202.51 329.288 202.51C277.625 202.51 235.029 163.647 229.106 113.546" stroke="black" stroke-width="2" stroke-miterlimit="10" stroke-linecap="round"/>
<path d="M324.803 66.1304C324.029 70.0318 323.709 74.0239 323.866 77.9979C323.999 81.4517 324.513 84.9841 326.175 88.0145C327.837 91.0449 330.817 93.5188 334.262 93.8213C336.958 94.0572 339.6 92.9805 341.969 91.674C345.59 89.6779 349.12 86.7564 349.972 82.7098" stroke="black" stroke-miterlimit="10" stroke-linecap="round"/>
<path d="M354.27 74.4292C354.771 80.1936 356.494 85.7765 358.211 91.305" stroke="black" stroke-miterlimit="10" stroke-linecap="round"/>
<path d="M331.192 92.9866C333.344 97.3356 333.452 101.134 333.096 105.368" stroke="black" stroke-miterlimit="10" stroke-linecap="round"/>
<path d="M358.235 92.0491C368.656 94.4081 378.218 99.5374 387.533 104.782C399.864 111.725 416.262 123.357 424.465 134.892" stroke="black" stroke-miterlimit="10" stroke-linecap="round"/>
<path d="M333.096 105.368C329.934 105.108 325.993 106.657 323.171 108.096C312.224 113.685 301.302 120.363 294.435 130.567" stroke="black" stroke-miterlimit="10" stroke-linecap="round"/>
<path d="M294.072 131.081C292.066 133.882 290.089 135.049 287.206 136.93C286.178 137.602 285.066 138.219 283.845 138.321C281.482 138.515 279.438 136.785 277.722 135.152C266.781 124.772 256.463 113.746 246.834 102.138C244.912 99.8215 242.99 97.4565 240.548 95.7024C239.95 95.2729 239.279 94.8253 239.055 94.1237C238.94 93.7668 238.952 93.3797 238.97 93.0046C239.091 90.1618 239.218 87.3189 239.339 84.476C239.357 84.0828 239.375 83.6897 239.514 83.3207C239.684 82.8852 240.01 82.5344 240.294 82.1654C241.588 80.496 242.101 78.2519 241.672 76.1832C241.557 75.6328 241.334 75.0461 240.838 74.7981C240.083 74.4231 239.218 75.0158 238.632 75.6207C236.401 77.9192 234.902 80.9133 234.395 84.0707C234.304 84.6333 234.238 85.226 233.905 85.6857C233.44 86.3329 232.593 86.5507 231.85 86.8471C228.157 88.3109 226.162 93.0409 227.685 96.7125" stroke="black" stroke-miterlimit="10" stroke-linecap="round"/>
<path d="M234.933 81.5788C234.262 75.1611 232.896 68.8221 230.865 62.6948C230.647 62.0476 230.387 61.3459 229.795 61.0011C229.13 60.608 228.229 60.8257 227.649 61.3399C227.075 61.8601 226.767 62.6101 226.579 63.3662C226.265 64.6243 226.222 65.9369 226.253 67.2313C226.343 71.1085 227.045 74.9676 228.326 78.627" stroke="black" stroke-miterlimit="10" stroke-linecap="round"/>
<path d="M226.132 65.7553C226.047 63.3358 225.02 60.9587 223.315 59.2409C222.789 58.7086 222.118 58.2126 221.375 58.2731C220.075 58.3759 219.537 59.9849 219.41 61.2853C218.715 68.4167 220.813 75.4877 222.892 82.3408" stroke="black" stroke-miterlimit="10" stroke-linecap="round"/>
<path d="M213.178 76.7941C212.628 73.5701 212.078 70.8966 212.864 67.721C213.07 66.8803 213.396 66.0274 214.043 65.4528C214.69 64.8782 215.735 64.6846 216.424 65.2048C216.769 65.4649 216.98 65.8641 217.18 66.2512C217.99 67.8178 218.8 69.3844 219.61 70.951" stroke="black" stroke-miterlimit="10" stroke-linecap="round"/>
<path d="M294.387 131.571C295.813 137.952 297.639 144.291 300.558 150.147C303.478 155.996 307.558 161.367 312.901 165.135C312.998 161.905 313.771 158.705 315.15 155.784" stroke="black" stroke-miterlimit="10" stroke-linecap="round"/>
<path d="M220.335 90.1678C219.634 86.7382 218.074 83.5868 216.533 80.4838C215.753 78.9233 214.816 77.2115 213.221 76.7276C212.501 76.5099 211.607 76.6429 211.19 77.3083C210.99 77.6228 210.93 78.0099 210.888 78.391C210.452 82.2864 211.806 86.1333 213.136 89.7928C214.073 92.3816 215.016 94.9644 215.953 97.5532C216.509 99.0896 217.071 100.632 217.796 102.09C219.9 106.318 224.276 109.233 228.417 111.09" stroke="black" stroke-miterlimit="10" stroke-linecap="round"/>
<path d="M344.181 58.2246C344.762 62.5494 345.348 66.8682 345.928 71.193C346.69 70.3522 347.204 69.3179 347.832 68.3743C348.461 67.4247 349.259 66.5234 350.329 66.1544C351.399 65.7855 352.783 66.1302 353.272 67.1525C353.689 68.0295 353.363 69.0699 352.97 69.9591C352.245 71.6104 351.32 73.177 350.22 74.6044C349.99 74.9008 349.773 75.3787 350.087 75.5964C350.226 75.6932 350.413 75.6751 350.577 75.6448C351.532 75.4815 352.45 75.1004 353.242 74.55" stroke="black" stroke-miterlimit="10" stroke-linecap="round"/>
<path d="M354.548 74.9916C357.896 74.4593 360.592 71.2112 360.502 67.8178C360.477 66.9105 360.181 65.8823 359.365 65.4951C360.961 65.725 362.502 64.7149 363.548 63.487C365.222 61.5212 366.063 58.7267 365.247 56.2709C364.431 53.8212 361.723 52.0066 359.214 52.6296C360.876 51.7646 361.777 49.7686 361.608 47.8995C361.439 46.0305 360.332 44.3308 358.882 43.1513C357.268 41.8448 355.128 41.0947 353.079 41.4395C351.03 41.7843 349.156 43.3448 348.721 45.3772C347.796 42.6069 345.505 40.2479 342.664 39.5765C339.823 38.9051 336.547 40.1451 335.127 42.6976C333.706 45.2502 334.553 48.9157 337.097 50.3371C336.305 49.9803 335.616 49.4419 334.97 48.8673C333.271 47.3491 331.814 45.4861 329.789 44.4457C327.764 43.4053 324.851 43.5323 323.672 45.4861C322.536 47.3612 323.564 49.7988 324.869 51.559C322.893 50.0891 319.786 51.1235 318.553 53.2586C318.027 54.172 317.791 55.3575 318.317 56.2769C319.127 57.6802 321.152 57.6984 322.451 58.6601C321.877 59.6037 320.668 59.9848 319.568 59.9606C318.462 59.9364 317.398 59.5795 316.304 59.392C316.05 59.3497 315.79 59.3134 315.549 59.392C315.144 59.513 314.884 59.9062 314.726 60.2993C314.134 61.7812 314.642 63.5535 315.724 64.733C316.806 65.9125 318.359 66.5597 319.931 66.85C323.533 67.5154 327.74 66.0879 329.3 62.7672C331.18 63.862 333.573 63.8015 335.598 63.0031C337.617 62.2047 339.316 60.7409 340.784 59.138C341.201 58.6843 341.625 58.2004 342.193 57.9645C342.761 57.7226 343.523 57.8133 343.849 58.3395" stroke="black" stroke-miterlimit="10" stroke-linecap="round"/>
<path d="M228.151 111.054C235.15 124.367 243.304 137.069 252.486 148.979C255.315 152.645 258.265 156.268 261.837 159.22C264.992 161.827 268.576 163.865 272.209 165.74C278.435 168.946 285.386 171.789 292.265 170.482C297.959 169.4 302.716 165.643 307.225 162.002" stroke="black" stroke-miterlimit="10" stroke-linecap="round"/>
<path d="M307.799 161.337C309.045 164.071 309.323 167.137 309.468 170.138C309.933 179.779 309.147 189.475 307.147 198.917" stroke="black" stroke-miterlimit="10" stroke-linecap="round"/>
<path d="M418.964 128.849C415.682 134.202 412.025 139.374 407.407 143.626C402.656 148.005 396.799 151.368 390.416 152.348C389.642 152.469 388.826 152.548 388.089 152.288C387.454 152.064 386.934 151.61 386.427 151.169C384.565 149.536 382.709 147.902 380.848 146.269C383.302 157.744 387.702 169.738 392.102 180.614" stroke="black" stroke-miterlimit="10" stroke-linecap="round"/>
<path d="M392.562 151.931C395.052 153.389 397.011 155.584 398.927 157.744C400.015 158.972 401.103 160.199 402.07 161.518C403.206 163.067 404.748 165.474 405.431 167.27" stroke="black" stroke-miterlimit="10" stroke-linecap="round"/>
<path d="M342.441 83.6836C341.848 84.8631 340.796 85.7704 339.612 86.3511C338.427 86.9257 337.109 87.1918 335.798 87.3128" stroke="black" stroke-miterlimit="10"/>
<path d="M321.073 59.501C320.753 59.6643 320.819 59.6643 320.928 59.6038C320.97 59.5736 321.007 59.5494 321.049 59.5191C321.055 59.5131 321.067 59.507 321.073 59.501Z" fill="black"/>
<path d="M364.951 56.7609C364.491 55.2972 363.506 53.906 362.122 53.1922C361.445 52.8414 360.707 52.6478 359.952 52.5329C360.012 52.4543 360.079 52.3757 360.139 52.291C360.157 52.2668 360.175 52.2365 360.193 52.2063C360.23 52.1518 360.26 52.0974 360.284 52.043C360.399 51.8071 360.502 51.5651 360.592 51.3171C360.617 51.2566 360.635 51.1962 360.647 51.1357C360.665 51.0752 360.671 51.0147 360.683 50.9482C360.713 50.7546 360.737 50.561 360.762 50.3675C360.895 50.0771 360.997 49.7747 361.046 49.442C361.161 48.698 361.215 47.9662 361.112 47.2222C361.003 46.4116 360.574 45.8189 360.127 45.1656C359.728 44.591 359.353 43.9619 358.833 43.4901C358.694 43.3631 358.531 43.2603 358.368 43.1756C357.165 41.9175 355.189 41.4759 353.436 41.4033C351.888 41.3368 350.873 42.2804 349.99 43.4175C349.555 43.9801 349.205 44.5849 348.957 45.2322C348.926 45.1596 348.896 45.0809 348.866 45.0084C348.66 44.5245 348.455 44.1373 348.123 43.726C348.014 43.593 347.899 43.478 347.766 43.3692C347.705 43.3208 347.639 43.2724 347.573 43.2179C347.536 43.1272 347.5 43.0425 347.458 42.9518C347.325 42.7159 347.161 42.486 346.974 42.2925C346.835 42.1534 346.678 42.0566 346.527 41.9477C346.448 41.7784 346.382 41.6029 346.303 41.4336C345.886 40.5686 345.282 39.8912 344.327 39.6129C343.577 39.3952 342.737 39.3347 341.963 39.2802C340.512 39.1774 338.971 39.4738 337.78 40.3448C337.496 40.5565 337.23 40.7864 336.982 41.0344C336.432 41.119 335.913 41.4094 335.689 41.9235C335.622 42.0747 335.562 42.226 335.508 42.3832C335.508 42.3832 335.502 42.3832 335.502 42.3772L335.471 42.48C335.248 43.0667 335.085 43.6655 334.982 44.2704C334.939 44.3672 334.891 44.4579 334.861 44.5607C334.782 44.8148 334.77 45.0688 334.825 45.3229C334.825 45.3713 334.843 45.4197 334.849 45.4681C334.819 46.2362 334.885 47.0165 335.066 47.8028C334.625 47.4399 334.166 47.1072 333.682 46.8048C333.338 46.5871 332.921 46.5266 332.516 46.575C332.352 46.3391 332.171 46.1092 331.935 45.9036C330.442 44.6091 328.653 43.6534 326.628 43.9982C324.773 44.3128 323.189 46.0548 323.394 47.9843C323.509 49.1154 324.053 50.053 324.736 50.9058C324.047 50.7546 323.316 50.7788 322.657 51.0328C322.216 50.9058 321.738 50.8937 321.285 51.0026C320.747 51.1296 320.324 51.426 319.907 51.7708C319.441 52.1518 319.054 52.6357 318.843 53.1862C318.807 53.2225 318.77 53.2527 318.734 53.2951C318.305 53.8515 318.178 54.529 318.377 55.2125C318.559 55.8295 318.94 56.398 319.441 56.8033C319.87 57.1481 320.324 57.4445 320.783 57.7469C320.958 57.8618 321.134 57.9767 321.321 58.0614C321.521 58.1582 321.793 58.2852 322.028 58.3336C322.27 58.388 322.542 58.4364 322.796 58.4122C322.808 58.4122 322.814 58.4062 322.826 58.4062C322.826 58.4122 322.826 58.4183 322.826 58.4183C322.258 58.5695 321.744 58.9385 321.267 59.3074C321.2 59.3558 321.14 59.4103 321.073 59.4587C321.079 59.4526 321.085 59.4526 321.091 59.4526C321.079 59.4587 321.061 59.4708 321.049 59.4829C321.043 59.4889 321.031 59.495 321.025 59.501C320.995 59.5252 320.958 59.5494 320.928 59.5615C320.898 59.5857 320.868 59.6038 320.844 59.622C320.819 59.6341 320.795 59.6522 320.777 59.6643C320.705 59.6583 320.632 59.6522 320.608 59.6522C320.3 59.6401 319.991 59.5917 319.683 59.5615C319.417 59.5312 319.157 59.501 318.891 59.4647C318.764 59.4466 318.625 59.4405 318.498 59.4163C318.492 59.4163 318.48 59.4163 318.474 59.4103C317.592 59.2893 316.649 58.9748 315.815 59.4466C314.781 60.0272 314.575 61.3217 314.89 62.3741C315.113 63.1302 315.561 63.7472 316.074 64.3339C316.903 65.2896 317.906 66.203 319.169 66.5175C319.441 66.584 319.731 66.584 320.003 66.5296C320.995 66.8744 322.034 67.0498 323.068 67.0135C325.516 66.9288 328.46 65.6707 329.137 63.106C329.167 63.1 329.191 63.0939 329.221 63.0879C329.276 63.0939 329.638 63.0697 329.632 63.0697C329.916 63.0637 330.201 63.0697 330.485 63.0758C330.491 63.0758 330.491 63.0758 330.497 63.0758C330.624 63.2209 330.769 63.348 330.944 63.4508C331.095 63.5173 331.246 63.5778 331.397 63.6444C331.736 63.7351 332.074 63.7351 332.407 63.6444L333.265 63.5113C333.513 63.4508 333.731 63.3359 333.912 63.1726C333.948 63.1484 333.978 63.1181 334.009 63.0879C334.051 63.0939 334.099 63.0939 334.142 63.1C334.498 63.1423 334.837 63.1 335.193 63.0334C335.755 62.9306 336.293 62.6524 336.807 62.4165C337.164 62.2532 337.539 62.0959 337.853 61.866C338.246 61.5818 338.524 61.3338 338.79 60.9224C338.838 60.8499 338.88 60.7652 338.917 60.6744C339.189 60.4748 339.461 60.2752 339.709 60.0393C340.337 59.4345 340.845 58.7147 341.365 58.013C341.365 58.013 341.365 58.007 341.371 58.007C341.425 57.9767 341.48 57.9465 341.534 57.9163C341.588 57.8921 341.643 57.8558 341.697 57.8255C341.715 57.8195 341.727 57.8195 341.758 57.8074C341.939 57.7469 342.12 57.7106 342.308 57.6743C342.35 57.6743 342.398 57.6683 342.441 57.6622C342.67 57.7045 342.906 57.7287 343.148 57.6985C343.269 57.6804 343.384 57.6683 343.499 57.6441C343.553 57.7045 343.595 57.7771 343.656 57.8376C343.716 57.8981 343.789 57.9465 343.849 58.0009C343.825 58.2247 343.843 58.4606 343.928 58.6965C344.26 59.6159 344.623 60.5232 344.998 61.4245C344.84 61.5273 344.732 61.7148 344.792 61.9326C345.27 63.7048 345.584 65.5074 345.753 67.3341C345.747 67.4066 345.735 67.4792 345.723 67.5579C345.705 67.6244 345.699 67.6849 345.699 67.7575C345.638 68.1506 345.554 68.5498 345.445 68.9853C345.173 70.0439 346.605 70.6245 347.186 69.7172C347.458 69.2878 347.585 68.8099 347.609 68.32C347.984 68.0599 348.298 67.7272 348.606 67.3885C348.787 67.1889 348.981 66.9893 349.18 66.8078C349.289 66.711 349.398 66.6143 349.507 66.5175C349.549 66.4872 349.585 66.4509 349.628 66.4207C349.64 66.4147 349.712 66.3602 349.736 66.3421C349.827 66.2755 349.924 66.2211 350.014 66.1546C350.268 66.0759 350.522 65.9973 350.782 65.9368C350.818 65.9308 350.843 65.9247 350.861 65.9187C351.29 66.0699 351.689 66.1122 352.16 66.0275C352.656 66.3542 353.115 66.7231 353.526 67.1586C353.49 67.5821 353.454 68.0115 353.418 68.4349C353.399 68.6587 353.381 68.8765 353.357 69.1003C352.722 70.8181 351.955 72.4875 351.03 74.0844C351.012 74.1146 351.006 74.1449 350.994 74.1751C350.867 74.2961 350.728 74.411 350.607 74.538C350.347 74.8102 350.51 75.397 350.945 75.3486C351.707 75.2639 352.402 75.0098 353 74.5683C353.46 74.9494 354.082 75.1066 354.711 74.9554C356.367 74.5622 357.836 73.4372 358.658 71.9432C358.682 71.8948 358.7 71.8403 358.725 71.7919C358.773 71.7194 358.821 71.6528 358.864 71.5802C359.075 71.3504 359.293 71.1266 359.492 70.8846C360.345 69.8201 360.725 68.689 360.502 67.322C360.393 66.6687 360.109 66.0578 359.758 65.4832C360 65.4227 360.242 65.3622 360.478 65.2836C362.255 64.6545 363.56 63.3661 364.394 61.6846C365.162 60.1603 365.476 58.4364 364.951 56.7609Z" fill="black"/>
<path d="M143.467 177.299C145.697 182.876 145.401 189.409 142.675 194.762C139.949 200.115 134.841 204.192 129.02 205.661" stroke="black" stroke-miterlimit="10" stroke-linecap="round"/>
<path d="M128.64 205.444C127.509 208.976 128.797 214.335 128.676 217.717" stroke="black" stroke-miterlimit="10" stroke-linecap="round"/>
<path d="M127.697 217.154C130.943 217.577 134.152 216.174 136.854 214.408C144.488 209.43 149.445 201.627 154.172 194.066C157.17 189.263 160.174 184.467 163.172 179.664C170.166 168.474 177.304 156.915 179.287 144.043" stroke="black" stroke-miterlimit="10" stroke-linecap="round"/>
<path d="M144.355 175.636C142.965 178.811 139.695 180.838 136.328 181.648C132.961 182.459 129.444 182.229 125.98 182.054C125.388 182.023 124.765 182.005 124.245 182.295C123.725 182.586 123.411 183.142 123.157 183.687C122.311 185.483 121.785 187.431 121.61 189.409C120.353 187.334 116.937 187.34 115.396 189.209C113.855 191.078 114.211 194.078 115.868 195.845C117.524 197.611 120.177 198.216 122.565 197.804C121.821 206.95 113.516 214.85 104.359 215.128C100.641 215.243 96.924 214.257 93.2308 214.662C90.6558 214.946 88.2078 215.896 85.6933 216.513C81.178 217.626 76.4028 217.668 71.8634 216.634" stroke="black" stroke-miterlimit="10" stroke-linecap="round"/>
<path d="M144.555 174.335C141.43 169.666 138.184 164.869 133.475 161.802C126.506 157.26 117.524 157.278 109.297 158.53C104.443 159.268 99.5474 160.423 95.4008 163.048C86.5456 168.662 82.4836 180.063 73.3443 185.211C70.3221 186.917 66.9371 187.818 63.6549 188.937C55.8877 191.598 48.4953 195.657 42.7288 201.506C36.9623 207.349 32.9185 215.085 32.3262 223.275" stroke="black" stroke-miterlimit="10" stroke-linecap="round"/>
<path d="M48.6645 293.936C56.4861 280.944 67.6806 262.701 74.7587 249.285C73.036 250.96 70.4308 251.19 68.1641 251.982C66.5321 252.557 65.0331 253.452 63.5521 254.335C58.4868 257.366 53.3671 260.438 49.2145 264.636C44.7476 269.155 40.2747 278.802 37.8992 284.694" stroke="black" stroke-miterlimit="10" stroke-linecap="round"/>
<path d="M196 138.503C198.502 136.67 199.566 133.495 200.412 130.507C201.748 125.801 202.891 121.004 203.078 116.123C203.265 111.242 202.449 106.227 200.056 101.963C199.548 101.056 198.811 100.088 197.771 100.039C196.78 99.997 195.939 100.862 195.667 101.818C195.395 102.773 195.559 103.79 195.728 104.763C196.314 108.193 196.894 111.623 197.481 115.052" stroke="black" stroke-miterlimit="10" stroke-linecap="round"/>
<path d="M195.323 104.933C194.755 101.564 193.612 98.2913 191.962 95.3032C191.206 93.9362 190.022 92.4543 188.468 92.5995C187.362 92.7023 186.48 93.6701 186.184 94.7407C185.887 95.8113 186.075 96.9545 186.383 98.0191C186.963 100.039 187.961 101.908 188.789 103.838C190.149 107.032 191.043 110.395 191.932 113.752C192.004 114.024 192.077 114.302 192.149 114.574C192.18 114.683 192.21 114.792 192.234 114.901" stroke="black" stroke-miterlimit="10" stroke-linecap="round"/>
<path d="M186.111 95.7689C186.19 94.299 185.712 92.7203 184.533 91.8372C183.361 90.9541 181.433 91.069 180.629 92.303C179.837 93.5188 180.375 95.1216 180.931 96.4645C183.276 102.12 185.621 107.782 187.967 113.437" stroke="black" stroke-miterlimit="10" stroke-linecap="round"/>
<path d="M181.052 97.3355C180.858 96.2406 180.514 94.9704 179.48 94.5833C178.295 94.1417 177.032 95.2366 176.645 96.4403C175.986 98.4787 176.887 100.644 177.624 102.652C178.845 105.961 179.661 109.409 180.441 112.85" stroke="black" stroke-miterlimit="10" stroke-linecap="round"/>
<path d="M186.111 119.268C184.128 115.863 181.3 112.959 177.951 110.891C176.827 110.195 175.575 109.572 174.252 109.626C172.928 109.681 171.562 110.612 171.447 111.931C171.314 113.516 172.855 114.647 174.076 115.663C178.181 119.062 180.175 124.482 180.562 129.799C180.949 135.116 179.903 140.42 178.858 145.646" stroke="black" stroke-miterlimit="10" stroke-linecap="round"/>
<path d="M141.357 195.53C139.32 197.103 136.449 197.514 134.049 196.576" stroke="black" stroke-miterlimit="10" stroke-linecap="round"/>
<path d="M73.2355 217.154C67.1426 215.944 61.2371 219.664 56.335 223.487C41.8704 234.792 29.2253 249.067 22.0262 265.852" stroke="black" stroke-miterlimit="10" stroke-linecap="round"/>
<path d="M32.5558 223.42C32.0662 227.007 32.7855 230.637 33.5048 234.187C34.0549 236.897 34.6291 239.679 36.1584 241.984" stroke="black" stroke-miterlimit="10" stroke-linecap="round"/>
<path d="M145.051 174.783C144.966 174.577 144.887 174.366 144.791 174.166C144.724 173.96 144.621 173.773 144.482 173.603C144.319 173.192 144.083 172.793 143.763 172.418C141.998 170.349 140.312 168.111 138.299 166.278C137.833 165.855 137.362 165.468 136.872 165.099C136.83 164.549 136.576 164.004 136.207 163.605C135.675 163.036 134.932 162.782 134.201 162.589C133.771 162.171 133.3 161.802 132.774 161.488C132.635 161.337 132.49 161.185 132.357 161.034C132.073 160.714 131.74 160.629 131.426 160.683C130.187 159.794 128.374 159.316 127.122 159.074C126.566 158.972 126.004 158.905 125.43 158.875C124.995 158.482 124.366 158.282 123.78 158.355C121.58 157.338 118.787 157.514 116.242 158.04C116.043 157.98 115.831 157.949 115.626 157.961C115.239 157.98 114.882 158.095 114.532 158.24C113.921 158.155 113.365 158.209 112.797 158.385C112.597 158.3 112.362 158.264 112.084 158.294C109.696 158.585 107.26 159.05 104.909 159.752C104.504 159.419 103.918 159.353 103.47 159.867C103.464 159.879 103.452 159.885 103.446 159.891C103.216 159.879 102.981 159.927 102.763 160.024C102.473 160.157 102.213 160.327 101.971 160.52C98.3928 160.496 95.4431 162.425 93.2006 165.051C92.9951 165.141 92.8138 165.293 92.7049 165.504C92.6687 165.577 92.6324 165.655 92.5961 165.728C92.1851 165.655 91.7499 165.782 91.3872 166.224C88.8485 169.327 86.3763 172.496 83.8799 175.63C83.6442 175.648 83.4085 175.751 83.1969 175.974C81.9759 177.257 80.9242 178.684 80.0779 180.239C79.1229 180.668 78.2767 181.479 77.4365 182.15C76.2276 183.118 75.0549 184.134 73.9125 185.181C73.7433 185.138 73.5559 185.132 73.3443 185.187C71.1985 185.743 69.633 187.388 67.3784 187.83C66.4294 188.017 65.4864 188.066 64.5858 188.447C63.6247 188.852 62.8269 189.536 61.8779 189.959C61.358 189.886 60.8019 189.983 60.3667 190.286C60.3244 190.316 60.2882 190.346 60.2458 190.382C60.1431 190.389 60.0403 190.401 59.9376 190.419C55.7245 191.126 51.5961 193.897 48.3139 196.982C48.1689 196.994 48.0178 197.036 47.8667 197.115C44.6389 198.79 40.9517 202.056 39.5917 205.734C34.6291 211.462 31.6613 218.721 31.3288 226.475C31.3167 226.802 31.353 227.098 31.4316 227.364C31.0266 229.215 31.359 231.235 31.7943 233.104C32.5196 236.238 33.7043 239.268 35.2517 242.081C35.7897 243.06 37.186 242.365 37.0228 241.427C37.053 241.403 37.0832 241.379 37.1134 241.343C37.2766 241.149 37.4157 240.95 37.5486 240.738C37.6998 240.653 37.8509 240.538 37.9899 240.381C39.9544 238.191 41.8403 235.863 44.0646 233.927C44.0949 233.903 44.113 233.879 44.1372 233.848C44.3185 233.782 44.5059 233.679 44.6872 233.546C44.8383 233.437 44.9895 233.31 45.1466 233.177L45.1527 233.183C45.1708 233.165 45.1889 233.147 45.2071 233.123C45.6181 232.766 46.0533 232.342 46.4643 231.87C50.4839 228.09 55.4707 225.416 59.0067 221.116C59.7562 221.225 60.542 221.037 61.1646 220.42C62.2889 219.313 63.5038 218.751 65.0452 218.46C65.426 218.388 65.7403 218.261 66.0002 218.092C69.5786 217.499 73.1993 217.178 76.8562 217.166C79.8482 217.154 82.8221 217.311 85.79 216.894C88.8244 216.464 91.5746 214.825 94.5969 214.511V214.486C94.8266 214.468 95.0623 214.45 95.3162 214.414C95.5942 214.372 95.8421 214.287 96.0597 214.172C96.6823 214.444 97.3713 214.511 98.0423 214.378C98.0604 214.372 98.0725 214.366 98.0906 214.359C100.418 214.741 102.745 215.152 104.993 214.958C105.066 214.989 105.139 215.007 105.223 215.001C106.638 214.874 108.022 214.547 109.333 214.003C109.485 213.936 109.611 213.833 109.69 213.7C111.896 213.011 113.945 211.831 115.656 210.21C115.783 210.24 115.922 210.228 116.067 210.15C116.587 209.853 117.101 209.557 117.578 209.188C118.122 208.77 118.545 208.281 118.956 207.73C119.349 207.204 119.748 206.684 120.129 206.151C120.504 205.625 120.788 204.99 120.588 204.337C120.552 204.21 120.48 204.119 120.401 204.053C120.909 203.103 121.344 202.105 121.701 201.077C121.743 201.095 121.785 201.107 121.827 201.113C121.93 201.125 122.027 201.113 122.124 201.071C122.226 201.028 122.353 200.943 122.402 200.835C122.577 200.417 122.686 200 122.698 199.546C122.71 199.147 122.643 198.73 122.498 198.355C122.444 198.209 122.371 198.088 122.232 198.01C122.112 197.937 121.924 197.907 121.785 197.949C121.725 197.968 121.664 198.004 121.61 198.04C121.465 197.961 121.29 197.907 121.09 197.895C120.008 197.847 118.95 197.695 117.911 197.393C117.397 197.242 116.883 196.994 116.363 196.818C116.285 196.51 116.115 196.207 115.825 195.929C114.09 194.266 113.788 191.804 115.058 189.759C115.058 189.753 115.058 189.753 115.064 189.747C115.1 189.711 115.13 189.663 115.16 189.608C115.366 189.203 115.729 188.979 116.115 188.767C116.575 188.519 117.058 188.253 117.578 188.163C118.11 188.072 118.684 188.15 119.222 188.187C119.476 188.205 120.365 188.126 120.449 188.453C120.619 189.1 121.555 188.937 121.586 188.302L121.598 188.042C121.694 188.023 121.785 187.987 121.864 187.933C122.232 187.697 122.414 187.273 122.305 186.844C122.281 186.753 122.257 186.669 122.226 186.59C122.323 186.402 122.384 186.197 122.408 185.985C122.432 185.64 122.523 185.32 122.674 185.023C122.734 184.927 122.795 184.824 122.855 184.727C123.109 184.285 123.085 183.856 122.909 183.511C123.435 183.269 123.955 183.009 124.463 182.713C124.928 182.441 125.297 182.066 125.581 181.636C128.615 181.811 131.789 182.259 134.805 181.781C137.9 181.291 140.559 179.604 143.08 177.844C143.177 177.777 143.267 177.704 143.358 177.626C143.588 177.589 143.805 177.505 144.005 177.372C144.337 177.154 144.615 176.876 144.833 176.543C145.002 176.277 145.093 175.993 145.105 175.684C145.159 175.394 145.147 175.091 145.051 174.783ZM38.2377 218.515C38.3042 218.333 38.3647 218.152 38.4311 217.971C38.5037 218.007 38.5823 218.037 38.6548 218.061C38.5097 218.206 38.3707 218.364 38.2377 218.515Z" fill="black"/>
<path d="M45.4911 270.643C46.156 272.106 47.1594 273.389 48.1507 274.653C49.4261 276.286 50.7075 277.913 51.9829 279.546C52.7989 280.587 53.6452 281.657 54.8057 282.292" stroke="black" stroke-miterlimit="10" stroke-linecap="round"/>
<path d="M72.1958 250.815C71.6578 251.287 71.0533 251.656 70.4066 251.94C70.3038 251.904 70.195 251.879 70.0741 251.873C69.4213 251.849 68.8834 252.127 68.4058 252.527C68.0855 252.46 67.7228 252.509 67.348 252.738C67.2816 252.781 67.209 252.823 67.1425 252.865C66.8705 252.847 66.5864 252.92 66.3144 253.119C65.9034 253.416 65.4984 253.706 65.0874 254.003C64.2593 254.372 63.4675 254.801 62.8267 255.351C62.1618 255.605 61.509 255.89 60.8985 256.271C59.3995 257.208 57.9669 258.291 56.5404 259.362C55.2409 259.259 54.0199 260.414 52.9923 261.194C51.3361 262.447 49.5288 263.705 48.6342 265.646C48.6281 265.652 48.6282 265.664 48.6221 265.67C47.3165 266.275 46.5428 267.437 46.3373 268.737C45.8598 268.991 45.485 269.469 45.4608 270.074C45.3943 271.761 46.573 272.796 47.6973 273.891C48.5798 274.75 49.559 275.905 50.6168 276.788C50.4899 277.145 50.5261 277.556 50.8404 277.967C51.7411 279.147 52.6478 280.332 53.5484 281.512C54.2375 282.413 55.5431 282.583 56.208 281.512C58.6621 277.532 61.1161 273.558 63.5702 269.578C63.7999 269.203 63.8301 268.804 63.7274 268.447C65.0753 266.602 66.393 264.733 67.6986 262.852C67.6926 262.701 67.7228 262.549 67.7833 262.41C67.9223 262.084 68.1157 261.793 68.3152 261.503C68.5086 261.225 68.6778 260.934 68.8471 260.638C68.9075 260.529 68.974 260.414 69.0345 260.305C69.0103 260.257 68.9922 260.208 68.968 260.148C68.9619 260.118 68.9498 260.015 68.9378 259.936C68.9378 259.942 68.9378 259.948 68.9378 259.948C68.9196 259.791 68.9257 259.84 68.9378 259.936V259.93C68.9378 259.797 68.974 259.67 69.0405 259.555C69.0768 259.507 69.1191 259.452 69.1554 259.404C69.246 259.313 69.3609 259.247 69.4818 259.21C69.5483 259.204 69.6147 259.192 69.6812 259.186C69.6873 259.186 69.6933 259.186 69.6994 259.186C69.7175 259.162 69.7356 259.138 69.7538 259.108C69.7235 258.981 69.6752 258.86 69.6027 258.751C70.9687 256.495 72.3408 254.232 73.7069 251.976C74.2932 251.014 72.9936 250.119 72.1958 250.815Z" fill="black"/>
<path d="M152.141 196.546C151.585 209.654 152.872 225.423 155.423 238.294C147.432 243.823 139.58 249.551 131.879 255.479C126.276 271.502 130.634 289.139 135.542 305.386" stroke="black" stroke-miterlimit="10" stroke-linecap="round"/>
<path d="M41.3506 237.351C40.4923 238.512 41.9188 240.266 42.7288 241.464C46.8149 247.537 51.2032 253.404 55.8756 259.035" stroke="black" stroke-miterlimit="10" stroke-linecap="round"/>
<path d="M198.315 135.618C192.294 154.998 185.93 176.797 176.44 194.732C170.607 205.758 161.685 223.009 154.643 233.31" stroke="black" stroke-miterlimit="10" stroke-linecap="round"/>
<path d="M196.634 59.9667C194.652 57.5956 192.669 55.2185 190.693 52.8474C189.853 51.8433 188.136 51.9824 187.272 52.8474C186.28 53.8394 186.431 55.2608 187.272 56.2709C189.254 58.642 191.237 61.0191 193.213 63.3902C194.053 64.3943 195.77 64.2552 196.634 63.3902C197.626 62.3982 197.475 60.9708 196.634 59.9667Z" fill="black"/>
<path d="M173.55 76.0319C170.601 75.1065 167.651 74.181 164.701 73.2616C161.727 72.3301 160.452 76.9997 163.414 77.9252C166.363 78.8506 169.313 79.7761 172.263 80.6955C175.243 81.633 176.518 76.9634 173.55 76.0319Z" fill="black"/>
<path d="M215.469 49.4056C215.3 46.3087 215.131 43.2057 214.955 40.1088C214.786 37.0119 209.951 36.9937 210.12 40.1088C210.289 43.2057 210.458 46.3087 210.634 49.4056C210.803 52.5026 215.639 52.5207 215.469 49.4056Z" fill="black"/>
</g>
<defs>
<clipPath id="clip0">
<rect width="442" height="323" fill="white"/>
</clipPath>
</defs>
</svg>
