<svg width="313" height="280" viewBox="0 0 313 280" fill="none" xmlns="http://www.w3.org/2000/svg">
<g clip-path="url(#clip0)">
<path d="M134.698 268.874C209.089 268.874 269.395 208.685 269.395 134.437C269.395 60.1895 209.089 0 134.698 0C60.3062 0 0 60.1895 0 134.437C0 208.685 60.3062 268.874 134.698 268.874Z" fill="#FAE24C"/>
<path d="M312.09 121.049C311.985 120.208 311.638 119.535 311.149 119.016C310.74 116.117 310.021 113.045 308.609 110.628C307.136 108.106 304.695 105.578 301.735 105.071C299.109 104.626 296.18 105.046 294.068 106.684C293.901 106.653 293.734 106.623 293.554 106.61C292.935 106.561 292.297 106.629 291.684 106.746C291.455 106.437 291.201 106.14 290.897 105.887C290.842 105.844 290.786 105.8 290.724 105.757C290.353 105.287 289.832 104.904 289.139 104.663C288.941 104.595 288.736 104.533 288.538 104.472C288.476 104.163 288.358 103.866 288.185 103.588C287.882 103.075 287.473 102.673 286.965 102.37C286.104 101.944 285.72 101.851 284.779 101.746C284.283 101.69 283.769 101.789 283.28 101.888C282.679 102.005 282.06 102.444 281.62 102.939C281.199 102.982 280.778 103.044 280.357 103.136C280.004 103.217 279.694 103.334 279.428 103.483C277.614 103.39 275.904 103.167 274.084 102.914C273.923 102.772 273.6 102.5 273.353 102.376C273.142 102.271 272.733 102.092 272.51 102.024C272.486 102.018 272.461 102.012 272.43 102.005C272.269 101.968 271.662 101.888 271.495 101.882C271.47 101.882 271.439 101.876 271.414 101.876C271.179 101.876 270.708 101.956 270.479 101.999C270.454 102.005 270.43 102.005 270.399 102.018C270.256 102.055 269.928 102.216 269.947 102.203C269.804 102.265 269.631 102.321 269.482 102.401L269.457 102.419C269.228 102.599 268.999 102.772 268.77 102.951C268.745 102.976 268.727 102.994 268.702 103.019C268.429 103.272 268.225 103.569 268.083 103.903C268.045 103.878 268.014 103.853 267.977 103.829C267.321 103.378 266.596 103.068 265.828 102.908C265.711 102.821 265.593 102.741 265.469 102.673C265.172 102.512 264.856 102.351 264.528 102.283C263.803 102.141 263.332 102.098 262.608 102.29C262.28 102.376 261.958 102.512 261.667 102.685C261.072 103.038 260.719 103.433 260.347 104.008C260.242 104.169 260.162 104.342 260.1 104.515C258.18 106.208 256.799 108.687 254.303 109.905C254.099 110.004 253.894 110.084 253.69 110.17C252.681 110.164 251.646 110.282 250.693 110.381C249.33 110.523 247.999 110.733 246.698 111.116C247.41 109.627 246.054 107.581 244.388 107.692C242.01 107.846 239.768 108.378 237.452 108.885C236.374 109.12 235.315 109.225 234.256 109.287C233.012 108.879 231.798 108.804 230.386 109.169C230.225 109.212 229.729 108.545 229.153 108.786C228.144 109.002 227.351 109.447 226.676 110.022C225.958 110.381 225.258 111.53 224.998 111.771C224.403 110.634 222.936 110.078 221.567 110.739C219.598 111.691 217.665 112.705 215.789 113.83C214.067 114.862 212.389 116.358 210.444 116.939C210.506 116.71 210.537 116.487 210.512 116.277C209.701 109.713 209.553 102.537 206.964 96.3744C206.109 94.3409 203.483 94.3656 202.431 95.5833C202.344 95.5585 202.263 95.5215 202.164 95.5029C199.124 94.9404 196.318 95.2433 193.593 95.9294C193.575 95.8243 193.556 95.7254 193.537 95.6204C192.85 91.8994 186.434 92.6967 186.849 96.5228C186.868 96.6835 186.886 96.8442 186.899 97.0111C186.552 96.9555 186.168 96.9802 185.753 97.1223C182.043 98.3833 178.173 98.5502 174.469 99.638C174.246 99.6195 174.03 99.6318 173.819 99.6751C173.33 99.2053 172.803 98.785 172.24 98.408C171.156 97.691 169.453 98.1608 168.852 99.2981C168.251 100.435 168.536 101.678 169.471 102.469C169.255 102.648 169.05 102.877 168.852 103.211C168.784 103.328 168.735 103.452 168.691 103.569C168.121 104.354 167.923 105.374 168.208 106.635C168.642 108.526 170.574 108.767 171.868 107.976C171.868 109.503 171.93 111.036 172.011 112.563C170.351 110.807 166.728 112.099 167.775 114.72C169.013 117.823 169.341 121.043 169.8 124.325C169.998 125.74 170.116 127.23 170.592 128.534C170.549 128.497 170.5 128.454 170.456 128.417C170.425 128.398 170.4 128.38 170.369 128.355C170.215 126.804 168.741 125.827 167.168 125.747C166.821 125.561 166.474 125.363 166.14 125.129C165.985 124.962 165.818 124.807 165.644 124.671C165.681 123.41 164.895 122.112 163.266 122.1C163.186 122.1 163.111 122.106 163.025 122.106C162.498 121.853 161.922 121.71 161.359 121.71C158.906 120.919 156.677 122.038 154.652 123.781C153.921 124.412 153.735 125.166 153.89 125.852C153.364 126.909 153.072 128.077 152.973 129.307C152.856 130.778 154.008 132.076 155.364 132.533C155.475 134.326 155.81 136.155 156.28 137.861C155.766 138.127 155.296 138.566 154.943 139.215C154.534 139.957 154.268 140.544 154.138 141.385C153.89 142.992 154.701 144.494 155.896 145.242C155.903 145.266 155.909 145.291 155.915 145.316C155.971 145.538 156.057 145.736 156.15 145.928C155.438 147.182 154.714 148.431 153.964 149.667C152.521 152.047 154.367 154.297 156.485 154.661C156.051 155.582 155.618 156.497 155.178 157.418C154.175 159.544 155.426 161.529 157.079 162.276C157.284 163.111 157.866 163.754 158.628 164.143C158.528 165.892 159.934 167.333 161.52 167.685C161.761 168.031 162.065 168.321 162.393 168.563C160.554 168.859 159.018 170.386 159.891 172.593C160.114 173.155 160.331 173.724 160.547 174.286C160.157 174.311 159.773 174.397 159.414 174.533C159.154 174.533 158.888 174.57 158.634 174.626C157.451 171.956 153.116 173.038 152.391 175.98C151.79 176.517 151.357 177.278 151.258 178.261C151.208 178.724 151.171 179.182 151.14 179.645C149.703 179.923 148.391 180.986 148.273 182.841C148.23 183.471 148.211 184.102 148.205 184.726C147.424 185.072 146.793 185.777 146.557 186.908C146.39 187.718 146.229 188.521 146.062 189.331C145.678 189.739 145.393 190.258 145.263 190.888C144.6 191.624 144.235 192.65 144.452 193.874C144.569 194.523 144.656 195.178 144.737 195.827C144.489 197.038 144.241 198.244 144 199.455C143.356 199.097 142.687 198.782 141.962 198.54C139.931 197.854 137.968 197.78 136.252 199.196C136.24 199.208 136.228 199.22 136.215 199.233C135.125 198.862 134.085 198.918 133.193 199.443C131.942 198.874 130.375 199.196 129.341 200.129C129.291 200.178 129.242 200.228 129.192 200.277C128.053 200.191 127.019 200.475 126.127 201.087C125.65 201.019 125.123 201.068 124.541 201.285C106.383 208.01 85.061 218.678 76.2112 236.937C75.177 239.076 76.4465 241.066 78.1248 241.808C78.2921 242.246 78.5584 242.673 78.9795 243.056C82.0017 245.782 85.2282 248.236 88.6406 250.405C89.9535 251.567 91.2602 252.736 92.5731 253.898C92.8456 254.139 93.1552 254.324 93.4835 254.466C93.7188 254.986 94.0842 255.455 94.5858 255.82C99.1439 259.077 104.036 261.766 109.183 263.985C110.917 264.733 112.669 265.438 114.441 266.105C115.976 267.1 117.729 267.811 119.376 268.54C121.364 269.418 123.365 270.185 125.452 270.716C127.186 271.643 128.87 272.669 130.821 272.978C131.961 273.158 133.577 273.547 135.125 273.702C136.463 274.184 137.801 274.672 139.138 275.154C139.603 275.321 140.036 275.383 140.439 275.358C140.476 275.383 140.513 275.408 140.556 275.426C141.882 276.125 143.058 276.489 144.483 276.551C150.112 277.738 155.94 277.849 161.52 279.444C162.721 279.784 163.718 279.493 164.443 278.888C165.087 279.147 165.756 279.363 166.443 279.475C167.1 279.586 167.768 279.679 168.437 279.679C168.673 279.679 168.908 279.672 169.137 279.648C170.338 280.105 171.887 279.648 172.779 278.714C172.785 278.714 172.791 278.721 172.797 278.721C173.101 278.764 173.404 278.801 173.701 278.844C174.017 278.844 174.314 278.801 174.612 278.721C182.359 279.166 190.323 278.467 197.65 276.057C201.842 275.655 206.128 274.499 209.8 273.442C216.439 271.532 222.837 268.738 229.265 266.229C230.392 265.79 231.067 264.955 231.37 264.022C231.432 263.985 231.494 263.954 231.569 263.905C232.244 263.639 232.919 263.373 233.594 263.107C234.857 262.613 236.12 262.125 237.371 261.599C239.39 260.746 241.044 259.652 242.79 258.342C245.144 256.58 247.881 255.356 250.135 253.589C250.569 253.453 250.996 253.224 251.399 252.884C259.301 246.208 266.887 239.731 273.576 231.807C279.682 224.575 285.138 216.824 289.355 208.337C289.727 207.596 289.808 206.866 289.696 206.205C290.018 204.239 289.777 201.909 289.845 200.253C289.987 196.797 290.13 193.336 290.278 189.881C290.309 189.114 290.123 188.49 289.801 187.996C290.879 180.43 291.294 172.605 291.102 165.008C293.542 158.135 296.607 151.478 300.267 145.124C300.893 145.198 301.512 145.217 302.094 145.174C304.64 145.007 306.56 143.665 307.872 141.558C309.13 139.549 310.554 138.004 310.672 135.513C310.678 135.346 310.672 135.191 310.666 135.043C312.381 130.63 312.616 125.308 312.09 121.049ZM220.13 149.228C219.79 150.94 219.542 152.659 219.368 154.389C218.619 157.48 217.362 160.527 216.328 163.438C214.711 167.994 212.977 172.512 211.268 177.037C208.531 184.275 205.862 191.531 203.713 198.961C203.434 199.115 203.18 199.319 202.969 199.585C202.79 199.808 202.616 200.036 202.437 200.265C200.907 199.863 199.34 199.604 197.761 199.511C196.931 199.27 196.101 199.029 195.278 198.788C194.764 198.639 194.2 198.442 193.618 198.244C192.082 189.195 190.435 180.164 188.645 171.159C188.595 170.918 188.521 170.695 188.441 170.491C191.872 169.014 195.08 167.153 197.544 164.372C197.718 164.18 197.835 163.976 197.934 163.772C199.867 162.184 201.65 160.428 203.192 158.413C207.707 152.529 210.593 144.308 210.135 136.823C210.296 136.656 210.444 136.471 210.574 136.236C210.735 135.933 210.859 135.618 210.965 135.296C211.026 135.309 211.095 135.302 211.163 135.309C211.615 135.735 212.234 135.995 212.903 136.05L215.597 136.273C216.142 136.316 216.736 136.415 217.3 136.372C219.498 139.71 220.935 143.449 221.164 147.479C220.663 147.881 220.285 148.456 220.13 149.228ZM269.08 168.593C267.643 177.908 266.218 187.229 264.763 196.544C264.069 200.976 263.184 205.284 261.821 209.567C261.159 211.644 260.453 213.715 259.908 215.829C259.802 216.231 259.728 216.892 259.648 217.609C253.343 213.14 246.568 209.549 239.273 206.86C239.26 206.619 239.254 206.384 239.242 206.143C239.279 205.809 239.279 205.457 239.217 205.086C239.167 204.777 239.118 204.474 239.068 204.165C238.944 203.405 238.591 202.836 238.108 202.441C239.217 193.268 240.084 184.065 241.155 174.978C241.273 174.002 241.013 173.254 240.542 172.716C240.617 172.531 240.685 172.333 240.728 172.11C241.428 168.909 241.787 165.695 241.781 162.456C243.05 159.019 243.992 155.471 244.363 151.911C244.735 148.332 244.01 144.908 242.685 141.681C243.174 141.65 243.645 141.533 244.054 141.317C247.782 141.576 251.95 142.911 255.3 143.974C257.226 144.586 259.004 145.254 261.029 145.476C262.831 145.668 264.596 145.439 266.119 146.564C266.324 146.719 266.534 146.836 266.739 146.935C267.575 154.099 268.361 161.263 269.123 168.433C269.098 168.482 269.086 168.538 269.08 168.593Z" fill="white"/>
<path d="M202.387 89.7421C201.842 87.2574 200.312 86.2746 198.498 85.5761C197.005 84.3399 195.135 83.4437 193.116 82.8812C192.806 82.6278 192.472 82.3867 192.1 82.1828C191.549 81.8799 191.01 81.713 190.484 81.645C187.592 80.0997 184.607 78.8636 181.362 79.2468C181.182 79.2653 181.009 79.2962 180.835 79.3333C178.439 78.6225 175.509 78.8883 173.144 79.29C169.929 79.834 166.499 81.1011 163.538 82.8936C160.528 83.456 157.903 85.3412 155.209 87.0719C152.732 88.6605 150.626 90.3046 149.059 92.468C147.084 94.2543 145.207 96.09 143.671 98.2781C142.061 100.577 141.12 103.359 140.036 105.93C139.906 106.245 139.838 106.567 139.813 106.888C139.28 108.05 138.791 109.206 138.333 110.319C136.085 115.814 134.902 121.587 134.53 127.502C134.493 128.095 134.567 128.627 134.71 129.09C132.988 135.179 131.589 141.36 130.536 147.615C130.431 148.239 130.449 148.82 130.567 149.358C130.437 149.605 130.22 150.056 130.177 150.131C130.053 150.353 129.954 150.588 129.867 150.823C129.78 150.891 129.687 150.947 129.601 151.021C124.745 155.199 119.834 159.47 115.499 164.192C112.248 167.734 109.709 171.727 108.848 176.351C105.491 186.283 120.156 190.517 127.65 191.284C130.344 191.562 134.332 192.502 137.453 191.896C140.426 192.118 143.405 192.279 146.39 192.335C148.954 192.378 151.53 192.557 153.939 191.568C156.968 190.32 160.157 189.022 162.281 186.685C163.613 186.24 164.647 185.09 165.217 183.694C166.827 179.769 166.982 175.85 166.616 171.69C166.437 169.619 166.251 167.549 166.071 165.478C165.91 163.63 166.09 161.201 165.378 159.464C165.235 159.118 165.056 158.772 164.851 158.438C165.322 157.369 165.551 156.003 164.771 154.773C159.977 147.232 161.389 144.512 159.717 140.241C159.742 140.062 159.754 139.876 159.754 139.691V139.549C159.779 138.955 159.655 138.399 159.383 137.88C159.209 137.342 158.912 136.879 158.485 136.489C158.095 136.069 157.624 135.766 157.091 135.593C157.073 135.587 157.06 135.581 157.042 135.574C157.005 135.525 156.974 135.475 156.937 135.432C156.689 135.111 156.416 134.82 156.125 134.561C154.769 132.039 154.732 129.338 155.289 126.55C155.407 126.439 155.525 126.321 155.636 126.179C156.751 124.807 157.952 123.614 159.488 122.705C160.33 122.211 160.875 122.032 161.848 122.1C162.287 122.174 162.727 122.248 163.167 122.322C163.575 122.471 163.842 122.526 163.978 122.489C164.43 123.076 165.018 123.447 165.644 123.633C165.774 123.942 165.892 124.263 165.978 124.597C166.127 125.184 166.381 125.648 166.691 126.019C166.691 126.575 166.684 127.125 166.66 127.681C166.573 129.449 168.294 131.173 170.066 131.081C170.121 131.081 170.177 131.075 170.233 131.075C171.354 131.019 172.673 130.487 173.175 129.393C173.199 129.344 173.224 129.288 173.243 129.239C173.651 128.349 173.744 127.372 173.503 126.494C173.54 123.342 173.119 120.215 172.753 117.081C172.71 116.704 172.623 116.339 172.493 115.993C172.797 115.418 172.983 114.738 172.976 113.935C172.97 111.332 173.187 108.613 172.722 106.035C172.258 103.464 171.335 100.924 170.623 98.4141C178.377 95.7686 187.035 95.8366 195.023 94.3532C195.129 94.3346 195.222 94.3037 195.321 94.279C197.996 96.5103 203.359 94.1739 202.387 89.7421Z" fill="black"/>
<path d="M167.106 126.723C166.846 122.458 162.015 120.14 158.312 121.84C154.417 123.633 152.912 128.491 154.373 132.354C155.203 134.536 156.764 136.409 158.876 137.453C159.941 137.985 160.888 136.384 159.811 135.852C156.113 134.023 154.41 129.171 156.733 125.617C157.773 124.028 159.656 122.804 161.619 123.12C163.409 123.404 165.137 124.838 165.248 126.723C165.322 127.91 167.18 127.916 167.106 126.723Z" fill="black"/>
<path d="M212.296 116.555C211.775 111.462 210.599 106.474 209.193 101.554C208.846 100.355 208.493 99.1557 208.128 97.9566C207.793 96.844 207.57 95.5337 207.025 94.5076C206.592 93.6917 205.595 93.2034 204.802 93.8772C204.152 94.4335 204.14 95.5028 204.932 95.9293C205.985 96.4979 206.92 94.897 205.867 94.3284C205.688 94.6436 205.508 94.9588 205.329 95.2741C205.378 95.3421 205.409 95.4162 205.434 95.4966C205.471 95.7129 205.576 95.954 205.638 96.158C205.768 96.5845 205.905 97.0171 206.035 97.4436C206.295 98.3028 206.561 99.1619 206.815 100.027C207.354 101.851 207.88 103.674 208.357 105.516C209.298 109.144 210.06 112.822 210.444 116.549C210.562 117.73 212.42 117.742 212.296 116.555Z" fill="black"/>
<path d="M211.367 117.482C212.562 117.482 212.562 115.628 211.367 115.628C210.172 115.628 210.172 117.482 211.367 117.482Z" fill="black"/>
<path d="M177.219 172.543C192.299 175.93 204.716 162.054 208.946 149.037C210.37 144.648 210.674 139.926 211.237 135.364C211.386 134.184 209.522 134.196 209.379 135.364C208.909 139.203 208.611 143.128 207.639 146.879C206.729 150.396 205.125 153.716 203.248 156.812C199.867 162.406 195.104 167.456 188.862 169.799C185.307 171.134 181.436 171.585 177.708 170.744C176.55 170.497 176.055 172.283 177.219 172.543Z" fill="black"/>
<path d="M188.366 171.325C189.555 176.647 190.508 182.025 191.183 187.433C191.518 190.072 191.629 192.749 192.026 195.376C192.187 196.457 192.645 197.391 193.586 198.003C194.391 198.522 195.407 198.8 196.336 199.029C198.59 199.585 200.913 199.789 203.185 200.234C204.356 200.463 204.851 198.676 203.681 198.448C201.811 198.083 199.915 197.873 198.045 197.508C197.141 197.329 196.237 197.125 195.376 196.81C194.949 196.649 194.466 196.47 194.193 196.087C193.883 195.66 193.84 195.06 193.791 194.554C193.326 189.51 192.725 184.491 191.865 179.503C191.369 176.604 190.793 173.717 190.155 170.843C189.901 169.663 188.105 170.157 188.366 171.325Z" fill="black"/>
<path d="M205.62 94.1307C203.235 95.4287 200.554 95.9294 197.891 96.3126C194.937 96.7391 191.97 97.1285 189.004 97.4561C183.009 98.1113 176.915 98.4141 170.933 97.487C170.109 97.3572 169.521 98.0804 169.886 98.8468C172.066 103.47 171.942 108.798 172.128 113.793C172.233 116.599 172.332 119.399 172.438 122.205C172.487 123.54 172.568 124.875 172.574 126.204C172.58 127.403 172.506 128.757 171.719 129.727C170.945 130.685 169.744 131.007 168.771 130.147C167.793 129.282 167.366 127.805 167.545 126.538C167.613 126.037 167.421 125.549 166.895 125.394C166.461 125.271 165.817 125.549 165.749 126.043C165.402 128.584 166.554 132.008 169.453 132.484C170.728 132.694 172.004 132.138 172.877 131.217C173.893 130.147 174.283 128.738 174.401 127.304C174.525 125.722 174.37 124.096 174.308 122.514C174.246 120.833 174.184 119.151 174.122 117.47C174.005 114.256 173.949 111.03 173.732 107.822C173.503 104.41 172.964 101.035 171.496 97.9197C171.15 98.3709 170.797 98.8283 170.45 99.2795C176.717 100.25 183.04 99.9779 189.32 99.2795C192.354 98.9457 195.383 98.5439 198.399 98.1051C201.229 97.6971 204.034 97.1099 206.567 95.7316C207.608 95.1567 206.673 93.5559 205.62 94.1307Z" fill="black"/>
<path d="M124.9 85.2115C124.058 89.668 127.631 93.4199 131.923 93.902C136.307 94.3965 140.562 91.8561 142.76 88.1537C144.835 84.6491 145.312 79.3581 142.03 76.3974C139.094 73.7519 134.635 73.6283 131.297 75.5506C129.266 76.7188 127.637 78.5237 126.442 80.514C125.315 82.3868 123.897 85.1374 125.284 87.2204C125.94 88.2093 127.55 87.2822 126.888 86.287C125.971 84.9087 127.21 82.8751 127.928 81.6513C128.77 80.2049 129.848 78.8575 131.192 77.8376C133.657 75.9647 137.026 75.4208 139.782 77.0341C142.853 78.8327 143.058 82.7886 141.862 85.8111C140.605 88.982 137.707 91.442 134.319 92.0045C132.338 92.3321 130.108 91.9488 128.572 90.589C127.21 89.3837 126.355 87.5356 126.702 85.706C126.913 84.5378 125.123 84.0371 124.9 85.2115Z" fill="black"/>
<path d="M236.17 130.327C234.114 126.661 235.786 122.415 237.694 119.077C239.31 116.24 241.242 112.482 244.506 111.264C245.732 110.807 247.745 110.677 248.024 109.064C248.352 107.173 245.825 106.437 244.394 106.363C242.506 106.27 240.511 106.789 238.684 107.21C236.684 107.673 234.727 108.285 232.857 109.126C229.141 110.795 225.784 113.576 224.094 117.34C223.611 118.422 225.209 119.368 225.698 118.274C227.073 115.208 229.587 112.896 232.529 111.339C234.281 110.411 236.164 109.762 238.078 109.262C239.843 108.804 241.713 108.341 243.54 108.223C244.277 108.18 245.057 108.192 245.738 108.526C245.775 108.545 246.209 108.885 246.209 108.712C246.209 108.65 246.166 108.712 246.116 108.761C245.906 108.996 245.354 109.101 245.063 109.175C243.534 109.571 242.233 110.238 241.044 111.283C239.849 112.334 238.889 113.638 238.016 114.967C237.037 116.463 236.102 118.008 235.291 119.603C233.464 123.206 232.473 127.533 234.56 131.26C235.148 132.305 236.758 131.371 236.17 130.327Z" fill="black"/>
<path d="M236.263 107.599C234.194 107.42 232.076 107.315 230.008 107.482C228.007 107.642 226.385 108.378 224.787 109.559C221.499 111.994 218.322 114.59 215.219 117.26C214.309 118.039 215.628 119.349 216.532 118.57C219.449 116.067 222.434 113.632 225.505 111.32C226.986 110.208 228.404 109.429 230.293 109.311C232.281 109.194 234.287 109.28 236.263 109.447C237.452 109.559 237.446 107.704 236.263 107.599Z" fill="black"/>
<path d="M225.133 109.305C221.653 108.23 218.488 110.727 215.813 112.6C214.221 113.712 212.624 114.831 211.032 115.944C209.601 116.945 207.935 117.884 206.864 119.306C204.92 121.896 205.681 125.444 207.36 127.947C208.276 129.319 209.422 130.512 210.561 131.705C211.874 133.083 213.193 134.462 214.506 135.846C216.853 138.313 219.622 140.736 219.851 144.358C220.074 147.93 218.649 151.515 217.559 154.853C215.268 161.831 212.605 168.674 210.06 175.566C207.205 183.292 204.505 191.092 202.671 199.134C202.405 200.296 204.195 200.79 204.461 199.628C207.632 185.715 213.392 172.605 218.061 159.167C219.207 155.861 220.427 152.517 221.213 149.105C221.963 145.847 222.031 142.429 220.167 139.524C219.3 138.17 218.173 137.002 217.07 135.84C215.788 134.499 214.506 133.151 213.224 131.81C211.075 129.554 208.214 127.168 207.651 123.942C207.341 122.186 207.886 120.641 209.248 119.498C210.834 118.169 212.667 117.062 214.358 115.876C216.048 114.689 217.714 113.434 219.467 112.346C221.015 111.382 222.792 110.529 224.638 111.098C225.784 111.45 226.273 109.657 225.133 109.305Z" fill="black"/>
<path d="M234.367 131.384C239.012 136.347 244.233 142.361 243.954 149.599C243.874 151.688 243.36 153.734 242.889 155.762C242.437 157.702 242.01 159.65 241.626 161.603C240.821 165.695 240.164 169.811 239.662 173.952C238.653 182.223 238.504 190.505 238.238 198.825C237.972 207.12 237.297 215.408 236.145 223.629C234.863 232.802 233.024 241.888 230.652 250.838C230.348 251.994 232.138 252.488 232.441 251.332C236.746 235.083 239.291 218.369 239.997 201.582C240.356 193.052 240.356 184.534 241.279 176.035C241.737 171.857 242.356 167.697 243.131 163.568C243.515 161.51 243.942 159.464 244.406 157.418C244.865 155.409 245.385 153.413 245.651 151.361C246.76 142.862 241.136 135.902 235.674 130.073C234.863 129.202 233.55 130.512 234.367 131.384Z" fill="black"/>
<path d="M127.662 152.98C130.796 150.743 131.768 146.867 132.511 143.301C133.539 138.387 134.326 133.448 135.057 128.485C136.413 119.294 137.794 109.769 142.383 101.536C146.359 94.4088 152.502 88.4379 159.705 84.5995C166.728 80.86 174.803 79.253 182.718 80.2666C187.338 80.8538 191.952 82.2817 196.151 84.2719C197.965 85.1311 199.743 86.1077 201.402 87.2388C202.765 88.1722 204.239 89.328 204.938 90.8671C205.26 91.5717 205.335 92.3134 205.149 93.0613C204.864 94.2234 206.654 94.7179 206.939 93.5558C207.868 89.7607 204.449 86.9669 201.607 85.1558C197.594 82.6093 193.128 80.7673 188.539 79.5558C180.34 77.3863 171.725 77.7139 163.774 80.7302C155.983 83.6909 149.208 88.8953 144.154 95.4967C138.289 103.155 135.794 112.377 134.233 121.747C133.372 126.915 132.728 132.113 131.818 137.268C131.415 139.53 130.963 141.792 130.455 144.036C130.04 145.872 129.539 147.739 128.548 149.364C128.071 150.143 127.477 150.848 126.727 151.379C125.761 152.065 126.69 153.672 127.662 152.98Z" fill="black"/>
<path d="M158.547 137.534C159.166 140.612 159.878 143.672 160.696 146.707C161.098 148.202 161.519 149.686 161.971 151.163C162.201 151.929 162.442 152.69 162.684 153.45C162.863 154.019 162.962 154.711 163.538 155.02C163.897 155.212 164.368 155.175 164.665 154.878C164.95 154.587 165.012 154.26 164.932 153.864C164.845 153.462 164.424 153.197 164.034 153.184C164.021 153.184 164.003 153.184 163.99 153.184C162.795 153.147 162.795 155.001 163.99 155.039C164.003 155.039 164.021 155.039 164.034 155.039C163.736 154.81 163.439 154.587 163.136 154.359C163.142 154.383 163.142 154.402 163.148 154.427C163.229 154.124 163.309 153.827 163.39 153.524C163.377 153.537 163.359 153.555 163.346 153.567C163.724 153.518 164.096 153.469 164.473 153.425C164.703 153.617 164.733 153.555 164.566 153.252C164.504 153.061 164.442 152.875 164.38 152.684C164.275 152.35 164.17 152.016 164.065 151.682C163.842 150.965 163.625 150.254 163.414 149.537C163.018 148.196 162.646 146.855 162.293 145.501C161.556 142.701 160.906 139.883 160.336 137.052C160.101 135.871 158.311 136.366 158.547 137.534Z" fill="black"/>
<path d="M126.287 152.004C119.692 157.529 112.564 163.395 108.699 171.276C106.879 174.991 105.826 179.478 107.64 183.397C109.25 186.877 112.824 188.743 116.329 189.825C118.255 190.419 120.237 190.82 122.206 191.234C124.665 191.754 127.13 192.267 129.607 192.693C134.462 193.54 139.398 194.109 144.334 193.898C149.009 193.701 153.66 192.811 157.965 190.938C161.748 189.294 165.241 186.759 166.932 182.884C168.598 179.07 168.524 174.793 168.016 170.732C167.434 166.096 166.356 161.553 165.402 156.985C165.148 155.774 164.913 154.562 164.702 153.339C164.498 152.164 162.708 152.665 162.913 153.833C163.712 158.419 164.894 162.932 165.675 167.524C166.319 171.301 166.901 175.294 166.17 179.101C165.823 180.906 165.173 182.63 164.108 184.145C162.968 185.77 161.358 187.025 159.655 188.02C155.952 190.177 151.654 191.333 147.412 191.809C138.24 192.835 129.006 190.888 120.101 188.886C116.794 188.144 113.14 187.192 110.724 184.645C107.938 181.716 108.229 177.519 109.535 173.983C111.121 169.706 114.155 165.936 117.264 162.66C120.472 159.285 124.039 156.287 127.6 153.302C128.517 152.547 127.198 151.243 126.287 152.004Z" fill="black"/>
<path d="M143.114 197.941C140.835 196.977 138.352 197.069 135.943 197.415C133.54 197.755 131.199 198.404 128.87 199.066C123.365 200.636 117.89 202.336 112.577 204.468C102.265 208.615 92.4618 214.469 84.7206 222.51C80.4412 226.954 76.8121 232.041 74.2483 237.66C73.759 238.736 75.3568 239.681 75.8522 238.593C80.274 228.908 87.7985 220.934 96.5616 215C105.634 208.85 115.754 204.87 126.22 201.767C128.926 200.963 131.645 200.135 134.419 199.56C136.841 199.06 139.801 198.54 142.173 199.548C142.637 199.746 143.164 199.684 143.443 199.214C143.684 198.819 143.579 198.139 143.114 197.941Z" fill="black"/>
<path d="M299.394 145.526C296.843 147.819 295.202 150.996 293.92 154.13C292.495 157.616 291.517 161.287 290.885 164.996C290.173 169.144 290.08 173.34 289.938 177.537C289.752 182.859 289.653 188.181 289.64 193.503C289.628 198.231 289.504 202.96 289.448 207.688C289.436 208.881 291.294 208.881 291.306 207.688C291.411 198.559 291.442 189.423 291.709 180.3C291.833 175.943 291.82 171.517 292.415 167.19C292.916 163.544 293.783 159.921 295.022 156.454C296.261 152.98 297.927 149.352 300.713 146.842C301.599 146.039 300.28 144.729 299.394 145.526Z" fill="black"/>
<path d="M265.091 145.81C265.395 146.725 265.494 147.726 265.624 148.672C265.84 150.273 266.014 151.88 266.175 153.481C266.522 156.954 266.819 160.434 267.005 163.92C267.277 168.909 266.509 173.952 265.878 178.891C264.874 186.796 263.599 194.665 262.143 202.502C260.496 211.354 258.607 220.168 256.309 228.871C254.266 236.603 251.968 244.354 248.717 251.678C248.37 252.457 248.017 253.224 247.645 253.99C247.125 255.06 248.729 255.999 249.249 254.924C252.687 247.828 255.096 240.237 257.201 232.66C259.641 223.895 261.623 215.007 263.345 206.075C264.911 197.972 266.262 189.819 267.37 181.641C267.804 178.433 268.2 175.226 268.522 172.005C268.733 169.879 269.005 167.722 268.937 165.577C268.838 162.35 268.553 159.124 268.262 155.91C267.977 152.739 267.717 149.531 267.141 146.397C267.073 146.033 267.005 145.662 266.887 145.303C266.509 144.191 264.719 144.673 265.091 145.81Z" fill="black"/>
<path d="M239 206.65C238.647 206.508 238.975 206.644 239.099 206.699C239.278 206.786 239.458 206.872 239.631 206.959C240.152 207.212 240.672 207.472 241.192 207.732C242.796 208.535 244.388 209.345 245.985 210.155C249.59 211.99 253.194 213.838 256.774 215.724C257.833 216.28 258.923 216.812 259.944 217.442C260.966 218.066 261.901 216.465 260.88 215.841C258.421 214.327 255.752 213.097 253.188 211.768C249.627 209.932 246.066 208.102 242.486 206.304C241.502 205.809 240.517 205.265 239.489 204.857C238.387 204.419 237.904 206.211 239 206.65Z" fill="black"/>
<path d="M142.246 199.727C142.983 199.987 143.776 199.808 144.154 199.078C144.463 198.485 144.569 197.823 144.6 197.162C144.655 195.938 144.612 194.696 144.612 193.472C144.612 192.99 144.185 192.52 143.683 192.545C143.181 192.57 142.754 192.953 142.754 193.472C142.754 194.48 142.754 195.493 142.748 196.501C142.748 196.723 142.748 196.94 142.736 197.162C142.729 197.286 142.723 197.416 142.705 197.539C142.723 197.378 142.686 197.632 142.68 197.663C142.655 197.786 142.618 197.904 142.587 198.021C142.55 198.126 142.544 198.139 142.581 198.058C142.568 198.089 142.556 198.114 142.537 198.145C142.482 198.238 142.488 198.238 142.556 198.151C142.649 198.065 142.748 198.015 142.866 198.003C142.983 198.021 142.989 198.015 142.878 197.99C142.828 197.978 142.779 197.959 142.729 197.941C142.271 197.78 141.695 198.126 141.584 198.59C141.478 199.109 141.757 199.554 142.246 199.727Z" fill="black"/>
<path d="M143.009 81.4164C142.984 81.0888 142.91 80.7489 142.773 80.4027C142.037 78.4742 140.736 76.8548 138.624 76.3233C138.191 76.212 137.77 76.1625 137.355 76.144C131.087 74.8336 124.597 82.3683 126.703 88.3886C127.892 91.7758 131.044 92.7338 134.351 92.3815C137.745 92.023 140.21 89.804 141.677 86.8124C141.776 86.6146 141.851 86.4168 141.925 86.2129C142.433 85.6504 142.811 84.9519 143.003 84.1422C143.232 83.2027 143.219 82.2817 143.009 81.4164Z" fill="black"/>
<path d="M205.732 90.8981C205.701 90.4283 205.583 89.9647 205.304 89.5197C204.759 88.6605 203.744 87.925 202.877 87.4552C202.071 87.0164 201.539 86.8619 200.901 86.2128C199.941 85.2239 198.95 84.6985 197.563 84.6058C196.225 84.5131 195.086 85.8049 195.086 87.0782C195.086 88.3515 196.009 89.2539 197.167 89.4888C197.204 89.5382 197.278 89.6062 197.396 89.7051C197.557 89.8967 197.73 90.0822 197.904 90.2614C197.91 90.2676 197.922 90.28 197.935 90.2861C197.606 90.3294 197.266 90.4592 196.919 90.6879C195.519 91.6274 193.395 91.442 191.754 91.5532C189.834 91.683 187.908 91.7387 185.982 91.7572C185.072 91.7634 184.434 92.1775 184.044 92.7524C180.755 92.8636 177.461 92.8327 174.166 92.6906C172.512 92.6226 171.726 93.9144 171.788 95.1939C171.298 96.4486 171.676 97.9815 173.373 98.2967C176.556 98.8963 179.758 99.1744 182.997 99.1806C185.549 99.1868 189.023 99.6195 191.345 98.4883C191.983 98.1793 192.33 97.6725 192.466 97.1038C192.534 97.0976 192.602 97.0914 192.67 97.0853C195.618 96.77 200.127 96.9122 202.92 95.1691C202.957 95.1691 202.988 95.1753 203.025 95.1691C203.843 95.1321 204.481 94.959 205.199 94.5819C206.821 93.7413 206.679 91.9674 205.732 90.8981Z" fill="black"/>
<path d="M202.374 198.738C201.105 204.283 198.572 209.45 196.293 214.623C193.983 219.865 191.66 225.1 189.301 230.323C184.582 240.757 179.702 251.116 174.407 261.265C171.422 266.983 168.3 272.638 165.012 278.189C164.405 279.221 166.009 280.155 166.616 279.122C172.493 269.189 177.825 258.948 182.841 248.557C187.845 238.198 192.533 227.69 197.178 217.17C199.754 211.329 202.727 205.482 204.158 199.227C204.436 198.065 202.64 197.57 202.374 198.738Z" fill="black"/>
<path d="M230.589 250.758C229.865 256.123 227.784 261.154 226.403 266.358C226.093 267.514 227.889 268.003 228.193 266.853C229.574 261.649 231.655 256.617 232.379 251.252C232.447 250.751 232.262 250.263 231.729 250.109C231.295 249.985 230.651 250.263 230.589 250.758Z" fill="black"/>
<path d="M280.926 111.728C281.644 111.067 282.338 110.381 283.019 109.676C283.186 109.503 283.292 109.262 283.292 109.021C283.292 108.792 283.193 108.52 283.019 108.366C282.84 108.205 282.611 108.081 282.363 108.094C282.121 108.106 281.88 108.186 281.706 108.366C281.031 109.07 280.332 109.75 279.613 110.418C279.254 110.751 279.254 111.4 279.613 111.728C279.997 112.08 280.548 112.08 280.926 111.728Z" fill="black"/>
<path d="M292.186 106.153C290.39 103.717 287.454 101.208 284.321 100.893C282.401 100.701 280.382 101.356 278.586 101.943C276.71 102.561 275.799 104.373 274.74 105.924C274.065 106.913 275.675 107.84 276.344 106.857C276.827 106.153 277.31 105.448 277.812 104.756C278.289 104.094 278.685 103.853 279.453 103.612C280.964 103.136 282.68 102.531 284.29 102.741C286.724 103.062 289.17 105.176 290.576 107.08C291.282 108.038 292.892 107.117 292.186 106.153Z" fill="black"/>
<path d="M277.471 102.178C276.183 101.727 274.876 101.338 273.551 101.016C272.207 100.689 270.962 100.386 269.754 101.251C267.636 102.766 265.735 104.651 264.057 106.635C263.289 107.543 264.596 108.86 265.37 107.945C266.875 106.165 268.54 104.527 270.38 103.093C270.758 102.796 271.123 102.481 271.625 102.5C272.207 102.524 272.832 102.747 273.396 102.889C274.603 103.192 275.799 103.557 276.975 103.965C278.109 104.36 278.592 102.568 277.471 102.178Z" fill="black"/>
<path d="M267.921 102.079C266.553 101.789 265.184 101.492 263.822 101.202C263.227 101.072 262.54 100.837 261.927 100.992C261.295 101.146 260.917 101.622 260.515 102.092C258.849 104.033 257.077 105.875 255.424 107.822C254.656 108.724 255.963 110.047 256.737 109.132C258.205 107.407 259.765 105.763 261.258 104.057C261.45 103.841 261.642 103.618 261.834 103.396C261.982 103.223 262.15 102.926 262.348 102.809C262.428 102.759 262.571 102.821 262.775 102.871C263.072 102.932 263.363 103 263.661 103.062C264.918 103.334 266.175 103.6 267.432 103.872C268.596 104.119 269.092 102.333 267.921 102.079Z" fill="black"/>
<path d="M295.635 105.683L278.784 109.256" stroke="black" stroke-width="2" stroke-miterlimit="10" stroke-linecap="round"/>
<path d="M271.594 143.783C276.478 143.783 280.437 136.081 280.437 126.581C280.437 117.081 276.478 109.379 271.594 109.379C266.709 109.379 262.75 117.081 262.75 126.581C262.75 136.081 266.709 143.783 271.594 143.783Z" stroke="black" stroke-width="2" stroke-miterlimit="10" stroke-linecap="round"/>
<path d="M271.328 146.972C278.161 146.972 283.701 137.699 283.701 126.26C283.701 114.82 278.161 105.547 271.328 105.547C264.494 105.547 258.954 114.82 258.954 126.26C258.954 137.699 264.494 146.972 271.328 146.972Z" stroke="black" stroke-width="2" stroke-miterlimit="10" stroke-linecap="round"/>
<path d="M243.02 140.859L268.702 146.471" stroke="black" stroke-width="2" stroke-miterlimit="10" stroke-linecap="round"/>
<path d="M210.196 116.753L188.75 121.482V129.764L217.009 137.151" stroke="black" stroke-width="2" stroke-miterlimit="10" stroke-linecap="round"/>
<path d="M266.955 106.882L244.258 111.19" stroke="black" stroke-width="2" stroke-miterlimit="10" stroke-linecap="round"/>
<path d="M300.279 142.578C305.163 142.578 309.123 134.876 309.123 125.376C309.123 115.876 305.163 108.174 300.279 108.174C295.395 108.174 291.436 115.876 291.436 125.376C291.436 134.876 295.395 142.578 300.279 142.578Z" stroke="black" stroke-width="2" stroke-miterlimit="10" stroke-linecap="round"/>
<path d="M300.007 145.767C306.841 145.767 312.381 136.494 312.381 125.054C312.381 113.615 306.841 104.342 300.007 104.342C293.174 104.342 287.634 113.615 287.634 125.054C287.634 136.494 293.174 145.767 300.007 145.767Z" stroke="black" stroke-width="2" stroke-miterlimit="10" stroke-linecap="round"/>
<path d="M298.137 145.804L276.846 144.797" stroke="black" stroke-width="2" stroke-miterlimit="10" stroke-linecap="round"/>
<path d="M305.934 143.4C305.934 217.646 245.627 279.382 171.237 279.382C96.8464 279.382 36.5391 219.191 36.5391 144.945C36.5391 70.6985 96.8464 10.5078 171.237 10.5078C231.402 10.5078 282.351 49.8747 299.642 104.212" stroke="black" stroke-width="2" stroke-miterlimit="10" stroke-linecap="round"/>
</g>
<defs>
<clipPath id="clip0">
<rect width="313" height="280" fill="white"/>
</clipPath>
</defs>
</svg>
