<svg width="55" height="55" viewBox="0 0 55 55" fill="none" xmlns="http://www.w3.org/2000/svg">
<path d="M33.9717 53.9258H21.0273C20.1375 53.9258 19.416 53.2043 19.416 52.3145V39.3701C19.416 38.4802 20.1375 37.7588 21.0273 37.7588H33.9717C34.8616 37.7588 35.583 38.4802 35.583 39.3701V52.3145C35.583 53.2043 34.8616 53.9258 33.9717 53.9258Z" fill="#1F99A7"/>
<path d="M33.9722 37.7588H27.5V53.9258H33.9722C34.8621 53.9258 35.5835 53.2043 35.5835 52.3145V39.3701C35.5835 38.4802 34.8621 37.7588 33.9722 37.7588Z" fill="#1A838E"/>
<path d="M43.6812 55H11.3203C10.4304 55 9.70898 54.2786 9.70898 53.3887C9.70898 52.4988 10.4304 51.7773 11.3203 51.7773H43.6812C44.571 51.7773 45.2925 52.4988 45.2925 53.3887C45.2925 54.2786 44.571 55 43.6812 55Z" fill="#1F99A7"/>
<path d="M43.6804 51.7773H27.5V55H43.6804C44.5703 55 45.2917 54.2786 45.2917 53.3887C45.2917 52.4988 44.5703 51.7773 43.6804 51.7773Z" fill="#1F99A7"/>
<path d="M53.3887 35.5835H1.61133C0.721445 35.5835 0 34.862 0 33.9722V1.61133C0 0.721445 0.721445 0 1.61133 0H53.3887C54.2786 0 55 0.721445 55 1.61133V33.9722C55 34.862 54.2786 35.5835 53.3887 35.5835Z" fill="#F3F3FF"/>
<path d="M53.3887 0H27.5V35.5835H53.3887C54.2786 35.5835 55 34.862 55 33.9722V1.61133C55 0.721445 54.2786 0 53.3887 0Z" fill="#EBEBFF"/>
<path d="M53.3887 42.0562H1.61133C0.721445 42.0562 0 41.3347 0 40.4448V33.9727H55V40.4448C55 41.3347 54.2786 42.0562 53.3887 42.0562Z" fill="#1F99A7"/>
<path d="M27.5 42.0562H53.3887C54.2786 42.0562 55 41.3347 55 40.4448V33.9727H27.5V42.0562Z" fill="#1F99A7"/>
<path d="M41.2163 26.0156C36.6815 26.0156 32.9922 22.3263 32.9922 17.7915C32.9922 13.2567 36.6815 9.56738 41.2163 9.56738C45.7511 9.56738 49.4404 13.2567 49.4404 17.7915C49.4404 22.3263 45.7511 26.0156 41.2163 26.0156Z" fill="white"/>
<path d="M41.2172 27.4929C35.8678 27.4929 31.5156 23.1408 31.5156 17.7913C31.5156 12.4418 35.8677 8.08984 41.2172 8.08984C46.5667 8.08984 50.9188 12.4419 50.9188 17.7913C50.9188 23.1407 46.5667 27.4929 41.2172 27.4929ZM41.2172 11.3125C37.6448 11.3125 34.7383 14.2189 34.7383 17.7913C34.7383 21.3637 37.6447 24.2703 41.2172 24.2703C44.7897 24.2703 47.6962 21.3639 47.6962 17.7913C47.6962 14.2188 44.7897 11.3125 41.2172 11.3125Z" fill="#1CADB5"/>
<path d="M21.8874 27.4935H5.70703C4.81715 27.4935 4.0957 26.772 4.0957 25.8821V21.8371C4.0957 18.6124 8.26646 16.1807 13.7973 16.1807C19.3281 16.1807 23.4989 18.6124 23.4989 21.8371V25.8821C23.4988 26.772 22.7773 27.4935 21.8874 27.4935Z" fill="#71CAD4"/>
<path d="M41.301 21.1997C41.2756 21.1997 41.2501 21.1992 41.2245 21.1979C40.7711 21.1764 40.3478 20.9646 40.0587 20.6147L37.5039 17.5222C36.9371 16.8361 37.0338 15.8206 37.7198 15.2537C38.4059 14.687 39.4215 14.7836 39.9883 15.4696L41.4145 17.1959L48.5711 10.0393C49.2003 9.41006 50.2206 9.41006 50.8499 10.0393C51.4791 10.6686 51.4791 11.6888 50.8499 12.3181L42.4402 20.7277C42.1374 21.0306 41.7273 21.1997 41.301 21.1997Z" fill="#343A40"/>
<path d="M13.7969 22.6394C12.907 22.6394 12.1855 21.918 12.1855 21.0281V17.792C12.1855 16.9021 12.907 16.1807 13.7969 16.1807C14.6868 16.1807 15.4082 16.9021 15.4082 17.792V21.0281C15.4082 21.918 14.6868 22.6394 13.7969 22.6394Z" fill="#1F99A7"/>
<path d="M13.797 19.4027C10.678 19.4027 8.14062 16.8651 8.14062 13.7463C8.14062 10.6274 10.678 8.08984 13.797 8.08984C16.916 8.08984 19.4534 10.6274 19.4534 13.7463C19.4534 16.8651 16.9159 19.4027 13.797 19.4027Z" fill="white"/>
</svg>
