<svg width="313" height="280" viewBox="0 0 313 280" fill="none" xmlns="http://www.w3.org/2000/svg">
<g clip-path="url(#clip0)">
<path d="M140.908 5.31374C131.785 5.54893 122.872 7.71011 114.705 11.6829C114.103 11.6193 113.457 11.7083 112.792 12.0261C112.407 12.2104 112.022 12.3821 111.637 12.5601C111.513 12.6045 111.389 12.6554 111.264 12.7126C107.078 14.7149 102.992 16.8316 99.0293 19.1834C94.7874 19.5013 91.0362 22.457 87.8439 25.0885C87.4091 25.4445 86.9806 25.8132 86.5521 26.1691C86.2664 26.2645 85.9745 26.398 85.6826 26.5887C79.4967 30.6377 73.9879 35.5321 69.2677 41.183C67.5846 41.8377 65.9761 43.3187 64.7774 44.4311C61.9143 47.0944 59.6598 50.2981 57.5295 53.6098C57.0886 53.756 56.6476 53.9911 56.2191 54.3407C51.4741 58.1864 48.5924 63.6656 45.7044 68.9923C42.3444 75.1834 38.9906 81.3746 35.6307 87.5657C33.4942 91.5003 39.3943 95.0345 41.5308 91.0935C44.6983 85.2583 47.8657 79.4231 51.0269 73.5816C51.8405 72.0751 52.6417 70.556 53.474 69.0686C54.4242 69.272 55.4862 69.0431 56.4551 68.1405C57.2749 67.3841 58.0326 66.5768 58.7406 65.7314C59.8151 65.3691 60.6411 64.5301 61.0075 63.3605C61.1255 62.9918 61.1814 62.6168 61.1876 62.2481C61.2063 62.2227 61.2187 62.1909 61.2373 62.1655C61.7839 62.6931 62.467 63.0617 63.1937 63.1571C62.9453 63.6402 62.6844 64.1169 62.4422 64.6064C60.7653 68.0261 64.9824 71.8209 67.8082 68.8461C70.3173 66.1955 72.3669 63.2588 74.1493 60.1632C74.907 59.9662 75.6337 59.5022 76.2113 58.6885C83.13 48.9442 91.0362 40.0134 99.7436 31.9026C100.526 31.178 100.83 30.3389 100.812 29.5317C103.389 27.0209 106.116 24.7199 109.016 22.635C109.47 22.5905 109.948 22.4443 110.432 22.1709C110.836 21.9485 111.208 21.6942 111.569 21.4272C120.419 15.7319 130.412 12.5664 140.902 12.2994C145.299 12.1977 145.311 5.20568 140.908 5.31374Z" fill="white"/>
<path d="M177.916 276.504C252.52 276.504 312.999 214.606 312.999 138.252C312.999 61.8975 252.52 0 177.916 0C103.312 0 42.834 61.8975 42.834 138.252C42.834 214.606 103.312 276.504 177.916 276.504Z" fill="#EE7D9F"/>
<path d="M278.884 179.238C274.63 174.884 269.798 171.134 264.835 167.663C264.277 167.276 263.711 166.875 263.146 166.475C261.513 164.816 259.73 163.309 257.799 162.025C256.395 161.085 254.799 160.029 253.128 159.648C247.123 155.904 240.688 152.847 233.925 152.421C232.503 151.906 231.068 151.563 229.844 151.372C226.168 150.794 220.255 148.486 218.28 144.628C218.1 143.782 217.814 142.994 217.398 142.123C217.237 141.786 217.038 141.52 216.827 141.303C216.883 139.263 217.044 137.235 217.392 135.252C217.498 134.991 217.585 134.705 217.622 134.388C217.665 133.987 217.709 133.587 217.752 133.18C217.802 132.722 217.727 132.322 217.585 131.966C217.678 131.807 217.765 131.654 217.833 131.521C217.932 131.33 218.044 131.101 218.168 130.847C221.404 131.629 224.832 130.606 226.609 127.389C228.565 123.842 227.46 119.247 224.062 117.098C221.435 115.439 217.715 115.566 215.728 117.893C214.939 117.861 214.144 117.924 213.355 118.09C213.107 118.141 212.883 118.217 212.684 118.312C212.312 117.721 211.796 117.27 211.2 116.984C211.268 116.882 211.33 116.78 211.399 116.679C212.206 115.465 211.92 114.282 211.163 113.481C211.908 110.227 212.38 106.979 211.33 103.648C210.952 102.447 210.07 101.836 209.113 101.697C208.362 100.87 207.12 100.527 206.058 100.832C205.747 100.724 205.412 100.66 205.089 100.654C204.735 99.7452 203.909 99.1794 203.008 99.0142C202.642 97.8446 201.66 96.8721 200.387 97.0373C200.052 97.0818 199.729 97.1454 199.418 97.228C198.698 96.2237 197.462 95.5118 195.63 95.3592C195.617 95.3592 195.605 95.3592 195.586 95.3592C195.611 93.4587 193.574 91.4373 191.357 92.5942C181.283 97.8255 177.513 111.371 176.675 122.094C176.228 127.796 178.873 132.074 183.618 134.877C185.891 136.218 188.432 137.566 191.028 138.208C190.338 141.977 189.605 145.74 188.866 149.503C187.307 149.796 185.848 150.571 184.637 151.645C181.289 152.154 178.078 153.082 174.836 154.156C170.948 155.44 167.011 156.788 163.583 159.114C156.533 163.894 150.888 171.115 145.031 177.274C144.696 177.624 144.485 178.005 144.367 178.387C144.255 178.507 144.149 178.641 144.05 178.794C139.932 185.061 136.299 191.627 133.163 198.435C131.399 200.596 130.231 203.202 129.008 205.916C128.014 208.116 126.685 209.927 125.48 211.98C125.02 212.762 124.573 213.589 124.294 214.459C124.263 214.567 124.225 214.733 124.194 214.923C121.201 211.841 118.381 208.58 115.953 205.001C112.792 200.348 110.233 195.257 107.525 190.318C105.538 186.695 103.556 183.078 101.569 179.455C101.581 179.137 101.55 178.794 101.438 178.425C98.9915 170.473 95.2216 162.845 91.9858 155.205C91.2716 153.514 90.5511 151.817 89.8369 150.126C90.9362 147.094 90.0729 143.897 88.9364 140.884C96.3333 141.081 103.73 141.297 111.127 141.475C114.767 141.564 118.4 141.615 122.039 141.5C125.865 141.38 129.803 140.725 133.579 141.602C136.634 142.314 138.162 138.214 136.175 136.606C136.225 136.39 136.249 136.167 136.237 135.951C136.138 134.4 136.032 132.849 135.933 131.298C136.026 130.993 136.082 130.656 136.069 130.262C135.895 125.025 135.703 119.774 135.355 114.549C135.361 114.511 135.374 114.479 135.38 114.441C137.218 105.796 136.33 96.2491 136.026 87.4646C135.914 84.2101 135.753 80.962 135.554 77.7138C135.566 77.663 135.579 77.6185 135.591 77.5676C136.268 72.6096 136.535 67.6516 136.579 62.6491C136.603 60.1828 136.585 57.7166 136.585 55.2566C136.585 53.5785 136.908 51.3792 135.61 50.0507C134.287 48.6968 132.306 48.7921 130.461 49.4977C127.753 48.2455 124.921 49.4469 121.865 49.7774C121.412 49.3007 120.766 48.9765 119.921 48.9574C112.885 48.7985 105.55 48.0103 98.594 49.4214C94.1099 48.6142 89.6444 48.5188 85.2969 49.5358C84.7752 49.5358 84.2473 49.5295 83.7256 49.5486C78.2726 48.932 72.8879 49.4087 67.5902 50.9025C65.7519 51.4237 65.1494 53.6802 65.9382 55.1613C65.0376 55.5427 64.1371 55.9304 63.2365 56.3118C61.1435 57.2017 60.7833 59.4264 61.8764 60.8058C61.8329 60.8503 61.7894 60.8884 61.746 60.9329C61.4541 61.238 61.2491 61.5685 61.1187 61.8991C61.0876 61.9054 61.0566 61.9181 61.0255 61.9245C59.7399 62.3059 59.1375 63.2657 59.0505 64.2827C59.0133 64.3018 58.9822 64.3145 58.945 64.3336C57.0507 65.3506 57.2619 67.4673 58.4419 68.6877C52.7281 79.9068 47.0266 91.1195 41.3252 102.339C41.2445 102.415 41.17 102.491 41.0954 102.58C40.0583 103.788 39.58 104.894 39.549 106.521C39.5117 108.415 41.3625 109.579 42.9462 109.318C42.7661 109.769 42.586 110.221 42.3997 110.665C41.5799 112.502 40.7539 114.333 39.934 116.17C39.1763 117.855 40.0396 119.444 41.2693 120.143C41.1203 120.492 40.965 120.836 40.816 121.185C40.5178 121.885 40.4992 122.571 40.6669 123.181C40.4495 123.658 40.2384 124.141 40.021 124.618C39.7042 125.317 39.667 125.997 39.816 126.607C39.7477 126.734 39.6732 126.862 39.6049 126.989C38.7105 128.667 39.5179 130.262 40.816 130.911C40.5924 131.438 40.5489 131.979 40.6421 132.481C40.0645 133.377 40.139 134.337 40.5924 135.106C40.2943 135.544 40.1576 136.072 40.1638 136.619C39.3937 138.087 40.0645 140.331 41.8345 140.884C43.7288 141.481 45.6851 141.583 47.6477 141.392C49.1631 141.856 50.6972 142.397 52.2126 142.339C54.8397 142.244 57.088 141.291 59.5847 141.214C60.7274 144.335 62.013 147.393 63.4601 150.393C63.9259 151.366 64.6526 151.804 65.4041 151.861C67.2673 156.12 69.0994 160.392 70.8943 164.682C71.0931 165.42 71.3912 166.132 71.8073 166.85C72.0743 167.307 72.3911 167.632 72.7265 167.867C72.8258 168.102 72.9314 168.344 73.0308 168.579C73.1426 168.833 73.273 169.049 73.4159 169.233C74.5276 173.244 75.7014 177.243 76.9497 181.209C77.2665 182.207 77.8689 182.798 78.5583 183.071C79.5644 188.722 82.2785 194.252 84.3032 199.503C86.8185 206.024 89.4332 212.502 92.1349 218.947C94.8179 225.348 97.5941 231.711 100.47 238.029C101.873 241.125 103.072 244.589 104.842 247.475C105.208 248.066 105.637 248.562 106.115 248.937C106.923 251.346 107.742 253.748 108.587 256.145C108.63 256.278 108.693 256.386 108.748 256.507C108.717 256.704 108.699 256.914 108.705 257.136C108.929 262.851 112.773 267.192 117.884 269.144C122.027 270.72 126.381 270.256 130.579 269.099C130.921 269.569 131.399 269.964 132.007 270.218C133.66 270.904 135.355 271.324 137.075 271.502C138.1 272.544 139.783 273.282 141.404 273.79C142.603 274.254 143.876 274.553 145.274 274.686C146 276.523 148.857 277.312 150.36 275.176C150.522 275.023 150.689 274.877 150.851 274.725C150.857 274.718 150.863 274.712 150.876 274.712C151.248 275.614 152.074 276.295 153.335 276.275C153.49 276.275 153.639 276.263 153.788 276.25C154.782 277 155.987 277.153 157.279 276.917C157.434 277.07 157.602 277.204 157.794 277.324C158.217 278.195 159.024 278.818 160.167 278.665C160.428 278.634 160.67 278.589 160.906 278.545C160.906 278.551 160.906 278.557 160.906 278.557C161.452 278.443 161.993 278.335 162.539 278.221C163.533 278.163 164.527 277.96 165.52 277.604C166.011 277.426 166.39 277.165 166.688 276.86C172.389 278.246 178.184 278.494 184.041 277.706H184.047C184.295 277.674 184.544 277.642 184.792 277.604C185.593 277.483 186.134 277.038 186.45 276.453C189.258 276.339 191.996 275.811 194.524 274.273C208.678 271.286 222.261 265.571 234.391 257.378C234.863 257.06 235.198 256.666 235.409 256.246C243.806 251.428 251.346 244.595 257.83 237.692C258.209 237.285 258.432 236.815 258.532 236.332C259.935 235.207 261.295 234.037 262.562 232.74C266.668 228.539 269.729 223.428 272.642 218.318C272.847 217.994 273.04 217.663 273.22 217.313C278.306 210.76 281.915 203.151 285.387 195.543C285.548 195.193 285.629 194.831 285.647 194.468C286.033 194.144 286.343 193.699 286.529 193.095C288.126 188.004 282.051 182.487 278.884 179.238ZM93.5012 207.569C93.5447 207.575 93.5882 207.588 93.6316 207.588C93.8987 208.357 94.172 209.126 94.4452 209.889C94.1285 209.12 93.818 208.344 93.5012 207.569ZM218.684 152.808C218.535 152.732 218.373 152.675 218.212 152.631C217.858 152.338 217.491 152.058 217.131 151.772C217.131 151.734 217.131 151.696 217.125 151.658C217.765 152.154 218.429 152.605 219.112 153.037C218.963 152.961 218.827 152.878 218.684 152.808Z" fill="white"/>
<path d="M189.643 91.6913C183.147 97.1769 178.551 104.957 176.738 113.373C175.825 117.619 175.408 122.272 176.47 126.524C177.005 128.679 177.998 130.688 179.483 132.322C180.967 133.955 182.861 135.163 184.793 136.174C187.159 137.413 189.656 138.564 192.308 138.932C195.003 139.307 197.674 138.869 200.164 137.775C201.264 137.292 200.313 135.652 199.226 136.129C197.189 137.025 194.91 137.356 192.705 137.076C190.451 136.79 188.32 135.837 186.296 134.82C184.488 133.911 182.694 132.881 181.234 131.438C179.83 130.046 178.893 128.317 178.365 126.397C177.284 122.501 177.657 118.166 178.458 114.25C179.24 110.411 180.613 106.718 182.513 103.311C184.7 99.3889 187.557 95.912 190.96 93.0389C191.885 92.257 190.563 90.9158 189.643 91.6913Z" fill="black"/>
<path d="M212.872 121.045C214.717 119.488 216.984 118.484 219.344 118.121C220.474 117.95 221.691 117.899 222.822 118.096C224.07 118.306 224.983 118.935 225.647 120.034C227.809 123.632 226.337 128.736 222.511 130.383C220.43 131.279 217.996 131.165 216.039 130.001C215.002 129.385 214.064 131.031 215.102 131.648C219.629 134.343 225.784 132.41 227.809 127.414C228.79 124.992 228.747 122.183 227.653 119.806C227.07 118.541 226.138 117.352 224.877 116.755C223.567 116.132 222.051 116.03 220.623 116.094C217.288 116.246 214.133 117.536 211.562 119.698C210.624 120.479 211.947 121.821 212.872 121.045Z" fill="black"/>
<path d="M216.97 132.404C216.647 134.266 216.454 136.148 216.442 138.035C216.429 139.752 216.442 141.57 217.162 143.159C217.833 144.633 219.001 145.86 220.044 147.068C221.218 148.422 222.447 149.693 223.864 150.774C224.826 151.511 225.752 149.852 224.801 149.127C223.596 148.206 222.547 147.081 221.547 145.93C220.597 144.843 219.522 143.75 218.883 142.434C218.218 141.061 218.286 139.377 218.305 137.883C218.324 136.211 218.479 134.552 218.765 132.912C218.976 131.711 217.181 131.196 216.97 132.404Z" fill="black"/>
<path d="M189.06 138.538C189.296 140.96 189.215 143.452 188.662 145.829C188.29 147.425 187.563 149.363 185.886 149.904C184.743 150.266 185.234 152.109 186.383 151.741C188.557 151.048 189.743 148.969 190.333 146.84C191.072 144.183 191.19 141.278 190.929 138.538C190.879 138.024 190.538 137.585 189.998 137.585C189.526 137.585 189.01 138.024 189.06 138.538Z" fill="black"/>
<path d="M296.542 141.112C296.542 217.466 236.062 279.364 161.459 279.364C86.9746 279.364 26.5633 217.656 26.377 141.468V141.112C26.377 137.591 26.5074 134.095 26.7558 130.643C26.8303 129.639 26.9173 128.641 27.0104 127.649C27.4203 123.295 28.029 118.998 28.824 114.771C30.122 107.887 31.9169 101.181 34.1776 94.7042C35.5563 90.7314 37.1152 86.8349 38.8356 83.0401C40.8479 78.597 43.0775 74.2874 45.5245 70.1176C46.7294 68.0517 47.9964 66.0177 49.3068 64.0218C51.729 60.335 54.325 56.7691 57.0764 53.3493C58.2626 51.8747 59.4737 50.4254 60.7158 49.0079C85.453 20.6901 121.425 2.86035 161.459 2.86035C236.062 2.86035 296.542 64.7591 296.542 141.112Z" stroke="black" stroke-width="2" stroke-miterlimit="10" stroke-linecap="round"/>
<path d="M224.051 150.761C226.417 151.797 228.914 152.109 231.454 152.395C234.019 152.687 236.541 153.151 239.019 153.895C243.931 155.37 248.552 157.696 252.993 160.277C261.346 165.127 269.072 171.076 275.954 177.935C279.829 181.8 283.444 185.944 286.741 190.343C287.462 191.302 289.083 190.355 288.35 189.383C282.431 181.488 275.581 174.363 267.917 168.235C264.072 165.165 260.054 162.33 255.862 159.781C251.496 157.13 246.962 154.709 242.174 152.948C239.41 151.937 236.565 151.174 233.659 150.761C230.765 150.354 227.721 150.304 224.995 149.115C223.902 148.638 222.952 150.285 224.051 150.761Z" fill="black"/>
<path d="M91.8376 151.735C92.7568 147.546 92.0923 143.096 89.8937 139.429C88.7882 137.585 87.3659 135.971 86.248 134.14C85.186 132.398 84.5463 130.46 83.7699 128.578C83.0495 126.836 82.1489 124.847 80.6273 123.684C79.9441 123.169 79.0684 122.857 78.2486 123.245C77.3481 123.665 77.0686 124.637 76.8202 125.54C75.6526 129.862 75.7954 134.585 77.2425 138.818C77.4226 139.34 77.6462 139.835 77.8263 140.357C78.0747 141.088 77.8574 141.475 77.5033 142.117C76.9506 143.128 76.4972 144.196 76.1743 145.302C75.5035 147.628 75.429 150.076 75.8637 152.459C76.0873 153.661 77.8822 153.152 77.6586 151.951C77.317 150.088 77.3729 148.169 77.8263 146.332C78.0437 145.454 78.3418 144.603 78.7331 143.795C79.1554 142.931 79.7889 142.111 79.8323 141.107C79.8696 140.21 79.4162 139.397 79.1243 138.583C78.7765 137.611 78.5033 136.613 78.2983 135.602C77.907 133.657 77.8077 131.661 77.9691 129.684C78.0437 128.737 78.1927 127.803 78.4039 126.875C78.5095 126.417 78.6151 125.953 78.7641 125.514C78.9318 125.012 79.0001 124.86 79.4846 125.203C80.795 126.125 81.5651 128.12 82.1551 129.557C82.8135 131.178 83.3787 132.85 84.2171 134.388C85.1549 136.117 86.4157 137.623 87.5212 139.231C89.9433 142.759 90.9743 146.986 90.0365 151.239C89.7757 152.421 91.5705 152.936 91.8376 151.735Z" fill="black"/>
<path d="M81.3237 124.388C79.0257 119.735 76.6967 115.076 73.5541 110.944C72.7964 109.953 72.0076 108.948 71.1195 108.071C70.3494 107.308 69.3557 106.813 68.275 107.149C67.244 107.467 66.4304 108.383 66.1199 109.425C65.7411 110.709 66.1075 112.082 66.5857 113.277C67.7223 116.099 69.2501 118.75 71.0574 121.172C71.7778 122.132 73.3926 121.184 72.666 120.212C70.9705 117.936 69.4985 115.457 68.3992 112.819C67.9583 111.752 67.2937 109.927 68.5234 109.126C69.5234 108.472 70.6723 110.366 71.2127 111.021C74.7714 115.298 77.2557 120.377 79.7151 125.361C80.2554 126.448 81.864 125.481 81.3237 124.388Z" fill="black"/>
<path d="M65.8334 125.209C65.7713 123.652 65.9763 121.726 67.3364 120.753C67.8457 120.384 68.504 120.149 69.1375 120.251C69.9822 120.384 70.5287 121.185 71.0628 121.789C73.4229 124.478 76.199 127.834 75.6525 131.731C75.7954 131.54 75.9382 131.349 76.081 131.158C75.1122 131.597 73.9508 132.112 72.8701 131.87C71.8454 131.642 71.3112 130.637 70.8517 129.773C69.7151 127.631 68.3488 125.825 66.4172 124.363C66.0073 124.052 65.3801 124.3 65.144 124.707C64.8646 125.19 65.0757 125.705 65.4794 126.01C66.5911 126.849 67.5662 127.904 68.3239 129.086C69.0257 130.18 69.4915 131.425 70.3362 132.417C71.2802 133.523 72.6465 133.968 74.0564 133.784C74.7333 133.695 75.3855 133.504 76.0189 133.243C76.3295 133.116 76.7456 132.995 77.0251 132.805C77.435 132.525 77.4785 132.125 77.5281 131.654C77.8511 128.635 76.4972 125.705 74.7644 123.353C73.87 122.132 72.8826 120.982 71.8702 119.863C70.9324 118.833 69.7896 118.191 68.386 118.369C65.0881 118.776 63.8584 122.228 63.9764 125.222C64.0199 126.436 65.8831 126.436 65.8334 125.209Z" fill="black"/>
<path d="M65.0564 124.37C63.1249 124.783 61.2306 126.111 60.7834 128.183C60.3239 130.313 61.2989 132.398 62.597 134.006C63.3112 134.89 64.1372 135.671 64.9011 136.504C65.6526 137.324 66.2054 138.265 66.8885 139.142C67.5469 139.994 68.4971 140.68 69.6026 140.655C70.6274 140.629 71.4534 139.968 72.0186 139.142C73.3663 137.184 73.2483 134.4 72.0434 132.41C71.4099 131.368 69.8014 132.328 70.4348 133.37C71.3043 134.801 71.5466 137.337 70.0933 138.519C69.2672 139.186 68.4598 138.163 68.0251 137.515C67.4165 136.612 66.7954 135.767 66.0563 134.972C64.6838 133.504 63.0628 132.105 62.6094 130.033C62.156 127.942 63.7087 126.588 65.5533 126.194C66.7271 125.959 66.2302 124.122 65.0564 124.37Z" fill="black"/>
<path d="M62.9569 132.602C60.8702 131.267 58.2306 132.532 57.6841 134.928C57.3984 136.187 57.5661 137.509 57.7586 138.761C57.9698 140.147 58.3362 141.501 58.802 142.816C60.7087 148.238 64.0252 153.025 66.5343 158.154C68.0621 161.275 69.4347 164.479 70.652 167.74C71.0743 168.878 72.8754 168.382 72.4469 167.231C70.5712 162.197 68.3478 157.309 65.7642 152.618C63.3855 148.296 60.6652 143.986 59.6963 139.047C59.4603 137.852 59.1746 136.384 59.5411 135.189C59.8764 134.07 61.044 133.612 62.0129 134.235C63.0377 134.896 63.9693 133.25 62.9569 132.602Z" fill="black"/>
<path d="M60.3676 140.019C61.0756 140.991 61.6843 142.053 62.5351 142.911C63.3984 143.788 64.4977 144.367 65.7274 144.424C66.9385 144.475 68.1247 143.852 68.6837 142.727C69.3296 141.43 69.1495 140.019 68.8576 138.652C68.752 138.15 68.1744 137.858 67.7086 137.985C67.1994 138.131 66.9509 138.652 67.0565 139.161C67.1621 139.663 67.2615 140.165 67.2677 140.68C67.2739 141.074 67.2118 141.493 67.0441 141.818C66.9385 142.021 66.8826 142.091 66.7273 142.237C66.5597 142.402 66.7957 142.212 66.6031 142.326C66.6031 142.326 66.3485 142.46 66.4789 142.402C66.392 142.441 66.2926 142.46 66.2056 142.485C66.0193 142.542 66.2491 142.498 66.069 142.51C65.9696 142.517 65.8703 142.523 65.7709 142.517C65.7026 142.517 65.6405 142.51 65.5722 142.504C65.6343 142.517 65.6343 142.517 65.5722 142.504C64.7399 142.371 64.1934 141.957 63.6158 141.309C63.0071 140.629 62.5289 139.809 61.9762 139.053C61.6781 138.639 61.1688 138.43 60.703 138.709C60.3055 138.951 60.0633 139.606 60.3676 140.019Z" fill="black"/>
<path d="M185.929 150.177C173.868 151.677 162.931 157.804 153.963 166.01C144.783 174.42 138.082 185.042 132.113 195.968C128.747 202.128 125.623 208.414 122.456 214.682C121.903 215.768 123.512 216.735 124.064 215.641C129.66 204.581 135.119 193.375 141.995 183.071C148.603 173.174 156.975 164.421 167.253 158.529C173.017 155.224 179.352 152.897 185.923 152.077C187.109 151.931 187.121 150.024 185.929 150.177Z" fill="black"/>
<path d="M90.0859 151.467C93.5515 161.587 97.6257 171.49 102.284 181.095C106.948 190.712 112.196 200.03 117.991 208.98C121.245 214.002 124.673 218.909 128.263 223.689C128.574 224.102 129.058 224.306 129.536 224.032C129.934 223.803 130.176 223.136 129.872 222.729C123.537 214.294 117.705 205.459 112.432 196.286C107.159 187.114 102.445 177.611 98.3151 167.842C95.9736 162.299 93.831 156.667 91.8808 150.972C91.4833 149.808 89.6822 150.304 90.0859 151.467Z" fill="black"/>
<path d="M70.8146 167.746C74.9261 177.878 79.1059 187.985 83.3106 198.079C87.5587 208.275 91.8254 218.457 96.0735 228.653C100.241 238.665 104.247 248.752 108.464 258.744C110.197 262.857 112.439 266.792 116.314 269.124C119.693 271.159 123.786 271.87 127.655 271.368C136.089 270.281 142.933 263.245 146.585 255.725C147.026 254.81 147.423 253.869 147.765 252.916C148.181 251.765 146.38 251.263 145.97 252.407C144.554 256.335 142.138 259.927 139.287 262.908C136.486 265.838 133.133 268.241 129.183 269.169C125.568 270.021 121.575 269.697 118.227 268.012C114.345 266.054 112.11 262.457 110.395 258.522C108.346 253.818 106.507 249.019 104.557 244.271C102.539 239.364 100.508 234.463 98.4708 229.562C94.4091 219.799 90.3224 210.048 86.2544 200.291C82.1678 190.489 78.0936 180.675 74.0877 170.842C73.597 169.64 73.1064 168.432 72.6157 167.225C72.1562 166.119 70.3551 166.608 70.8146 167.746Z" fill="black"/>
<path d="M151.865 224.108C149.548 238.206 145.306 251.942 143.853 266.193C143.449 270.147 143.282 274.12 143.449 278.093C143.499 279.313 145.362 279.319 145.312 278.093C144.722 263.886 148.418 249.997 151.399 236.248C152.237 232.39 153.026 228.513 153.666 224.616C153.858 223.415 152.063 222.9 151.865 224.108Z" fill="black"/>
<path d="M264.886 230.623C265.699 229.721 266.035 228.418 265.693 227.229C265.625 226.994 265.469 226.784 265.264 226.657C265.066 226.536 264.768 226.485 264.544 226.561C264.072 226.72 263.749 227.223 263.892 227.737C263.929 227.858 263.954 227.979 263.966 228.106C263.954 228.023 263.942 227.934 263.935 227.852C263.966 228.081 263.96 228.303 263.935 228.532C263.948 228.449 263.96 228.36 263.966 228.278C263.935 228.519 263.873 228.748 263.78 228.971C263.811 228.894 263.842 228.818 263.873 228.742C263.786 228.939 263.687 229.123 263.556 229.295C263.606 229.231 263.656 229.168 263.699 229.104C263.656 229.161 263.606 229.218 263.556 229.276C263.389 229.46 263.283 229.695 263.283 229.949C263.283 230.185 263.383 230.464 263.556 230.623C263.929 230.966 264.532 231.017 264.886 230.623Z" fill="black"/>
<path d="M208.903 107.856C208.791 110.367 208.679 112.871 208.561 115.382C208.505 116.634 208.449 117.893 208.393 119.145C208.337 120.327 208.17 121.586 208.443 122.743C208.853 124.465 210.946 125.876 212.443 124.453C213.014 123.906 213.157 123.124 213.176 122.355C213.194 121.63 212.977 120.76 213.368 120.098C213.989 119.05 212.381 118.09 211.759 119.139C211.424 119.698 211.312 120.321 211.294 120.969C211.275 121.541 211.412 122.177 211.3 122.736C211.169 123.359 210.617 123.086 210.381 122.641C209.977 121.891 210.194 120.74 210.232 119.927C210.412 115.903 210.598 111.88 210.778 107.85C210.822 106.629 208.958 106.636 208.903 107.856Z" fill="black"/>
<path d="M191.439 82.4872C188.104 82.5317 184.471 82.1376 181.769 79.9319C181.21 79.4742 180.105 79.6967 180.179 80.6057C180.384 83.2372 181.272 85.7544 182.831 87.8647C184.533 90.1657 186.862 91.6086 189.315 92.9435C194.476 95.753 199.302 99.0965 203.643 103.107C205.842 105.141 208.059 107.404 208.854 110.417C209.165 111.6 210.966 111.097 210.649 109.909C209.966 107.322 208.376 105.167 206.55 103.292C204.569 101.258 202.383 99.4206 200.147 97.6853C197.843 95.8992 195.433 94.2656 192.936 92.7909C190.508 91.3607 187.763 90.2356 185.688 88.2715C183.589 86.2883 182.272 83.5106 182.043 80.5993C181.515 80.8218 180.981 81.0506 180.453 81.2731C183.577 83.822 187.551 84.4386 191.446 84.3814C192.638 84.3814 192.644 82.4745 191.439 82.4872Z" fill="black"/>
<path d="M224.932 118.236C226.131 118.236 226.131 116.329 224.932 116.329C223.734 116.329 223.734 118.236 224.932 118.236Z" fill="black"/>
<path d="M228.708 103.806C228.149 99.4523 227.236 94.9265 224.975 91.1317C223.845 89.2312 222.379 87.5721 220.827 86.0212C219.342 84.5401 217.802 83.1226 216.137 81.8514C212.802 79.3088 208.883 77.8468 204.697 78.3871C200.996 78.8702 197.63 80.5419 194.45 82.487C193.152 82.5696 191.848 82.6459 190.549 82.7285C190.028 82.7603 189.556 83.0209 189.276 83.4277C188.817 83.1989 188.32 83.0273 187.724 83.0082C187.19 82.9955 186.767 83.1417 186.438 83.396C186.382 83.3705 186.326 83.3451 186.264 83.326C186.245 83.3197 186.214 83.307 186.183 83.3006C186.134 83.2688 186.078 83.2434 186.028 83.2116C186.022 83.2053 186.016 83.2053 186.003 83.1989L185.997 83.1926C185.954 83.1481 185.91 83.1036 185.873 83.0591C185.836 83.0019 185.805 82.951 185.798 82.9447C185.351 82.1819 184.351 81.7942 183.538 82.1183C183.19 82.0293 182.817 82.0611 182.445 82.2836C181.792 82.6777 181.376 83.771 181.886 84.4575C183.488 86.5932 185.32 88.4493 187.45 90.0448C189.531 91.6085 191.823 92.7526 194.239 93.6743C194.338 93.7124 194.444 93.7315 194.543 93.7442C196.884 96.2232 199.779 98.0602 202.524 100.031C205.194 101.95 207.741 104.162 209.169 107.213C209.237 107.506 209.374 107.766 209.567 107.983C209.939 109.286 209.821 110.754 209.728 112.152C209.666 113.068 209.61 113.983 209.598 114.905C209.591 115.432 209.598 115.954 209.604 116.481C209.604 116.704 209.61 116.932 209.61 117.155C209.61 117.263 209.61 117.365 209.61 117.473C209.498 117.689 209.436 117.924 209.455 118.166C209.467 118.407 209.523 118.623 209.604 118.833C209.542 119.183 209.61 119.545 209.834 119.844C209.84 120.187 209.784 120.53 209.74 120.861C209.678 121.337 209.622 121.82 209.56 122.297C209.523 122.596 209.728 122.996 209.927 123.193C210.144 123.416 210.498 123.581 210.803 123.568C211.125 123.556 211.455 123.448 211.678 123.193C211.74 123.104 211.809 123.022 211.871 122.939C211.983 122.742 212.038 122.526 212.038 122.297C212.119 121.643 212.206 120.994 212.281 120.339C212.324 119.983 212.318 119.621 212.243 119.272C212.256 119.259 212.262 119.24 212.274 119.227C212.604 119.17 212.908 119.024 213.132 118.738C213.169 118.687 213.2 118.636 213.237 118.585C213.473 118.509 213.703 118.433 213.939 118.356C214.467 118.191 214.995 117.994 215.467 117.708C216.082 117.975 216.672 117.81 217.193 117.39C217.554 117.104 217.908 116.818 218.268 116.526C218.317 116.487 218.349 116.437 218.392 116.392C220.094 116.24 221.839 116.475 223.516 116.678C223.789 116.71 224.069 116.615 224.317 116.456C224.423 116.774 224.565 117.079 224.764 117.358C225.59 118.509 227.093 118.299 227.602 116.977C229.205 112.794 229.273 108.205 228.708 103.806Z" fill="black"/>
<path d="M99.3405 128.616C106.955 128.616 113.128 122.298 113.128 114.505C113.128 106.711 106.955 100.394 99.3405 100.394C91.7257 100.394 85.5527 106.711 85.5527 114.505C85.5527 122.298 91.7257 128.616 99.3405 128.616Z" stroke="black" stroke-width="2" stroke-miterlimit="10" stroke-linecap="round"/>
<path d="M108.401 97.1709L101.309 114.104L117.854 104.424L108.401 97.1709Z" stroke="black" stroke-width="2" stroke-miterlimit="10" stroke-linecap="round"/>
<path d="M61.2246 49.1348H136.275V53.4762V141.595H90.4148" stroke="black" stroke-width="2" stroke-miterlimit="10" stroke-linecap="round"/>
<path d="M59.853 141.596H26.8867" stroke="black" stroke-width="3" stroke-miterlimit="10" stroke-linecap="round"/>
<path d="M77.4774 131.609H77.1172" stroke="black" stroke-width="2" stroke-miterlimit="10" stroke-linecap="round"/>
<path d="M72.8633 111.06V95.6709H126.517V131.61H84.4338" stroke="black" stroke-width="2" stroke-miterlimit="10" stroke-linecap="round"/>
<path d="M40.9719 127.776H27.5195" stroke="black" stroke-width="2" stroke-miterlimit="10" stroke-linecap="round"/>
<path d="M42.923 102.814L32.1909 118.788L29.334 114.898V114.892" stroke="black" stroke-width="2" stroke-miterlimit="10" stroke-linecap="round"/>
<path d="M34.6874 94.8311H53.6486V130.77H27.2656" stroke="black" stroke-width="2" stroke-miterlimit="10" stroke-linecap="round"/>
<path d="M126.438 70.2451V83.1677H39.3457C41.358 78.7246 43.5876 74.4149 46.0346 70.2451H126.438Z" stroke="black" stroke-width="2" stroke-miterlimit="10" stroke-linecap="round"/>
<path d="M136.275 53.4766H57.5859" stroke="black" stroke-width="2" stroke-miterlimit="10" stroke-linecap="round"/>
<path d="M57.7475 64.1484H49.8164" stroke="black" stroke-width="2" stroke-miterlimit="10" stroke-linecap="round"/>
</g>
<defs>
<clipPath id="clip0">
<rect width="313" height="280" fill="white"/>
</clipPath>
</defs>
</svg>
