<svg width="20" height="20" viewBox="0 0 20 20" fill="none" xmlns="http://www.w3.org/2000/svg">
<rect x="0.5" y="0.5" width="19" height="19" rx="9.5" fill="#1F99A7" stroke="#1F99A7"/>
<path d="M5.51673 9.36112C5.25594 9.07573 4.81317 9.0558 4.52779 9.3166C4.2424 9.5774 4.22247 10.0202 4.48327 10.3055L5.51673 9.36112ZM8.80769 14L8.29096 14.4722L8.88513 15.1224L9.38438 14.3968L8.80769 14ZM15.5767 5.39678C15.7958 5.07828 15.7153 4.64245 15.3968 4.42331C15.0783 4.20418 14.6424 4.28473 14.4233 4.60322L15.5767 5.39678ZM4.48327 10.3055L8.29096 14.4722L9.32443 13.5278L5.51673 9.36112L4.48327 10.3055ZM9.38438 14.3968L15.5767 5.39678L14.4233 4.60322L8.23101 13.6032L9.38438 14.3968Z" fill="white"/>
</svg>
