<svg width="31" height="31" viewBox="0 0 31 31" fill="none" xmlns="http://www.w3.org/2000/svg">
<g clip-path="url(#clip0)">
<path d="M3.19678 9.83712L23.8092 2.43408L24.4509 4.21998L3.83843 11.6233L3.19678 9.83712Z" fill="#86A4BC"/>
<path d="M3.51758 10.7297L23.2204 3.65332L23.5413 4.54662L3.83829 11.623L3.51758 10.7297Z" fill="#B7D0E5"/>
<path d="M31 12.7184V27.0746C31 28.8404 29.5684 30.272 27.8026 30.272H3.19669C1.43113 30.272 0 28.8404 0 27.0746V12.7184C0 10.9528 1.43113 9.521 3.19669 9.521H27.8026C29.5684 9.521 31 10.9528 31 12.7184Z" fill="#1A838E"/>
<path d="M31.0003 12.7184V27.0746C31.0003 28.8404 29.5687 30.272 27.8029 30.272H4.46231C2.69675 30.272 1.26562 28.8404 1.26562 27.0746V12.7184C1.26562 10.9528 2.69675 9.521 4.46231 9.521H27.8029C29.5687 9.521 31.0003 10.9528 31.0003 12.7184Z" fill="#1F99A7"/>
<path d="M12.2051 14.0361H6.01541C5.5062 14.0361 5.34679 13.3476 5.80397 13.1238C6.80205 12.6354 7.92405 12.3613 9.11016 12.3613C10.2963 12.3613 11.4183 12.6354 12.4163 13.1238C12.8735 13.3476 12.7141 14.0361 12.2051 14.0361Z" fill="#F0F5F8"/>
<path d="M14.9257 17.3852H3.2946C2.6546 17.3852 2.25821 16.6922 2.57773 16.1378C2.58081 16.1326 2.58412 16.1272 2.58719 16.1217C2.73525 15.8665 3.00913 15.7104 3.30406 15.7104H14.9163C15.2112 15.7104 15.4851 15.8665 15.6332 16.1217C15.6362 16.1272 15.6395 16.1326 15.6426 16.1378C15.9621 16.6922 15.5657 17.3852 14.9257 17.3852Z" fill="#F0F5F8"/>
<path d="M16.6457 19.8971V19.9141C16.6447 20.3684 16.2708 20.7341 15.8165 20.7341H2.40392C1.94958 20.7341 1.57565 20.3684 1.57471 19.9141C1.57471 19.9084 1.57471 19.9027 1.57471 19.8971C1.57471 19.8916 1.57471 19.8857 1.57471 19.88C1.57565 19.4257 1.94958 19.0601 2.40392 19.0601H15.8162C16.2708 19.0601 16.6447 19.4257 16.6457 19.88V19.8971Z" fill="#F0F5F8"/>
<path d="M15.6426 23.6558C15.6395 23.6613 15.6362 23.6667 15.6332 23.6721C15.4851 23.9273 15.2112 24.0832 14.9163 24.0832H3.30406C3.00913 24.0832 2.73525 23.9271 2.58719 23.6721C2.58412 23.6667 2.58081 23.6613 2.57773 23.6558C2.25821 23.1014 2.6546 22.4087 3.2946 22.4087H14.9257C15.5657 22.4087 15.9621 23.1014 15.6426 23.6558Z" fill="#F0F5F8"/>
<path d="M12.2051 25.7578C12.7141 25.7578 12.8738 26.4463 12.4163 26.67C11.4183 27.1584 10.2963 27.4325 9.11016 27.4325C7.92406 27.4325 6.80205 27.1584 5.80397 26.67C5.34679 26.4463 5.5062 25.7578 6.01541 25.7578H12.2051Z" fill="#F0F5F8"/>
<path d="M25.5626 5.4355C25.0324 5.62589 24.4517 5.38039 24.2119 4.88372C24.1954 4.84966 24.1802 4.81348 24.167 4.77682L23.237 2.18678C23.0331 1.61987 23.3274 0.994766 23.895 0.79113C24.017 0.747375 24.141 0.726562 24.2637 0.726562C24.711 0.726562 25.1305 1.00375 25.2906 1.4491L25.6941 2.57253L26.2213 4.03914C26.425 4.60653 26.13 5.23163 25.5626 5.4355Z" fill="#86A4BC"/>
<path d="M25.5624 5.43583C25.0322 5.62622 24.4515 5.38072 24.2117 4.88405L23.6848 3.41555C23.4809 2.84887 23.7751 2.22377 24.3427 2.02013C24.4648 1.97638 24.5887 1.95557 24.7115 1.95557C25.1228 1.95557 25.5099 2.18948 25.6939 2.57286L26.2211 4.03947C26.4248 4.60686 26.1298 5.23196 25.5624 5.43583Z" fill="#B7D0E5"/>
<path d="M27.7306 18.3783H19.1492C18.5315 18.3783 18.0308 17.8776 18.0308 17.2599V15.3843C18.0308 14.7668 18.5315 14.2661 19.1492 14.2661H27.7308C28.3483 14.2661 28.849 14.7668 28.849 15.3843V17.2599C28.849 17.8776 28.3483 18.3783 27.7306 18.3783Z" fill="#71CAD4"/>
<path d="M24.2622 15.9741C23.7904 15.9741 23.4082 16.3566 23.4082 16.8282V18.3783H25.1163V16.8282C25.1163 16.3566 24.7338 15.9741 24.2622 15.9741Z" fill="#6399CC"/>
<path d="M26.2235 23.503C26.2235 25.0403 24.9773 26.2865 23.4397 26.2865C21.9024 26.2865 20.6562 25.0403 20.6562 23.503C20.6562 21.9654 21.9024 20.7192 23.4397 20.7192C24.9773 20.7192 26.2235 21.9654 26.2235 23.503Z" fill="#86A4BC"/>
<path d="M26.2234 23.5029C26.2234 24.8453 25.2731 25.9657 24.0091 26.2282C22.745 25.9657 21.7949 24.8453 21.7949 23.5029C21.7949 22.1605 22.745 21.0399 24.0091 20.7773C25.2731 21.0399 26.2234 22.1605 26.2234 23.5029Z" fill="#B7D0E5"/>
<path d="M24.9266 22.95C24.516 22.95 24.3022 22.4419 24.5846 22.1472C24.7296 21.9956 24.9649 21.9578 25.1501 22.0569C25.3246 22.1501 25.4254 22.3492 25.3958 22.545C25.3608 22.7745 25.1595 22.95 24.9266 22.95Z" fill="#86A4BC"/>
</g>
<defs>
<clipPath id="clip0">
<rect width="31" height="31" fill="white"/>
</clipPath>
</defs>
</svg>
