<svg width="56" height="56" viewBox="0 0 56 56" fill="none" xmlns="http://www.w3.org/2000/svg">
<g clip-path="url(#clip0)">
<path d="M51.4813 13.0355H50.9379C44.8561 13.0355 39.9083 8.12872 39.9083 2.09735V1.62375C39.9083 0.727008 39.1813 0 38.2846 0H17.1562C16.2595 0 15.5325 0.727008 15.5325 1.62375V2.10601C15.5325 8.13738 10.5847 13.0441 4.50296 13.0441H3.94211C3.04537 13.0441 2.31836 13.7712 2.31836 14.6679V17.6711C2.31836 33.9238 12.0296 48.6889 27.0589 55.287C27.4749 55.4697 27.9484 55.4698 28.3645 55.287C43.3939 48.6889 53.1051 33.9237 53.1051 17.6711V14.6592C53.105 13.7625 52.378 13.0355 51.4813 13.0355Z" fill="#1F99A7"/>
<path d="M53.1062 14.6592V17.6708C53.1062 33.9234 43.3951 48.6888 28.3656 55.2866C28.1578 55.3786 27.9359 55.4241 27.7129 55.4241V0H38.2857C39.1831 0 39.9094 0.727441 39.9094 1.62375V2.09789C39.9094 8.12851 44.8576 13.0355 50.939 13.0355H51.4825C52.3788 13.0355 53.1062 13.7629 53.1062 14.6592Z" fill="#1A838E"/>
<path d="M49.858 17.6707C49.858 32.3984 41.1894 45.8028 27.7122 52.0194C14.2351 45.8028 5.56641 32.3984 5.56641 17.6707V16.2522C12.5645 15.7382 18.1756 10.189 18.7347 3.24707H36.7079C37.2703 10.1795 42.8706 15.7206 49.858 16.2424V17.6707Z" fill="#F3F3FF"/>
<path d="M49.8587 16.2425V17.6703C49.8587 32.3988 41.19 45.8024 27.7129 52.0192V3.24707H36.7085C37.2714 10.1794 42.8712 15.7207 49.8587 16.2425Z" fill="#EBEBFF"/>
<path d="M41.5144 20.7073L36.5685 16.4975C35.8856 15.9164 34.8608 15.9988 34.2794 16.6816L25.981 26.4313L21.5465 22.8846C20.8481 22.3258 19.8254 22.4368 19.2643 23.1385L15.2074 28.2107C14.6472 28.9111 14.7608 29.9329 15.4612 30.493L26.0452 38.958C26.7302 39.506 27.727 39.4107 28.2959 38.7425L41.6984 22.9961C42.2793 22.3135 42.1972 21.2886 41.5144 20.7073Z" fill="#71CAD4"/>
<path d="M41.6999 22.9971C27.6528 39.4088 28.3563 38.9001 27.7129 39.1772V24.3989L34.2815 16.6817C34.8628 15.9987 35.8879 15.9164 36.5699 16.4977L41.5159 20.7076C42.1985 21.2889 42.2814 22.3141 41.6999 22.9971Z" fill="#1F99A7"/>
</g>
<defs>
<clipPath id="clip0">
<rect width="55.4241" height="55.4241" fill="white"/>
</clipPath>
</defs>
</svg>
