<svg width="72" height="72" viewBox="0 0 72 72" fill="none" xmlns="http://www.w3.org/2000/svg">
<path d="M59.0262 41.7899C58.8472 33.9129 55.5651 26.7523 50.4035 21.5907C44.6238 15.811 36.8802 12.7904 28.8319 12.968C12.5413 13.326 -0.40783 26.8716 0.00982605 43.1623C0.188982 51.0989 3.44108 58.1701 8.63253 63.3615L9.10995 63.8389C14.6001 69.0901 22.0888 72.2229 30.2043 71.9844C46.4948 71.626 59.4439 58.0805 59.0262 41.7899Z" fill="#1F99A7"/>
<path d="M30.2041 71.9842C22.0887 72.2227 14.5999 69.09 9.10975 63.8388L8.63232 63.3614L50.4032 21.5906C55.5647 26.7521 58.847 33.9127 59.0259 41.7898C59.4438 58.0805 46.4948 71.6261 30.2041 71.9842Z" fill="#1F99A7"/>
<path d="M54.8192 42.476C54.8491 35.4646 51.9848 29.1393 47.39 24.6041C42.8549 20.0092 36.5296 17.1451 29.5181 17.1749C15.5549 17.1748 4.21703 28.5125 4.21703 42.4762C4.18721 49.4877 7.05146 55.8129 11.6163 60.3779C16.1811 64.9428 22.5067 67.8071 29.518 67.7771C43.4818 67.7771 54.8195 56.4395 54.8192 42.476Z" fill="#E6EEFF"/>
<path d="M29.5179 67.7773C22.5064 67.8071 16.1812 64.9428 11.6162 60.378L47.3899 24.6042C51.9849 29.1394 54.849 35.4647 54.8192 42.4761C54.8192 56.4396 43.4814 67.7773 29.5179 67.7773Z" fill="#F0F5F8"/>
<path d="M50.6123 42.5057C50.6123 36.6579 48.2553 31.3769 44.4362 27.5578C40.617 23.7386 35.3362 21.3817 29.4884 21.3817C17.8522 21.3817 8.39404 30.8399 8.39404 42.476C8.42371 48.2941 10.7807 53.5751 14.57 57.424C18.4191 61.2133 23.6998 63.5703 29.518 63.6C41.1543 63.6 50.6123 54.142 50.6123 42.5057Z" fill="#1F99A7"/>
<path d="M29.5183 63.6C23.7002 63.5704 18.4194 61.2133 14.5703 57.4241L44.4364 27.558C48.2556 31.3772 50.6125 36.658 50.6125 42.5059C50.6125 54.142 41.1545 63.6 29.5183 63.6Z" fill="#1F99A7"/>
<path d="M46.4053 42.4761C46.3754 37.8513 44.4957 33.6447 41.4523 30.5416C38.3491 27.4982 34.1426 25.6186 29.5177 25.5886C20.179 25.6186 12.6304 33.1672 12.6304 42.4761C12.6305 47.1307 14.51 51.3375 17.5833 54.4107C20.6565 57.4839 24.8633 59.3634 29.5179 59.3637C38.8267 59.3635 46.3754 51.8149 46.4053 42.4761Z" fill="#E6EEFF"/>
<path d="M29.5181 59.3635C24.8635 59.3633 20.6567 57.4839 17.5835 54.4105L41.4526 30.5414C44.496 33.6446 46.3756 37.8511 46.4056 42.4759C46.3756 51.8148 38.8269 59.3635 29.5181 59.3635Z" fill="#F0F5F8"/>
<path d="M42.1685 42.4761C42.1685 39.015 40.7364 35.7929 38.4688 33.5251C36.2013 31.2576 32.979 29.8254 29.5179 29.8254C22.5363 29.8254 16.8376 35.5241 16.8673 42.4761C16.8673 45.9371 18.2994 49.1593 20.567 51.427C22.8346 53.6946 26.0569 55.1267 29.5179 55.1267C36.4697 55.1564 42.1685 49.4577 42.1685 42.4761Z" fill="#1F99A7"/>
<path d="M29.5178 55.1267C26.0568 55.1267 22.8346 53.6946 20.5669 51.427L38.4686 33.5251C40.7362 35.7927 42.1683 39.015 42.1683 42.4761C42.1684 49.4577 36.4696 55.1564 29.5178 55.1267Z" fill="#1F99A7"/>
<path d="M37.9316 42.4759C37.9615 40.1788 37.0366 38.0603 35.4552 36.5388C33.9335 34.9573 31.815 34.0324 29.518 34.0624C24.8932 34.0325 21.0741 37.8516 21.0742 42.5062C21.0741 44.7736 21.999 46.892 23.5505 48.4435C25.102 49.995 27.2205 50.9199 29.4878 50.9198C34.1425 50.9199 37.9615 47.1007 37.9316 42.4759Z" fill="#FAFBFD"/>
<path d="M29.4881 50.9196C27.2207 50.9197 25.1023 49.9948 23.5508 48.4433L35.4554 36.5387C37.0369 38.0604 37.9618 40.1789 37.9318 42.4759C37.9616 47.1006 34.1427 50.9199 29.4881 50.9196Z" fill="white"/>
<path d="M54.5036 20.4738L31.0095 43.9679C30.5917 44.3857 30.0846 44.5945 29.5176 44.5646C28.9506 44.5947 28.4137 44.3559 28.0257 43.9679C27.1902 43.1325 27.1904 41.8196 28.0555 41.0141L51.5494 17.5201C52.325 16.6848 53.6678 16.6547 54.4735 17.5201C55.339 18.3256 55.3089 19.6683 54.5036 20.4738Z" fill="#5C5F66"/>
<path d="M54.5037 20.474L31.0097 43.968C30.5919 44.3858 30.0848 44.5947 29.5178 44.5647C28.9508 44.5948 28.4139 44.356 28.0259 43.968L54.4736 17.5203C55.3392 18.3258 55.3091 19.6685 54.5037 20.474Z" fill="#53565C"/>
<path d="M63.9451 17.76C63.5872 16.9245 62.8115 16.4612 61.9761 16.4612H55.6508V10.1218C55.6508 9.28634 55.1733 8.51065 54.3677 8.18257C53.5324 7.8244 52.6373 8.00342 52.0705 8.63004L43.6266 17.0739C43.2088 17.4318 43 17.9988 43 18.5357V27.0094C43 27.6061 43.2386 28.0833 43.5968 28.5011C44.0146 28.8589 44.4919 29.0979 45.0884 29.0979H53.5622C54.0991 29.0979 54.6658 28.889 55.024 28.4712L63.4678 20.0274C64.0944 19.4606 64.2733 18.5653 63.9451 17.76Z" fill="#71CAD4"/>
<path d="M63.468 20.0272L55.0242 28.471C54.6662 28.8888 54.0993 29.0976 53.5624 29.0976H45.0888C44.4921 29.0976 44.015 28.859 43.5972 28.5008L55.651 16.4611H61.9763C62.8117 16.4611 63.5874 16.9244 63.9453 17.7599C64.2737 18.5652 64.0948 19.4605 63.468 20.0272Z" fill="#71CAD4"/>
</svg>
