<svg width="217" height="168" viewBox="0 0 217 168" fill="none" xmlns="http://www.w3.org/2000/svg">
<g clip-path="url(#clip0)">
<path d="M20.7428 167.791L0.218405 111.328C-0.630006 108.99 1.07698 106.514 3.55616 106.494L92.3547 105.794C93.8382 105.784 95.1743 106.693 95.7179 108.076L119.123 167.995L20.7428 167.791Z" fill="#FE4D3D"/>
<path d="M84.8817 14.7832C83.5812 24.8037 82.9207 35.4827 87.3863 44.5333C88.3211 46.4322 89.5404 48.2903 91.354 49.3674C92.868 50.2709 94.6664 50.5517 96.4242 50.6538C99.6857 50.8477 103.211 50.3832 105.65 48.1984" stroke="black" stroke-miterlimit="10" stroke-linecap="round"/>
<path d="M106.366 16.2839C107.403 19.2855 108.663 22.5219 111.401 24.0992C111.716 24.283 112.071 24.4412 112.432 24.4208C112.854 24.3953 113.22 24.1349 113.585 23.9154C115.048 23.0323 117.07 22.7924 118.371 23.9052C119.519 24.8853 119.748 26.5494 119.885 28.0553C120.007 29.4081 120.083 30.9037 119.26 31.9757C118.706 32.6955 117.848 33.0885 117.025 33.4561C115.958 33.9308 114.886 34.4055 113.819 34.8854" stroke="black" stroke-miterlimit="10"/>
<path d="M114.388 34.6914C116.334 42.3025 117.573 49.7808 118.208 57.6114" stroke="black" stroke-miterlimit="10" stroke-linecap="round"/>
<path d="M118.473 57.79C142.431 61.0672 164.775 74.8856 178.476 94.9061C180.295 97.5606 181.966 100.327 183.307 103.252C184.598 106.075 185.573 109.031 186.544 111.981C188.657 118.398 190.765 124.82 192.879 131.236C194.911 137.408 196.963 143.763 196.552 150.251C196.14 156.739 192.655 163.462 186.6 165.734" stroke="black" stroke-miterlimit="10" stroke-linecap="round"/>
<path d="M93.2641 50.1687C94.0008 53.6501 94.2649 57.2438 94.0567 60.8017" stroke="black" stroke-miterlimit="10" stroke-linecap="round"/>
<path d="M141.182 107.101C142.152 117.525 145.205 127.75 150.103 136.989" stroke="black" stroke-miterlimit="10" stroke-linecap="round"/>
<path d="M175.326 137.178C165.653 137.54 155.981 137.903 146.308 138.265C136.34 138.638 126.149 139.057 116.806 142.472" stroke="black" stroke-miterlimit="10" stroke-linecap="round"/>
<path d="M14.3213 164.759C13.1884 150.547 17.654 136.56 22.0637 123.007C23.5116 118.561 24.9595 114.1 26.9002 109.848C34.3784 93.436 47.2214 81.241 63.0973 72.7978C63.0973 72.7978 87.432 62.3792 93.8535 60.9346" stroke="black" stroke-miterlimit="10" stroke-linecap="round"/>
<path d="M3.74933 165.524H216.746" stroke="black" stroke-miterlimit="10" stroke-linecap="round"/>
<path d="M106.773 40.2504C104.918 42.6342 102.261 44.38 99.3453 45.1355" stroke="black" stroke-miterlimit="10" stroke-linecap="round"/>
<path d="M27.5149 165.524L6.99561 109.056C6.1472 106.718 7.85418 104.243 10.3334 104.222L99.1319 103.523C100.615 103.513 101.952 104.421 102.495 105.805L125.9 165.723L27.5149 165.524Z" stroke="black" stroke-miterlimit="10"/>
<path d="M106.067 15.896C105.015 17.1211 103.384 17.6571 101.814 18.0348C96.6528 19.2804 91.2321 19.4539 85.9994 18.53C83.5811 18.1063 80.9851 17.2998 79.6236 15.2477C78.1401 13.0118 78.6177 9.91839 80.0046 7.62129C82.814 2.98624 88.5294 1.01074 93.9043 0.45943C101.779 -0.347109 109.882 1.20471 116.908 4.87497C118.173 5.53348 119.418 6.27366 120.418 7.29459C122.75 9.66827 123.431 13.1854 123.822 16.5034C124.356 21.0313 124.539 25.6714 123.528 30.1176C122.517 34.5638 120.195 38.8364 116.502 41.4908" stroke="black" stroke-miterlimit="10"/>
<path d="M123.807 19.2957C123.634 15.8909 123.34 12.4759 121.922 9.33141C121.155 7.62135 119.981 6.43196 118.234 5.74793C118.178 5.72751 118.117 5.70709 118.061 5.68667C118.005 5.55906 117.954 5.48249 117.827 5.33445C117.746 5.24257 117.634 5.166 117.538 5.09964C117.462 5.04859 117.38 5.01286 117.299 4.97712C117.213 4.93629 117.136 4.88524 117.055 4.83419C116.913 4.74231 116.745 4.65553 116.583 4.6198C116.364 4.56875 116.12 4.55344 115.897 4.61469C114.683 3.69585 113.245 3.02203 111.721 2.57282C110.649 2.25633 109.557 2.01131 108.464 1.83775C108.414 1.79691 108.368 1.75607 108.317 1.72544C108.21 1.65398 108.063 1.60293 107.951 1.56209C107.906 1.54678 107.855 1.53147 107.804 1.52126C107.677 1.50084 107.525 1.47021 107.387 1.47532C107.382 1.47532 107.382 1.47532 107.377 1.47532C106.905 1.18945 106.285 1.07715 105.752 1.2405C103.851 0.714719 101.89 0.500322 99.9295 0.571788C99.6145 0.316554 99.2284 0.158309 98.8118 0.199146C95.1947 0.551369 91.5165 0.500322 88.1076 1.90921C87.9908 1.899 87.8739 1.90411 87.7622 1.93984C86.8528 2.25123 85.8571 2.51156 85.1001 3.13434C84.9832 3.12923 84.8715 3.13434 84.78 3.15986C84.6429 3.19559 84.5057 3.27727 84.3838 3.37936C84.1653 3.48656 83.9672 3.6397 83.7894 3.79794C83.5404 4.01744 83.3423 4.28799 83.0985 4.50749C83.0781 4.52281 83.0578 4.53812 83.0375 4.54833C82.9613 4.59427 82.8902 4.65553 82.8292 4.72189C81.3 5.77856 80.1671 7.28954 79.4711 9.02513C79.0952 9.96439 78.8259 11.0874 78.897 12.1033C78.9123 12.3381 78.9529 12.5678 78.9987 12.7873V12.7924C78.9885 12.8843 78.9732 12.971 78.9631 13.0629C78.9631 13.2467 79.0088 13.4203 79.1003 13.5785C79.146 13.6398 79.1866 13.6959 79.2324 13.7572C79.2781 14.921 79.9334 16.0287 80.9393 16.6464C81.4778 16.9833 82.1332 17.1875 82.7327 17.4019C82.8597 17.4478 82.9867 17.4887 83.1188 17.5244C83.4033 17.6827 83.6979 17.8154 84.0028 17.9226C84.4041 18.0604 84.8207 18.1319 85.2474 18.1727C85.2627 18.1727 85.283 18.1676 85.2982 18.1676C85.4405 18.234 85.5878 18.2952 85.7402 18.3514C86.299 18.5454 86.8934 18.6117 87.4777 18.6934C88.2397 18.7955 89.0068 18.9129 89.7841 18.918C89.9365 18.918 90.089 18.8976 90.2414 18.8874C92.9542 19.4029 95.7433 18.8669 98.446 18.3922C99.9295 18.1319 101.449 17.9379 102.912 17.5602C103.984 17.2845 104.949 16.8251 105.853 16.2482C105.909 16.335 105.98 16.4116 106.066 16.4677C106.163 16.5596 106.28 16.6209 106.412 16.6515C106.437 16.6566 106.463 16.6566 106.488 16.6617C106.595 17.9838 107.067 19.2549 107.784 20.3728C108.556 21.5826 109.618 22.9456 110.822 23.7572C111.726 24.3647 112.803 24.2932 113.738 23.8032C114.068 23.6296 114.388 23.4356 114.713 23.2468C114.825 23.2314 114.937 23.2161 115.054 23.2008C115.17 23.1702 115.277 23.1191 115.379 23.063C115.551 23.1855 115.739 23.2825 115.932 23.3284C116.237 23.3999 116.567 23.405 116.872 23.3386C117.269 23.4407 117.66 23.5786 118.036 23.7215C118.183 23.793 118.325 23.8695 118.457 23.9563C118.61 24.0941 118.752 24.2422 118.884 24.4004C119.087 24.6812 119.275 24.9721 119.453 25.2733C119.448 25.4214 119.453 25.5745 119.484 25.7276C119.545 26.0339 119.626 26.3249 119.743 26.6107C119.722 26.5648 119.936 27.1416 119.875 26.9323C119.9 27.014 119.91 27.0497 119.915 27.0702C119.905 27.0548 119.885 27.0446 119.885 27.2335C119.885 27.4785 119.956 27.7185 120.068 27.9329C120.032 28.1166 119.992 28.3004 119.946 28.4842C119.915 28.6016 119.885 28.7292 119.854 28.8517C119.875 28.8976 119.9 28.9436 119.915 28.9946C119.926 29.0814 119.941 29.1682 119.951 29.255C119.956 29.3928 119.926 29.5204 119.865 29.6378C119.86 29.6582 119.849 29.6684 119.839 29.6889C119.849 29.7705 119.849 29.8522 119.834 29.9339C119.865 30.0258 119.885 30.1177 119.885 30.2197C119.89 30.3576 119.86 30.4852 119.799 30.6026C119.799 30.6077 119.793 30.6128 119.788 30.623C119.788 30.6281 119.793 30.6332 119.799 30.6434C119.86 30.7608 119.89 30.8885 119.885 31.0263C119.89 31.1641 119.86 31.2917 119.799 31.4091C119.758 31.5317 119.692 31.6388 119.595 31.7256C119.555 31.7716 119.509 31.8073 119.468 31.8532C119.433 31.9451 119.392 32.0319 119.321 32.1085C119.25 32.2157 119.158 32.3025 119.047 32.3637C119.026 32.3739 119.006 32.3892 118.981 32.3994C118.889 32.4403 118.788 32.4913 118.691 32.522C118.671 32.5271 118.65 32.5322 118.625 32.5373C118.554 32.5475 118.412 32.5781 118.31 32.5781C118.3 32.5781 118.29 32.5781 118.28 32.573C117.67 33.1805 116.796 33.4612 115.993 33.742C115.684 33.8492 115.414 34.0278 115.191 34.2524C115.16 34.2575 115.13 34.2627 115.099 34.2627C115.089 34.2627 115.079 34.2678 115.069 34.2678H115.064H115.059L114.876 34.3443C114.871 34.3443 114.866 34.3494 114.86 34.3494C114.855 34.3494 114.85 34.3545 114.845 34.3596L114.84 34.3647L114.688 34.4822C114.688 34.4822 114.683 34.4822 114.683 34.4873C114.606 34.5587 114.556 34.6404 114.525 34.7323C114.479 34.8242 114.454 34.9212 114.459 35.0284C114.454 35.1356 114.479 35.2325 114.525 35.3244C114.546 35.3908 114.581 35.4469 114.622 35.498C114.617 35.6818 114.627 35.8706 114.678 36.0595C114.749 36.3096 114.881 36.5444 115.048 36.7486C115.074 37.2795 115.054 37.8155 115.013 38.3464C115.038 38.377 115.069 38.4025 115.089 38.4383C115.247 38.6118 115.353 38.816 115.409 39.0508C115.455 39.352 115.49 39.6583 115.531 39.9646C115.511 39.8063 115.49 39.643 115.465 39.4847C115.511 39.8165 115.562 40.1483 115.678 40.4597C115.684 40.475 115.684 40.4904 115.689 40.5057C115.673 40.5669 115.663 40.6231 115.663 40.6894C115.673 40.7915 115.684 40.8936 115.694 40.9957C115.689 41.1029 115.714 41.1999 115.76 41.2918C115.79 41.3888 115.841 41.4705 115.917 41.5368C115.988 41.6134 116.07 41.6644 116.161 41.6951C116.252 41.741 116.349 41.7665 116.456 41.7614C116.501 41.7563 116.542 41.7512 116.588 41.7461C116.628 41.7155 116.664 41.6849 116.71 41.6593C116.735 41.644 116.761 41.6287 116.786 41.6134C116.821 41.547 116.862 41.4807 116.923 41.4296C116.989 41.3531 117.065 41.2867 117.142 41.2203C117.208 41.1642 117.279 41.1131 117.35 41.057C117.38 41.0059 117.421 40.9549 117.467 40.914C117.492 40.8936 117.517 40.8732 117.543 40.8477C117.558 40.7813 117.578 40.715 117.609 40.6537C117.65 40.5312 117.716 40.424 117.812 40.3372C117.863 40.2964 117.914 40.2504 117.965 40.2096C118.076 40.1177 118.188 40.0207 118.315 39.9493C118.346 39.934 118.376 39.9186 118.407 39.9033C118.468 39.8778 118.534 39.8472 118.595 39.8216C118.605 39.74 118.62 39.6532 118.63 39.5715C120.403 38.1218 121.688 35.988 122.196 33.7522C122.232 33.599 122.242 33.4459 122.247 33.2928C122.801 32.1851 123.172 30.965 123.487 29.7859C123.959 28.0196 124.234 26.1819 124.335 24.3596C124.447 22.675 124.483 20.8629 123.807 19.2957Z" fill="black"/>
</g>
<defs>
<clipPath id="clip0">
<rect width="217" height="168" fill="white"/>
</clipPath>
</defs>
</svg>
