<svg width="213" height="188" viewBox="0 0 213 188" fill="none" xmlns="http://www.w3.org/2000/svg">
<g clip-path="url(#clip0)">
<path d="M170.33 91.2778C171.534 89.4719 173.61 88.44 175.691 87.8326C180.949 86.3009 187.019 87.1877 191.197 90.735C195.37 94.2822 197.203 100.581 194.972 105.585C193.843 108.117 191.832 110.148 189.67 111.884C187.751 113.427 185.681 114.781 183.498 115.915" stroke="black" stroke-width="2" stroke-miterlimit="10" stroke-linecap="round"/>
<path d="M159.233 66.5167C159.233 66.5167 145.791 79.4158 138.263 82.1032C130.736 84.7905 165.147 160.573 179.664 167.023C194.181 173.472 213 149.286 213 149.286C213 149.286 169.448 107.901 162.996 73.5037C162.459 69.7415 161.921 63.8293 161.921 63.8293L159.233 66.5167Z" fill="#EE7D9F"/>
<path d="M35.949 187.178C60.0583 183.109 90.0875 92.9976 90.0875 92.9976L61.7036 69.5265C61.7036 69.5265 56.1494 78.3785 45.2776 108.907C37.2179 131.534 12.345 149.765 0 157.687L35.949 187.178Z" fill="#36D3B8"/>
<path d="M146.027 34.8547C146.027 34.8547 138.726 29.6251 135.999 34.0216C133.273 38.4181 136.327 44.3087 136.327 44.3087" stroke="black" stroke-miterlimit="10" stroke-linecap="round"/>
<path d="M146.027 34.8546C146.027 34.8546 144.93 33.5754 145.059 27.1366C145.995 17.9029 151.447 9.11534 154.501 15.006C157.555 20.8966 152.227 46.4799 152.227 46.4799L153.495 65.7534" stroke="black" stroke-miterlimit="10" stroke-linecap="round"/>
<path d="M145.608 23.5517C144.936 14.9845 143.688 4.98764 141.462 2.04771C137.338 -3.38607 132.79 3.72998 135.408 21.9339" stroke="black" stroke-miterlimit="10" stroke-linecap="round"/>
<path d="M134.639 10.7385C132.682 4.88017 125.192 -2.58522 127.816 23.4066" stroke="black" stroke-miterlimit="10" stroke-linecap="round"/>
<path d="M127.375 11.5179C125.198 5.20805 120.434 10.8084 123.042 21.2138" stroke="black" stroke-miterlimit="10" stroke-linecap="round"/>
<path d="M122.289 16.6883C120.391 11.6684 117.073 18.1878 119.391 26.8034C121.708 35.419 123.827 50.5433 128.343 50.984" stroke="black" stroke-miterlimit="10" stroke-linecap="round"/>
<path d="M126.665 50.2261L132.499 80.8455" stroke="black" stroke-miterlimit="10" stroke-linecap="round"/>
<path d="M77.6672 42.148C77.6672 42.148 84.9688 36.9185 87.6948 41.3149C90.4209 45.706 87.3722 51.5966 87.3722 51.5966" stroke="black" stroke-miterlimit="10" stroke-linecap="round"/>
<path d="M77.6672 42.148C77.6672 42.148 78.764 40.8688 78.635 34.43C77.6994 25.1964 72.2474 16.4088 69.1934 22.2994C66.1394 28.19 71.4678 53.7734 71.4678 53.7734L70.1989 73.0469" stroke="black" stroke-miterlimit="10" stroke-linecap="round"/>
<path d="M78.0865 30.8398C78.7586 22.2726 80.0061 12.2757 82.232 9.3358C86.356 3.90202 90.9047 11.0181 88.2862 29.222" stroke="black" stroke-miterlimit="10" stroke-linecap="round"/>
<path d="M89.0497 18.032C91.0068 12.1736 98.4966 4.70823 95.8728 30.7001" stroke="black" stroke-miterlimit="10" stroke-linecap="round"/>
<path d="M96.3192 18.806C98.4967 12.4961 103.261 18.0965 100.653 28.5018" stroke="black" stroke-miterlimit="10" stroke-linecap="round"/>
<path d="M101.4 23.9816C103.298 18.9617 106.616 25.4812 104.298 34.0967C101.981 42.7123 99.8624 57.8366 95.3459 58.2773" stroke="black" stroke-miterlimit="10" stroke-linecap="round"/>
<path d="M97.0234 57.5195L91.1896 89.5955" stroke="black" stroke-miterlimit="10" stroke-linecap="round"/>
<path d="M41.3257 187.715C65.4351 183.647 95.4642 93.5351 95.4642 93.5351L67.0804 70.064C67.0804 70.064 61.5262 78.916 50.6544 109.444C42.6 132.071 17.7218 150.297 5.37677 158.224L41.3257 187.715Z" stroke="black" stroke-miterlimit="10" stroke-linecap="round"/>
<path d="M155.377 65.1838C148.958 71.2411 141.677 76.3846 133.817 80.4102C132.86 80.8993 131.838 81.4314 131.343 82.3827C130.816 83.3932 131.021 84.6132 131.263 85.7204C132.263 90.3372 133.671 94.8519 135.08 99.3559C140.183 115.695 145.382 132.238 154.469 146.744C159.259 154.398 165.099 161.396 171.76 167.485C172.852 168.479 173.992 169.474 175.363 170.016C177.68 170.936 180.299 170.457 182.697 169.769C192.23 167.028 200.8 161.046 206.655 153.038C206.892 152.71 207.139 152.35 207.129 151.947C207.118 151.571 206.892 151.237 206.666 150.931C199.176 140.536 191.477 130.287 183.578 120.193C181.25 117.221 178.906 114.26 176.691 111.202C166.921 97.7274 159.63 81.5658 155.469 65.4526" stroke="black" stroke-miterlimit="10" stroke-linecap="round"/>
<path d="M150.538 140.375C122.714 150.807 101.18 148.744 72.9356 158.155C64.8705 160.842 62.1821 170.516 65.4082 173.741C69.9731 178.304 78.9576 178.938 86.2108 177.767" stroke="black" stroke-width="2" stroke-miterlimit="10" stroke-linecap="round"/>
<path d="M51.321 92.9814C45.5733 96.5556 40.3686 100.807 37.0565 106.622C35.1585 109.955 34.0187 114.238 35.965 117.544C36.8038 118.968 38.1211 120.043 39.4761 120.994C53.1061 130.561 71.3226 130.007 87.7378 127.207C99.8731 125.138 111.879 122.048 123.208 117.227C128.391 115.023 133.451 112.448 138.656 110.325" stroke="black" stroke-width="2" stroke-miterlimit="10" stroke-linecap="round"/>
<path d="M155.2 35.075C157.587 32.0007 160.932 30.6517 164.819 30.6624C165.878 30.6678 166.975 30.8129 167.878 31.3719C169.83 32.5704 170.266 35.2739 169.809 37.5205C168.744 42.7823 164.217 46.5553 159.824 49.6457C141.43 62.5825 120.203 71.4775 98.0774 75.5139C96.5558 75.7934 95.0234 76.046 93.4964 76.304" stroke="black" stroke-width="2" stroke-miterlimit="10" stroke-linecap="round"/>
<path d="M91.8834 177.906C92.9211 177.906 92.9211 176.294 91.8834 176.294C90.8457 176.294 90.8457 177.906 91.8834 177.906Z" fill="black"/>
<path d="M96.6793 177.272C97.7171 177.272 97.7171 175.66 96.6793 175.66C95.6416 175.66 95.6416 177.272 96.6793 177.272Z" fill="black"/>
<path d="M100.088 177.02C101.126 177.02 101.126 175.407 100.088 175.407C99.0506 175.407 99.0506 177.02 100.088 177.02Z" fill="black"/>
</g>
<defs>
<clipPath id="clip0">
<rect width="213" height="188" fill="white"/>
</clipPath>
</defs>
</svg>
