<svg width="212" height="190" viewBox="0 0 212 190" fill="none" xmlns="http://www.w3.org/2000/svg">
<g clip-path="url(#clip0)">
<path d="M0.740449 127.559L7.608 119.164C8.33754 118.27 9.75822 118.5 10.1751 119.57L11.3819 122.673C11.9962 124.247 14.2177 124.274 14.865 122.717L21.7271 106.235C22.2207 105.05 23.9157 105.116 24.3216 106.328L27.0478 114.52C27.525 115.956 29.3955 116.302 30.3609 115.139L49.8829 91.5182L39.7681 133.831L0.296143 129.11L0.740449 127.559Z" fill="#FAE24C"/>
<path d="M188.863 47.2697C196.546 47.2697 202.774 41.0442 202.774 33.3646C202.774 25.685 196.546 19.4595 188.863 19.4595C181.181 19.4595 174.953 25.685 174.953 33.3646C174.953 41.0442 181.181 47.2697 188.863 47.2697Z" fill="#FAE24C"/>
<path d="M28.1998 35.1686L53.1688 33.5072L54.2823 64.5634L30.9754 66.7841L28.1998 35.1686Z" stroke="black" stroke-miterlimit="10" stroke-linecap="round"/>
<path d="M53.1687 33.5072L30.9753 66.7841" stroke="black" stroke-miterlimit="10" stroke-linecap="round"/>
<path d="M28.1998 35.1686L54.2823 64.5634" stroke="black" stroke-miterlimit="10" stroke-linecap="round"/>
<path d="M145.332 14.278L207.733 0.334473L211.709 51.1846L166.105 54.3319L162.956 54.6225" stroke="black" stroke-miterlimit="10" stroke-linecap="round"/>
<path d="M186.669 45.6248C194.352 45.6248 200.58 39.3993 200.58 31.7197C200.58 24.0401 194.352 17.8146 186.669 17.8146C178.986 17.8146 172.758 24.0401 172.758 31.7197C172.758 39.3993 178.986 45.6248 186.669 45.6248Z" stroke="black" stroke-miterlimit="10" stroke-linecap="round"/>
<path d="M194.222 13.8448L187.064 30.5299L203.756 20.9948L194.222 13.8448Z" stroke="black" stroke-miterlimit="10" stroke-linecap="round"/>
<path d="M2.96197 84.6095L0.290649 129.894L42.4888 134.105" stroke="black" stroke-miterlimit="10" stroke-linecap="round"/>
<path d="M0.740479 122.202L7.60803 113.807C8.33757 112.913 9.75825 113.144 10.1751 114.213L11.3819 117.316C11.9962 118.89 14.2178 118.917 14.865 117.36L21.7271 100.878C22.2208 99.6935 23.9157 99.7593 24.3216 100.971L27.0478 109.163C27.525 110.599 29.3955 110.945 30.3609 109.782L49.883 86.1613" stroke="black" stroke-miterlimit="10" stroke-linecap="round"/>
<path d="M136.715 79.9544C129.375 69.4269 126.874 57.3257 133.698 60.7526C139.989 63.9109 144.054 74.6906 144.054 74.6906" stroke="black" stroke-miterlimit="10" stroke-linecap="round"/>
<path d="M141.959 76.7962C141.959 76.7962 158.261 60.1331 166.648 58.0276C175.035 55.9221 169.144 63.6697 163.9 68.9334C158.656 74.1972 152.918 82.5699 152.918 82.5699" stroke="black" stroke-miterlimit="10" stroke-linecap="round"/>
<path d="M152.441 106.273C158.733 104.168 166.247 99.359 169.39 96.2008C172.533 93.0425 172.358 90.4764 169.215 90.4764C166.072 90.4764 161.876 93.6347 161.876 93.6347" stroke="black" stroke-miterlimit="10" stroke-linecap="round"/>
<path d="M159.78 85.295C167.663 80.6563 173.51 86.6603 167.12 90.482" stroke="black" stroke-miterlimit="10" stroke-linecap="round"/>
<path d="M155.661 79.8393C162.523 73.0238 168.014 79.8393 162.523 83.9297" stroke="black" stroke-miterlimit="10" stroke-linecap="round"/>
<path d="M134.674 76.7906C134.614 87.3237 131.471 103.115 110.501 126.281C89.5304 149.447 70.6611 168.397 70.6611 168.397" stroke="black" stroke-miterlimit="10" stroke-linecap="round"/>
<path d="M100.633 174.527C94.5385 180.964 89.4097 185.531 85.5426 187.253C73.7219 192.528 60.1184 190.104 55.9825 172.608C54.9568 168.26 54.0792 154.837 54.0792 154.837" stroke="black" stroke-miterlimit="10" stroke-linecap="round"/>
<path d="M107.045 167.547C106.244 168.462 106.332 168.358 105.767 168.994" stroke="black" stroke-miterlimit="10" stroke-linecap="round"/>
<path d="M154.289 105.747C154.289 105.747 133.846 135.301 114.324 158.971" stroke="black" stroke-miterlimit="10" stroke-linecap="round"/>
<path d="M140.127 30.8698C142.189 34.3405 143.314 36.0677 145.376 39.5385C147.109 42.461 148.859 45.4164 149.978 48.6953C151.031 51.7768 151.498 55.116 151.349 58.4168C151.262 60.3578 150.933 62.3591 149.951 63.9547C148.508 66.2905 145.941 67.3378 143.5 68.0177C142.694 68.2425 141.871 68.4399 141.037 68.5769" stroke="black" stroke-miterlimit="10"/>
<path d="M139.957 27.4922C140.927 31.6264 139.737 36.2048 136.874 39.3411C134.011 42.4775 129.556 44.084 125.349 43.4918C124.389 48.2841 119.661 51.4039 114.988 52.857C112.744 53.5533 110.172 53.9591 108.148 52.7637C106.716 51.9194 105.377 50.2689 103.787 50.746C102.465 51.1408 102.015 52.7583 101.823 54.1236C101.417 56.9638 101.346 60.2646 103.436 62.2276C105.739 64.3879 109.393 63.8012 112.464 63.0774C112.667 68.8127 112.804 74.5535 112.876 80.2888" stroke="black" stroke-miterlimit="10"/>
<path d="M113.156 79.9708C90.2656 90.1365 69.7397 105.566 53.6185 124.718C46.9429 132.652 40.8598 141.568 39.0277 151.772" stroke="black" stroke-miterlimit="10"/>
<path d="M81.16 157.644C66.8544 156.18 53.5087 154.338 39.1977 151.498" stroke="black" stroke-miterlimit="10"/>
<path d="M102.004 123.885C99.9141 129.982 97.8242 136.079 95.7343 142.176" stroke="black" stroke-miterlimit="10"/>
<path d="M141.021 59.0748C138.838 59.4915 136.506 59.0474 134.625 57.8685" stroke="black" stroke-miterlimit="10"/>
<path d="M142.869 30.8698C143.966 26.6588 140.055 22.0804 136.583 19.4485C130.127 14.5576 120.857 14.3328 113.523 17.7761C106.189 21.2195 100.709 27.876 97.3854 35.2562C94.4124 41.8579 93.0082 49.0462 90.5343 55.8507C88.0604 62.6552 84.2043 69.383 77.9127 72.9689C74.5447 74.8935 70.5624 75.864 67.7375 78.5233C63.8649 82.175 63.1683 87.9761 62.7021 93.2728C62.2029 98.9752 61.7805 105.089 64.6054 110.073C64.8742 110.55 65.7025 110.95 65.8122 110.413" stroke="black" stroke-miterlimit="10"/>
<path d="M142.738 30.6725C142.436 32.0871 143.451 33.4085 144.405 34.4942C149.287 40.0705 154.218 45.7016 160.192 50.0936C163.949 52.8571 168.079 55.1051 171.7 58.055C173.131 59.2229 174.497 60.5169 175.413 62.118C175.912 62.9898 176.274 63.9329 176.598 64.887C178.902 71.6476 179.516 78.973 178.364 86.0188C178.315 86.3258 178.15 86.7261 177.838 86.6822" stroke="black" stroke-miterlimit="10"/>
<path d="M164.273 82.2244C164.591 82.3121 164.909 82.3998 165.222 82.493C172.259 84.5931 179.127 86.9179 185.106 91.1837C189.061 94.002 193.679 98.8381 196.625 102.698C201.485 109.064 204.853 115.858 206.498 124.082" stroke="black" stroke-miterlimit="10"/>
<path d="M206.498 124.082C198.786 133.469 184.974 138.865 174.547 143.975C174.267 137.708 173.669 131.457 172.764 125.261" stroke="black" stroke-miterlimit="10"/>
<path d="M174.508 142.522C174.772 146.897 174.382 151.295 173.345 155.605" stroke="black" stroke-miterlimit="10"/>
<path d="M103.474 50.7899C103.469 50.7955 103.463 50.7955 103.452 50.8011C103.463 50.7955 103.469 50.7955 103.474 50.7899Z" fill="black"/>
<path d="M103.479 50.7901C103.485 50.7845 103.496 50.7789 103.502 50.7789H103.496C103.491 50.7845 103.485 50.7845 103.479 50.7901Z" fill="black"/>
<path d="M150.834 43.2781C151.064 43.0533 151.02 42.7298 150.834 42.505C148.876 40.0814 146.868 37.6963 144.816 35.355C143.928 33.9788 143.248 32.4599 143.319 30.7821C143.33 30.5354 143.198 30.3764 143.023 30.3051C143.259 27.887 142.085 25.5458 140.626 23.6815C140.324 23.2922 139.995 22.9303 139.655 22.5739C139.627 22.4369 139.584 22.2998 139.518 22.1737C139.276 21.7241 138.947 21.2964 138.558 20.9674C138.355 20.7974 138.141 20.6274 137.916 20.4904C137.729 20.3752 137.318 20.112 137.11 20.123C137.099 20.123 137.093 20.123 137.082 20.1175C137.06 20.0956 137.033 20.0736 137.016 20.0572C136.83 19.8269 136.676 19.5692 136.457 19.3663C136.007 18.9441 135.492 18.6864 134.927 18.4561C134.735 18.3794 134.543 18.3026 134.345 18.2258C134.257 18.1381 134.159 18.0559 134.038 17.9901C133.621 17.7653 133.204 17.5405 132.787 17.3102C132.7 17.2663 132.617 17.2279 132.535 17.2005C132.469 17.1566 132.403 17.1128 132.337 17.0744C131.762 16.7235 131.136 16.4548 130.483 16.2848C129.09 15.9229 127.604 15.7694 126.167 15.6872C124.746 15.6049 123.32 15.6433 121.905 15.7968C121.789 15.8078 121.674 15.8243 121.564 15.8407C121.531 15.8297 121.499 15.8188 121.46 15.8078C120.939 15.6872 120.402 15.6762 119.88 15.8133C119.551 15.901 119.261 16.0436 118.986 16.23C118.553 16.2958 118.125 16.4 117.703 16.5371C117.67 16.5261 117.642 16.5151 117.61 16.5096C116.913 16.389 116.348 16.4932 115.717 16.7948C115.361 16.9647 115.02 17.1676 114.68 17.365C114.274 17.5953 113.88 17.842 113.49 18.0943C113.43 18.1052 113.364 18.1107 113.304 18.1272C112.7 18.3026 112.108 18.5658 111.603 18.9386C111.499 19.0154 111.395 19.1031 111.291 19.1744C111.241 19.2073 111.192 19.2402 111.142 19.2731C111.033 19.2841 110.83 19.3773 110.753 19.4047C110.545 19.476 110.331 19.5637 110.133 19.6679C109.574 19.9749 109.091 20.4794 108.614 20.8961C108.312 21.1593 108.027 21.4225 107.763 21.7131C107.528 21.7624 107.308 21.8776 107.149 22.075C107.023 22.234 106.897 22.393 106.771 22.552C106.612 22.6178 106.458 22.7165 106.31 22.87C106.085 23.1003 105.871 23.347 105.657 23.5828C105.613 23.6157 105.569 23.6486 105.525 23.6815C105.405 23.7692 105.279 23.8625 105.163 23.9612C105.147 23.9721 105.136 23.9831 105.125 23.9995C105.054 24.0928 104.982 24.186 104.911 24.2792C104.884 24.3395 104.862 24.3998 104.834 24.4601C104.807 24.5204 104.79 24.5698 104.774 24.6246C104.598 24.6904 104.428 24.7891 104.275 24.9152C103.255 25.7596 102.459 26.9769 101.757 28.0899C101.543 28.4299 101.34 28.7753 101.148 29.1262C100.934 29.2414 100.742 29.4113 100.594 29.6252C98.7786 32.2406 97.3854 35.1467 96.4583 38.1898C96.4145 38.2117 96.3706 38.2227 96.3267 38.2501C96.014 38.4475 95.8166 38.7162 95.6959 39.0671C95.5313 39.5496 95.3668 40.0321 95.2022 40.5146C95.1199 40.7504 95.0322 40.9807 94.9664 41.2164C94.8841 41.4961 94.8621 41.7922 94.9005 42.0828C94.2533 43.2561 93.8803 44.5502 93.5676 45.8825C93.1123 47.84 92.5693 49.7646 91.8562 51.6453C91.5929 52.3361 92.1469 53.1476 92.8161 53.3341C92.9478 53.3724 93.0794 53.3779 93.2056 53.3779C93.063 53.8166 92.9149 54.2552 92.7338 54.6774C92.6516 54.7926 92.5803 54.9187 92.5309 55.0722C92.498 55.1819 92.4596 55.2915 92.4267 55.3957C92.0317 56.6458 93.6773 57.5725 94.5659 56.909C94.6153 56.9365 94.6647 56.9639 94.7195 56.9858C94.8566 57.0406 95.0102 57.0735 95.1638 57.079C95.3997 57.5615 95.9263 57.8521 96.4529 57.8631C96.9081 58.5704 98.1094 58.6362 98.6963 57.9673C98.6744 58.1647 98.6525 58.3621 98.636 58.5594C98.6195 58.7075 98.6031 58.8555 98.5921 58.9981C98.5044 59.1187 98.4385 59.2558 98.4001 59.4093C98.2411 60.1002 98.6086 60.9336 99.3601 61.0981C100.057 61.2462 100.715 61.0104 101.066 60.3689C101.296 59.9522 101.285 59.4642 101.335 59.0036C101.417 58.2359 101.494 57.4683 101.576 56.7007C101.73 55.2367 101.883 53.7672 102.031 52.3032C102.031 52.2813 102.026 52.2649 102.031 52.2429C102.037 52.232 102.042 52.221 102.048 52.21C102.13 52.062 102.218 51.9139 102.317 51.7714C102.344 51.7275 102.377 51.6837 102.41 51.6453C102.421 51.6343 102.426 51.6288 102.443 51.6124C102.542 51.4917 102.651 51.3821 102.766 51.2724C102.816 51.2231 102.871 51.1737 102.925 51.1299C102.931 51.1244 102.931 51.1244 102.936 51.1189C103.063 51.0367 103.183 50.9544 103.309 50.8831C103.337 50.8667 103.425 50.8338 103.485 50.8064C103.408 50.8393 103.298 50.8612 103.49 50.7899C103.501 50.7844 103.512 50.7844 103.523 50.7789C103.529 50.7735 103.54 50.768 103.54 50.7625C103.54 50.768 103.534 50.7735 103.529 50.7735C103.666 50.7241 103.803 50.6857 103.94 50.6528C103.962 50.6474 103.979 50.6419 104.001 50.6419C104.044 50.6364 104.083 50.6309 104.121 50.6254C104.258 50.6199 104.406 50.6364 104.544 50.6309C104.549 50.6309 104.555 50.6309 104.56 50.6364C104.642 50.6528 104.725 50.6748 104.807 50.7022C104.988 50.757 105.174 50.7625 105.361 50.7351C106.14 51.2724 106.913 51.8098 107.692 52.3471C108.658 53.0106 109.996 53.8495 111.131 53.3615C113.671 53.3341 116.249 52.9941 118.246 51.2944C118.992 50.9599 119.716 50.587 120.402 50.1374C122.014 49.0902 123.764 47.7468 124.362 45.8442C124.384 45.7729 124.395 45.6961 124.406 45.6248C124.795 44.9559 125.124 44.2596 125.355 43.5358C127.867 44.0786 130.494 43.6016 132.634 42.2473C133.391 42.154 134.109 41.7812 134.756 41.3645C135.497 40.882 136.194 40.3062 136.792 39.6538C137.389 39.0013 137.921 38.272 138.333 37.4934C138.602 36.989 138.87 36.4242 139.04 35.843C139.452 34.9876 139.677 34.0336 139.776 33.0905C139.88 32.6683 139.973 32.2406 140.044 31.8184C140.258 31.9884 140.527 32.0871 140.834 32.0706C141.18 32.0542 141.525 31.8952 141.789 31.6539C141.821 31.6813 141.849 31.7197 141.882 31.7362C141.964 31.78 142.052 31.7965 142.145 31.802C142.167 31.9281 142.189 32.0542 142.211 32.1858C142.227 32.2955 142.321 32.4051 142.414 32.4764C142.705 33.8691 143.39 35.1741 144.202 36.3529C144.789 37.2028 145.425 38.0143 146.045 38.8368C146.67 39.6647 147.257 40.5475 147.981 41.2987C148.047 41.37 148.124 41.4083 148.195 41.4358C148.322 41.6057 148.453 41.7702 148.574 41.9402C148.826 42.2966 149.073 42.664 149.309 43.0313C149.43 43.2178 149.545 43.4042 149.66 43.5906C149.715 43.6838 149.775 43.777 149.83 43.8703C149.803 43.969 149.786 44.0731 149.814 44.1718C149.896 44.4734 150.198 44.6105 150.488 44.5556C150.806 44.4953 150.987 44.1828 150.976 43.8757C150.971 43.6838 150.889 43.5084 150.79 43.3439C150.779 43.3165 150.812 43.3055 150.834 43.2781Z" fill="black"/>
<path d="M112.574 78.6604C112.695 76.1217 112.678 73.5886 112.525 71.0554C112.689 70.9786 112.815 70.8251 112.81 70.5838C112.733 68.3467 112.602 66.1151 112.41 63.889C112.36 63.3023 111.696 63.2146 111.428 63.5984C111.389 63.5984 111.345 63.6039 111.307 63.6203C111.252 63.6367 111.197 63.6587 111.142 63.6806C111.033 63.4503 110.769 63.2749 110.495 63.3407C109.738 63.5216 108.976 63.7025 108.219 63.8835L107.423 63.8012C107.018 63.6916 106.595 63.6422 106.173 63.6696C105.213 63.3023 104.253 62.9294 103.375 62.3866C103.288 62.1892 103.194 61.9918 103.112 61.7889C102.904 61.29 102.547 60.8897 102.092 60.6978C101.894 59.8918 101.697 59.0858 101.499 58.2743C101.285 57.397 100.655 57.057 100.007 57.0899C99.8592 56.9035 99.6727 56.761 99.4533 56.6677C99.3217 56.0811 98.8335 55.6808 98.2795 55.5327C97.9229 55.0612 97.2592 54.8912 96.6339 55.0064C96.7491 54.4361 96.8478 53.8659 96.9191 53.2902C97.0618 52.1606 96.1731 51.6507 95.2845 51.7384C94.8073 51.2066 93.9132 51.0147 93.2111 51.3327C92.5145 51.4588 91.8672 51.9633 91.7795 52.8515C91.6204 53.1805 91.5162 53.4821 91.4503 53.8001C91.2638 54.3648 91.0993 54.9351 90.9347 55.5108C90.836 55.6643 90.7482 55.8398 90.6989 56.0536C90.6659 56.1962 90.6221 56.3333 90.5837 56.4758C90.463 56.6184 90.3588 56.7774 90.282 56.9748C89.6731 58.5484 89.0094 60.0947 88.3237 61.6299C88.1976 61.7506 88.0824 61.8986 87.9946 62.085C86.5026 65.1665 84.325 67.6997 81.9389 70.1232C81.3245 70.7483 80.6608 71.324 79.9752 71.8778C79.9203 71.8888 79.8655 71.8998 79.8106 71.9162C78.4503 72.3878 77.3697 73.3473 76.0477 73.934C75.1975 74.3123 74.4131 74.74 73.6671 75.2444C73.5519 75.2773 73.4367 75.3267 73.3161 75.398C73.0528 75.3815 72.784 75.4144 72.5207 75.5241C72.2409 75.6392 71.9831 75.7818 71.7144 75.9189C71.2975 75.9847 71.0068 76.1766 70.8148 76.4343C70.3156 76.7468 69.8549 77.0977 69.4105 77.4761C69.2954 77.5254 69.1802 77.5912 69.065 77.6844C68.33 78.2492 67.6991 78.8743 67.1506 79.5377C66.8544 79.5925 66.5637 79.7461 66.3004 80.0312C63.3768 83.2004 62.6308 88.371 62.9434 93.0645C61.8573 94.6381 62.0329 97.2755 62.0384 98.9698C62.0493 100.971 61.9725 103.839 63.0696 105.73C63.0092 105.906 62.9708 106.098 62.9818 106.323C63.0038 107.107 63.3219 107.721 63.6236 108.428C63.8759 109.031 64.1063 109.656 64.4354 110.221C64.9455 111.098 66.0371 111.224 66.816 110.704C68.0173 110.172 68.9224 109.075 69.811 108.083C70.0304 108.017 70.2443 107.907 70.4527 107.726C72.6469 105.813 74.841 103.899 77.0351 101.991C77.26 101.794 77.4026 101.58 77.4848 101.36C79.8216 99.7977 82.2625 98.3063 84.2208 96.3543C84.3524 96.2227 84.4457 96.0857 84.5224 95.9486C86.6946 94.4462 88.8668 92.9493 91.209 91.7157C91.4942 91.5621 91.6917 91.3647 91.8233 91.1454C92.0921 91.0138 92.3554 90.8877 92.6187 90.7451C92.8162 90.8877 93.0904 90.9316 93.3153 90.7122C94.2752 89.813 95.5204 89.3689 96.6723 88.7767C97.923 88.1297 98.9981 87.2031 100.227 86.5122C101.39 85.8597 102.618 85.3279 103.798 84.7137C104.423 84.3902 105.032 84.0393 105.608 83.6336C106.156 83.2498 106.661 82.7837 107.297 82.5534C107.396 82.515 107.467 82.4547 107.522 82.3889C107.698 82.3834 107.829 82.3121 107.917 82.2025C107.983 82.208 108.054 82.208 108.131 82.186C108.844 81.9777 109.475 81.5774 110.117 81.2155C110.21 81.2429 110.303 81.2539 110.402 81.2265C110.907 81.0839 111.362 80.8208 111.74 80.4589C112.086 80.4698 112.42 80.2779 112.591 79.9489C112.804 79.5377 112.662 79.1429 112.569 78.7317C112.569 78.7152 112.574 78.6878 112.574 78.6604Z" fill="black"/>
<path d="M177.695 69.1856C177.042 66.137 176.395 62.8307 174.327 60.3962C174.036 60.0507 173.702 59.8972 173.367 59.8643C173.373 59.3708 173.06 59.0254 172.682 58.6964C172.287 58.351 171.87 58.0275 171.447 57.7149C170.855 57.2873 170.219 56.887 169.528 56.6457C169.517 56.6074 169.517 56.5635 169.5 56.5251C169.325 56.0536 168.875 55.8123 168.403 55.8068C168.074 55.3572 167.641 54.9953 167.18 54.6828C166.598 54.288 165.995 53.9261 165.403 53.5588C164.152 52.7747 162.89 52.007 161.623 51.2449C161.536 51.1901 161.442 51.1572 161.344 51.1352C161.031 50.872 160.724 50.6034 160.411 50.3402C159.347 49.4574 158.31 48.5088 157.054 47.9167C156.347 47.2093 155.644 46.4965 154.931 45.7947C154.333 45.208 153.736 44.6268 153.138 44.0456C152.677 43.6015 152.205 43.2067 151.711 42.8284C151.711 42.8229 151.706 42.8229 151.706 42.8174L151.69 42.79C151.574 42.5926 151.371 42.4226 151.146 42.3294C149.32 39.9333 147.279 37.7017 145.233 35.4865C144.981 35.2123 144.646 35.3056 144.46 35.5249C144.241 35.2069 144.021 34.8834 143.791 34.5653C143.752 34.5105 143.714 34.4557 143.67 34.4063C143.758 34.2638 143.78 34.0773 143.67 33.8854C143.527 33.6277 143.352 33.3974 143.154 33.1891C142.968 32.9643 142.776 32.7395 142.6 32.5037C142.611 32.4324 142.606 32.3611 142.584 32.2844C142.502 32.0212 142.392 31.7799 142.244 31.5551C142.206 31.4729 142.167 31.3906 142.123 31.3084C142.046 31.1439 141.92 31.0616 141.789 31.0342C141.778 31.0233 141.767 31.0123 141.756 31.0013C141.355 30.6669 140.681 30.9739 140.84 31.5332C141.01 32.1363 141.35 32.6298 141.717 33.1014C141.712 33.1617 141.717 33.2275 141.745 33.2933C142.216 34.4612 143.089 35.4262 143.785 36.4625C144.208 37.093 144.614 37.74 145.003 38.3925C144.998 38.4912 145.025 38.5954 145.091 38.6996C145.436 39.226 145.765 39.7578 146.106 40.2842C145.996 40.4926 146.045 40.7338 146.199 40.9202C146.61 41.4356 146.994 41.973 147.362 42.5213C147.362 42.6035 147.378 42.6913 147.427 42.779C148.289 44.3307 149.068 45.9263 149.759 47.5603C149.786 47.7138 149.836 47.8618 149.934 47.9934C149.934 47.9934 149.934 47.9989 149.94 47.9989C149.874 48.1853 149.852 48.3937 149.912 48.6349C149.978 48.9036 150.038 49.1778 150.099 49.4464C150.066 49.6712 150.104 49.907 150.23 50.1263C150.247 50.1538 150.258 50.1812 150.274 50.2086C150.603 51.689 150.894 53.1749 151.179 54.6609C151.349 55.5491 151.382 56.2948 151.218 57.1886C151.048 58.1097 150.965 59.0364 150.878 59.963C150.845 60.3194 151.048 60.6429 151.338 60.8458C151.256 61.0267 151.19 61.2132 151.141 61.4105C151.015 61.4489 150.894 61.5257 150.839 61.6463C150.203 63.0116 149.545 64.3824 148.777 65.6874C148.47 65.6216 148.234 65.8573 148.009 66.0328C147.8 66.1973 147.592 66.3618 147.384 66.5263C147.186 66.6798 146.994 66.8333 146.797 66.9923C146.692 66.9485 146.572 66.9265 146.462 66.9704C145.661 67.2884 144.844 67.5681 144.016 67.8203C143.933 67.8258 143.851 67.8422 143.763 67.8916C143.747 67.9025 143.73 67.908 143.714 67.9135C143.593 67.9464 143.478 67.9902 143.357 68.0231C143.094 68.0944 142.831 68.1657 142.568 68.237C142.436 68.2699 142.299 68.2973 142.178 68.3466C142.063 68.3521 141.953 68.3631 141.838 68.3576C141.443 68.3466 141.125 68.8401 141.366 69.1801C142.019 70.1122 142.611 71.0827 143.154 72.0751C143.056 72.2067 143.006 72.3712 143.05 72.5467C143.116 72.8099 143.198 73.084 143.357 73.3034C143.456 73.4404 143.571 73.5666 143.681 73.6981C143.687 73.7146 143.687 73.7256 143.692 73.742C143.758 73.9449 143.868 74.0929 143.999 74.2519C144.038 74.2794 144.076 74.3068 144.109 74.3397C144.169 74.378 144.241 74.4 144.312 74.4055C144.427 74.4219 144.559 74.4055 144.663 74.3397C144.74 74.2903 144.811 74.2245 144.86 74.1423C144.871 74.1203 144.882 74.0984 144.888 74.082C144.926 74.0491 144.965 74.0162 144.998 73.9668C145.261 73.5446 145.579 73.1772 145.952 72.8483C146.106 72.7057 146.138 72.5412 146.106 72.3877C146.243 72.2945 146.38 72.2013 146.511 72.108C146.78 71.9161 147.049 71.7133 147.318 71.5104C147.598 71.2966 147.85 71.0882 148.058 70.8086C148.826 70.1945 149.616 69.5913 150.335 68.9224C151.097 68.2096 151.755 67.4255 152.628 66.8388C154.366 65.6654 155.765 64.0973 157.509 62.9403C157.575 62.8965 157.63 62.8416 157.668 62.7868C157.877 62.8032 158.08 62.7594 158.255 62.6333C159.369 61.8108 160.504 61.0212 161.662 60.2646C162.221 59.8972 162.792 59.5353 163.362 59.1844C163.466 59.1186 163.571 59.0528 163.68 58.9815C163.757 58.998 163.834 59.0144 163.916 59.0144C164.278 59.0254 164.635 58.9048 164.942 58.7129C165.101 58.6142 165.249 58.51 165.414 58.4277C166.083 58.181 166.779 57.9891 167.454 57.7698C167.46 57.7698 167.471 57.7643 167.476 57.7588C167.734 57.8082 168.008 57.7753 168.228 57.6382C168.31 57.5888 168.376 57.523 168.442 57.4627C168.48 57.4901 168.529 57.5011 168.573 57.5176C168.579 57.5176 168.584 57.5176 168.584 57.523C168.628 57.5395 168.672 57.5504 168.716 57.5559C169.418 57.7095 170.032 58.0549 170.619 58.4661C170.712 58.5319 170.8 58.6087 170.893 58.6745C170.866 58.7183 170.839 58.7622 170.817 58.8116C170.789 58.8938 170.756 58.976 170.729 59.0528C170.69 59.168 170.707 59.2831 170.751 59.3873C170.74 59.5189 170.734 59.656 170.751 59.7821C170.597 59.963 170.466 60.1714 170.383 60.4071C170.361 60.4729 170.339 60.5387 170.312 60.6045C170.208 60.9006 170.197 61.1638 170.241 61.4051C169.846 61.4983 169.489 61.7286 169.275 62.1508C168.666 63.357 168.008 64.514 167.29 65.6435C166.593 66.3727 165.929 67.1294 165.277 67.897C163.077 69.3884 161.344 71.3788 159.643 73.3966C159.418 73.6652 159.265 73.9504 159.248 74.3068C159.106 74.4713 158.963 74.6357 158.82 74.8002C158.568 74.9154 158.332 75.1402 158.201 75.3595C158.146 75.4473 158.107 75.5514 158.074 75.6611C157.668 76.1381 157.274 76.6206 156.906 77.1306C156.846 77.2128 156.835 77.317 156.84 77.4212C156.368 77.794 155.957 78.2272 155.551 78.6658C155.359 78.8797 155.326 79.2361 155.551 79.4389C155.76 79.6308 156.122 79.6637 156.325 79.4389C156.549 79.1922 156.769 78.9509 157.01 78.7207C157.125 78.6055 157.246 78.4904 157.372 78.3862C157.427 78.3423 157.482 78.293 157.537 78.2491C157.548 78.2381 157.575 78.2217 157.586 78.2107C157.619 78.1833 157.657 78.1614 157.69 78.134C158.102 77.8488 158.557 77.6405 158.952 77.3444C158.974 77.3554 158.996 77.3608 159.012 77.3718C159.254 77.4376 159.501 77.4376 159.742 77.3718C160.17 77.2841 160.537 77.0593 160.921 76.8674C160.971 76.8509 161.025 76.84 161.08 76.8235C161.278 76.818 161.475 76.8235 161.673 76.8125C161.793 76.8071 161.903 76.7851 162.018 76.7522C162.101 76.7632 162.199 76.7742 162.232 76.7742C162.358 76.8016 162.485 76.8345 162.611 76.8729C162.644 76.8783 162.66 76.8838 162.677 76.8893C162.687 76.9003 162.704 76.9112 162.731 76.9222C162.874 77.0044 163.017 77.0867 163.154 77.1744C163.176 77.1909 163.192 77.2018 163.209 77.2128C163.258 77.2567 163.313 77.3005 163.362 77.3499C163.483 77.465 163.593 77.5857 163.708 77.7063C163.719 77.7227 163.73 77.7282 163.735 77.7392C163.768 77.783 163.801 77.8324 163.828 77.8763C163.916 78.0079 163.998 78.1449 164.075 78.2875C164.092 78.3204 164.234 78.6274 164.24 78.6274C164.36 78.929 164.454 79.247 164.531 79.5596C164.607 79.8721 164.668 80.1846 164.712 80.5027C164.712 80.5027 164.712 80.5136 164.712 80.541C164.673 80.6014 164.635 80.6617 164.602 80.7275C164.344 81.2593 164.344 81.9557 164.816 82.3888C165.2 82.7452 165.754 82.8823 166.242 82.7123C166.341 82.7452 166.445 82.7727 166.544 82.8056L167.52 83.1016C168.195 83.31 168.875 83.5129 169.55 83.7212C169.599 83.7377 169.648 83.7377 169.692 83.7432C169.752 83.8419 169.846 83.9241 169.972 83.9625C171.239 84.3682 172.495 84.8124 173.74 85.2894C174.371 85.5361 175.002 85.7884 175.627 86.057C176.165 86.2873 176.779 86.4902 177.245 86.8576C177.553 87.0988 178.052 87.055 178.161 86.6163C178.436 85.5471 178.617 84.4614 178.715 83.3648C178.732 83.1839 178.666 83.0468 178.567 82.9591C178.661 82.515 178.715 82.0763 178.71 81.6377C178.77 80.9632 178.814 80.2888 178.814 79.6089C178.814 79.587 178.809 79.5705 178.809 79.5541C178.82 79.5047 178.836 79.4664 178.842 79.417C179.33 76.1217 178.386 72.4206 177.695 69.1856ZM148.393 40.8928C148.327 40.7996 148.261 40.7119 148.19 40.6187C148.02 40.3939 147.74 40.2787 147.477 40.4103C147.246 40.0429 147.011 39.6811 146.775 39.3192C146.769 39.2972 146.769 39.2808 146.758 39.2643C146.522 38.8367 146.276 38.4145 146.029 37.9978C146.884 38.9408 147.735 39.8949 148.557 40.8709C148.503 40.8654 148.448 40.8764 148.393 40.8928Z" fill="black"/>
<path d="M114.258 158.878C111.757 158.045 109.239 157.189 106.634 156.745C105.372 156.531 104.094 156.411 102.816 156.455C101.878 156.487 100.803 156.548 100.051 157.184C99.2779 157.842 99.3766 158.922 100.018 159.635C100.402 160.057 100.929 160.309 101.45 160.517C102.048 160.759 102.657 160.962 103.271 161.159C105.8 161.965 108.361 162.634 110.863 163.517C113.77 164.548 116.65 165.65 119.535 166.724C119.864 166.85 120.007 166.319 119.683 166.198C114.999 164.454 110.353 162.639 105.542 161.263C104.368 160.929 103.2 160.583 102.053 160.161C101.516 159.964 100.94 159.761 100.518 159.361C100.134 158.999 99.8812 158.423 100.139 157.919C100.55 157.118 101.774 157.047 102.553 157.008C103.781 156.948 105.015 157.036 106.228 157.228C108.926 157.655 111.526 158.544 114.11 159.399C114.445 159.514 114.593 158.988 114.258 158.878Z" fill="black"/>
<path d="M131.586 168.786C130.149 166.905 128.114 165.688 126.073 164.558C123.61 163.199 121.137 161.844 118.608 160.605C117.198 159.914 115.739 159.371 114.258 158.872C113.923 158.763 113.781 159.289 114.11 159.399C115.404 159.832 116.682 160.293 117.917 160.874C119.14 161.45 120.33 162.091 121.526 162.722C123.764 163.9 126.062 165.041 128.18 166.434C129.277 167.157 130.308 168.002 131.109 169.049C131.323 169.34 131.8 169.066 131.586 168.786Z" fill="black"/>
<path d="M112.898 163.462C110.182 162.459 107.264 162.272 104.396 162.387C102.953 162.448 101.505 162.557 100.079 162.744C98.817 162.908 97.4237 163.193 96.4583 164.087C95.6684 164.822 95.3613 165.995 96.1731 166.834C96.9904 167.678 98.3672 167.81 99.4643 167.92C102.465 168.221 105.482 167.744 108.488 167.991C111.658 168.254 114.752 169.258 117.489 170.875C117.796 171.056 118.07 170.579 117.763 170.404C115.52 169.077 113.04 168.155 110.473 167.7C107.725 167.218 104.982 167.437 102.207 167.47C100.814 167.486 99.371 167.459 98.0052 167.147C97.0617 166.927 95.7782 166.258 96.3541 165.085C96.9191 163.939 98.4385 163.561 99.5849 163.363C100.934 163.127 102.328 163.045 103.699 162.968C106.749 162.793 109.853 162.919 112.75 163.988C113.084 164.114 113.227 163.588 112.898 163.462Z" fill="black"/>
<path d="M117.752 170.327C116.644 169.696 115.377 169.526 114.126 169.422C112.689 169.307 111.247 169.214 109.804 169.142C106.935 169.005 104.05 169.022 101.214 169.515C100.112 169.707 98.8006 169.882 97.8901 170.606C97.0344 171.286 96.9631 172.405 97.6542 173.244C98.4715 174.236 99.8648 174.291 101.05 174.395C102.498 174.527 103.946 174.691 105.399 174.757C106.244 174.795 107.078 174.768 107.917 174.669C108.718 174.576 109.513 174.45 110.32 174.412C111.954 174.329 113.583 174.521 115.158 174.971C115.498 175.069 115.64 174.538 115.306 174.444C114.039 174.088 112.733 173.88 111.417 173.852C110.084 173.819 108.789 174.05 107.467 174.176C106.112 174.307 104.758 174.187 103.403 174.066C102.75 174.006 102.097 173.951 101.445 173.891C100.797 173.83 100.134 173.808 99.4972 173.666C98.9048 173.534 98.3179 173.277 97.9669 172.756C97.6707 172.317 97.6213 171.763 97.9559 171.325C98.6031 170.475 100.013 170.31 100.984 170.129C103.606 169.63 106.299 169.57 108.959 169.669C110.446 169.723 111.927 169.822 113.408 169.932C114.801 170.031 116.249 170.107 117.489 170.815C117.785 170.974 118.059 170.502 117.752 170.327Z" fill="black"/>
<path d="M137.62 171.643C135.48 168.106 133.023 164.783 130.659 161.395C129.633 159.92 128.684 158.269 127.22 157.178C126.682 156.778 125.678 156.295 125.207 157.063C125.026 157.354 125.048 157.71 125.108 158.034C125.207 158.555 125.371 159.064 125.519 159.574C126.145 161.702 126.978 163.758 127.785 165.825C127.911 166.149 128.443 166.006 128.311 165.677C127.648 163.988 126.967 162.305 126.402 160.583C126.123 159.733 125.843 158.867 125.651 157.99C125.558 157.562 125.618 157.101 126.183 157.239C126.572 157.337 126.929 157.633 127.225 157.891C128.542 159.026 129.436 160.616 130.423 162.025C131.509 163.572 132.606 165.112 133.681 166.664C134.877 168.386 136.045 170.124 137.132 171.917C137.329 172.224 137.801 171.95 137.62 171.643Z" fill="black"/>
<path d="M115.448 174.335C112.19 174.154 108.915 174.949 106.074 176.539C104.659 177.334 103.348 178.327 102.212 179.483C101.702 180.004 101.033 180.618 100.803 181.326C100.545 182.126 101.099 182.746 101.796 183.037C103.452 183.738 105.257 182.91 106.776 182.231C108.564 181.425 110.413 180.756 112.311 180.257C113.232 180.015 114.165 179.812 115.103 179.653C115.536 179.577 116.172 179.341 116.507 179.714C116.781 180.021 116.99 180.394 117.242 180.723C118.213 181.984 119.376 183.08 120.67 184.007C123.61 186.113 127.192 187.28 130.796 187.412C131.147 187.423 131.147 186.875 130.796 186.864C127.702 186.754 124.642 185.849 121.998 184.232C120.687 183.431 119.486 182.45 118.449 181.315C117.928 180.745 117.494 180.125 117.039 179.505C116.831 179.226 116.578 178.996 116.211 178.963C115.788 178.93 115.311 179.067 114.894 179.138C113.101 179.451 111.329 179.911 109.607 180.509C108.745 180.81 107.895 181.145 107.056 181.512C106.228 181.874 105.416 182.28 104.549 182.532C103.759 182.768 102.909 182.872 102.114 182.587C101.741 182.45 101.269 182.181 101.28 181.726C101.291 181.287 101.669 180.898 101.944 180.586C102.953 179.418 104.132 178.403 105.432 177.57C108.394 175.662 111.927 174.697 115.448 174.889C115.805 174.905 115.805 174.357 115.448 174.335Z" fill="black"/>
<path d="M130.802 187.138C138.212 186.748 146.265 186.535 153.67 186.145C160.098 185.805 166.555 185.465 172.852 184.149C179.149 182.834 185.336 180.498 190.405 176.528C192.758 174.686 194.831 172.514 196.8 170.266C198.731 168.062 200.574 165.748 201.918 163.144C203.273 160.512 204.09 157.633 204.699 154.733C206.581 145.713 206.471 136.288 204.376 127.317" stroke="black" stroke-miterlimit="10"/>
<path d="M137.291 171.9C142.781 172.438 148.278 170.968 153.445 169.038C155.973 168.09 158.464 167.031 160.833 165.737C170.482 160.479 177.931 151.311 181.101 140.789" stroke="black" stroke-miterlimit="10"/>
</g>
<defs>
<clipPath id="clip0">
<rect width="212" height="190" fill="white"/>
</clipPath>
</defs>
</svg>
